<svg xmlns="http://www.w3.org/2000/svg" view-box="0 0 24 24" enable-background="new 0 0 48 48" xml-space="preserve" role="img" height="24" width="24">
  <path d="M12 22c-2.7 0-5.2-1-7.1-2.9C3 17.2 2 14.7 2 12s1-5.2 2.9-7.1C6.8 3 9.3 2 12 2s5.2 1 7.1 2.9C21 6.8 22 9.3 22 12s-1 5.2-2.9 7.1C17.2 21 14.7 22 12 22zm0-18c-2.1 0-4.1.8-5.7 2.3S4 9.9 4 12s.8 4.1 2.3 5.7C7.9 19.2 9.9 20 12 20s4.1-.8 5.7-2.3S20 14.1 20 12s-.8-4.1-2.3-5.7S14.1 4 12 4zm4.4 6.9H13V7.4c0-.6-.4-1-1-1s-1 .4-1 1v3.4H7.6c-.6 0-1 .4-1 1s.4 1 1 1H11v3.4c0 .6.4 1 1 1s1-.4 1-1v-3.4h3.4c.6 0 1-.4 1-1s-.4-.9-1-.9z" style="fill: #0875bb"/>
</svg>