<svg xmlns="http://www.w3.org/2000/svg" id="prefix__Layer_1" x="0" y="0" height="48" width="48" view-box="0 0 48 48" enable-background="new 0 0 48 48" xml-space="preserve">
  <style>
    .prefix__st1 {
      fill: #0075be;
    }
  </style>
  <path style="fill: none" d="M0 0h48v48H0z"/>
  <path class="prefix__st1" d="M19.6 19.7c.6 0 1.2.4 1.2.8 0 .6.4 1 1 1s1-.4 1-1c0-1.2-.9-2.3-2.2-2.6v-.7c0-.6-.4-1-1-1s-1 .4-1 1v.7c-1.3.4-2.2 1.4-2.2 2.6 0 1.4 1.2 2.5 3 2.8h.1c.6.1 1.3.4 1.3.8s-.6.8-1.2.8-1.2-.4-1.2-.8c0-.6-.4-1-1-1s-1 .4-1 1c0 1.2.9 2.3 2.2 2.6v.8c0 .6.4 1 1 1s1-.4 1-1v-.8c1.3-.4 2.2-1.4 2.2-2.6 0-1.4-1.2-2.5-3-2.8h-.1c-.6-.1-1.3-.3-1.3-.8s.5-.8 1.2-.8z"/>
  <path class="prefix__st1" d="M34.8 24.5c-.6 0-1 .4-1 1v11.1c0 1.9-1.7 3.4-3.8 3.4h-.3c-.1-.1-.2-.1-.3-.2C28 39.3 27 38 27 36.5v-3.3c0-.6-.4-1-1-1H12.6V11.1h11.2c.6 0 1-.4 1-1s-.4-1-1-1H12.5c-1 0-1.9.8-1.9 1.9v21.2h-4c-.6 0-1 .4-1 1v3.3c0 2.8 2.3 5.1 5.3 5.4H30c3.2 0 5.8-2.4 5.8-5.4v-11c0-.6-.4-1-1-1zM11.5 40c-2.1 0-3.8-1.5-3.8-3.4v-2.3H25v2.3c0 1.3.5 2.5 1.2 3.4H11.5z"/>
  <path class="prefix__st1" d="M26.3 14c0 4 3 7.4 7 7.9h.1c.5 0 .9-.4 1-.9.1-.5-.3-1-.9-1.1-3-.4-5.2-2.9-5.2-6 0-1.9.9-3.6 2.4-4.8v2.1c0 .6.4 1 1 1s1-.4 1-1V7c0-.6-.4-1-1-1h-4.4c-.6 0-1 .4-1 1s.4 1 1 1H29c-1.7 1.5-2.7 3.7-2.7 6zM41.3 20h-1.7c1.7-1.5 2.7-3.7 2.7-6 0-4.1-3-7.5-7-7.9-.6-.1-1 .3-1.1.9-.1.5.3 1 .9 1.1 3 .4 5.3 2.9 5.3 6 0 1.9-.9 3.6-2.4 4.8v-2.1c0-.6-.4-1-1-1s-1 .4-1 1V21c0 .6.4 1 1 1h4.4c.6 0 1-.4 1-1s-.5-1-1.1-1z"/>
</svg>