<svg xmlns="http://www.w3.org/2000/svg" id="prefix__Layer_1" x="0" y="0" height="48" width="48" view-box="0 0 48 48" enable-background="new 0 0 48 48" xml-space="preserve">
  <style>
    .prefix__st0 {
      fill: none;
      stroke: #0075be;
      stroke-width: 2;
      stroke-linecap: round;
      stroke-linejoin: round;
      stroke-miterlimit: 10;
    }
  </style>
  <path class="prefix__st0" d="M22.4 37.3c-1.1-1.6-2.8-3.2-5.6-4.3 0 0-.1 3.7 1.6 6.6M24.2 32.5s0-6.8-7.3-9.6c-.1 0-.4 9.6 7.3 9.6zM24.2 32.5s0-6.8 7.3-9.6c0 0 .3 9.6-7.3 9.6zM24.2 12.1s-6.7 6.6 0 12.2c6.6-5.6 0-12.2 0-12.2zM24 6.8v1.7M31.2 11.8v7.3M16.5 11.8v7.3M25.6 37.3c1.1-1.6 2.8-3.2 5.6-4.3 0 0 .1 3.7-1.6 6.6"/>
</svg>