<svg xmlns="http://www.w3.org/2000/svg" view-box="0 0 48 48" enable-background="new 0 0 48 48" xml-space="preserve" height="48" width="48">
  <path d="M18.6 41.1h-.2c-.3-.1-.6-.3-.7-.6l-3.3-6.9-6.9-3.3c-.3-.1-.5-.4-.6-.7-.1-.3 0-.6.3-.9L9.8 26c.2-.2.5-.3.7-.3h6.4l4.3-4.3-12.6-4.6c-.7-.2-1.2-.8-1.3-1.5-.2-.7.1-1.4.6-1.9l1.5-1.5c.4-.4 1-.7 1.7-.6L30 12.9l5-5c1.4-1.4 3.8-1.4 5.2 0 .7.7 1.1 1.6 1.1 2.6s-.4 1.9-1.1 2.6l-5 5L36.7 37c.1.6-.2 1.2-.6 1.7l-1.5 1.5c-.5.5-1.2.7-1.9.6-.7-.2-1.3-.6-1.5-1.3l-4.7-12.6-4.3 4.1v6.4c0 .3-.1.5-.3.7l-2.7 2.7c-.1.2-.3.3-.6.3zM26.9 24h.2c.3.1.6.3.7.6L33 38.7l.9.7-.7-.7 1.5-1.5-1.6-19.4c0-.3.1-.6.3-.8l5.3-5.3c.3-.3.5-.7.5-1.2s-.2-.9-.5-1.2c-.7-.7-1.7-.7-2.4 0L31 14.6c-.2.2-.5.3-.8.3l-19.3-1.6-1.5 1.5v.2l14.1 5.2c.3.1.6.4.6.7.1.3 0 .7-.3.9l-5.7 5.7c-.2.2-.4.3-.7.3H11l-1.4 1.4 6 2.9c.2.1.4.3.5.5l2.9 6 1.4-1.4v-6.4c0-.3.1-.5.3-.7l5.7-5.7c0-.3.2-.4.5-.4z" style="fill: #0075be"/>
</svg>