<svg xmlns="http://www.w3.org/2000/svg" version="1.1" id="Layer_1" x="0px" y="0px" height="48" width="48" view-box="0 0 48 48" enable-background="new 0 0 48 48" xml-space="preserve">
  <g>
    <path fill="#0C75BC" d="M11.93,18.13c0.44-0.57,0.73-1.33,0.66-2.11c-0.63,0.03-1.42,0.43-1.87,1c-0.41,0.49-0.76,1.28-0.67,2.03 C10.77,19.12,11.48,18.68,11.93,18.13z"/>
    <path fill="#0C75BC" d="M13.98,23.01L13.98,23.01c0-0.49,0.18-0.82,0.39-1.07c0.1-0.13,0.21-0.22,0.29-0.29 c0.04-0.03,0.08-0.06,0.1-0.08s-0.03,0.03,0.09-0.06l0.57-0.43l-0.4-0.59c-0.84-1.25-2.12-1.42-2.63-1.42 c-0.61,0-1.11,0.16-1.48,0.3c-0.37,0.14-0.65,0.2-0.57,0.2c0.07,0-0.18-0.06-0.52-0.2c-0.33-0.13-0.78-0.31-1.32-0.31 c-1.23,0-2.35,0.73-2.95,1.8c-0.61,1.05-0.66,2.27-0.46,3.39c0.2,1.12,0.64,2.16,1.18,2.95c0.24,0.35,0.52,0.75,0.89,1.09 c0.37,0.34,0.89,0.64,1.5,0.64H8.7h0.01c0.49-0.02,0.85-0.18,1.08-0.27c0.23-0.09,0.35-0.14,0.64-0.14c0.29,0,0.41,0.05,0.66,0.16 c0.25,0.1,0.65,0.27,1.17,0.27c0.61,0,1.12-0.31,1.47-0.65c0.35-0.34,0.59-0.72,0.82-1.06l0,0c0.61-0.89,0.86-1.8,0.86-1.8 l0.19-0.67l-0.65-0.24C14.96,24.52,13.99,24.23,13.98,23.01z M13.31,26.38L13.31,26.38c-0.23,0.34-0.45,0.65-0.63,0.83 c-0.18,0.18-0.27,0.22-0.41,0.22c-0.23,0-0.33-0.05-0.6-0.16c-0.27-0.11-0.69-0.27-1.24-0.27c-0.53,0-0.95,0.15-1.22,0.26 c-0.26,0.1-0.36,0.15-0.55,0.16c-0.13,0-0.27-0.06-0.47-0.24c-0.21-0.19-0.44-0.49-0.66-0.82v0l0,0C7.14,25.77,6.76,24.88,6.6,24 c-0.16-0.88-0.08-1.75,0.28-2.37l0,0l0,0c0.35-0.61,1.03-1.03,1.63-1.03c0.21,0,0.46,0.08,0.75,0.2c0.29,0.12,0.57,0.31,1.08,0.31 c0.51,0,0.78-0.18,1.1-0.3c0.31-0.12,0.61-0.2,0.95-0.2c0.1,0,0.47,0.11,0.85,0.34c-0.02,0.02-0.03,0.03-0.05,0.05 c-0.37,0.45-0.74,1.15-0.74,2.06c0.01,1.37,0.71,2.04,1.28,2.45C13.65,25.73,13.61,25.94,13.31,26.38z"/>
    <path fill="#0C75BC" d="M41.17,20.58l-2.12,6.75h-0.04l-2.12-6.75h-1.88l3.05,8.32l-0.16,0.51c-0.28,0.86-0.72,1.19-1.52,1.19 c-0.14,0-0.39-0.01-0.51-0.03v1.37c0.12,0.03,0.54,0.04,0.67,0.04c1.75,0,2.58-0.66,3.3-2.66L43,20.58H41.17z"/>
    <path fill="#0C75BC" d="M23.02,17.54h-4.33v11.4h1.8v-3.8h2.47c2.27,0,3.89-1.58,3.89-3.8C26.85,19.12,25.25,17.54,23.02,17.54z M22.58,23.62h-2.09v-4.56h2.09c1.56,0,2.47,0.84,2.47,2.28C25.05,22.78,24.14,23.62,22.58,23.62z"/>
    <path fill="#0C75BC" d="M30.99,20.58c-1.89,0-3.29,1.06-3.34,2.52h1.6c0.13-0.69,0.79-1.15,1.69-1.15c1.09,0,1.7,0.5,1.7,1.42 l0,0.63l-2.23,0.12c-2.07,0.12-3.19,0.95-3.19,2.4c0,1.46,1.16,2.43,2.81,2.43c1.12,0,2.16-0.56,2.63-1.44h0.04v1.35h1.65v-5.6 C34.35,21.63,33.03,20.58,30.99,20.58z M32.64,25.8c0,1.05-0.91,1.8-2.12,1.8c-0.95,0-1.55-0.45-1.55-1.13 c0-0.71,0.58-1.12,1.69-1.18l1.98-0.15L32.64,25.8z"/>
  </g>
</svg>