<svg xmlns="http://www.w3.org/2000/svg" version="1.1" x="0" y="0" height="48" width="48" view-box="0 0 48 48">
  <circle cx="26.6" cy="21" r="9.7" fill="#fff" stroke="#0875bb" stroke-width="1.9" stroke-linecap="round" stroke-linejoin="round" stroke-miterlimit="10"/>
  <path fill="none" stroke="#0875bb" stroke-width="1.9" stroke-linecap="round" stroke-linejoin="round" stroke-miterlimit="10" d="M24.5 34.4c-1.5 2-3.9 3.2-6.6 3.2-4.6 0-8.3-3.7-8.3-8.3 0-2.8 1.4-5.4 3.7-6.8M15.9 9.9C10.6 12.6 7.6 19 7.6 19"/>
  <path fill="none" stroke="#0875bb" stroke-width="1.9" stroke-linecap="round" stroke-linejoin="round" stroke-miterlimit="10" d="M11.3 9.4h4.6v4.5M32.1 38.1c5.3-2.7 8.3-9.1 8.3-9.1"/>
  <path fill="none" stroke="#0875bb" stroke-width="1.9" stroke-linecap="round" stroke-linejoin="round" stroke-miterlimit="10" d="M36.7 38.6h-4.6v-4.5"/>
  <path fill="#0875bb" d="M26.4 29.6zM26.6 25.2c-1.6 0-3-1-3-2.4 0-.4.4-.9.9-.9.4 0 .9.4.9.9 0 .3.5.7 1.3.7s1.3-.3 1.3-.7-.5-.6-1.3-.7h-.1c-1.7-.3-2.8-1.2-2.8-2.4 0-1.4 1.3-2.4 3-2.4s3 1 3 2.4c0 .4-.4.9-.9.9s-.9-.4-.9-.9c0-.3-.5-.7-1.3-.7s-1.3.3-1.3.7c0 .3.5.6 1.3.7h.1c1.7.3 2.8 1.2 2.8 2.4-.1 1.4-1.4 2.4-3 2.4z"/>
  <path fill="#0875bb" d="M26.6 26.6c-.4 0-.9-.4-.9-.9v-.9c0-.4.4-.9.9-.9s.9.4.9.9v.9c-.1.5-.4.9-.9.9zM26.6 18.5c-.4 0-.9-.4-.9-.9v-.9c0-.5.4-.9.9-.9s.9.3.9.9v.9c-.1.5-.4.9-.9.9z"/>
</svg>