<svg xmlns="http://www.w3.org/2000/svg" width="48" height="48" view-box="0 0 48 48" fill="none">
  <path d="M37.2784 5.67756C40.5888 7.05207 42.7449 10.2858 42.7409 13.8703C42.7356 18.5147 39.1575 22.3211 34.6083 22.6908L36.2308 27.3603C36.2693 27.4661 36.2896 27.5777 36.2908 27.6903V40.6903C36.3214 41.3942 36.0593 42.0794 35.5668 42.5832C35.0743 43.0871 34.3953 43.3647 33.6909 43.3503H32.0609C31.3567 43.3727 30.6746 43.1028 30.1764 42.6047C29.6783 42.1065 29.4084 41.4244 29.4308 40.7203V40.0903H11.8809V40.7203C11.9061 41.4235 11.6386 42.1057 11.142 42.6042C10.6453 43.1027 9.96416 43.3729 9.26085 43.3503H7.64085C6.93583 43.3757 6.25199 43.1068 5.75314 42.608C5.2543 42.1091 4.98539 41.4253 5.01085 40.7203V27.7203C4.99638 27.6107 4.99638 27.4998 5.01085 27.3903L8.48085 17.5903C8.93119 16.1942 10.2443 15.2592 11.7109 15.2903L25.1366 15.2906C24.6824 12.5148 25.5722 9.63668 27.6194 7.59176C30.1554 5.0586 33.9679 4.30305 37.2784 5.67756ZM34.0408 27.0603H7.29085L7.01085 27.8603V40.7203C6.98298 40.8944 7.04032 41.0714 7.16503 41.1961C7.28974 41.3208 7.4667 41.3781 7.64085 41.3503H9.27085C9.44342 41.3745 9.61729 41.3156 9.73952 41.1914C9.86176 41.0672 9.9179 40.8924 9.89085 40.7203V39.0903C9.89082 38.5419 10.3325 38.0957 10.8809 38.0903H30.4308C30.9831 38.0903 31.4308 38.538 31.4308 39.0903V40.7203C31.4074 40.8935 31.4662 41.0677 31.5898 41.1913C31.7134 41.3149 31.8876 41.3737 32.0609 41.3503H33.6909C33.8641 41.3737 34.0383 41.3149 34.1619 41.1913C34.2855 41.0677 34.3443 40.8935 34.3208 40.7203V27.8603L34.0408 27.0603ZM30.9288 28.5419C32.2192 29.0753 33.0609 30.334 33.0609 31.7303C33.0394 33.6228 31.5133 35.1533 29.6208 35.1803C28.2246 35.1843 26.9635 34.3463 26.4263 33.0575C25.8892 31.7686 26.1819 30.2831 27.1678 29.2943C28.1537 28.3055 29.6384 28.0085 30.9288 28.5419ZM13.0188 28.5419C14.3092 29.0753 15.1509 30.334 15.1509 31.7303C15.1294 33.6228 13.6033 35.1533 11.7109 35.1803C10.3146 35.1843 9.05349 34.3463 8.51634 33.0575C7.9792 31.7686 8.27189 30.2831 9.25779 29.2943C10.2437 28.3055 11.7284 28.0085 13.0188 28.5419ZM29.6208 30.2903C29.0326 30.2862 28.5002 30.638 28.2732 31.1807C28.0462 31.7235 28.1696 32.3495 28.5856 32.7655C29.0016 33.1815 29.6276 33.3049 30.1704 33.0779C30.7131 32.8509 31.0649 32.3185 31.0609 31.7303C31.0197 30.9577 30.3941 30.3451 29.6208 30.3203V30.2903ZM11.7109 30.2903C11.1226 30.2862 10.5902 30.638 10.3632 31.1807C10.1362 31.7235 10.2596 32.3495 10.6756 32.7655C11.0916 33.1815 11.7176 33.3049 12.2604 33.0779C12.8031 32.8509 13.1549 32.3185 13.1509 31.7303C13.1097 30.9577 12.4841 30.3451 11.7109 30.3203V30.2903ZM10.3809 18.2403L7.99085 25.0603H33.3408L32.4647 22.6067C29.4798 22.1241 26.9072 20.1371 25.712 17.2909L11.7109 17.2903C11.099 17.2538 10.5448 17.6496 10.3809 18.2403ZM33.8808 7.01026C30.0922 7.01026 27.0208 10.0816 27.0208 13.8703C27.0208 14.5475 27.119 15.2019 27.3018 15.8199C27.358 15.9215 27.3956 16.035 27.4118 16.1554C28.3522 18.8208 30.8935 20.7303 33.8808 20.7303C37.6695 20.7303 40.7409 17.6589 40.7409 13.8703C40.7409 10.0816 37.6695 7.01026 33.8808 7.01026ZM33.9308 8.77026C34.4831 8.77026 34.9308 9.21797 34.9308 9.77026L34.9308 10.1178C35.3124 10.2185 35.6714 10.4015 35.981 10.6585C36.5447 11.1264 36.8976 11.8005 36.9609 12.5303C36.9609 13.0825 36.5131 13.5303 35.9609 13.5303C35.4086 13.5303 34.9609 13.0825 34.9609 12.5303C34.9609 12.3503 34.5909 12.0403 33.9609 12.0403C33.3309 12.0403 32.9609 12.3603 32.9609 12.5303C32.9609 12.7003 33.2709 12.9203 34.0309 13.0203C36.1909 13.3103 36.9308 14.4903 36.9308 15.5103C36.8676 16.2401 36.5147 16.9141 35.951 17.382C35.6496 17.6322 35.3012 17.8123 34.9309 17.9146L34.9308 18.3303C34.9308 18.8825 34.4831 19.3303 33.9308 19.3303C33.3786 19.3303 32.9308 18.8825 32.9308 18.3303L32.9307 17.9146C32.5604 17.8123 32.2121 17.6322 31.9107 17.382C31.347 16.9141 30.9941 16.2401 30.9308 15.5103C30.9308 15.153 31.1214 14.8229 31.4308 14.6442C31.7402 14.4656 32.1214 14.4656 32.4308 14.6442C32.7402 14.8229 32.9308 15.153 32.9308 15.5103C32.9308 15.6803 33.3008 16.0003 33.9308 16.0003C34.5608 16.0003 34.9308 15.6803 34.9308 15.5103C34.9308 15.3403 34.6208 15.1203 33.8608 15.0203C31.6908 14.7303 30.9608 13.5403 30.9608 12.5303C31.0241 11.8005 31.377 11.1264 31.9407 10.6585C32.2339 10.4152 32.5714 10.2381 32.9304 10.1345L32.9308 9.77026C32.9308 9.21797 33.3786 8.77026 33.9308 8.77026Z" fill="#0075BE"/>
</svg>