<svg xmlns="http://www.w3.org/2000/svg" view-box="0 0 48 48" height="48" width="48">
  <defs>
    <style>
      .prefix__a {
        fill: #0075be;
      }
    </style>
  </defs>
  <path class="prefix__a" d="M24 42a17.91 17.91 0 0 1-12.74-5.28A18 18 0 1 1 24 42Zm-11.31-6.68a16 16 0 1 0 0-22.63 16 16 0 0 0 0 22.63Z"/>
  <path class="prefix__a" d="M35 38a1 1 0 0 1-1-1v-1.46a2.15 2.15 0 0 0-1.15-1.91l-3.95-2.14a3.32 3.32 0 0 1-1.76-2.94v-2.48a1 1 0 0 1 .24-.64l.08-.11.08-.08v-.07l.22-.31.12-.2c.1-.16.2-.34.3-.53l.15-.32.18-.43a1.28 1.28 0 0 1 .11-.33c0-.12.1-.34.13-.47v-.18a1 1 0 0 1 .44-.62l.16-.1V19.8c-.05-.08-.1-.16-.16-.24l-.13-.08a1 1 0 0 1-.47-.85v-3.37a.88.88 0 0 1 .08-.39 2.48 2.48 0 0 0-.57-1.35A10.88 10.88 0 0 0 24.59 12h-1.18a11.2 11.2 0 0 0-3.64 1.47 2.35 2.35 0 0 0-.56 1.38.9.9 0 0 1 .08.36v3.31a1 1 0 0 1-.48.85l-.13.08-.15.23v2h.11a1 1 0 0 1 .44.62v.18a1.78 1.78 0 0 0 .1.38 3.4 3.4 0 0 0 .15.42l.15.38c.07.16.13.27.18.37s.19.37.28.52l.14.21c.08.13.15.23.21.31l.22.28a1 1 0 0 1 .23.64v2.48A3.33 3.33 0 0 1 19 31.42l-4 2.14a2.15 2.15 0 0 0-1.15 1.91v1.41a1 1 0 0 1-2 0v-1.34A4.18 4.18 0 0 1 14 31.87l4-2.14a1.34 1.34 0 0 0 .7-1.18v-2.13l-.08-.1c-.08-.1-.16-.22-.26-.37l-.14-.22v-.09l-.31-.64c-.06-.13-.13-.27-.19-.41L17.5 24c-.06-.14-.11-.29-.16-.44s0-.1 0-.11l-.09-.31a1.87 1.87 0 0 1-.69-1.46v-2.22a1 1 0 0 1 .12-.49 4.81 4.81 0 0 1 .64-.91v-2.43a1 1 0 0 1-.09-.33 4.48 4.48 0 0 1 1.07-3.11c1-1.1 3.9-1.89 4.78-2.11H25c.87.22 3.8 1 4.77 2.11a4.46 4.46 0 0 1 1.07 3.11.9.9 0 0 1-.08.36v2.4a4.76 4.76 0 0 1 .63.91 1.05 1.05 0 0 1 .13.49v2.25a1.88 1.88 0 0 1-.7 1.46 1.11 1.11 0 0 1-.08.3v.12l-.22.42-.2.49c-.09.19-.15.33-.22.45s-.23.44-.36.65l-.17.27-.26.38-.08.1v2.13a1.32 1.32 0 0 0 .71 1.18l4 2.14A4.15 4.15 0 0 1 36 35.54V37a1 1 0 0 1-1 1Z"/>
</svg>