<svg xmlns="http://www.w3.org/2000/svg" view-box="0 0 48 48" height="48" width="48" enable-background="new 0 0 48 48" xml-space="preserve" role="img">
  <defs>
    <filter id="prefix__a" filterUnits="userSpaceOnUse" x="7.5" y="5.8" width="33" height="36.5">
      <feColorMatrix values="1 0 0 0 0 0 1 0 0 0 0 0 1 0 0 0 0 0 1 0"/>
    </filter>
  </defs>
  <mask maskUnits="userSpaceOnUse" x="7.5" y="5.8" width="33" height="36.5" id="prefix__b">
    <path d="M39.5 26.7H39v-5.5c0-.6-.4-1-1-1h-.1l1.6-2.2c.4-.5.6-1.2.5-1.9-.1-.7-.5-1.3-1-1.7l-7.1-5-3.2-2.2-1.4-1c-.6-.4-1.3-.5-1.9-.3-.7.1-1.2.5-1.6 1.1l-9.2 13.2H8.5c-.6 0-1 .4-1 1v20c0 .6.4 1 1 1H38c.6 0 1-.4 1-1v-5.5h.5c.6 0 1-.4 1-1v-7c0-.5-.4-1-1-1zm-1 2v5h-8c-1.1 0-2-.6-2-1.3V30c0-.7.9-1.3 2-1.3h8zm-.7-11.9-2.4 3.4h-9.9l6-8.6 6.3 4.4c.2.2.3.5 0 .8zm-7.9-6.3-6.8 9.7h-2.3l7.6-10.8 1.5 1.1zm-4.5-2.4c.1-.2.3-.3.4-.3h.3l.6.4-8.4 12H17l8.4-12.1zM37 22.2v4.5h-6.5c-2.2 0-4 1.5-4 3.3v2.3c0 1.8 1.8 3.3 4 3.3H37v4.5H9.5v-18H37zm-5 8c.6 0 1 .4 1 1s-.4 1-1 1-1-.4-1-1c0-.5.4-1 1-1z" style="fill: #fff; filter: url(#prefix__a)"/>
  </mask>
  <g style="mask: url(#prefix__b)">
    <path d="M39.5 26.7H39v-5.5c0-.6-.4-1-1-1h-.1l1.6-2.2c.4-.5.6-1.2.5-1.9-.1-.7-.5-1.3-1-1.7l-7.1-5-3.2-2.2-1.4-1c-.6-.4-1.3-.5-1.9-.3-.7.1-1.2.5-1.6 1.1l-9.2 13.2H8.5c-.6 0-1 .4-1 1v20c0 .6.4 1 1 1H38c.6 0 1-.4 1-1v-5.5h.5c.6 0 1-.4 1-1v-7c0-.5-.4-1-1-1zm-1 2v5h-8c-1.1 0-2-.6-2-1.3V30c0-.7.9-1.3 2-1.3h8zm-.7-11.9-2.4 3.4h-9.9l6-8.6 6.3 4.4c.2.2.3.5 0 .8zm-7.9-6.3-6.8 9.7h-2.3l7.6-10.8 1.5 1.1zm-4.5-2.4c.1-.2.3-.3.4-.3h.3l.6.4-8.4 12H17l8.4-12.1zM37 22.2v4.5h-6.5c-2.2 0-4 1.5-4 3.3v2.3c0 1.8 1.8 3.3 4 3.3H37v4.5H9.5v-18H37zm-5 8c.6 0 1 .4 1 1s-.4 1-1 1-1-.4-1-1c0-.5.4-1 1-1z" style="fill: #0075be"/>
  </g>
</svg>