<svg height="196" viewBox="0 0 240 200" preserveAspectRatio="xMidYMid meet" xmlns="http://www.w3.org/2000/svg" focusable="false" api="[object Object]" class="cc-hmc-bird icon--hmc-illustration-3" data-di-res-id="71036e39-e1f7aeb3" data-di-rand="1703379422034"><path d="M72.4,166.48c-2.34,0-4.09-2.23-4.12-4.86L67,55.48v-.07c0-2.66,1.76-4.94,4.13-4.94h2.81c2.37.05,4.09,2.35,4.06,5L76.62,161.62c0,2.63-1.78,4.86-4.13,4.86Z" style="fill:#fff"></path><path d="M72.4,166.48c-2.28,0-4.09-2.14-4.12-4.86L67,55.48c0-2.79,1.85-5,4.13-5h2.74c2.38.05,4.16,2.25,4.13,5L76.62,161.62c0,2.72-1.84,4.86-4.13,4.86Z" style="fill:none;stroke:#001928;stroke-width:3px"></path><path d="M72,165.48c1.63,0,2.58-1.5,2.6-3.49L76,56.18c0-2-1.29-3.67-2.94-3.7h0Z" style="fill:#c1e7ff"></path><path d="M83.67,132.09l34.84,60.43a3.3,3.3,0,1,1-5.71,3.3L76.12,132.18H69.78L33.1,195.82a3.3,3.3,0,1,1-5.71-3.3l34.83-60.43-.84-6.71a1.49,1.49,0,0,1,0-.21,1.7,1.7,0,0,1,1.69-1.7h19.8l.21,0a1.69,1.69,0,0,1,1.46,1.89Z" style="fill:#fff"></path><path d="M83.67,132.09l34.84,60.43a3.3,3.3,0,1,1-5.71,3.3L76.12,132.18H69.78L33.1,195.82a3.3,3.3,0,1,1-5.71-3.3l34.83-60.43-.84-6.71a1.49,1.49,0,0,1,0-.21,1.7,1.7,0,0,1,1.69-1.7h19.8l.21,0a1.69,1.69,0,0,1,1.46,1.89Z" style="fill:none;stroke:#0079c1;stroke-width:3px"></path><path d="M63,131H83" style="fill:none;stroke:#005587;stroke-linecap:round;stroke-width:3px"></path><path d="M67.21,90.47l.48,32" style="fill:none;stroke:#73c3eb;stroke-linecap:round;stroke-width:3px"></path><path d="M84,132.48l32,55" style="fill:none;stroke:#73c3eb;stroke-linecap:round;stroke-width:3px"></path><path d="M67,135.48l-34,58" style="fill:none;stroke:#73c3eb;stroke-linecap:round;stroke-width:3px"></path><polygon points="52.95 63.81 102.42 87.47 116.95 62.41 71.11 32.48 52.95 63.81" style="fill:#fff"></polygon><polygon points="52.95 63.81 102.42 87.47 116.95 62.41 71.11 32.48 52.95 63.81" style="fill:none;stroke:#000;stroke-linecap:round;stroke-linejoin:round;stroke-width:3px"></polygon><path d="M72,33.48l38,25" style="fill:none;stroke:#005587;stroke-linecap:round;stroke-width:3px"></path><polygon points="54.95 62.98 101.29 85.47 109.95 70.34 66.11 44.48 54.95 62.98" style="fill:#c1e7ff"></polygon><path d="M130.36,100.45l6.87,4L148,85.61l-6.87-4a.81.81,0,0,0-1.12.3l-9.9,17.42a.84.84,0,0,0,.3,1.14" style="fill:#fff"></path><path d="M130.36,100.45l6.87,4L148,85.61l-6.87-4a.81.81,0,0,0-1.12.3l-9.9,17.42A.84.84,0,0,0,130.36,100.45Z" style="fill:none;stroke:#73c3eb;stroke-linecap:round;stroke-linejoin:round;stroke-width:3px"></path><polygon points="139.02 87.47 143.95 90.4 137.03 102.47 131.95 99.35 139.02 87.47" style="fill:#c1e7ff"></polygon><path d="M7.64,42.58l43,24.89L73,28.83l-43-24.9A3.36,3.36,0,0,0,25.3,5.17L6.4,38a3.39,3.39,0,0,0,1.24,4.62" style="fill:#fff"></path><path d="M7.64,42.58l43,24.89L73,28.83l-43-24.9A3.36,3.36,0,0,0,25.3,5.17L6.4,38A3.39,3.39,0,0,0,7.64,42.58Z" style="fill:none;stroke:#0079c1;stroke-linecap:round;stroke-linejoin:round;stroke-width:3px"></path><path d="M8.79,41.36,50.35,65.47,62,44.87,18.1,21.48,8.17,39.07a1.68,1.68,0,0,0,.62,2.29" style="fill:#c1e7ff"></path><path d="M35,8.47l-21,37" style="fill:none;stroke:#005587;stroke-linecap:round;stroke-width:3px"></path><path d="M33,11.48l-8-4" style="fill:none;stroke:#005587;stroke-linecap:round;stroke-width:3px"></path><path d="M21,31.48l-7-4" style="fill:none;stroke:#005587;stroke-linecap:round;stroke-width:3px"></path><path d="M26,21.48l-7-4" style="fill:none;stroke:#005587;stroke-linecap:round;stroke-width:3px"></path><path d="M24,26.48l-7-4" style="fill:none;stroke:#0079c1;stroke-linecap:round;stroke-width:3px"></path><path d="M15,41.47l-7-4" style="fill:none;stroke:#005587;stroke-linecap:round;stroke-width:3px"></path><path d="M30,16.48l-7-4" style="fill:none;stroke:#0079c1;stroke-linecap:round;stroke-width:3px"></path><path d="M19,36.47l-7-4" style="fill:none;stroke:#0079c1;stroke-linecap:round;stroke-width:3px"></path><path d="M72,45.47l-11,20" style="fill:none;stroke:#73c3eb;stroke-linecap:round;stroke-width:3px"></path><polyline points="97.73 85.47 101.95 78.14 90.44 71.47 85.95 79.63" style="fill:none;stroke:#005587;stroke-linecap:round;stroke-width:3px"></polyline><polygon points="115.49 64.47 139.95 82.2 130.55 98.47 102.95 86.17 115.49 64.47" style="fill:#fff"></polygon><polygon points="115.49 64.47 139.95 82.2 130.55 98.47 102.95 86.17 115.49 64.47" style="fill:none;stroke:#005587;stroke-linecap:round;stroke-linejoin:round;stroke-width:3px"></polygon><polyline points="133.85 77.47 139.95 82.01 130.78 98.47 117.95 92.54" style="fill:none;stroke:#0079c1;stroke-linecap:round;stroke-linejoin:round;stroke-width:3px"></polyline><path d="M139.7,83.27a1.5,1.5,0,1,0-.55-2,1.49,1.49,0,0,0,.55,2" style="fill:#001928"></path><polygon points="114.33 71.47 136.95 84.94 130.43 96.47 105.95 85.56 114.33 71.47" style="fill:#c1e7ff"></polygon><path d="M131,81.47l-6,11" style="fill:none;stroke:#73c3eb;stroke-linecap:round;stroke-width:3px"></path><polyline points="143.95 93.47 137.1 104.47 131.95 101.65" style="fill:none;stroke:#0079c1;stroke-linecap:round;stroke-width:3px"></polyline><polyline points="7.95 42.48 51.44 67.47 64.95 44.25" style="fill:none;stroke:#005587;stroke-linecap:round;stroke-linejoin:round;stroke-width:3px"></polyline><path d="M67,160.48l-18,8" style="fill:none;stroke:#0079c1;stroke-linecap:round;stroke-width:3px"></path><path d="M77,161.48l20,8" style="fill:none;stroke:#005587;stroke-linecap:round;stroke-width:3px"></path><path d="M76.25,160.48l.4-26" style="fill:none;stroke:#005587;stroke-linecap:round;stroke-width:3px"></path><path d="M221.3,100.36l.23-1.12a5.26,5.26,0,0,1,1.2.39l.05,0a5.46,5.46,0,0,1,2.65,7.28v0L199.6,161.1a3.76,3.76,0,0,1-1.66,1.73l-.59-1.12,1.16.52a5.5,5.5,0,0,1-5,3.25H133.36a4.4,4.4,0,0,1-3.89-6.48l1.41-2.64a5.52,5.52,0,0,1,4.27-2.88q20.58-2.19,30.19-2.2,8.81,0,26.83,1.84l-1.27.72L206,122.17l1.14.55-.91.87-.49-.51a5.47,5.47,0,0,1-1.11-5.93l6.89-16.32a5.51,5.51,0,0,1,7.18-2.93l3.14,1.3,1.14.47-.44,1.15,0,.09-.22-.11-.05,0a4.53,4.53,0,0,0-.92-.31l0-.1Z" style="fill:#c1e7ff"></path><path d="M133.36,165.48a4.4,4.4,0,0,1-3.89-6.48l1.41-2.64a5.5,5.5,0,0,1,4.27-2.88c13.66-1.46,23.81-2.2,30.19-2.2,5.69,0,14.41.59,25.94,1.75L205.59,123a5.46,5.46,0,0,1-1-5.81l6.9-16.32a5.48,5.48,0,0,1,7.18-2.93l4.27,1.77,0,0a5.5,5.5,0,0,1,2.52,7.22L199.61,161.1a3.81,3.81,0,0,1-1.28,1.5,5.52,5.52,0,0,1-4.84,2.88Z" style="fill:none;stroke:#0079c1;stroke-width:3px"></path><path d="M132,165.48h63.33a8.91,8.91,0,0,0,2.78-2.14q.34-.69,12.89-27.86" style="fill:none;stroke:#001928;stroke-linecap:round;stroke-width:3px"></path><path d="M141.85,197.48a2.92,2.92,0,0,1-1.62-.5,2.88,2.88,0,0,1-.79-4L175.14,140l.38-.56H184l-1.3,2-36.18,54.69a3,3,0,0,1-2.49,1.34Z" style="fill:#fff"></path><polygon points="181.5 141.56 180.96 142.39 181.94 142.39 181.5 141.56" style="fill:#fff"></polygon><polygon points="179.96 140.39 180.94 140.39 180.5 139.56 179.96 140.39" style="fill:#fff"></polygon><path d="M141.85,197.48a2.89,2.89,0,0,1-2.41-4.51l36.08-53.49H184l-37.48,56.66a3,3,0,0,1-2.49,1.34Z" style="fill:none;stroke:#73c3eb;stroke-width:3px"></path><path d="M160,162.48l-20,30" style="fill:none;stroke:#005587;stroke-linecap:round;stroke-width:3px"></path><path d="M143,195.48h2a1.67,1.67,0,0,0,1.39-.76L182,140.48Z" style="fill:#c1e7ff"></path><path d="M149.85,140.75H149l.37-.7Zm-1.15.57.46.7h-.84Zm39.35,56.16a2.92,2.92,0,0,0,1.62-.5,2.88,2.88,0,0,0,.79-4L154.76,140l-.38-.56H146l1.3,2,36.18,54.69a3,3,0,0,0,2.49,1.34Z" style="fill:#fff"></path><path d="M185.92,197.48a3,3,0,0,1-2.49-1.34L146,139.48h8.43L190.46,193a2.88,2.88,0,0,1-.79,4,2.84,2.84,0,0,1-1.62.5Z" style="fill:none;stroke:#0079c1;stroke-width:3px"></path><path d="M188.24,195.48h-.45l-33.84-55,35.71,52.38a1.66,1.66,0,0,1-.46,2.33,1.74,1.74,0,0,1-1,.29" style="fill:#c1e7ff"></path><path d="M154,150.48l29,44" style="fill:none;stroke:#001928;stroke-linecap:round;stroke-width:3px"></path><path d="M158,145.48l28,41" style="fill:none;stroke:#005587;stroke-linecap:round;stroke-width:3px"></path><path d="M140.25,138.32l.29-.49a4.86,4.86,0,0,1,4.17-2.35h41.1a4,4,0,0,1,3.75,2.53l.24.61a2.08,2.08,0,0,1-1.17,2.71,2,2,0,0,1-.77.15H142a2.1,2.1,0,0,1-2.09-2.09,2.06,2.06,0,0,1,.3-1.07" style="fill:#c1e7ff"></path><path d="M142,141.48a2.1,2.1,0,0,1-2.09-2.09,2.06,2.06,0,0,1,.3-1.07l.29-.49a4.88,4.88,0,0,1,4.17-2.35h41.1a4,4,0,0,1,3.75,2.53l.24.61a2.07,2.07,0,0,1,0,1.6,2.09,2.09,0,0,1-1.15,1.11,2.2,2.2,0,0,1-.77.15Z" style="fill:none;stroke:#0079c1;stroke-width:3px"></path><path d="M142,141h47" style="fill:none;stroke:#005587;stroke-linecap:round;stroke-width:3px"></path><path d="M204.48,118.47a6.22,6.22,0,0,0,.11,2.52,5.81,5.81,0,0,0,1.36,2.06l-12,25.43" style="fill:none;stroke:#73c3eb;stroke-linecap:round;stroke-width:3px"></path><path d="M205,122.47l2,2" style="fill:none;stroke:#005587;stroke-linecap:round;stroke-width:3px"></path><path d="M191,153.48a9.9,9.9,0,0,0,.94,3.26,12.62,12.62,0,0,0,3.06,2.74" style="fill:none;stroke:#73c3eb;stroke-linecap:round;stroke-width:3px"></path><path d="M190.45,154.48A1.5,1.5,0,1,0,189,153a1.5,1.5,0,0,0,1.5,1.5" style="fill:#001928"></path><path d="M162.5,126.47l1.41.24,1,6.77,3.25-6L188,126.25s-6-2.23-9.46-6.23-9.72-10.32-9.72-10.32l.28-9.66a4.12,4.12,0,0,0-3.52-4.49,4.2,4.2,0,0,0-4.88,3l-.37,1.11L153,100.93l5.77,2.91-3.57,11.26c-1.64,5.15,2.45,10.52,7.35,11.37" style="fill:#fff"></path><path d="M162.5,126.47l1.41.24,1,6.77,3.25-6L188,126.25s-6-2.23-9.46-6.23-9.72-10.32-9.72-10.32l.28-9.66a4.12,4.12,0,0,0-3.52-4.49,4.2,4.2,0,0,0-4.88,3l-.37,1.11L153,100.93l5.77,2.91-3.57,11.26C153.51,120.25,157.6,125.62,162.5,126.47Z" style="fill:none;stroke:#005587;stroke-linecap:round;stroke-linejoin:round;stroke-width:3px"></path><path d="M168,127.35l-3.31,6.13-.82-6.71a27.26,27.26,0,0,1-4.12-1.51,10.21,10.21,0,0,1-3.67-4c-.89-1.65-1.23-2.92-1-3.82" style="fill:none;stroke:#001928;stroke-linecap:round;stroke-linejoin:round;stroke-width:3px"></path><path d="M169.3,101.47c0,2.21,0,3.78-.12,4.72-.13,1.41-.48,3.41.07,4.13,1.22,1.6,4.06,4,5.66,5.74,3.32,3.74,3.07,3.69,4.66,5.15a50.1,50.1,0,0,0,7.38,5.26" style="fill:none;stroke:#0079c1;stroke-linecap:round;stroke-width:3px"></path><path d="M164.18,101.45a1.51,1.51,0,0,0,1.74-1.22,1.46,1.46,0,0,0-1.2-1.73A1.51,1.51,0,0,0,163,99.72a1.46,1.46,0,0,0,1.2,1.73" style="fill:#0079c1"></path><path d="M15,198H69" style="fill:none;stroke:#73c3eb;stroke-linecap:round;stroke-width:3px"></path><path d="M26,198h78" style="fill:none;stroke:#005587;stroke-linecap:round;stroke-width:3px"></path><path d="M102,198H235" style="fill:none;stroke:#73c3eb;stroke-linecap:round;stroke-width:3px"></path><path d="M135,198h63" style="fill:none;stroke:#0079c1;stroke-linecap:round;stroke-width:3px"></path></svg>