<svg xmlns="http://www.w3.org/2000/svg" viewBox="0 0 235 174" width="235" height="174" preserveAspectRatio="xMidYMid meet" style="width: 100%;height: 100%;transform: translate3d(0px, 0px, 0px);" data-di-rand="1703279783155"><defs><clipPath id="__lottie_element_132"><rect width="235" height="174" x="0" y="0"></rect></clipPath><mask id="__lottie_element_170" mask-type="alpha"><g transform="matrix(0.7799999713897705,0,0,0.7699999809265137,113.4749984741211,87.68499755859375)" opacity="1" style="display: block;"><g opacity="1" transform="matrix(1,0,0,1,-13.75,9.5)"><path fill="rgb(255,255,255)" fill-opacity="1" d=" M0,-20.91200065612793 C-11.548999786376953,-20.91200065612793 -20.91200065612793,-11.548999786376953 -20.91200065612793,0 C-20.91200065612793,11.548999786376953 -11.548999786376953,20.91200065612793 0,20.91200065612793 C11.548999786376953,20.91200065612793 20.91200065612793,11.548999786376953 20.91200065612793,0 C20.91200065612793,-11.548999786376953 11.548999786376953,-20.91200065612793 0,-20.91200065612793z"></path><path stroke-linecap="butt" stroke-linejoin="miter" fill-opacity="0" stroke-miterlimit="4" stroke="rgb(0,84,135)" stroke-opacity="1" stroke-width="0" d=" M0,-20.91200065612793 C-11.548999786376953,-20.91200065612793 -20.91200065612793,-11.548999786376953 -20.91200065612793,0 C-20.91200065612793,11.548999786376953 -11.548999786376953,20.91200065612793 0,20.91200065612793 C11.548999786376953,20.91200065612793 20.91200065612793,11.548999786376953 20.91200065612793,0 C20.91200065612793,-11.548999786376953 11.548999786376953,-20.91200065612793 0,-20.91200065612793z"></path></g></g></mask><clipPath id="__lottie_element_174"><path d="M0,0 L235,0 L235,174 L0,174z"></path></clipPath></defs><g clip-path="url(#__lottie_element_132)"><g transform="matrix(1,0,0,1,-5,-10)" opacity="1" style="display: block;"><g opacity="1" transform="matrix(1,0,0,1,0,0)"><path stroke-linecap="round" stroke-linejoin="round" fill-opacity="0" stroke="rgb(115,195,235)" stroke-opacity="1" stroke-width="3" d=" M144.86000061035156,85.79000091552734 C144.86000061035156,85.79000091552734 144.86000061035156,142.5469970703125 144.86000061035156,142.5469970703125"></path></g><g opacity="1" transform="matrix(1,0,0,1,108.09600067138672,146.56399536132812)"><path fill="rgb(193,231,255)" fill-opacity="1" d=" M-23.972999572753906,-3 C-23.972999572753906,-3 42.49800109863281,-3 42.49800109863281,-3 C43.909000396728516,-3 45.053001403808594,-2.5350000858306885 45.053001403808594,-1.9609999656677246 C45.053001403808594,-1.9609999656677246 45.053001403808594,1.9609999656677246 45.053001403808594,1.9609999656677246 C45.053001403808594,2.5350000858306885 43.909000396728516,3 42.49800109863281,3 C42.49800109863281,3 -42.49800109863281,3 -42.49800109863281,3 C-43.909000396728516,3 -45.053001403808594,2.5350000858306885 -45.053001403808594,1.9609999656677246 C-45.053001403808594,1.9609999656677246 -45.053001403808594,-1.9609999656677246 -45.053001403808594,-1.9609999656677246 C-45.053001403808594,-2.5350000858306885 -43.909000396728516,-3 -42.49800109863281,-3 C-42.49800109863281,-3 -23.972999572753906,-3 -23.972999572753906,-3z"></path></g><g opacity="1" transform="matrix(1,0,0,1,113.1259994506836,169.3300018310547)"><path fill="rgb(193,231,255)" fill-opacity="1" d=" M-2.8359999656677246,10.920000076293945 C-2.8359999656677246,10.920000076293945 2.8350000381469727,10.920000076293945 2.8350000381469727,10.920000076293945 C2.8350000381469727,10.920000076293945 2.8350000381469727,-10.920000076293945 2.8350000381469727,-10.920000076293945 C2.8350000381469727,-10.920000076293945 -2.8359999656677246,-10.920000076293945 -2.8359999656677246,-10.920000076293945 C-2.8359999656677246,-10.920000076293945 -2.8359999656677246,10.920000076293945 -2.8359999656677246,10.920000076293945z"></path></g><g opacity="1" transform="matrix(1,0,0,1,108.50199890136719,169.31300354003906)"><path stroke-linecap="round" stroke-linejoin="round" fill-opacity="0" stroke="rgb(0,24,40)" stroke-opacity="1" stroke-width="3" d=" M-8.378000259399414,-12.010000228881836 C-8.378000259399414,-12.010000228881836 8.378000259399414,-12.010000228881836 8.378000259399414,-12.010000228881836 C8.378000259399414,-12.010000228881836 8.378000259399414,12.010000228881836 8.378000259399414,12.010000228881836"></path></g><g opacity="1" transform="matrix(1,0,0,1,108.50199890136719,169.31399536132812)"><path stroke-linecap="round" stroke-linejoin="round" fill-opacity="0" stroke="rgb(0,120,194)" stroke-opacity="1" stroke-width="3" d=" M8.378000259399414,12.01099967956543 C8.378000259399414,12.01099967956543 -8.378000259399414,12.01099967956543 -8.378000259399414,12.01099967956543 C-8.378000259399414,12.01099967956543 -8.378000259399414,-12.010000228881836 -8.378000259399414,-12.010000228881836"></path></g><g opacity="1" transform="matrix(1,0,0,1,125.81099700927734,58.07600021362305)"><path stroke-linecap="round" stroke-linejoin="round" fill-opacity="0" stroke="rgb(0,120,194)" stroke-opacity="1" stroke-width="3" d=" M-23.538000106811523,-14.803000450134277 C-23.538000106811523,-14.803000450134277 -17.71500015258789,-20.625999450683594 -17.71500015258789,-20.625999450683594 C-17.71500015258789,-20.625999450683594 23.538000106811523,20.625999450683594 23.538000106811523,20.625999450683594"></path></g><g opacity="1" transform="matrix(1,0,0,1,0,0)"><path stroke-linecap="round" stroke-linejoin="round" fill-opacity="0" stroke="rgb(115,195,235)" stroke-opacity="1" stroke-width="3" d=" M71.23300170898438,142.5469970703125 C71.23300170898438,142.5469970703125 93.66400146484375,142.5469970703125 93.66400146484375,142.5469970703125"></path></g><g opacity="1" transform="matrix(1,0,0,1,108.09600067138672,99.05999755859375)"><path stroke-linecap="round" stroke-linejoin="round" fill-opacity="0" stroke="rgb(0,120,194)" stroke-opacity="1" stroke-width="3" d=" M-36.763999938964844,42.505001068115234 C-36.763999938964844,42.505001068115234 -36.763999938964844,-5.494999885559082 -36.763999938964844,-5.494999885559082 C-36.763999938964844,-5.494999885559082 0,-42.505001068115234 0,-42.505001068115234 C0,-42.505001068115234 36.763999938964844,-23.95400047302246 36.763999938964844,-23.95400047302246"></path></g><g opacity="1" transform="matrix(1,0,0,1,78.88899993896484,71.41400146484375)"><path stroke-linecap="round" stroke-linejoin="round" fill-opacity="0" stroke="rgb(115,195,235)" stroke-opacity="1" stroke-width="3" d=" M2.4000000953674316,11.958999633789062 C2.4000000953674316,11.958999633789062 -12.517999649047852,26.881000518798828 -12.517999649047852,26.881000518798828 C-13.770000457763672,28.132999420166016 -15.79800033569336,28.141000747680664 -17.059999465942383,26.89900016784668 C-17.059999465942383,26.89900016784668 -22.100000381469727,21.93899917602539 -22.100000381469727,21.93899917602539 C-23.375999450683594,20.683000564575195 -23.384000778198242,18.62700080871582 -22.118000030517578,17.361000061035156 C-22.118000030517578,17.361000061035156 23.385000228881836,-28.141000747680664 23.385000228881836,-28.141000747680664"></path></g><g opacity="1" transform="matrix(1,0,0,1,81.80000305175781,78.05599975585938)"><path stroke-linecap="round" stroke-linejoin="round" fill-opacity="0" stroke="rgb(0,84,134)" stroke-opacity="1" stroke-width="3" d=" M26.29599952697754,-21.5 C26.29599952697754,-21.5 26.29599952697754,-21.5 26.29599952697754,-21.5 C26.29599952697754,-21.5 -15.428999900817871,20.23900032043457 -15.428999900817871,20.23900032043457 C-16.680999755859375,21.490999221801758 -18.708999633789062,21.5 -19.97100067138672,20.257999420166016 C-19.97100067138672,20.257999420166016 -25.01099967956543,15.29699993133545 -25.01099967956543,15.29699993133545 C-26.28700065612793,14.041999816894531 -26.29599952697754,11.986000061035156 -25.030000686645508,10.720000267028809"></path></g><g opacity="1" transform="matrix(1,0,0,1,134.90899658203125,69.00299835205078)"><path fill="rgb(193,231,255)" fill-opacity="1" d=" M-26.812000274658203,-12.447999954223633 C-26.812000274658203,-12.447999954223633 -26.812000274658203,-12.447999954223633 -26.812000274658203,-12.447999954223633 C-26.812000274658203,-12.447999954223633 17.173999786376953,31.55299949645996 17.173999786376953,31.55299949645996 C17.173999786376953,31.55299949645996 26.812000274658203,22.06999969482422 26.812000274658203,22.06999969482422 C26.812000274658203,22.06999969482422 -26.812000274658203,-31.55299949645996 -26.812000274658203,-31.55299949645996 C-26.812000274658203,-31.55299949645996 -26.812000274658203,-12.447999954223633 -26.812000274658203,-12.447999954223633z"></path></g><g opacity="1" transform="matrix(1,0,0,1,94.69200134277344,69.96399688720703)"><path stroke-linecap="round" stroke-linejoin="round" fill-opacity="0" stroke="rgb(0,84,134)" stroke-opacity="1" stroke-width="3" d=" M13.404000282287598,-13.409000396728516 C13.404000282287598,-13.409000396728516 -13.404000282287598,13.409000396728516 -13.404000282287598,13.409000396728516"></path></g><g opacity="1" transform="matrix(1,0,0,1,134.39300537109375,78.05599975585938)"><path stroke-linecap="round" stroke-linejoin="round" fill-opacity="0" stroke="rgb(0,120,194)" stroke-opacity="1" stroke-width="3" d=" M14.956999778747559,0.6470000147819519 C14.956999778747559,0.6470000147819519 25.02899932861328,10.720000267028809 25.02899932861328,10.720000267028809 C26.29599952697754,11.986000061035156 26.28700065612793,14.041999816894531 25.01099967956543,15.29699993133545 C25.01099967956543,15.29699993133545 19.97100067138672,20.257999420166016 19.97100067138672,20.257999420166016 C18.708999633789062,21.5 16.680999755859375,21.490999221801758 15.428999900817871,20.23900032043457 C15.428999900817871,20.23900032043457 -26.29599952697754,-21.5 -26.29599952697754,-21.5"></path></g><g opacity="1" transform="matrix(1,0,0,1,127.41699981689453,59.47999954223633)"><path stroke-linecap="round" stroke-linejoin="round" fill-opacity="0" stroke="rgb(0,120,194)" stroke-opacity="1" stroke-width="3" d=" M-24.73900032043457,-16.611000061035156 C-24.73900032043457,-16.611000061035156 -19.320999145507812,-22.02899932861328 -19.320999145507812,-22.02899932861328 C-19.320999145507812,-22.02899932861328 24.73900032043457,22.02899932861328 24.73900032043457,22.02899932861328"></path></g><g opacity="1" transform="matrix(1,0,0,1,107.88800048828125,105.56400299072266)"><path fill="rgb(193,231,255)" fill-opacity="1" d=" M16.82699966430664,0.0010000000474974513 C16.82699966430664,8.973999977111816 9.291999816894531,16.246999740600586 -0.0010000000474974513,16.246999740600586 C-9.293999671936035,16.246999740600586 -16.82699966430664,8.973999977111816 -16.82699966430664,0.0010000000474974513 C-16.82699966430664,-8.972000122070312 -9.293999671936035,-16.246999740600586 -0.0010000000474974513,-16.246999740600586 C9.291999816894531,-16.246999740600586 16.82699966430664,-8.972000122070312 16.82699966430664,0.0010000000474974513z"></path></g><g opacity="1" transform="matrix(1,0,0,1,95.28399658203125,104.41100311279297)"><path stroke-linecap="round" stroke-linejoin="round" fill-opacity="0" stroke="rgb(0,121,193)" stroke-opacity="1" stroke-width="3" d=" M2.5,14.972999572753906 C-2.0269999504089355,11.85200023651123 -4.994999885559082,6.629000186920166 -4.994999885559082,0.7139999866485596 C-4.994999885559082,-6.229000091552734 -0.906000018119812,-12.217000007629395 4.994999885559082,-14.972999572753906"></path></g><g opacity="1" transform="matrix(1,0,0,1,112.58999633789062,96.4729995727539)"><path stroke-linecap="round" stroke-linejoin="round" fill-opacity="0" stroke="rgb(115,195,235)" stroke-opacity="1" stroke-width="3" d=" M-12.312000274658203,-7.034999847412109 C-10.09000015258789,-8.072999954223633 -7.610000133514404,-8.652999877929688 -4.995999813079834,-8.652999877929688 C4.561999797821045,-8.652999877929688 12.310999870300293,-0.9049999713897705 12.310999870300293,8.652999877929688"></path></g><g opacity="1" transform="matrix(1,0,0,1,111.34300231933594,113.77899932861328)"><path stroke-linecap="round" stroke-linejoin="round" fill-opacity="0" stroke="rgb(115,195,235)" stroke-opacity="1" stroke-width="3" d=" M13.559000015258789,-8.654000282287598 C13.559000015258789,0.9039999842643738 5.809999942779541,8.654000282287598 -3.746999979019165,8.654000282287598 C-7.389999866485596,8.654000282287598 -10.770999908447266,7.5269999504089355 -13.559000015258789,5.605000019073486"></path></g><g opacity="1" transform="matrix(1,0,0,1,108.09600067138672,149.9250030517578)"><path stroke-linecap="round" stroke-linejoin="round" fill-opacity="0" stroke="rgb(0,83,134)" stroke-opacity="1" stroke-width="3" d=" M-23.972999572753906,-7.377999782562256 C-23.972999572753906,-7.377999782562256 42.49800109863281,-7.377999782562256 42.49800109863281,-7.377999782562256 C43.909000396728516,-7.377999782562256 45.053001403808594,-6.234000205993652 45.053001403808594,-4.822999954223633 C45.053001403808594,-4.822999954223633 45.053001403808594,4.822000026702881 45.053001403808594,4.822000026702881 C45.053001403808594,6.232999801635742 43.909000396728516,7.377999782562256 42.49800109863281,7.377999782562256 C42.49800109863281,7.377999782562256 -42.49800109863281,7.377999782562256 -42.49800109863281,7.377999782562256 C-43.909000396728516,7.377999782562256 -45.053001403808594,6.232999801635742 -45.053001403808594,4.822000026702881 C-45.053001403808594,4.822000026702881 -45.053001403808594,-4.822999954223633 -45.053001403808594,-4.822999954223633 C-45.053001403808594,-6.234000205993652 -43.909000396728516,-7.377999782562256 -42.49800109863281,-7.377999782562256 C-42.49800109863281,-7.377999782562256 -23.972999572753906,-7.377999782562256 -23.972999572753906,-7.377999782562256z"></path></g><g opacity="1" transform="matrix(1,0,0,1,123.40699768066406,149.9250030517578)"><path stroke-linecap="round" stroke-linejoin="round" fill-opacity="0" stroke="rgb(115,195,235)" stroke-opacity="1" stroke-width="3" d=" M-29.743000030517578,-7.377999782562256 C-29.743000030517578,-7.377999782562256 27.187999725341797,-7.377999782562256 27.187999725341797,-7.377999782562256 C28.599000930786133,-7.377999782562256 29.743000030517578,-6.234000205993652 29.743000030517578,-4.822999954223633 C29.743000030517578,-4.822999954223633 29.743000030517578,4.822000026702881 29.743000030517578,4.822000026702881 C29.743000030517578,6.232999801635742 28.599000930786133,7.377999782562256 27.187999725341797,7.377999782562256"></path></g></g><g transform="matrix(1,0,0,1,17.50368309020996,27.68400001525879)" opacity="1" style="display: block;"><g opacity="1" transform="matrix(1,0,0,1,0,0)"><path fill="rgb(255,255,255)" fill-opacity="1" d=" M11.907999992370605,-1.3370000123977661 C14.307999610900879,-0.4569999873638153 16.007999420166016,1.7130000591278076 16.007999420166016,4.243000030517578 C16.007999420166016,4.243000030517578 16.007999420166016,4.4039998054504395 16.007999420166016,4.4039998054504395 C16.007999420166016,7.714000225067139 13.086999893188477,10.404000282287598 9.496999740600586,10.404000282287598 C9.496999740600586,10.404000282287598 -0.003000000026077032,10.404000282287598 -0.003000000026077032,10.404000282287598 C-0.003000000026077032,10.404000282287598 -9.503000259399414,10.404000282287598 -9.503000259399414,10.404000282287598 C-13.093000411987305,10.404000282287598 -16.003000259399414,7.714000225067139 -16.003000259399414,4.4039998054504395 C-16.003000259399414,4.4039998054504395 -16.003000259399414,4.243000030517578 -16.003000259399414,4.243000030517578 C-16.003000259399414,1.593000054359436 -14.152000427246094,-0.6470000147819519 -11.571999549865723,-1.4470000267028809 C-11.592000007629395,-1.7070000171661377 -11.61299991607666,-1.9769999980926514 -11.61299991607666,-2.246999979019165 C-11.61299991607666,-6.747000217437744 -8.032999992370605,-10.406000137329102 -3.61299991607666,-10.406000137329102 C-1.1030000448226929,-10.406000137329102 1.128000020980835,-9.236000061035156 2.5980000495910645,-7.395999908447266 C3.3480000495910645,-7.685999870300293 4.168000221252441,-7.8460001945495605 5.01800012588501,-7.8460001945495605 C8.657999992370605,-7.8460001945495605 11.637999534606934,-4.9770002365112305 11.907999992370605,-1.3370000123977661"></path></g></g><g transform="matrix(1,0,0,1,17.328683853149414,28.295000076293945)" opacity="1" style="display: block;"><g opacity="1" transform="matrix(1,0,0,1,0,0)"><path fill="rgb(193,231,255)" fill-opacity="1" d=" M-5.3379998207092285,-10.22700023651123 C-5.3379998207092285,-10.22700023651123 -10.407999992370605,-0.8370000123977661 -5.3379998207092285,4.692999839782715 C-0.257999986410141,10.222999572753906 12.20199966430664,7.993000030517578 16.871999740600586,3.2829999923706055 C16.871999740600586,3.2829999923706055 16.531999588012695,10.222999572753906 9.342000007629395,10.222999572753906 C9.342000007629395,10.222999572753906 -10.208000183105469,10.222999572753906 -10.208000183105469,10.222999572753906 C-15.157999992370605,10.222999572753906 -21.238000869750977,0.902999997138977 -12.288000106811523,-2.937000036239624 C-12.288000106811523,-2.937000036239624 -11.767999649047852,-10.237000465393066 -5.3379998207092285,-10.22700023651123"></path></g></g><g transform="matrix(1,0,0,1,212.0037841796875,36.73099899291992)" opacity="1" style="display: block;"><g opacity="1" transform="matrix(1,0,0,1,0,0)"><path fill="rgb(255,255,255)" fill-opacity="1" d=" M-15.440999984741211,-1.7359999418258667 C-18.551000595092773,-0.5860000252723694 -20.750999450683594,2.2239999771118164 -20.750999450683594,5.504000186920166 C-20.750999450683594,5.504000186920166 -20.750999450683594,5.714000225067139 -20.750999450683594,5.714000225067139 C-20.750999450683594,10.013999938964844 -16.972000122070312,13.494000434875488 -12.321999549865723,13.494000434875488 C-12.321999549865723,13.494000434875488 -0.0010000000474974513,13.494000434875488 -0.0010000000474974513,13.494000434875488 C-0.0010000000474974513,13.494000434875488 12.317999839782715,13.494000434875488 12.317999839782715,13.494000434875488 C16.97800064086914,13.494000434875488 20.749000549316406,10.013999938964844 20.749000549316406,5.714000225067139 C20.749000549316406,5.714000225067139 20.749000549316406,5.504000186920166 20.749000549316406,5.504000186920166 C20.749000549316406,2.0739998817443848 18.347999572753906,-0.8460000157356262 15.008000373840332,-1.8760000467300415 C15.038000106811523,-2.2160000801086426 15.059000015258789,-2.555999994277954 15.059000015258789,-2.9059998989105225 C15.059000015258789,-8.755999565124512 10.407999992370605,-13.496000289916992 4.677999973297119,-13.496000289916992 C1.437999963760376,-13.496000289916992 -1.4620000123977661,-11.97599983215332 -3.371999979019165,-9.595999717712402 C-4.3420000076293945,-9.965999603271484 -5.4019999504089355,-10.175999641418457 -6.51200008392334,-10.175999641418457 C-11.222000122070312,-10.175999641418457 -15.090999603271484,-6.455999851226807 -15.440999984741211,-1.7359999418258667"></path></g></g><g transform="matrix(1,0,0,1,212.0037841796875,38.39399719238281)" opacity="1" style="display: block;"><g opacity="1" transform="matrix(1,0,0,1,0,0)"><path fill="rgb(193,231,255)" fill-opacity="1" d=" M-9.571999549865723,2.937999963760376 C-4.8420000076293945,9.32800006866455 3.2679998874664307,10.536999702453613 13.697999954223633,7.10699987411499 C16.54800033569336,6.177000045776367 18.257999420166016,3.2869999408721924 20.447999954223633,1.746999979019165 C20.648000717163086,2.4170000553131104 20.74799919128418,3.117000102996826 20.74799919128418,3.8369998931884766 C20.74799919128418,3.8369998931884766 20.74799919128418,4.047999858856201 20.74799919128418,4.047999858856201 C20.74799919128418,8.347999572753906 16.97800064086914,11.82699966430664 12.317999839782715,11.82699966430664 C12.317999839782715,11.82699966430664 -0.0020000000949949026,11.82699966430664 -0.0020000000949949026,11.82699966430664 C-0.0020000000949949026,11.82699966430664 -12.321999549865723,11.82699966430664 -12.321999549865723,11.82699966430664 C-16.972000122070312,11.82699966430664 -20.75200080871582,8.347999572753906 -20.75200080871582,4.047999858856201 C-20.75200080871582,4.047999858856201 -20.75200080871582,3.8369998931884766 -20.75200080871582,3.8369998931884766 C-20.75200080871582,0.5569999814033508 -18.552000045776367,-2.253000020980835 -15.432000160217285,-3.3929998874664307 C-15.092000007629395,-8.032999992370605 -11.35200023651123,-11.713000297546387 -6.751999855041504,-11.833000183105469 C-9.831999778747559,-8.322999954223633 -12.501999855041504,-1.0219999551773071 -9.571999549865723,2.937999963760376"></path></g></g><g transform="matrix(1,0,0,1,212.0037841796875,36.73099899291992)" opacity="1" style="display: block;"><g opacity="1" transform="matrix(1,0,0,1,0,0)"><path stroke-linecap="round" stroke-linejoin="miter" fill-opacity="0" stroke-miterlimit="4" stroke="rgb(111,192,235)" stroke-opacity="1" stroke-width="3" d=" M-15.440999984741211,-1.7359999418258667 C-18.551000595092773,-0.5860000252723694 -20.750999450683594,2.2239999771118164 -20.750999450683594,5.504000186920166 C-20.750999450683594,5.504000186920166 -20.750999450683594,5.714000225067139 -20.750999450683594,5.714000225067139 C-20.750999450683594,10.013999938964844 -16.972000122070312,13.494000434875488 -12.321999549865723,13.494000434875488 C-12.321999549865723,13.494000434875488 -0.0010000000474974513,13.494000434875488 -0.0010000000474974513,13.494000434875488 C-0.0010000000474974513,13.494000434875488 12.317999839782715,13.494000434875488 12.317999839782715,13.494000434875488 C16.97800064086914,13.494000434875488 20.749000549316406,10.013999938964844 20.749000549316406,5.714000225067139 C20.749000549316406,5.714000225067139 20.749000549316406,5.504000186920166 20.749000549316406,5.504000186920166 C20.749000549316406,2.0739998817443848 18.347999572753906,-0.8460000157356262 15.008000373840332,-1.8760000467300415 C15.038000106811523,-2.2160000801086426 15.059000015258789,-2.555999994277954 15.059000015258789,-2.9059998989105225 C15.059000015258789,-8.755999565124512 10.407999992370605,-13.496000289916992 4.677999973297119,-13.496000289916992 C1.437999963760376,-13.496000289916992 -1.4620000123977661,-11.97599983215332 -3.371999979019165,-9.595999717712402 C-4.3420000076293945,-9.965999603271484 -5.4019999504089355,-10.175999641418457 -6.51200008392334,-10.175999641418457 C-11.222000122070312,-10.175999641418457 -15.090999603271484,-6.455999851226807 -15.440999984741211,-1.7359999418258667z"></path></g></g><g transform="matrix(1,0,0,1,182.28500366210938,20.80299949645996)" opacity="1" style="display: block;"><g opacity="1" transform="matrix(1,0,0,1,0,0)"><path fill="rgb(255,255,255)" fill-opacity="1" d=" M20.93600082397461,-2.3529999256134033 C25.1560001373291,-0.8029999732971191 28.145000457763672,3.006999969482422 28.145000457763672,7.4670000076293945 C28.145000457763672,7.4670000076293945 28.145000457763672,7.747000217437744 28.145000457763672,7.747000217437744 C28.145000457763672,13.57699966430664 23.025999069213867,18.30699920654297 16.70599937438965,18.30699920654297 C16.70599937438965,18.30699920654297 -0.004999999888241291,18.30699920654297 -0.004999999888241291,18.30699920654297 C-0.004999999888241291,18.30699920654297 -16.70400047302246,18.30699920654297 -16.70400047302246,18.30699920654297 C-23.02400016784668,18.30699920654297 -28.145000457763672,13.57699966430664 -28.145000457763672,7.747000217437744 C-28.145000457763672,7.747000217437744 -28.145000457763672,7.4670000076293945 -28.145000457763672,7.4670000076293945 C-28.145000457763672,2.806999921798706 -24.885000228881836,-1.1430000066757202 -20.354999542236328,-2.552999973297119 C-20.395000457763672,-3.003000020980835 -20.415000915527344,-3.4730000495910645 -20.415000915527344,-3.943000078201294 C-20.415000915527344,-11.873000144958496 -14.11400032043457,-18.30299949645996 -6.343999862670898,-18.30299949645996 C-1.944000005722046,-18.30299949645996 1.9859999418258667,-16.243000030517578 4.565999984741211,-13.012999534606934 C5.895999908447266,-13.52299976348877 7.326000213623047,-13.803000450134277 8.826000213623047,-13.803000450134277 C15.22599983215332,-13.803000450134277 20.465999603271484,-8.753000259399414 20.93600082397461,-2.3529999256134033"></path></g></g><g transform="matrix(1,0,0,1,182.2860107421875,23.05900001525879)" opacity="1" style="display: block;"><g opacity="1" transform="matrix(1,0,0,1,0,0)"><path fill="rgb(193,231,255)" fill-opacity="1" d=" M20.93600082397461,-4.607999801635742 C25.1560001373291,-3.058000087738037 28.145000457763672,0.7519999742507935 28.145000457763672,5.211999893188477 C28.145000457763672,5.211999893188477 28.145000457763672,5.48199987411499 28.145000457763672,5.48199987411499 C28.145000457763672,11.321999549865723 23.025999069213867,16.052000045776367 16.70599937438965,16.052000045776367 C16.70599937438965,16.052000045776367 -0.004999999888241291,16.052000045776367 -0.004999999888241291,16.052000045776367 C-0.004999999888241291,16.052000045776367 -16.70400047302246,16.052000045776367 -16.70400047302246,16.052000045776367 C-23.02400016784668,16.052000045776367 -28.145000457763672,11.321999549865723 -28.145000457763672,5.48199987411499 C-28.145000457763672,5.48199987411499 -28.145000457763672,5.211999893188477 -28.145000457763672,5.211999893188477 C-28.145000457763672,4.2220001220703125 -28.0049991607666,3.2720000743865967 -27.725000381469727,2.371999979019165 C-24.764999389648438,4.452000141143799 -22.434999465942383,8.371999740600586 -18.584999084472656,9.642000198364258 C-4.434999942779541,14.291999816894531 6.554999828338623,12.652000427246094 12.975000381469727,3.9820001125335693 C16.954999923706055,-1.3980000019073486 13.336000442504883,-11.277999877929688 9.156000137329102,-16.04800033569336 C15.395999908447266,-15.878000259399414 20.47599983215332,-10.89799976348877 20.93600082397461,-4.607999801635742"></path></g></g><g transform="matrix(1,0,0,1,182.28500366210938,20.80299949645996)" opacity="1" style="display: block;"><g opacity="1" transform="matrix(1,0,0,1,0,0)"><path stroke-linecap="round" stroke-linejoin="miter" fill-opacity="0" stroke-miterlimit="4" stroke="rgb(111,192,235)" stroke-opacity="1" stroke-width="3" d=" M20.93600082397461,-2.3529999256134033 C25.1560001373291,-0.8029999732971191 28.145000457763672,3.006999969482422 28.145000457763672,7.4670000076293945 C28.145000457763672,7.4670000076293945 28.145000457763672,7.747000217437744 28.145000457763672,7.747000217437744 C28.145000457763672,13.57699966430664 23.025999069213867,18.30699920654297 16.70599937438965,18.30699920654297 C16.70599937438965,18.30699920654297 -0.004999999888241291,18.30699920654297 -0.004999999888241291,18.30699920654297 C-0.004999999888241291,18.30699920654297 -16.70400047302246,18.30699920654297 -16.70400047302246,18.30699920654297 C-23.02400016784668,18.30699920654297 -28.145000457763672,13.57699966430664 -28.145000457763672,7.747000217437744 C-28.145000457763672,7.747000217437744 -28.145000457763672,7.4670000076293945 -28.145000457763672,7.4670000076293945 C-28.145000457763672,2.806999921798706 -24.885000228881836,-1.1430000066757202 -20.354999542236328,-2.552999973297119 C-20.395000457763672,-3.003000020980835 -20.415000915527344,-3.4730000495910645 -20.415000915527344,-3.943000078201294 C-20.415000915527344,-11.873000144958496 -14.11400032043457,-18.30299949645996 -6.343999862670898,-18.30299949645996 C-1.944000005722046,-18.30299949645996 1.9859999418258667,-16.243000030517578 4.565999984741211,-13.012999534606934 C5.895999908447266,-13.52299976348877 7.326000213623047,-13.803000450134277 8.826000213623047,-13.803000450134277 C15.22599983215332,-13.803000450134277 20.465999603271484,-8.753000259399414 20.93600082397461,-2.3529999256134033z"></path></g></g><g transform="matrix(0.9999893307685852,-0.0046159992925822735,0.0046159992925822735,0.9999893307685852,20.32112693786621,125.13780212402344)" opacity="1" style="display: block;"><g opacity="1" transform="matrix(1,0,0,1,0,0)"><path fill="rgb(193,231,255)" fill-opacity="1" d=" M0.9200000166893005,25.139999389648438 C-13.890000343322754,25.049999237060547 -12.140000343322754,12.529999732971191 -12.140000343322754,0.5799999833106995 C-12.140000343322754,-11.369999885559082 -8.15999984741211,-25.280000686645508 -1.6200000047683716,-25.139999389648438 C4.920000076293945,-25 11.319999694824219,-8.989999771118164 11.550000190734863,-0.6100000143051147 C11.789999961853027,7.769999980926514 15.739999771118164,25.229999542236328 0.9200000166893005,25.139999389648438"></path></g></g><g transform="matrix(0.9999893307685852,-0.0046159992925822735,0.0046159992925822735,0.9999893307685852,20.32112693786621,125.13780212402344)" opacity="1" style="display: block;"><g opacity="1" transform="matrix(1,0,0,1,0,0)"><path stroke-linecap="round" stroke-linejoin="miter" fill-opacity="0" stroke-miterlimit="4" stroke="rgb(0,84,134)" stroke-opacity="1" stroke-width="3" d=" M0.9200000166893005,25.139999389648438 C-13.890000343322754,25.049999237060547 -12.140000343322754,12.529999732971191 -12.140000343322754,0.5799999833106995 C-12.140000343322754,-11.369999885559082 -8.15999984741211,-25.280000686645508 -1.6200000047683716,-25.139999389648438 C4.920000076293945,-25 11.319999694824219,-8.989999771118164 11.550000190734863,-0.6100000143051147 C11.789999961853027,7.769999980926514 15.739999771118164,25.229999542236328 0.9200000166893005,25.139999389648438z"></path></g></g><g transform="matrix(0.9999893307685852,-0.0046159992925822735,0.0046159992925822735,0.9999893307685852,19.826597213745117,139.9722442626953)" opacity="1" style="display: block;"><g opacity="1" transform="matrix(1,0,0,1,0,0)"><path stroke-linecap="round" stroke-linejoin="miter" fill-opacity="0" stroke-miterlimit="4" stroke="rgb(0,84,134)" stroke-opacity="1" stroke-width="3" d=" M-1.3329999446868896,-22.15399932861328 C0.15700000524520874,-12.803999900817871 1.0069999694824219,-5.824999809265137 1.2269999980926514,-1.225000023841858 C1.4570000171661377,3.375 1.3170000314712524,11.166000366210938 0.8169999718666077,22.1560001373291"></path></g></g><g transform="matrix(0.9999893307685852,-0.0046159992925822735,0.0046159992925822735,0.9999893307685852,17.373367309570312,135.37852478027344)" opacity="1" style="display: block;"><g opacity="1" transform="matrix(1,0,0,1,0,0)"><path stroke-linecap="round" stroke-linejoin="miter" fill-opacity="0" stroke-miterlimit="4" stroke="rgb(0,84,134)" stroke-opacity="1" stroke-width="3" d=" M3.2730000019073486,4.630000114440918 C0.22300000488758087,2.690000057220459 -1.5069999694824219,1.2400000095367432 -1.9270000457763672,0.28999999165534973 C-2.3469998836517334,-0.6600000262260437 -2.796999931335449,-2.299999952316284 -3.2769999504089355,-4.630000114440918"></path></g></g><g transform="matrix(0.9999893307685852,-0.0046159992925822735,0.0046159992925822735,0.9999893307685852,22.532997131347656,126.83760833740234)" opacity="1" style="display: block;"><g opacity="1" transform="matrix(1,0,0,1,0,0)"><path stroke-linecap="round" stroke-linejoin="miter" fill-opacity="0" stroke-miterlimit="4" stroke="rgb(0,84,134)" stroke-opacity="1" stroke-width="3" d=" M2.259999990463257,-3.361999988555908 C1.8799999952316284,-1.4819999933242798 1.468999981880188,-0.2720000147819519 1.0490000247955322,0.257999986410141 C0.4690000116825104,0.9879999756813049 -0.6299999952316284,2.0179998874664307 -2.259999990463257,3.3580000400543213"></path></g></g><g transform="matrix(1,0.000012552444786706474,-0.000012552444786706474,1,204.22549438476562,93.78400421142578)" opacity="1" style="display: block;"><g opacity="1" transform="matrix(1,0,0,1,0,0)"><path fill="rgb(255,255,255)" fill-opacity="1" d=" M-0.9620000123977661,26.3799991607666 C14.57800006866455,26.290000915527344 12.73799991607666,13.149999618530273 12.73799991607666,0.6100000143051147 C12.73799991607666,-11.920000076293945 8.567999839782715,-26.530000686645508 1.6979999542236328,-26.3799991607666 C-5.1620001792907715,-26.229999542236328 -11.871999740600586,-9.430000305175781 -12.121999740600586,-0.6399999856948853 C-12.362000465393066,8.149999618530273 -16.511999130249023,26.469999313354492 -0.9620000123977661,26.3799991607666"></path></g></g><g transform="matrix(1,0.000012552444786706474,-0.000012552444786706474,1,204.22549438476562,93.78400421142578)" opacity="1" style="display: block;"><g opacity="1" transform="matrix(1,0,0,1,0,0)"><path stroke-linecap="round" stroke-linejoin="miter" fill-opacity="0" stroke-miterlimit="4" stroke="rgb(0,84,134)" stroke-opacity="1" stroke-width="3" d=" M-0.9620000123977661,26.3799991607666 C14.57800006866455,26.290000915527344 12.73799991607666,13.149999618530273 12.73799991607666,0.6100000143051147 C12.73799991607666,-11.920000076293945 8.567999839782715,-26.530000686645508 1.6979999542236328,-26.3799991607666 C-5.1620001792907715,-26.229999542236328 -11.871999740600586,-9.430000305175781 -12.121999740600586,-0.6399999856948853 C-12.362000465393066,8.149999618530273 -16.511999130249023,26.469999313354492 -0.9620000123977661,26.3799991607666z"></path></g></g><g transform="matrix(1,0.000012552444786706474,-0.000012552444786706474,1,204.81629943847656,109.34801483154297)" opacity="1" style="display: block;"><g opacity="1" transform="matrix(1,0,0,1,0,0)"><path stroke-linecap="round" stroke-linejoin="miter" fill-opacity="0" stroke-miterlimit="4" stroke="rgb(0,84,134)" stroke-opacity="1" stroke-width="3" d=" M1.4019999504089355,-23.24799919128418 C-0.15800000727176666,-13.437999725341797 -1.0579999685287476,-6.118000030517578 -1.2879999876022339,-1.2879999876022339 C-1.527999997138977,3.5420000553131104 -1.378000020980835,11.711999893188477 -0.8479999899864197,23.25200080871582"></path></g></g><g transform="matrix(1,0,0,1,17.50368309020996,27.68400001525879)" opacity="1" style="display: block;"><g opacity="1" transform="matrix(1,0,0,1,0,0)"><path stroke-linecap="round" stroke-linejoin="round" fill-opacity="0" stroke="rgb(115,195,235)" stroke-opacity="1" stroke-width="3" d=" M11.907999992370605,-1.3370000123977661 C14.307999610900879,-0.4569999873638153 16.007999420166016,1.7130000591278076 16.007999420166016,4.243000030517578 C16.007999420166016,4.243000030517578 16.007999420166016,4.4039998054504395 16.007999420166016,4.4039998054504395 C16.007999420166016,7.714000225067139 13.086999893188477,10.404000282287598 9.496999740600586,10.404000282287598 C9.496999740600586,10.404000282287598 -0.003000000026077032,10.404000282287598 -0.003000000026077032,10.404000282287598 C-0.003000000026077032,10.404000282287598 -9.503000259399414,10.404000282287598 -9.503000259399414,10.404000282287598 C-13.093000411987305,10.404000282287598 -16.003000259399414,7.714000225067139 -16.003000259399414,4.4039998054504395 C-16.003000259399414,4.4039998054504395 -16.003000259399414,4.243000030517578 -16.003000259399414,4.243000030517578 C-16.003000259399414,1.593000054359436 -14.152000427246094,-0.6470000147819519 -11.571999549865723,-1.4470000267028809 C-11.592000007629395,-1.7070000171661377 -11.61299991607666,-1.9769999980926514 -11.61299991607666,-2.246999979019165 C-11.61299991607666,-6.747000217437744 -8.032999992370605,-10.406000137329102 -3.61299991607666,-10.406000137329102 C-1.1030000448226929,-10.406000137329102 1.128000020980835,-9.236000061035156 2.5980000495910645,-7.395999908447266 C3.3480000495910645,-7.685999870300293 4.168000221252441,-7.8460001945495605 5.01800012588501,-7.8460001945495605 C8.657999992370605,-7.8460001945495605 11.637999534606934,-4.9770002365112305 11.907999992370605,-1.3370000123977661z"></path></g></g><g transform="matrix(1,0.000012552444786706474,-0.000012552444786706474,1,207.36935424804688,104.51504516601562)" opacity="1" style="display: block;"><g opacity="1" transform="matrix(1,0,0,1,0,0)"><path stroke-linecap="round" stroke-linejoin="miter" fill-opacity="0" stroke-miterlimit="4" stroke="rgb(0,84,134)" stroke-opacity="1" stroke-width="3" d=" M-3.438999891281128,4.8520002365112305 C-0.23899999260902405,2.822000026702881 1.5809999704360962,1.3029999732971191 2.0209999084472656,0.30300000309944153 C2.4709999561309814,-0.6970000267028809 2.940999984741211,-2.4170000553131104 3.440999984741211,-4.85699987411499"></path></g></g><g transform="matrix(1,0.000012552444786706474,-0.000012552444786706474,1,201.9124755859375,95.5789794921875)" opacity="1" style="display: block;"><g opacity="1" transform="matrix(1,0,0,1,0,0)"><path stroke-linecap="round" stroke-linejoin="miter" fill-opacity="0" stroke-miterlimit="4" stroke="rgb(0,84,134)" stroke-opacity="1" stroke-width="3" d=" M-2.371999979019165,-3.5269999504089355 C-1.9620000123977661,-1.5570000410079956 -1.5420000553131104,-0.2879999876022339 -1.1019999980926514,0.2619999945163727 C-0.492000013589859,1.031999945640564 0.6679999828338623,2.122999906539917 2.368000030517578,3.5329999923706055"></path></g></g><g mask="url(#__lottie_element_170)" style="display: block;"><g clip-path="url(#__lottie_element_174)" transform="matrix(1,0,0,1,0,0)" opacity="1"><g transform="matrix(1,0,0,1,111.67400360107422,104.38200378417969)" opacity="1" style="display: block;"><g opacity="1" transform="matrix(1,0,0,1,0,0)"><path stroke-linecap="round" stroke-linejoin="round" fill-opacity="0" stroke="rgb(0,84,134)" stroke-opacity="1" stroke-width="3" d=" M-19.613000869750977,-11.579000473022461 C-19.613000869750977,-11.579000473022461 -13.36299991607666,-9.64900016784668 -13.36299991607666,-9.64900016784668 C-13.36299991607666,-9.64900016784668 -14.902999877929688,2.3510000705718994 -14.902999877929688,2.3510000705718994 C-15.623000144958496,7.841000080108643 -10.602999687194824,12.541000366210938 -5.5929999351501465,12.541000366210938 C-5.5929999351501465,12.541000366210938 -4.1529998779296875,12.541000366210938 -4.1529998779296875,12.541000366210938 C-4.1529998779296875,12.541000366210938 -2.003000020980835,19.211000442504883 -2.003000020980835,19.211000442504883 C-2.003000020980835,19.211000442504883 0.1469999998807907,12.541000366210938 0.1469999998807907,12.541000366210938 C0.1469999998807907,12.541000366210938 19.617000579833984,7.88100004196167 19.617000579833984,7.88100004196167 C19.617000579833984,7.88100004196167 13.217000007629395,6.681000232696533 9.116999626159668,3.2309999465942383 C5.017000198364258,-0.20900000631809235 -2.36299991607666,-5.488999843597412 -2.36299991607666,-5.488999843597412 C-2.36299991607666,-5.488999843597412 -3.7929999828338623,-15.288999557495117 -3.7929999828338623,-15.288999557495117 C-4.1529998779296875,-17.638999938964844 -5.7230000495910645,-19.208999633789062 -8.093000411987305,-19.208999633789062 C-10.472999572753906,-19.208999633789062 -12.032999992370605,-17.638999938964844 -12.392999649047852,-15.288999557495117 C-12.392999649047852,-15.288999557495117 -12.562999725341797,-14.098999977111816 -12.562999725341797,-14.098999977111816 C-12.562999725341797,-14.098999977111816 -19.613000869750977,-11.579000473022461 -19.613000869750977,-11.579000473022461"></path></g></g><g transform="matrix(1,0,0,1,111.67400360107422,104.38200378417969)" opacity="1" style="display: block;"><g opacity="1" transform="matrix(1,0,0,1,0,0)"><path fill="rgb(255,255,255)" fill-opacity="1" d=" M-19.613000869750977,-11.579000473022461 C-19.613000869750977,-11.579000473022461 -13.36299991607666,-9.64900016784668 -13.36299991607666,-9.64900016784668 C-13.36299991607666,-9.64900016784668 -14.902999877929688,2.3510000705718994 -14.902999877929688,2.3510000705718994 C-15.623000144958496,7.841000080108643 -10.602999687194824,12.541000366210938 -5.5929999351501465,12.541000366210938 C-5.5929999351501465,12.541000366210938 -4.1529998779296875,12.541000366210938 -4.1529998779296875,12.541000366210938 C-4.1529998779296875,12.541000366210938 -2.003000020980835,19.211000442504883 -2.003000020980835,19.211000442504883 C-2.003000020980835,19.211000442504883 0.1469999998807907,12.541000366210938 0.1469999998807907,12.541000366210938 C0.1469999998807907,12.541000366210938 19.617000579833984,7.88100004196167 19.617000579833984,7.88100004196167 C19.617000579833984,7.88100004196167 13.217000007629395,6.681000232696533 9.116999626159668,3.2309999465942383 C5.017000198364258,-0.20900000631809235 -2.36299991607666,-5.488999843597412 -2.36299991607666,-5.488999843597412 C-2.36299991607666,-5.488999843597412 -3.7929999828338623,-15.288999557495117 -3.7929999828338623,-15.288999557495117 C-4.1529998779296875,-17.638999938964844 -5.7230000495910645,-19.208999633789062 -8.093000411987305,-19.208999633789062 C-10.472999572753906,-19.208999633789062 -12.032999992370605,-17.638999938964844 -12.392999649047852,-15.288999557495117 C-12.392999649047852,-15.288999557495117 -12.562999725341797,-14.098999977111816 -12.562999725341797,-14.098999977111816 C-12.562999725341797,-14.098999977111816 -19.613000869750977,-11.579000473022461 -19.613000869750977,-11.579000473022461"></path></g></g><g transform="matrix(1,0,0,1,111.67400360107422,104.38200378417969)" opacity="1" style="display: block;"><g opacity="1" transform="matrix(1,0,0,1,0,0)"><path fill="rgb(255,255,255)" fill-opacity="1" d=" M-19.613000869750977,-11.579000473022461 C-19.613000869750977,-11.579000473022461 -13.36299991607666,-9.64900016784668 -13.36299991607666,-9.64900016784668 C-13.36299991607666,-9.64900016784668 -14.902999877929688,2.3510000705718994 -14.902999877929688,2.3510000705718994 C-15.623000144958496,7.841000080108643 -10.602999687194824,12.541000366210938 -5.5929999351501465,12.541000366210938 C-5.5929999351501465,12.541000366210938 -4.1529998779296875,12.541000366210938 -4.1529998779296875,12.541000366210938 C-4.1529998779296875,12.541000366210938 -2.003000020980835,19.211000442504883 -2.003000020980835,19.211000442504883 C-2.003000020980835,19.211000442504883 0.1469999998807907,12.541000366210938 0.1469999998807907,12.541000366210938 C0.1469999998807907,12.541000366210938 19.617000579833984,7.88100004196167 19.617000579833984,7.88100004196167 C19.617000579833984,7.88100004196167 13.217000007629395,6.681000232696533 9.116999626159668,3.2309999465942383 C5.017000198364258,-0.20900000631809235 -2.36299991607666,-5.488999843597412 -2.36299991607666,-5.488999843597412 C-2.36299991607666,-5.488999843597412 -3.7929999828338623,-15.288999557495117 -3.7929999828338623,-15.288999557495117 C-4.1529998779296875,-17.638999938964844 -5.7230000495910645,-19.208999633789062 -8.093000411987305,-19.208999633789062 C-10.472999572753906,-19.208999633789062 -12.032999992370605,-17.638999938964844 -12.392999649047852,-15.288999557495117 C-12.392999649047852,-15.288999557495117 -12.562999725341797,-14.098999977111816 -12.562999725341797,-14.098999977111816 C-12.562999725341797,-14.098999977111816 -19.613000869750977,-11.579000473022461 -19.613000869750977,-11.579000473022461"></path></g></g><g transform="matrix(1,0,0,1,111.67400360107422,104.38200378417969)" opacity="1" style="display: block;"><g opacity="1" transform="matrix(1,0,0,1,0,0)"><path stroke-linecap="round" stroke-linejoin="round" fill-opacity="0" stroke="rgb(0,84,134)" stroke-opacity="1" stroke-width="3" d=" M-19.613000869750977,-11.579000473022461 C-19.613000869750977,-11.579000473022461 -13.36299991607666,-9.64900016784668 -13.36299991607666,-9.64900016784668 C-13.36299991607666,-9.64900016784668 -14.902999877929688,2.3510000705718994 -14.902999877929688,2.3510000705718994 C-15.623000144958496,7.841000080108643 -10.602999687194824,12.541000366210938 -5.5929999351501465,12.541000366210938 C-5.5929999351501465,12.541000366210938 -4.1529998779296875,12.541000366210938 -4.1529998779296875,12.541000366210938 C-4.1529998779296875,12.541000366210938 -2.003000020980835,19.211000442504883 -2.003000020980835,19.211000442504883 C-2.003000020980835,19.211000442504883 0.1469999998807907,12.541000366210938 0.1469999998807907,12.541000366210938 C0.1469999998807907,12.541000366210938 19.617000579833984,7.88100004196167 19.617000579833984,7.88100004196167 C19.617000579833984,7.88100004196167 13.217000007629395,6.681000232696533 9.116999626159668,3.2309999465942383 C5.017000198364258,-0.20900000631809235 -2.36299991607666,-5.488999843597412 -2.36299991607666,-5.488999843597412 C-2.36299991607666,-5.488999843597412 -3.7929999828338623,-15.288999557495117 -3.7929999828338623,-15.288999557495117 C-4.1529998779296875,-17.638999938964844 -5.7230000495910645,-19.208999633789062 -8.093000411987305,-19.208999633789062 C-10.472999572753906,-19.208999633789062 -12.032999992370605,-17.638999938964844 -12.392999649047852,-15.288999557495117 C-12.392999649047852,-15.288999557495117 -12.562999725341797,-14.098999977111816 -12.562999725341797,-14.098999977111816 C-12.562999725341797,-14.098999977111816 -19.613000869750977,-11.579000473022461 -19.613000869750977,-11.579000473022461"></path></g></g><g transform="matrix(1,0,0,1,113.99500274658203,109.16500091552734)" opacity="1" style="display: block;"><g opacity="1" transform="matrix(1,0,0,1,0,0)"><path stroke-linecap="round" stroke-linejoin="round" fill-opacity="0" stroke="rgb(0,0,0)" stroke-opacity="1" stroke-width="3" d=" M-15.692000389099121,-14.427000045776367 C-15.692000389099121,-14.427000045776367 -17.222000122070312,-2.427000045776367 -17.222000122070312,-2.427000045776367 C-17.941999435424805,3.062999963760376 -12.92199993133545,7.763000011444092 -7.9120001792907715,7.763000011444092 C-7.9120001792907715,7.763000011444092 -6.4720001220703125,7.763000011444092 -6.4720001220703125,7.763000011444092 C-6.4720001220703125,7.763000011444092 -4.322000026702881,14.42300033569336 -4.322000026702881,14.42300033569336 C-4.322000026702881,14.42300033569336 -2.171999931335449,7.763000011444092 -2.171999931335449,7.763000011444092 C-2.171999931335449,7.763000011444092 17.288000106811523,3.0929999351501465 17.288000106811523,3.0929999351501465"></path></g></g><g transform="matrix(1,0,0,1,95.18399810791016,93.7699966430664)" opacity="1" style="display: block;"><g opacity="1" transform="matrix(1,0,0,1,0,0)"><path stroke-linecap="round" stroke-linejoin="round" fill-opacity="0" stroke="rgb(0,0,0)" stroke-opacity="1" stroke-width="3" d=" M-3.122999906539917,-0.968999981880188 C-3.122999906539917,-0.968999981880188 3.127000093460083,0.9710000157356262 3.127000093460083,0.9710000157356262"></path></g></g><g transform="matrix(1,0,0,1,103.3239974975586,90.46900177001953)" opacity="1" style="display: block;"><g opacity="1" transform="matrix(1,0,0,1,0,0)"><path fill="rgb(0,24,40)" fill-opacity="1" d=" M0,1.5 C0.8299999833106995,1.5 1.5,0.8299999833106995 1.5,0 C1.5,-0.8299999833106995 0.8299999833106995,-1.5 0,-1.5 C-0.8299999833106995,-1.5 -1.5,-0.8299999833106995 -1.5,0 C-1.5,0.8299999833106995 -0.8299999833106995,1.5 0,1.5"></path></g></g><g transform="matrix(1,0,0,1,111.67400360107422,98.71600341796875)" opacity="1" style="display: block;"><g opacity="1" transform="matrix(1,0,0,1,0,0)"><path stroke-linecap="round" stroke-linejoin="round" fill-opacity="0" stroke="rgb(0,84,134)" stroke-opacity="1" stroke-width="3" d=" M19.617000579833984,13.54699993133545 C19.617000579833984,13.54699993133545 13.217000007629395,12.347000122070312 9.116999626159668,8.897000312805176 C5.017000198364258,5.456999778747559 -2.36299991607666,0.1770000010728836 -2.36299991607666,0.1770000010728836 C-2.36299991607666,0.1770000010728836 -3.7929999828338623,-9.623000144958496 -3.7929999828338623,-9.623000144958496 C-4.1529998779296875,-11.972999572753906 -5.7230000495910645,-13.543000221252441 -8.093000411987305,-13.543000221252441 C-10.472999572753906,-13.543000221252441 -12.032999992370605,-11.972999572753906 -12.392999649047852,-9.623000144958496 C-12.392999649047852,-9.623000144958496 -12.562999725341797,-8.432999610900879 -12.562999725341797,-8.432999610900879 C-12.562999725341797,-8.432999610900879 -19.613000869750977,-5.913000106811523 -19.613000869750977,-5.913000106811523"></path></g></g></g></g><g transform="matrix(0.9975640773773193,-0.06975647062063217,0.06975647062063217,0.9975640773773193,61.33420181274414,27.656383514404297)" opacity="1" style="display: block;"><g opacity="1" transform="matrix(1,0,0,1,0,0)"><path fill="rgb(0,121,193)" fill-opacity="1" d=" M0,1.5 C-0.8299999833106995,1.5 -1.5,0.8299999833106995 -1.5,0 C-1.5,-0.8299999833106995 -0.8299999833106995,-1.5 0,-1.5 C0.8299999833106995,-1.5 1.5,-0.8299999833106995 1.5,0 C1.5,0.8299999833106995 0.8299999833106995,1.5 0,1.5"></path></g></g><g transform="matrix(0.9975640773773193,-0.06975647062063217,0.06975647062063217,0.9975640773773193,68.5165786743164,44.47032165527344)" opacity="1" style="display: block;"><g opacity="1" transform="matrix(1,0,0,1,0,0)"><path stroke-linecap="round" stroke-linejoin="round" fill-opacity="0" stroke="rgb(0,84,134)" stroke-opacity="1" stroke-width="3" d=" M0.7390000224113464,-13.85200023651123 C0.7390000224113464,-13.85200023651123 4.979000091552734,-0.21199999749660492 4.979000091552734,-0.21199999749660492 C6.939000129699707,6.0279998779296875 2.069000005722046,12.529000282287598 -3.750999927520752,13.559000015258789 C-3.750999927520752,13.559000015258789 -5.421000003814697,13.847999572753906 -5.421000003814697,13.847999572753906"></path></g></g><g transform="matrix(0.9975640773773193,-0.06975647062063217,0.06975647062063217,0.9975640773773193,49.390872955322266,53.47139358520508)" opacity="1" style="display: block;"><g opacity="1" transform="matrix(1,0,0,1,0,0)"><path stroke-linecap="round" stroke-linejoin="round" fill-opacity="0" stroke="rgb(0,24,40)" stroke-opacity="1" stroke-width="3" d=" M14.28499984741211,6.206999778747559 C14.28499984741211,6.206999778747559 13.154999732971191,14.406999588012695 13.154999732971191,14.406999588012695 C13.154999732971191,14.406999588012695 9.295000076293945,7.086999893188477 9.295000076293945,7.086999893188477 C9.295000076293945,7.086999893188477 -14.28499984741211,5.6570000648498535 -14.28499984741211,5.6570000648498535 C-14.28499984741211,5.6570000648498535 -7.105000019073486,2.947000026702881 -3.0450000762939453,-1.902999997138977 C1.024999976158142,-6.743000030517578 8.515000343322754,-14.402999877929688 8.515000343322754,-14.402999877929688"></path></g></g><g transform="matrix(0.9975640773773193,-0.06975647062063217,0.06975647062063217,0.9975640773773193,65.47602081298828,29.27239990234375)" opacity="1" style="display: block;"><g opacity="1" transform="matrix(1,0,0,1,0,0)"><path stroke-linecap="round" stroke-linejoin="round" fill-opacity="0" stroke="rgb(0,121,193)" stroke-opacity="1" stroke-width="3" d=" M-9.220000267028809,8.614999771118164 C-9.220000267028809,8.614999771118164 -9.569999694824219,-3.0850000381469727 -9.569999694824219,-3.0850000381469727 C-9.630000114440918,-5.894999980926514 -8.130000114440918,-8.03499984741211 -5.369999885559082,-8.524999618530273 C-2.619999885559082,-9.015000343322754 -0.4699999988079071,-7.505000114440918 0.4300000071525574,-4.84499979019165 C0.4300000071525574,-4.84499979019165 0.8600000143051147,-3.494999885559082 0.8600000143051147,-3.494999885559082 C0.8600000143051147,-3.494999885559082 9.569999694824219,-2.015000104904175 9.569999694824219,-2.015000104904175 C9.569999694824219,-2.015000104904175 2.7100000381469727,1.524999976158142 2.7100000381469727,1.524999976158142"></path></g></g><g transform="matrix(0.9975640773773193,-0.06975647062063217,0.06975647062063217,0.9975640773773193,61.86899948120117,62.92900085449219)" opacity="1" style="display: block;"><g opacity="1" transform="matrix(1,0,0,1,0,0)"><path stroke-linecap="round" stroke-linejoin="round" fill-opacity="0" stroke="rgb(0,121,193)" stroke-opacity="1" stroke-width="3" d=" M2.493000030517578,-4.0980000495910645 C2.493000030517578,-4.0980000495910645 1.3630000352859497,4.1020002365112305 1.3630000352859497,4.1020002365112305 C1.3630000352859497,4.1020002365112305 -2.496999979019165,-3.2179999351501465 -2.496999979019165,-3.2179999351501465"></path></g></g><g transform="matrix(0.9986299276351929,0.05232895165681839,-0.05232895165681839,0.9986299276351929,143.03172302246094,98.9543685913086)" opacity="1" style="display: block;"><g opacity="1" transform="matrix(1,0,0,1,0,0)"><path fill="rgb(255,255,255)" fill-opacity="1" d=" M-13.350000381469727,20.510000228881836 C-13.350000381469727,20.510000228881836 -10.989999771118164,20.93000030517578 -10.989999771118164,20.93000030517578 C-10.989999771118164,20.93000030517578 -9.388999938964844,32.5 -9.388999938964844,32.5 C-9.388999938964844,32.5 -3.930000066757202,22.170000076293945 -3.930000066757202,22.170000076293945 C-3.930000066757202,22.170000076293945 29.399999618530273,20.149999618530273 29.399999618530273,20.149999618530273 C29.399999618530273,20.149999618530273 19.250999450683594,16.329999923706055 13.50100040435791,9.479999542236328 C7.761000156402588,2.640000104904175 -2.8289999961853027,-8.170000076293945 -2.8289999961853027,-8.170000076293945 C-2.8289999961853027,-8.170000076293945 -2.3389999866485596,-24.690000534057617 -2.3389999866485596,-24.690000534057617 C-2.249000072479248,-28.649999618530273 -4.369999885559082,-31.68000030517578 -8.270000457763672,-32.369998931884766 C-12.170000076293945,-33.060001373291016 -15.199000358581543,-30.940000534057617 -16.4689998626709,-27.18000030517578 C-16.4689998626709,-27.18000030517578 -17.089000701904297,-25.270000457763672 -17.089000701904297,-25.270000457763672 C-17.089000701904297,-25.270000457763672 -29.399999618530273,-23.18000030517578 -29.399999618530273,-23.18000030517578 C-29.399999618530273,-23.18000030517578 -19.698999404907227,-18.190000534057617 -19.698999404907227,-18.190000534057617 C-19.698999404907227,-18.190000534057617 -25.698999404907227,1.0700000524520874 -25.698999404907227,1.0700000524520874 C-28.458999633789062,9.880000114440918 -21.59000015258789,19.059999465942383 -13.350000381469727,20.510000228881836"></path></g></g><g transform="matrix(0.9986299276351929,0.05232895165681839,-0.05232895165681839,0.9986299276351929,143.03172302246094,98.9543685913086)" opacity="1" style="display: block;"><g opacity="1" transform="matrix(1,0,0,1,0,0)"><path fill="rgb(255,255,255)" fill-opacity="1" d=" M-13.350000381469727,20.510000228881836 C-13.350000381469727,20.510000228881836 -10.989999771118164,20.93000030517578 -10.989999771118164,20.93000030517578 C-10.989999771118164,20.93000030517578 -9.388999938964844,32.5 -9.388999938964844,32.5 C-9.388999938964844,32.5 -3.930000066757202,22.170000076293945 -3.930000066757202,22.170000076293945 C-3.930000066757202,22.170000076293945 29.399999618530273,20.149999618530273 29.399999618530273,20.149999618530273 C29.399999618530273,20.149999618530273 19.250999450683594,16.329999923706055 13.50100040435791,9.479999542236328 C7.761000156402588,2.640000104904175 -2.8289999961853027,-8.170000076293945 -2.8289999961853027,-8.170000076293945 C-2.8289999961853027,-8.170000076293945 -2.3389999866485596,-24.690000534057617 -2.3389999866485596,-24.690000534057617 C-2.249000072479248,-28.649999618530273 -4.369999885559082,-31.68000030517578 -8.270000457763672,-32.369998931884766 C-12.170000076293945,-33.060001373291016 -15.199000358581543,-30.940000534057617 -16.4689998626709,-27.18000030517578 C-16.4689998626709,-27.18000030517578 -17.089000701904297,-25.270000457763672 -17.089000701904297,-25.270000457763672 C-17.089000701904297,-25.270000457763672 -29.399999618530273,-23.18000030517578 -29.399999618530273,-23.18000030517578 C-29.399999618530273,-23.18000030517578 -19.698999404907227,-18.190000534057617 -19.698999404907227,-18.190000534057617 C-19.698999404907227,-18.190000534057617 -25.698999404907227,1.0700000524520874 -25.698999404907227,1.0700000524520874 C-28.4689998626709,9.880000114440918 -21.59000015258789,19.059999465942383 -13.350000381469727,20.510000228881836"></path></g></g><g transform="matrix(0.9986299276351929,0.05232895165681839,-0.05232895165681839,0.9986299276351929,143.03172302246094,98.9543685913086)" opacity="1" style="display: block;"><g opacity="1" transform="matrix(1,0,0,1,0,0)"><path stroke-linecap="round" stroke-linejoin="round" fill-opacity="0" stroke="rgb(0,84,134)" stroke-opacity="1" stroke-width="3" d=" M-13.350000381469727,20.510000228881836 C-13.350000381469727,20.510000228881836 -10.989999771118164,20.93000030517578 -10.989999771118164,20.93000030517578 C-10.989999771118164,20.93000030517578 -9.388999938964844,32.5 -9.388999938964844,32.5 C-9.388999938964844,32.5 -3.930000066757202,22.170000076293945 -3.930000066757202,22.170000076293945 C-3.930000066757202,22.170000076293945 29.399999618530273,20.149999618530273 29.399999618530273,20.149999618530273 C29.399999618530273,20.149999618530273 19.250999450683594,16.329999923706055 13.50100040435791,9.479999542236328 C7.761000156402588,2.640000104904175 -2.8289999961853027,-8.170000076293945 -2.8289999961853027,-8.170000076293945 C-2.8289999961853027,-8.170000076293945 -2.3389999866485596,-24.690000534057617 -2.3389999866485596,-24.690000534057617 C-2.249000072479248,-28.649999618530273 -4.369999885559082,-31.68000030517578 -8.270000457763672,-32.369998931884766 C-12.170000076293945,-33.060001373291016 -15.199000358581543,-30.940000534057617 -16.4689998626709,-27.18000030517578 C-16.4689998626709,-27.18000030517578 -17.089000701904297,-25.270000457763672 -17.089000701904297,-25.270000457763672 C-17.089000701904297,-25.270000457763672 -29.399999618530273,-23.18000030517578 -29.399999618530273,-23.18000030517578 C-29.399999618530273,-23.18000030517578 -19.698999404907227,-18.190000534057617 -19.698999404907227,-18.190000534057617 C-19.698999404907227,-18.190000534057617 -25.698999404907227,1.0700000524520874 -25.698999404907227,1.0700000524520874 C-28.4689998626709,9.880000114440918 -21.59000015258789,19.059999465942383 -13.350000381469727,20.510000228881836z"></path></g></g><g transform="matrix(0.9986299276351929,0.05232895165681839,-0.05232895165681839,0.9986299276351929,128.2476348876953,77.8157730102539)" opacity="1" style="display: block;"><g opacity="1" transform="matrix(1,0,0,1,0,0)"><path stroke-linecap="round" stroke-linejoin="round" fill-opacity="0" stroke="rgb(0,24,40)" stroke-opacity="1" stroke-width="3" d=" M13.041000366210938,12.166999816894531 C13.041000366210938,12.166999816894531 13.531000137329102,-4.353000164031982 13.531000137329102,-4.353000164031982 C13.621000289916992,-8.312999725341797 11.50100040435791,-11.343000411987305 7.60099983215332,-12.032999992370605 C3.7009999752044678,-12.722999572753906 0.6710000038146973,-10.602999687194824 -0.5989999771118164,-6.8429999351501465 C-0.5989999771118164,-6.8429999351501465 -1.218999981880188,-4.933000087738037 -1.218999981880188,-4.933000087738037 C-1.218999981880188,-4.933000087738037 -13.529000282287598,-2.8429999351501465 -13.529000282287598,-2.8429999351501465 C-13.529000282287598,-2.8429999351501465 -3.8289999961853027,2.1470000743865967 -3.8289999961853027,2.1470000743865967 C-3.8289999961853027,2.1470000743865967 -4.818999767303467,5.336999893188477 -4.818999767303467,5.336999893188477"></path></g></g><g transform="matrix(0.9986299276351929,0.05232895165681839,-0.05232895165681839,0.9986299276351929,155.3829803466797,106.61119079589844)" opacity="1" style="display: block;"><g opacity="1" transform="matrix(1,0,0,1,0,0)"><path stroke-linecap="round" stroke-linejoin="round" fill-opacity="0" stroke="rgb(0,84,134)" stroke-opacity="1" stroke-width="3" d=" M-16.665000915527344,15.175999641418457 C-16.665000915527344,15.175999641418457 16.665000915527344,13.145000457763672 16.665000915527344,13.145000457763672 C16.665000915527344,13.145000457763672 6.514999866485596,9.326000213623047 0.7749999761581421,2.4860000610351562 C-4.974999904632568,-4.363999843597412 -15.5649995803833,-15.173999786376953 -15.5649995803833,-15.173999786376953"></path></g></g><g transform="matrix(0.9986299276351929,0.05232895165681839,-0.05232895165681839,0.9986299276351929,127.4686279296875,106.89985656738281)" opacity="1" style="display: block;"><g opacity="1" transform="matrix(1,0,0,1,0,0)"><path stroke-linecap="round" stroke-linejoin="round" fill-opacity="0" stroke="rgb(0,120,194)" stroke-opacity="1" stroke-width="3" d=" M11.194000244140625,13.428999900817871 C11.194000244140625,13.428999900817871 5.734000205993652,23.749000549316406 5.734000205993652,23.749000549316406 C5.734000205993652,23.749000549316406 4.133999824523926,12.178999900817871 4.133999824523926,12.178999900817871 C4.133999824523926,12.178999900817871 1.7740000486373901,11.769000053405762 1.7740000486373901,11.769000053405762 C-6.466000080108643,10.309000015258789 -13.336000442504883,1.1390000581741333 -10.576000213623047,-7.671000003814697 C-10.576000213623047,-7.671000003814697 -5.565999984741211,-23.750999450683594 -5.565999984741211,-23.750999450683594"></path></g></g><g transform="matrix(0.9986299276351929,0.05232895165681839,-0.05232895165681839,0.9986299276351929,134.0662841796875,74.70700073242188)" opacity="1" style="display: block;"><g opacity="1" transform="matrix(1,0,0,1,0,0)"><path fill="rgb(0,121,193)" fill-opacity="1" d=" M-0.2770000100135803,1.4800000190734863 C0.5630000233650208,1.6200000047683716 1.3630000352859497,1.0700000524520874 1.5230000019073486,0.25 C1.6729999780654907,-0.5699999928474426 1.1230000257492065,-1.340000033378601 0.28299999237060547,-1.4800000190734863 C-0.5569999814033508,-1.6200000047683716 -1.3669999837875366,-1.0700000524520874 -1.5169999599456787,-0.25 C-1.6770000457763672,0.5699999928474426 -1.1169999837875366,1.340000033378601 -0.2770000100135803,1.4800000190734863"></path></g></g></g></svg>