<svg xmlns="http://www.w3.org/2000/svg" width="209" height="72" viewBox="0 0 209 72" fill="none">
<path d="M23.0002 28C23.0002 31.76 21.2802 33.84 16.7502 33.84H12.8802V22.35C13.3702 22.3 15.0102 22.27 15.5002 22.27H16.8202C21.4402 22.27 23.0002 24.23 23.0002 28ZM32.2002 43C32.2002 37.07 27.3602 34.92 21.4902 34.79V34.57C26.4902 34.16 30.5802 32.07 30.5802 27.03C30.5802 21.42 25.9402 20.37 20.7502 20.37C14.5102 20.37 7.19021 20.54 0.970215 20.37V22.3C2.28021 22.21 5.48022 22.39 5.48022 24.04V47.92C5.48022 49.52 2.20021 49.74 0.970215 49.74V51.62C6.97021 51.46 14.1202 51.62 20.1702 51.62C26.5302 51.62 32.2002 49.47 32.2002 43ZM24.2002 42.39C24.2002 47.3 22.4902 49.63 16.5502 49.63H12.8502V35.87H16.7902C22.2202 35.87 24.2302 37.7 24.2302 42.35L24.2002 42.39Z" fill="#0079C1"/>
<path d="M72.4502 51.57C69.6502 51.57 66.8602 51.57 64.0702 51.62V49.7C65.3402 49.7 68.8602 49.63 68.8602 47.92V25.74H68.7602L56.1402 52H54.6202L42.3102 25.69H42.2202V47.92C42.2202 49.67 45.7102 49.7 47.0302 49.7L47.0902 51.62C43.6002 51.51 38.8402 51.43 35.4102 51.62V49.7C36.7402 49.7 39.7402 49.59 39.7402 47.92V24C39.7402 22.37 36.6402 22.23 35.4102 22.23V20.3C39.4102 20.47 43.6502 20.47 47.6202 20.3L58.1402 42.49L68.9102 20.38C72.7302 20.55 77.0502 20.5 80.9102 20.33V22.26C79.6402 22.26 76.3102 22.35 76.3102 24.03V47.92C76.3102 49.63 79.6002 49.7 80.9102 49.7V51.62C78.0802 51.54 75.2402 51.57 72.4502 51.57Z" fill="#0079C1"/>
<path d="M110.29 35.94C110.29 41.94 109.7 50.23 100.84 50.23C91.9803 50.23 91.3403 41.9 91.3403 35.94C91.3403 29.98 91.9803 21.71 100.84 21.71C109.7 21.71 110.29 30 110.29 35.94ZM118.57 35.94C118.57 25.59 112.25 19.78 100.84 19.78C89.4303 19.78 83.0503 25.54 83.0503 35.94C83.0503 46.34 89.3803 52.14 100.84 52.14C112.3 52.14 118.57 46.35 118.57 35.94Z" fill="#0079C1"/>
<path d="M171.56 0C151.678 0 135.56 16.1177 135.56 36C135.56 55.8823 151.678 72 171.56 72C191.442 72 207.56 55.8823 207.56 36C207.56 16.1177 191.442 0 171.56 0Z" fill="#ED1C24"/>
<path d="M170.46 25L164.21 16.85C163.947 16.5028 163.536 16.2992 163.1 16.3C162.677 16.2977 162.277 16.4938 162.02 16.83L154.58 26.2V40.9L162 31.41C162.273 31.0633 162.689 30.8606 163.13 30.86C163.577 30.8584 163.999 31.0656 164.27 31.42L170.55 39.63C170.791 39.9419 171.157 40.1321 171.55 40.15C171.945 40.1363 172.312 39.9452 172.55 39.63L178.83 31.42C179.105 31.0692 179.525 30.863 179.97 30.86C180.412 30.8561 180.831 31.0597 181.1 31.41L188.5 40.89V26.19L181.06 16.82C180.799 16.4835 180.396 16.2876 179.97 16.29C179.536 16.2938 179.127 16.4965 178.86 16.84L172.66 25C172.399 25.3431 171.992 25.5432 171.56 25.54C171.13 25.5386 170.725 25.3395 170.46 25ZM188.55 51.67H154.55V40.89H188.55V51.67Z" fill="white"/>
</svg>