<svg xmlns="http://www.w3.org/2000/svg" width="48" height="48" view-box="0 0 48 48" fill="none">
  <path d="M32.7284 39.6344C32.273 39.6391 31.8233 39.5327 31.4184 39.3244L23.9684 35.3844L16.5184 39.3244C15.5605 39.8401 14.3907 39.7543 13.5184 39.1044C12.6439 38.4697 12.2184 37.3844 12.4284 36.3244L13.8484 28.0344L7.84838 22.1644C7.0817 21.4102 6.80685 20.2875 7.13838 19.2644C7.45728 18.2417 8.32991 17.4893 9.38838 17.3244L17.7184 16.1144L21.4384 8.57441C21.9129 7.6105 22.894 7 23.9684 7C25.0428 7 26.0238 7.6105 26.4984 8.57441L30.2184 16.1144L38.5484 17.3244C39.6132 17.4754 40.4984 18.2208 40.8284 19.2444C41.1599 20.2675 40.8851 21.3902 40.1184 22.1444L34.1184 28.0144L35.5084 36.3244C35.7035 37.3839 35.2667 38.4605 34.3884 39.0844C33.908 39.4403 33.3262 39.633 32.7284 39.6344ZM23.9684 33.2544C24.1325 33.2552 24.2939 33.2964 24.4384 33.3744L32.3484 37.5344C32.6256 37.6808 32.9621 37.6563 33.2152 37.4713C33.4684 37.2862 33.5938 36.973 33.5384 36.6644L32.0284 27.8544C31.9717 27.528 32.0803 27.1947 32.3184 26.9644L38.7184 20.7244C38.9493 20.5111 39.0317 20.1813 38.9284 19.8844C38.8292 19.5859 38.5698 19.369 38.2584 19.3244L29.4184 18.0444C29.0894 17.9987 28.8047 17.7926 28.6584 17.4944L24.6584 9.49441C24.5169 9.21581 24.2309 9.04031 23.9184 9.04031C23.6059 9.04031 23.3199 9.21581 23.1784 9.49441L19.1784 17.4944C19.0321 17.7926 18.7473 17.9987 18.4184 18.0444L9.67838 19.3244C9.36697 19.369 9.10754 19.5859 9.00838 19.8844C8.90505 20.1813 8.98751 20.5111 9.21838 20.7244L15.6184 26.9644C15.8565 27.1947 15.9651 27.528 15.9084 27.8544L14.3984 36.6644C14.338 36.976 14.4675 37.2938 14.7284 37.4744C14.9806 37.6556 15.3135 37.6789 15.5884 37.5344L23.4984 33.3744C23.6428 33.2964 23.8042 33.2552 23.9684 33.2544Z" fill="#0075BE"/>
</svg>