<svg xmlns="http://www.w3.org/2000/svg" xmlns:xlink="http://www.w3.org/1999/xlink" width="77px" height="32px" viewBox="0 0 77 32" version="1.1">
    <g id="[TABLET]---3.0-Personal-Information-Copy" stroke="none" stroke-width="1" fill="none" fill-rule="evenodd">
        <g id="3.5---Personal-Information-(Address-filled)-(lg-tablet)" transform="translate(-24.000000, -16.000000)" fill-rule="nonzero">
            <g id="Header-/-Tablet-(lg)">
                <g id="BMO-Logo">
                    <g transform="translate(24.000000, 16.000000)">
                        <path d="M61.695,0.958 C53.285,0.958 46.461,7.781 46.461,16.196 C46.461,24.609 53.285,31.433 61.695,31.433 C70.114,31.433 76.935,24.609 76.935,16.196 C76.935,7.781 70.115,0.958 61.695,0.958" id="Shape" fill="#ED1C24"/>
                        <rect id="Rectangle-path" fill="#FFFFFF" x="54.447" y="18.271" width="14.396" height="4.545"/>
                        <path d="M61.177,11.479 C61.365,11.719 61.525,11.79 61.694,11.793 C61.866,11.789 62.018,11.729 62.206,11.479 C62.206,11.479 64.611,8.318 64.737,8.166 C65.062,7.762 65.454,7.762 65.779,8.164 L68.844,12.045 L68.844,18.272 L65.8,14.363 C65.443,13.915 65.035,13.913 64.675,14.363 C64.554,14.521 62.217,17.616 62.217,17.616 C61.854,18.075 61.505,18.075 61.146,17.616 C61.146,17.616 58.753,14.505 58.646,14.363 C58.297,13.922 57.906,13.913 57.526,14.363 L54.448,18.272 L54.446,12.064 C54.446,12.064 57.379,8.387 57.566,8.165 C57.897,7.763 58.296,7.763 58.622,8.162 C58.769,8.353 61.177,11.479 61.177,11.479" id="Shape" fill="#FFFFFF"/>
                        <path d="M8.23,19.715 C8.23,21.431 7.654,22.246 5.652,22.246 L4.405,22.246 L4.405,17.445 L5.734,17.445 C7.554,17.444 8.23,18.086 8.23,19.715 L8.23,19.715 Z M10.912,19.89 C10.912,17.894 9.283,17.174 7.308,17.128 L7.308,17.054 C8.986,16.917 10.368,16.213 10.368,14.515 C10.368,12.625 8.805,12.273 7.059,12.273 C4.958,12.273 2.492,12.329 0.397,12.273 L0.397,12.798 C0.838,12.769 1.914,12.827 1.914,13.386 L1.914,21.687 C1.914,22.224 0.81,22.298 0.397,22.298 L0.397,22.808 C2.424,22.755 4.826,22.808 6.86,22.808 C9.004,22.808 10.912,22.085 10.912,19.89 Z M7.805,14.83 C7.805,16.154 7.225,16.888 5.701,16.888 L4.405,16.888 L4.405,12.827 C4.572,12.812 5.124,12.798 5.288,12.798 L5.734,12.798 C7.29,12.798 7.805,13.491 7.805,14.83 Z" id="Shape" fill="#0079C1"/>
                        <path d="M24.468,22.792 C23.527,22.792 22.587,22.78 21.646,22.808 L21.646,22.285 C22.074,22.285 23.261,22.262 23.261,21.687 L23.261,13.951 L23.228,13.951 L18.909,22.949 L18.464,22.949 L14.26,13.951 L14.227,13.951 L14.227,21.687 C14.227,22.275 15.463,22.285 15.909,22.285 L15.926,22.808 C14.752,22.771 13.152,22.744 11.995,22.808 L11.995,22.285 C12.442,22.285 13.514,22.25 13.514,21.687 L13.514,13.395 C13.514,12.843 12.408,12.797 11.995,12.797 L11.979,12.272 C13.319,12.328 14.752,12.328 16.089,12.272 L19.683,19.808 L23.344,12.285 C24.631,12.346 26.018,12.328 27.305,12.272 L27.305,12.797 C26.878,12.797 25.755,12.826 25.755,13.395 L25.755,21.687 C25.755,22.261 26.861,22.285 27.305,22.285 L27.305,22.808 C26.365,22.781 25.409,22.792 24.468,22.792" id="Shape" fill="#0079C1"/>
                        <path d="M40.003,17.528 C40.003,14.042 37.873,12.086 34.031,12.086 C30.187,12.086 28.041,14.024 28.041,17.528 C28.041,21.032 30.17,22.984 34.031,22.984 C37.89,22.984 40.003,21.033 40.003,17.528 L40.003,17.528 Z M37.214,17.528 C37.214,19.586 37.014,22.462 34.031,22.462 C31.047,22.462 30.831,19.586 30.831,17.528 C30.831,15.469 31.047,12.612 34.031,12.612 C36.998,12.612 37.214,15.484 37.214,17.528 Z" id="Shape" fill="#0079C1"/>
                    </g>
                </g>
            </g>
        </g>
    </g>
</svg>