<svg xmlns="http://www.w3.org/2000/svg" id="prefix__Layer_1" data-name="Layer 1" view-box="0 0 48 48" height="48" width="48">
  <defs>
    <style>
      .prefix__cls-3 {
        fill: none;
      }
      .prefix__cls-2 {
        fill: #fff;
      }
      .prefix__cls-2,
      .prefix__cls-3 {
        stroke: #0075be;
        stroke-linecap: round;
        stroke-linejoin: round;
        stroke-width: 2px;
      }
    </style>
  </defs>
  <path style="opacity: 0.1; fill: none" d="M0 0h48v48H0z"/>
  <path class="prefix__cls-2" d="M22.88 29.25 27.93 31a2.53 2.53 0 0 0 1.68-4.77l-6.53-2.43a7.83 7.83 0 0 0-1.34-.37l-1.37-.13A8.1 8.1 0 0 0 17 24l-3.37 1.49a1.69 1.69 0 0 0-.8-.64 1.63 1.63 0 0 0-1.3 0l-4.35 1.9a.69.69 0 0 0-.41.63v11.71a.68.68 0 0 0 .32.58.68.68 0 0 0 .36.1.64.64 0 0 0 .31-.07l8.45-4.27a1.69 1.69 0 0 0 .89-.93 1.75 1.75 0 0 0 .06-1.06h0a5.16 5.16 0 0 1 4.36.1l3.24 1.61a6.49 6.49 0 0 0 5.53.13l8.86-3.92a2.61 2.61 0 0 0 1.34-3.45 2.61 2.61 0 0 0-3.46-1.34h0l-5.8 2.13M12.97 25.68l3.79 9"/>
  <path class="prefix__cls-3" d="M37.8 8.23h3.4v3.68"/>
  <path class="prefix__cls-3" d="m40.83 8.62-6.89 6.9a.6.6 0 0 1-.84 0l-4.7-4.71a.6.6 0 0 0-.84 0l-6.94 7"/>
</svg>