<svg xmlns="http://www.w3.org/2000/svg" view-box="0 0 24 24" enable-background="new 0 0 48 48" xml-space="preserve" role="img" height="24" width="24">
  <path d="M22 4.7v-.2c0-.6-.4-1-1-1h-5.9c-1.3 0-2.4.6-3.1 1.4a4.1 4.1 0 0 0-3.1-1.4H3c-.6 0-1 .4-1 1V19.3c.2.5.7.8 1.2.6h.1c.2-.1.5-.1.7-.1h6c.5 0 1 .2 1.4.5.1.1.3.1.4.2H12.1c.2 0 .4-.1.6-.2.4-.3.9-.5 1.4-.5H20c.3 0 .5 0 .8.1h.1c.5.2 1.1-.1 1.2-.6.1-.2.1-.3 0-.5V4.7zM4.1 17.8 4 5.5h4.8c1.2 0 2.1.9 2.1 2v10.4c-.3-.1-.7-.1-1-.1H4.1zm15.9 0c-.1 0-.1 0 0 0h-5.9c-.3 0-.7 0-1 .1V7.5c0-1.1 1-2 2.1-2H20v12.3zM8.9 9.6H6.3c-.6 0-1-.4-1-1s.4-1 1-1h2.6c.6 0 1 .4 1 1s-.5 1-1 1zm0 3H6.3c-.6 0-1-.4-1-1s.4-1 1-1h2.6c.6 0 1 .4 1 1s-.5 1-1 1zm0 3.1H6.3c-.6 0-1-.4-1-1s.4-1 1-1h2.6c.6 0 1 .4 1 1s-.5 1-1 1zm9-6.1h-2.6c-.6 0-1-.4-1-1s.4-1 1-1h2.6c.6 0 1 .4 1 1s-.5 1-1 1zm0 3h-2.6c-.6 0-1-.4-1-1s.4-1 1-1h2.6c.6 0 1 .4 1 1s-.5 1-1 1zm0 3.1h-2.6c-.6 0-1-.4-1-1s.4-1 1-1h2.6c.6 0 1 .4 1 1s-.5 1-1 1z" style="fill: #0875bb"/>
</svg>