<svg xmlns="http://www.w3.org/2000/svg" version="1.1" id="Layer_1" xmlnsXlink="http://www.w3.org/1999/xlink" x="0" y="0" height="48" width="48" view-box="0 0 48 48" enable-background="new 0 0 48 48" xml-space="preserve">
  <path fill="#0875BB" d="M40.01,41.94H7.99c-1.1,0-1.99-0.89-1.99-1.99V16.62c0-1.1,0.89-1.99,1.99-1.99h32.01 c1.1,0,1.99,0.89,1.99,1.99v23.33C42,41.04,41.11,41.94,40.01,41.94z M8,16.62v23.32l32.01-0.01L40,16.62L8,16.62z M7.99,15.62 l0,1c0,0,0,0,0,0V15.62z"/>
  <path fill="#0875BB" d="M32.44,16.5c-0.55,0-1-0.45-1-1V9.17c0-0.61-0.5-1.11-1.11-1.11H17.67c-0.61,0-1.11,0.5-1.11,1.11v6.33 c0,0.55-0.45,1-1,1c-0.55,0-1-0.45-1-1V9.17c0-1.71,1.39-3.11,3.11-3.11h12.66c1.71,0,3.11,1.4,3.11,3.11v6.33 C33.44,16.05,32.99,16.5,32.44,16.5z"/>
  <path fill="#0875BB" d="M31.65,26.8L31.65,26.8L31.65,26.8z"/>
  <path fill="#0875BB" d="M34.68,27.35c-0.55,0-1-0.45-1-1v-2.77h-2.34c-0.55,0-1-0.45-1-1s0.45-1,1-1h3.34c0.55,0,1,0.45,1,1v3.77 C35.68,26.9,35.23,27.35,34.68,27.35z"/>
  <path fill="#0875BB" d="M13.32,34.66c-0.25,0-0.49-0.09-0.69-0.27c-0.4-0.38-0.42-1.01-0.04-1.41l6.8-7.18 c0.29-0.31,0.71-0.49,1.13-0.49c0,0,0,0,0,0c0.42,0,0.83,0.18,1.13,0.48l4.3,4.49l6.44-6.73c0.38-0.4,1.01-0.41,1.41-0.03 c0.4,0.38,0.41,1.01,0.03,1.41l-6.75,7.06c-0.59,0.62-1.67,0.62-2.26,0l-4.29-4.49l-6.48,6.85 C13.85,34.56,13.58,34.66,13.32,34.66z"/>
</svg>