<svg xmlns="http://www.w3.org/2000/svg" width="48" height="48" view-box="0 0 48 48" fill="none">
  <g clipPath="url(#clip0_7684_137072)">
    <g clipPath="url(#clip1_7684_137072)">
      <path d="M40 14.5H33.5V9.12C33.5 8.29252 33.1713 7.49894 32.5862 6.91383C32.0011 6.32871 31.2075 6 30.38 6H17.62C16.7925 6 15.9989 6.32871 15.4138 6.91383C14.8287 7.49894 14.5 8.29252 14.5 9.12V14.5H8C7.46957 14.5 6.96086 14.7107 6.58579 15.0858C6.21071 15.4609 6 15.9696 6 16.5V40C6 40.5304 6.21071 41.0391 6.58579 41.4142C6.96086 41.7893 7.46957 42 8 42H40C40.5304 42 41.0391 41.7893 41.4142 41.4142C41.7893 41.0391 42 40.5304 42 40V16.5C42 15.9696 41.7893 15.4609 41.4142 15.0858C41.0391 14.7107 40.5304 14.5 40 14.5ZM16.5 9.12C16.5 8.82296 16.618 8.53808 16.828 8.32804C17.0381 8.118 17.323 8 17.62 8H30.38C30.677 8 30.9619 8.118 31.172 8.32804C31.382 8.53808 31.5 8.82296 31.5 9.12V14.5H16.5V9.12ZM8 16.5H40V23H8V16.5ZM8 40V25H40V40H8Z" fill="#0075BE"/>
    </g>
  </g>
  <defs>
    <clipPath id="clip0_7684_137072">
      <rect width="48" height="48" fill="white"/>
    </clipPath>
    <clipPath id="clip1_7684_137072">
      <rect width="48" height="48" fill="white"/>
    </clipPath>
  </defs>
</svg>