<svg xmlns="http://www.w3.org/2000/svg" width="48" height="48" view-box="0 0 48 48" fill="none">
    <path d="M33.5 20.5V14C33.5 13.4477 33.0523 13 32.5 13H8C7.44771 13 7 13.4477 7 14V32C7 32.5523 7.44772 33 8 33H20.5" stroke="#0079C1" stroke-width="2" stroke-linecap="round" stroke-linejoin="round"/>
    <path d="M32.3 31.24H32.19C31.45 31.14 31 30.86 31 30.65C31 30.44 31.44 30.06 32.11 30.06C32.4536 30.0457 32.7909 30.1558 33.06 30.37C33.4742 30.7373 34.1077 30.6992 34.475 30.285C34.8423 29.8708 34.8042 29.2373 34.39 28.87C34.0527 28.5852 33.6616 28.371 33.24 28.24V28C33.24 27.4477 32.7923 27 32.24 27C31.6877 27 31.24 27.4477 31.24 28V28.14C30.0043 28.3394 29.0731 29.3705 29 30.62C29 31.97 30.12 32.96 31.92 33.19H32.03C32.78 33.29 33.22 33.57 33.22 33.79C33.22 34.01 32.78 34.38 32.11 34.38C31.7485 34.401 31.3921 34.287 31.11 34.06C30.8547 33.7872 30.4686 33.6794 30.1089 33.7807C29.7492 33.8819 29.476 34.1752 29.4005 34.5412C29.325 34.9071 29.4598 35.2847 29.75 35.52C30.1609 35.8883 30.6606 36.1433 31.2 36.26V36.45C31.2 37.0023 31.6477 37.45 32.2 37.45C32.7523 37.45 33.2 37.0023 33.2 36.45V36.2C34.3281 35.9303 35.1429 34.9485 35.2 33.79C35.22 32.47 34.1 31.48 32.3 31.24Z" fill="#0075BE"/>
    <path fill-rule="evenodd" clip-rule="evenodd" d="M32 39C35.866 39 39 35.866 39 32C39 28.134 35.866 25 32 25C28.134 25 25 28.134 25 32C25 35.866 28.134 39 32 39ZM32 41C36.9706 41 41 36.9706 41 32C41 27.0294 36.9706 23 32 23C27.0294 23 23 27.0294 23 32C23 36.9706 27.0294 41 32 41Z" fill="#0079C1"/>
    <path d="M7 19H33.5" stroke="#0079C1" stroke-width="2" stroke-linecap="round" stroke-linejoin="round"/>
    <path d="M13 12.5V8C13 7.44772 13.4477 7 14 7H26C26.5523 7 27 7.44772 27 8V13" stroke="#0079C1" stroke-width="2" stroke-linecap="round" stroke-linejoin="round"/>
  </svg>