<svg xmlns="http://www.w3.org/2000/svg" width="48" height="48" view-box="0 0 48 48" fill="none">
  <path fill-rule="evenodd" clip-rule="evenodd" d="M8.91242 14.822L23.9084 7.05L39.0574 14.822H8.91242ZM41.7122 40.9987C42.2652 40.9987 42.7122 41.4457 42.7122 41.9987C42.7122 42.5122 42.3268 42.9343 41.829 42.992L41.7122 42.9987H6.10422C5.55122 42.9987 5.10422 42.5517 5.10422 41.9987C5.10422 41.4852 5.48965 41.0631 5.98747 41.0054L6.10422 40.9987H41.7122ZM41.7118 18.9781C42.2648 18.9781 42.7118 19.4251 42.7118 19.9781C42.7118 20.4916 42.3264 20.9137 41.8286 20.9714L41.7118 20.9781H39.3948V36.6001H41.7118C42.2648 36.6001 42.7118 37.0471 42.7118 37.6001C42.7118 38.1136 42.3264 38.5357 41.8286 38.5934L41.7118 38.6001H6.10382C5.55082 38.6001 5.10382 38.1531 5.10382 37.6001C5.10382 37.0866 5.48925 36.6645 5.98707 36.6068L6.10382 36.6001H9.48882V20.9781H6.10382C5.55082 20.9781 5.10382 20.5311 5.10382 19.9781C5.10382 19.4646 5.48925 19.0425 5.98707 18.9848L6.10382 18.9781H41.7118ZM32.4498 20.9781H28.2728V36.6001H32.4498V20.9781ZM21.3268 20.9781H16.4338V36.6001H21.3268V20.9781ZM26.2728 20.9781H23.3268V36.4401H26.2728V20.9781ZM14.4338 20.9781H11.4888V36.4271H14.4338V20.9781ZM37.3948 20.9781H34.4498V36.3901H37.3948V20.9781ZM23.1804 5.175C23.6284 4.942 24.1834 4.942 24.6314 5.173L42.2264 14.201C42.8144 14.502 43.1104 15.118 42.9634 15.733C42.8084 16.375 42.2094 16.822 41.5064 16.822H6.49742C5.79442 16.822 5.19442 16.375 5.03842 15.735C4.88942 15.121 5.18242 14.504 5.76742 14.199L23.1804 5.175Z" fill="#CCE4F3"/>
</svg>