<svg xmlns="http://www.w3.org/2000/svg" id="prefix__Layer_1" data-name="Layer 1" view-box="0 0 48 48" height="48" width="48">
  <defs>
    <style>
      .prefix__cls-1 {
        fill: #0c75bc;
      }
    </style>
  </defs>
  <path class="prefix__cls-1" d="M24 12.68a9.87 9.87 0 0 0-6.57 17.23c.88.89 1 3 1 3.56a1 1 0 0 0 0 .17 1.48 1.48 0 0 0 .45 1.12 1.58 1.58 0 0 0 1.09.45H28a1.54 1.54 0 0 0 1.09-.45 1.67 1.67 0 0 0 .45-1.17c0-1 .12-2.84 1-3.74A9.85 9.85 0 0 0 24 12.68Zm-3.64 21Zm8.89-5.27-.12.13c-1.34 1.34-1.54 3.61-1.55 4.71h-7.19a7.22 7.22 0 0 0-1.61-4.75 8 8 0 0 1-2.65-5.92 7.86 7.86 0 1 1 13.11 5.83ZM27.8 36.67h-7.62a1 1 0 0 0 0 2h7.62a1 1 0 0 0 0-2ZM26.45 40.09h-4.92a1 1 0 0 0 0 2h4.92a1 1 0 1 0 0-2ZM16.43 12.58A1 1 0 1 0 18 11.36L16.17 9a1 1 0 0 0-1.4-.18 1 1 0 0 0-.18 1.41ZM13.15 16.37l-2.51-1.65a1 1 0 1 0-1.1 1.67L12.05 18a1 1 0 0 0 1.38-.29 1 1 0 0 0-.28-1.34ZM24 10.88a1 1 0 0 0 1-1v-3a1 1 0 1 0-2 0v3a1 1 0 0 0 1 1ZM30.74 12.56a1 1 0 0 0 .79-.38l1.84-2.37a1 1 0 0 0-1.58-1.23L30 11a1 1 0 0 0 .79 1.61ZM38.75 15a1 1 0 0 0-1.39-.29l-2.51 1.65a1 1 0 0 0 .55 1.83A1 1 0 0 0 36 18l2.51-1.65a1 1 0 0 0 .24-1.35Z"/>
  <path class="prefix__cls-1" d="M26.74 18a1 1 0 1 0-1.09 1.67 5 5 0 0 1 1.52 1.58 4.81 4.81 0 0 1 .71 2.51 1 1 0 0 0 2 0A6.91 6.91 0 0 0 26.74 18Z"/>
  <path style="fill: none" d="M0-.02h48v48H0z"/>
</svg>