<svg xmlns="http://www.w3.org/2000/svg" version="1.1" x="0px" y="0px" view-box="0 0 32 32" focusable="false">
  <g>
    <path fill="#fff" d="M25.56,5.27H23.5V2.95c0-0.35-0.29-0.64-0.64-0.64c-0.35,0-0.64,0.29-0.64,0.64v2.32H9.78V2.95 c0-0.35-0.29-0.64-0.64-0.64C8.79,2.32,8.5,2.6,8.5,2.95v2.32H6.44c-1.77,0-3.2,1.44-3.2,3.2v17.79c0,1.77,1.44,3.2,3.2,3.2h19.12 c1.77,0,3.2-1.44,3.2-3.2V8.48C28.77,6.71,27.33,5.27,25.56,5.27z M27.49,26.27c0,1.06-0.86,1.93-1.93,1.93H6.44 c-1.06,0-1.93-0.86-1.93-1.93V11.09h22.98V26.27z"/>
    <path fill="#fff" d="M12.46,20.19C12.47,20.19,12.47,20.19,12.46,20.19l2.9-0.04v2.89c0,0.35,0.29,0.64,0.64,0.64c0.35,0,0.64-0.29,0.64-0.64 v-2.91l2.91-0.04c0.35,0,0.63-0.29,0.63-0.65c0-0.35-0.3-0.63-0.65-0.63l-2.89,0.04v-2.89c0-0.35-0.29-0.64-0.64-0.64 c-0.35,0-0.64,0.29-0.64,0.64v2.91l-2.91,0.04c-0.35,0-0.63,0.29-0.63,0.65C11.83,19.91,12.11,20.19,12.46,20.19z"/>
  </g>
</svg>