<svg xmlns="http://www.w3.org/2000/svg" view-box="0 0 48 48" height="48" width="48" xml-space="preserve">
  <g fill="#0875BB">
    <path d="M41 6.86H17c-.55 0-1 .46-1 1.02v16.57c0 .56.45 1.02 1 1.02h12.29l6.06 6.19c.19.2.45.3.71.3.13 0 .26-.02.38-.08.37-.16.62-.53.62-.94v-5.46H41c.55 0 1-.46 1-1.02V7.88c0-.57-.45-1.02-1-1.02zm-1 16.57h-3.94c-.55 0-1 .46-1 1.02v4.02l-4.65-4.74a1 1 0 0 0-.71-.3H18V8.9h22v14.53z"/>
    <path d="M27.19 27.36c-.55 0-1 .46-1 1.02v5.26H16.5a1 1 0 0 0-.71.3l-3.64 3.71v-2.99c0-.56-.45-1.02-1-1.02H8v-11.9h6c.55 0 1-.46 1-1.02s-.45-1.02-1-1.02H7c-.55 0-1 .46-1 1.02v13.94c0 .56.45 1.02 1 1.02h3.16v4.43c0 .41.24.79.62.94a.976.976 0 0 0 1.09-.22l5.05-5.16h10.27c.55 0 1-.46 1-1.02v-6.28c0-.55-.45-1.01-1-1.01z"/>
  </g>
  <path fill="#0875BB" d="M28.53 25.78c0 .01 0 .01 0 0z"/>
  <g fill="#0875BB">
    <path d="M28.76 20.58c-1.94 0-3.46-1.25-3.46-2.84 0-.55.45-1 1-1s1 .45 1 1c0 .4.62.84 1.46.84s1.46-.44 1.46-.84c0-.38-.63-.72-1.53-.84l-.13-.02c-2.01-.27-3.26-1.35-3.26-2.83 0-1.59 1.52-2.84 3.46-2.84s3.46 1.25 3.46 2.84c0 .55-.45 1-1 1s-1-.45-1-1c0-.4-.62-.84-1.46-.84s-1.46.44-1.46.84c0 .38.63.72 1.53.84l.12.02c2.01.27 3.26 1.35 3.26 2.83 0 1.59-1.51 2.84-3.45 2.84z"/>
    <path d="M28.76 22.22c-.55 0-1-.45-1-1v-1.1c0-.55.45-1 1-1s1 .45 1 1v1.1c0 .55-.45 1-1 1zM28.76 12.75c-.55 0-1-.45-1-1v-1.1c0-.55.45-1 1-1s1 .45 1 1v1.1c0 .55-.45 1-1 1z"/>
  </g>
</svg>