<svg xmlns="http://www.w3.org/2000/svg" view-box="0 0 48 48" height="48" width="48" xml-space="preserve">
  <path fill="#0C75BC" d="M22.11 14.72c.09.12.18.25.28.36 2.29 2.65 4.59 5.29 6.88 7.94.68.78.66 1.19-.01 1.97-2.47 2.87-4.96 5.74-7.41 8.64-1.04 1.23-2.29 1.85-3.9 1.83-2.59-.02-5.19 0-7.78-.01-2.09 0-3.6-1.07-4.26-3.04-.13-.37-.15-.79-.15-1.19-.01-4.84.02-9.68-.02-14.52-.02-2.28 1.92-4.23 4.2-4.16 1.72.05 3.45.04 5.17-.01.79-.02 1.31.83.96 1.51-.22.42-.58.53-1 .53h-3.86c-.4 0-.81-.01-1.21 0-1.24.04-2.21.99-2.21 2.23-.01 4.81-.01 9.62 0 14.43 0 1.28.94 2.16 2.22 2.17 2.72.01 5.44 0 8.16 0 .77 0 1.36-.34 1.83-.91 1.65-1.97 3.29-3.95 4.94-5.92.69-.83 1.38-1.65 2.1-2.51-.19-.24-.36-.47-.54-.69-2.51-3.03-5.02-6.07-7.53-9.1-.29-.35-.34-.74-.18-1.13.17-.4.5-.6.96-.6 2.05.01 4.09-.02 6.13.02.31.01.7.19.9.43 2.93 3.33 5.83 6.69 8.74 10.03.62.71.64 1.18.02 1.91-2.27 2.65-4.54 5.29-6.82 7.93-.11.13-.22.27-.39.47.19.03.31.06.42.06.85 0 1.71.02 2.56-.01.21-.01.47-.13.6-.29 2.45-2.92 4.88-5.85 7.32-8.77.26-.31.22-.49-.01-.78-2.55-3.06-5.08-6.14-7.62-9.21-.46-.56-.45-1.17.04-1.57.48-.39 1.08-.31 1.53.22 2.86 3.35 5.72 6.69 8.58 10.04.62.73.64 1.19.02 1.9-2.92 3.38-5.84 6.76-8.79 10.11-.2.23-.62.38-.93.38-1.96.03-3.93.02-5.89.02-.5 0-.92-.14-1.15-.63-.23-.49-.01-.87.29-1.23 2.53-3.06 5.06-6.11 7.61-9.16.28-.33.3-.52.01-.87-2.36-2.8-4.7-5.62-7.02-8.45-.33-.4-.66-.58-1.19-.56-.85.04-1.7.01-2.55.01 0 .08-.02.13-.05.18z"/>
</svg>