<svg xmlns="http://www.w3.org/2000/svg" width="48" height="48" view-box="0 0 48 48" fill="none">
  <path d="M33.3 32.24H33.19C32.45 32.14 32 31.86 32 31.65C32 31.44 32.44 31.06 33.11 31.06C33.4536 31.0457 33.7909 31.1558 34.06 31.37C34.4742 31.7373 35.1077 31.6992 35.475 31.285C35.8423 30.8708 35.8042 30.2373 35.39 29.87C35.0527 29.5852 34.6616 29.371 34.24 29.24V29C34.24 28.4477 33.7923 28 33.24 28C32.6877 28 32.24 28.4477 32.24 29V29.14C31.0043 29.3394 30.0731 30.3705 30 31.62C30 32.97 31.12 33.96 32.92 34.19H33.03C33.78 34.29 34.22 34.57 34.22 34.79C34.22 35.01 33.78 35.38 33.11 35.38C32.7485 35.401 32.3921 35.287 32.11 35.06C31.8547 34.7872 31.4686 34.6794 31.1089 34.7807C30.7492 34.8819 30.476 35.1752 30.4005 35.5412C30.325 35.9071 30.4598 36.2847 30.75 36.52C31.1609 36.8883 31.6606 37.1433 32.2 37.26V37.45C32.2 38.0023 32.6477 38.45 33.2 38.45C33.7523 38.45 34.2 38.0023 34.2 37.45V37.2C35.3281 36.9303 36.1429 35.9485 36.2 34.79C36.22 33.47 35.1 32.48 33.3 32.24Z" fill="#0075BE"/>
  <path fill-rule="evenodd" clip-rule="evenodd" d="M33 40C36.866 40 40 36.866 40 33C40 29.134 36.866 26 33 26C29.134 26 26 29.134 26 33C26 36.866 29.134 40 33 40ZM33 42C37.9706 42 42 37.9706 42 33C42 28.0294 37.9706 24 33 24C28.0294 24 24 28.0294 24 33C24 37.9706 28.0294 42 33 42Z" fill="#0079C1"/>
  <path d="M29 22.5L28.1493 17.8211C28.0628 17.3456 27.6487 17 27.1654 17H25.4142C25.149 17 24.8946 17.1054 24.7071 17.2929L23.7071 18.2929C23.3166 18.6834 22.6834 18.6834 22.2929 18.2929L21.2929 17.2929C21.1054 17.1054 20.851 17 20.5858 17H18.8346C18.3513 17 17.9372 17.3456 17.8507 17.8211L16.2143 26.8211C16.1027 27.435 16.5743 28 17.1982 28H17.6087C18.1167 28 18.5439 28.3808 18.6022 28.8854L19.8978 40.1146C19.9561 40.6192 20.3833 41 20.8913 41H25" stroke="#0079C1" stroke-width="2" stroke-linecap="round" stroke-linejoin="round"/>
  <path d="M31.5 17.5H32.6667C32.883 17.5 33.0936 17.5702 33.2667 17.7L34.4 18.55C34.7556 18.8167 35.2444 18.8167 35.6 18.55L36.7333 17.7C36.9064 17.5702 37.117 17.5 37.3333 17.5H38.6327C39.1304 17.5 39.5523 17.8659 39.6227 18.3586L40.5 24.5" stroke="#0079C1" stroke-width="2" stroke-linecap="round" stroke-linejoin="round"/>
  <path d="M13.5 17.5H12.4142C12.149 17.5 11.8946 17.6054 11.7071 17.7929L11.2071 18.2929C10.8166 18.6834 10.1834 18.6834 9.79289 18.2929L9.29289 17.7929C9.10536 17.6054 8.851 17.5 8.58579 17.5H7.35449C6.86242 17.5 6.44348 17.858 6.36673 18.344L5.17521 25.8904C5.08321 26.473 5.53353 27 6.12338 27V27C6.61986 27 7.03442 27.3786 7.07937 27.873L7.91732 37.0905C7.96415 37.6056 8.39601 38 8.91321 38H12.1327C12.6304 38 13.0523 37.6341 13.1227 37.1414L14 31" stroke="#0079C1" stroke-width="2" stroke-linecap="round" stroke-linejoin="round"/>
  <circle cx="23" cy="10" r="4" stroke="#0079C1" stroke-width="2"/>
  <circle cx="10.5" cy="11.5" r="3.5" stroke="#0079C1" stroke-width="2"/>
  <circle cx="34.5" cy="11.5" r="3.5" stroke="#0079C1" stroke-width="2"/>
</svg>