<svg xmlns="http://www.w3.org/2000/svg" id="prefix__Layer_1" x="0" y="0" height="24" width="24" view-box="0 0 24 24" enable-background="new 0 0 48 48" xml-space="preserve" role="img">
  <style>
    .prefix__st4 {
      fill: none;
      stroke: #0875bb;
      stroke-width: 2;
      stroke-linecap: round;
    }
    .prefix__st5 {
      fill-rule: evenodd;
      clip-rule: evenodd;
      fill: #0875bb;
    }
  </style>
  <defs>
    <filter id="prefix__Adobe_OpacityMaskFilter" filterUnits="userSpaceOnUse" x="6.5" y="3.8" width="10.5" height="7">
      <feColorMatrix values="1 0 0 0 0 0 1 0 0 0 0 0 1 0 0 0 0 0 1 0"/>
    </filter>
  </defs>
  <mask maskUnits="userSpaceOnUse" x="6.5" y="3.8" width="10.5" height="7" id="prefix__mask0_811_36804_00000068667111530733643090000004466031129696469937_">
    <path d="M13.8 6.8c0-1.4-1-2.5-2.1-2.5S9.6 5.4 9.6 6.8s1 2.5 2.1 2.5c1.1-.1 2.1-1.1 2.1-2.5z" style="         fill: none;         filter: url(#prefix__Adobe_OpacityMaskFilter);         stroke: #0875bb;       "/>
  </mask>
  <g style="       mask: url(#prefix__mask0_811_36804_00000068667111530733643090000004466031129696469937_);     ">
    <path style="fill: none; stroke: #0875bb" d="M7 4.2h9.5v6H7z"/>
  </g>
  <path d="M6.5 5.8h11.3" style="         fill: none;         stroke: #0875bb;         stroke-width: 2,         stroke-linecap: round;         stroke-linejoin: round;       "/>
  <path class="prefix__st4" d="M11.9 6.8v12M9.4 19.8h4.9"/>
  <path class="prefix__st5" d="M5.9 4.8c.4 0 .7.2.9.6l2.9 5.9c.2.4.1.8-.2 1.1-1.2 1.3-2.3 2.3-3.7 2.3-1.4 0-2.5-1-3.6-2.3-.2-.4-.3-.9-.1-1.2L5 5.3c.2-.3.5-.6.9-.5zm-1.7 6.6c.8.9 1.3 1.1 1.7 1.1.3 0 .9-.2 1.8-1.1L5.9 8l-1.7 3.4zM18.1 4.8c.4 0 .7.2.9.6l2.9 5.8c.2.4.1.8-.2 1.1-1.2 1.3-2.3 2.3-3.7 2.2-1.4 0-2.5-1-3.6-2.3-.3-.3-.3-.7-.1-1.1l2.9-5.8c.2-.3.5-.6.9-.5zm-1.7 6.6c.8.9 1.3 1.1 1.6 1.1.3 0 .8-.2 1.7-1.1L18.1 8l-1.7 3.4z"/>
</svg>