<svg xmlns="http://www.w3.org/2000/svg" width="48" height="48" view-box="0 0 48 48" fill="none">
  <path d="M40.32 12.7835C40.3292 12.7138 40.3292 12.6432 40.32 12.5735C40.3282 12.5171 40.3282 12.4599 40.32 12.4035C40.32 12.4035 40.26 12.3235 40.23 12.2735C40.1923 12.2071 40.1451 12.1464 40.09 12.0935L32.24 5.18351C32.2156 5.1606 32.1888 5.14047 32.16 5.12351C32.103 5.07431 32.0389 5.03387 31.97 5.00351H31.76C31.7135 4.99883 31.6665 4.99883 31.62 5.00351H15.24C14.6877 5.00351 14.24 5.45122 14.24 6.00351V11.1735H9C8.44772 11.1735 8 11.6212 8 12.1735V41.3535C8 41.9058 8.44772 42.3535 9 42.3535H33.08C33.6323 42.3535 34.08 41.9058 34.08 41.3535V36.2935C34.0847 36.257 34.0847 36.22 34.08 36.1835H39.34C39.8923 36.1835 40.34 35.7358 40.34 35.1835V12.7835H40.32ZM38.32 34.1835H16.24V6.93351H30.58V12.8135C30.58 13.3658 31.0277 13.8135 31.58 13.8135H38.32V34.1835ZM32.58 8.16351L36.69 11.8135H32.58V8.16351ZM14.24 13.1035V35.1835C14.24 35.7358 14.6877 36.1835 15.24 36.1835H32.16C32.1279 36.2159 32.1009 36.253 32.08 36.2935V40.3535H10V13.1035H14.24ZM34.07 27.1235C34.6223 27.1235 35.07 27.5712 35.07 28.1235C35.07 28.6758 34.6223 29.1235 34.07 29.1235H20.41C19.8577 29.1235 19.41 28.6758 19.41 28.1235C19.41 27.5712 19.8577 27.1235 20.41 27.1235H34.07ZM34.07 22.4535C34.6223 22.4535 35.07 22.9012 35.07 23.4535C35.07 24.0058 34.6223 24.4535 34.07 24.4535H20.41C19.8577 24.4535 19.41 24.0058 19.41 23.4535C19.41 22.9012 19.8577 22.4535 20.41 22.4535H34.07ZM34.07 17.7935C34.6223 17.7935 35.07 18.2412 35.07 18.7935C35.07 19.3458 34.6223 19.7935 34.07 19.7935H20.41C19.8577 19.7935 19.41 19.3458 19.41 18.7935C19.41 18.2412 19.8577 17.7935 20.41 17.7935H34.07ZM27.78 13.4135C28.3323 13.4135 28.78 13.8612 28.78 14.4135C28.78 14.9658 28.3323 15.4135 27.78 15.4135H20.41C19.8577 15.4135 19.41 14.9658 19.41 14.4135C19.41 13.8612 19.8577 13.4135 20.41 13.4135H27.78Z" fill="#CCE4F3"/>
</svg>