<svg xmlns="http://www.w3.org/2000/svg" width="48" height="48" fill="none">
    <path d="M38.88 12H9.12A3 3 0 0 0 6 14.83v18.34A3 3 0 0 0 9.12 36h29.76A3 3 0 0 0 42 33.17V14.83A3 3 0 0 0 38.88 12ZM8 18h32v3H8v-3Zm1.12-4h29.76c.6 0 1.12.38 1.12.83V16H8v-1.17c0-.45.52-.83 1.12-.83Zm29.76 20H9.12c-.6 0-1.12-.38-1.12-.83V23h32v10.17c0 .45-.52.83-1.12.83Zm-4.32-9.09a3.6 3.6 0 1 0 .02 7.2 3.6 3.6 0 0 0-.02-7.2Zm-10.85 3.88a1 1 0 1 1 0 2h-4.17a1 1 0 1 1 0-2h4.17Zm-8.33 0a1 1 0 1 1 0 2h-4.17a1 1 0 1 1 0-2h4.17Zm19.193-1.88a1.6 1.6 0 1 1-.006 3.2 1.6 1.6 0 0 1 .006-3.2Z" fill="#0075BE"/>
</svg>