<svg xmlns="http://www.w3.org/2000/svg" view-box="0 0 48 48" height="48" width="48">
  <path style="fill-rule: evenodd; clip-rule: evenodd; fill: #0075be" class="st0" d="M41.5 13.2c0-.4-.4-.8-.8-.9-8.4-1.3-15.9-8-16-8.1-.4-.3-1-.3-1.3 0-.1.1-7.6 6.7-16 8.1-.4.1-.8.4-.8.9 0 .2-2.6 24.6 17.2 30.8h.6c19.7-6.2 17.1-30.6 17.1-30.8zM24 42c-7.4-2.5-12.3-7.9-14.5-16.3-.9-3.8-1.3-7.7-1.1-11.6C15.7 12.7 22 8 24 6.3c2 1.7 8.3 6.4 15.6 7.9.2 3.9.4 22.6-15.6 27.8z"/>
  <path style="fill-rule: evenodd; clip-rule: evenodd; fill: #0075be" class="st0" d="M29.9 15.1 27 18l-11.2-.9c-.5 0-1 .1-1.3.5l-.9.9c-.4.4-.6 1-.4 1.5.1.5.5 1 1 1.2l7 2.6-2 2h-3.7c-.3 0-.5.1-.7.3l-1.6 1.6c-.2.2-.3.6-.3.9.1.3.3.6.6.7l4.1 2 1.9 4.1c.1.3.4.5.7.5h.2c.3 0 .5-.1.7-.3l1.6-1.6c.2-.2.3-.5.3-.7v-3.7l2-2 2.6 7c.2.5.7.9 1.2 1 .6.1 1.1 0 1.5-.4l.9-.9c.3-.3.5-.8.5-1.3l-.9-11.2 2.9-2.9c1-1 .9-2.7-.1-3.7s-2.7-1-3.7-.1zm2.3 2.4L29 20.7c-.2.2-.3.5-.3.8l1 11.5-.4.4-3-8c-.1-.3-.4-.6-.7-.6h-.2c-.3 0-.5.1-.7.3l-3.4 3.5c-.2.2-.3.5-.3.7V33l-.3.3-1.5-3.1c-.1-.2-.3-.4-.5-.5l-3.1-1.5.3-.3h3.7c.3 0 .5-.1.7-.3l3.4-3.4c.2-.2.3-.6.3-.9-.1-.3-.3-.6-.6-.7l-8-3 .4-.4 11.5 1c.3 0 .6-.1.8-.3l3.2-3.2c.1-.1.3-.2.4-.2.2 0 .3.1.4.2.1.1.2.3.2.4s0 .3-.1.4z"/>
</svg>