<svg xmlns="http://www.w3.org/2000/svg" width="48" height="48" view-box="0 0 48 48" fill="none">
  <path d="M35.94 32.15L32.28 36.04L31.19 34.89C30.8034 34.5356 30.2087 34.5401 29.8275 34.9003C29.4463 35.2605 29.4081 35.8539 29.74 36.26L31.56 38.18C31.7488 38.3787 32.0109 38.4912 32.285 38.4912C32.5591 38.4912 32.8212 38.3787 33.01 38.18L37.4 33.57C37.7783 33.1668 37.7582 32.5333 37.355 32.155C36.9518 31.7767 36.3183 31.7968 35.94 32.2V32.15ZM33.56 27.16C33.4 27.16 33.25 27.16 33.09 27.16V13.83C33.0995 13.7603 33.0995 13.6897 33.09 13.62C33.0957 13.5635 33.0957 13.5065 33.09 13.45C33.0659 13.4029 33.0356 13.3592 33 13.32C32.9615 13.251 32.9145 13.1872 32.86 13.13L25.01 6.23L24.89 6.16C24.8327 6.11384 24.7686 6.07674 24.7 6.05C24.6294 6.02289 24.5553 6.00606 24.48 6H24.35H8C7.44772 6 7 6.44772 7 7V36.23C7 36.7823 7.44772 37.23 8 37.23H25.84C26.9136 41.2378 30.873 43.7597 34.9588 43.0381C39.0447 42.3165 41.9008 38.591 41.5367 34.4579C41.1726 30.3249 37.7091 27.1561 33.56 27.16ZM25.35 9.16L29.46 12.82H25.35V9.16ZM9 35.16V7.98H23.35V13.86C23.35 14.4123 23.7977 14.86 24.35 14.86H31.09V27.57C27.7959 28.6393 25.564 31.7067 25.56 35.17V35.24L9 35.16ZM33.56 29.09C36.8737 29.09 39.56 31.7763 39.56 35.09C39.5787 36.6934 38.9548 38.2376 37.8276 39.378C36.7003 40.5184 35.1635 41.16 33.56 41.16V41.09C30.2463 41.09 27.56 38.4037 27.56 35.09C27.56 31.7763 30.2463 29.09 33.56 29.09ZM26.88 27.16C27.4323 27.16 27.88 27.6077 27.88 28.16C27.88 28.7123 27.4323 29.16 26.88 29.16H13.21C12.6577 29.16 12.21 28.7123 12.21 28.16C12.21 27.6077 12.6577 27.16 13.21 27.16H26.88ZM26.88 22.5C27.4323 22.5 27.88 22.9477 27.88 23.5C27.88 24.0523 27.4323 24.5 26.88 24.5H13.21C12.6577 24.5 12.21 24.0523 12.21 23.5C12.21 22.9477 12.6577 22.5 13.21 22.5H26.88ZM26.88 17.83C27.4323 17.83 27.88 18.2777 27.88 18.83C27.88 19.3823 27.4323 19.83 26.88 19.83H13.21C12.6577 19.83 12.21 19.3823 12.21 18.83C12.21 18.2777 12.6577 17.83 13.21 17.83H26.88ZM20.49 13.33C21.0423 13.33 21.49 13.7777 21.49 14.33C21.49 14.8823 21.0423 15.33 20.49 15.33H13.21C12.6577 15.33 12.21 14.8823 12.21 14.33C12.21 13.7777 12.6577 13.33 13.21 13.33H20.49Z" fill="#CCE4F3"/>
</svg>