<svg xmlns="http://www.w3.org/2000/svg" view-box="0 0 48 48" height="48" width="48">
  <path fill="#0075be" d="M24.32,42.13a1,1,0,0,1-1-1V24.28a1,1,0,0,1,2,0V41.13A1,1,0,0,1,24.32,42.13Z"/>
  <path fill="#0075be" d="M24.36,25.28a10,10,0,1,1,10-10A10.05,10.05,0,0,1,24.36,25.28Zm0-18.06a8,8,0,1,0,8,8A8.06,8.06,0,0,0,24.36,7.22Z"/>
  <path fill="#0075be" d="M24.36,19.85c-1.85,0-3.29-1.19-3.29-2.71a1,1,0,0,1,2,0c0,.29.5.71,1.29.71s1.29-.42,1.29-.71-.59-.61-1.37-.72h-.12c-1.9-.26-3.09-1.29-3.09-2.7S22.51,11,24.36,11s3.29,1.19,3.29,2.71a1,1,0,0,1-2,0c0-.29-.5-.71-1.29-.71s-1.29.42-1.29.71.59.61,1.36.71l.12,0c1.91.25,3.1,1.29,3.1,2.7S26.2,19.85,24.36,19.85Z"/>
  <path fill="#0075be" d="M24.36,21.38a1,1,0,0,1-1-1v-1a1,1,0,0,1,2,0v1A1,1,0,0,1,24.36,21.38Z"/>
  <path fill="#0075be" d="M24.36,12.57a1,1,0,0,1-1-1v-1a1,1,0,0,1,2,0v1A1,1,0,0,1,24.36,12.57Z"/>
  <path fill="#0075be" d="M12.8,34.94A4.67,4.67,0,0,1,11,34.59c-2.78-1.17-4.48-4.7-5.52-7.26a1.48,1.48,0,0,1,0-1.13,1.5,1.5,0,0,1,.82-.8c2.56-1,6.28-2.28,9.06-1.11a5.41,5.41,0,0,1,2.8,3.07,5.72,5.72,0,0,1,.18,4.26A6.33,6.33,0,0,1,12.8,34.94ZM7.52,27.06c.66,1.58,2.15,4.81,4.25,5.69,1.57.66,4.15-.58,4.72-1.91a3.85,3.85,0,0,0-.2-2.73,3.51,3.51,0,0,0-1.72-2C12.48,25.25,9.12,26.43,7.52,27.06Zm-.2-.48Z"/>
  <path fill="#0075be" d="M24,41.67A1,1,0,0,1,23,41C20.62,35.11,16.28,31,11.43,30a1,1,0,0,1,.4-2c5.51,1.12,10.39,5.71,13.06,12.26a1,1,0,0,1-.55,1.3A1,1,0,0,1,24,41.67Z"/>
  <path fill="#0075be" d="M35.91,34.6a6.33,6.33,0,0,1-5.53-3.33A5.77,5.77,0,0,1,30.57,27a5.43,5.43,0,0,1,2.8-3.07c2.77-1.17,6.5.08,9.06,1.12a1.45,1.45,0,0,1,.81.8,1.43,1.43,0,0,1,0,1.13c-1,2.56-2.75,6.09-5.52,7.26A4.72,4.72,0,0,1,35.91,34.6Zm0-9.13a4.58,4.58,0,0,0-1.8.32,3.48,3.48,0,0,0-1.72,2,3.81,3.81,0,0,0-.19,2.72A4.29,4.29,0,0,0,37,32.41c2.09-.88,3.58-4.11,4.25-5.69A15.82,15.82,0,0,0,35.94,25.47Z"/>
  <path fill="#0075be" d="M24.76,41.33A1,1,0,0,1,23.83,40c2.67-6.55,7.55-11.14,13.05-12.27a1,1,0,0,1,.4,2c-4.84,1-9.18,5.13-11.6,11.06A1,1,0,0,1,24.76,41.33Z"/>
</svg>