<svg xmlns="http://www.w3.org/2000/svg" id="prefix__Layer_1" x="0" y="0" height="48" width="48" view-box="0 0 48 48" enable-background="new 0 0 48 48" xml-space="preserve">
  <style>
    .prefix__st0 {
      fill: #0075be;
    }
  </style>
  <path class="prefix__st0" d="M40.8 42.6h-35c-.6 0-1-.4-1-1v-18c0-.6.4-1 1-1h35c.6 0 1 .4 1 1v18c0 .6-.5 1-1 1zm-34-2h33v-16h-33v16zM27.6 18.2c-.2 0-.3 0-.5-.1L24 16.5l-3 1.6c-.3.2-.7.1-1.1-.1-.3-.2-.5-.6-.4-1l.6-3.4-2.5-2.4c-.3-.3-.4-.7-.3-1 .1-.4.4-.6.8-.7l3.5-.5 1.5-3.1c.3-.7 1.5-.7 1.8 0L26.5 9l3.4.5c.4.1.7.3.8.7.1.4 0 .8-.3 1L28 13.7l.6 3.4c.1.4-.1.8-.4 1-.2.1-.4.1-.6.1zm-3.5-3.8c.2 0 .3 0 .5.1l1.7.9-.3-1.9c-.1-.3.1-.7.3-.9l1.4-1.4-2-.2c-.3 0-.6-.3-.8-.5L24 8.7l-.9 1.8c-.1.3-.4.5-.8.5l-1.9.3 1.4 1.4c.2.2.3.6.3.9l-.3 1.9 1.7-.9c.3-.2.4-.2.6-.2zM13 18.2c-.2 0-.3 0-.5-.1L10.3 17l-2.2 1.2c-.3.2-.7.1-1.1-.1-.3-.2-.5-.6-.4-1l.4-2.5-1.8-1.8c-.3-.3-.4-.7-.3-1 .1-.4.4-.6.8-.7l2.5-.4 1.1-2.2c.3-.7 1.5-.7 1.8 0l1.1 2.2 2.5.4c.4.1.7.3.8.7.1.4 0 .8-.3 1l-1.8 1.8.4 2.5c.1.4-.1.8-.4 1 0 .1-.2.1-.4.1zm-2.7-3.4c.2 0 .3 0 .5.1l.9.5-.2-1c-.1-.3.1-.7.3-.9l.7-.7-1-.1c-.3 0-.6-.3-.8-.5l-.4-.9-.4.9c-.1.3-.4.5-.8.5l-1 .1.7.7c.2.2.3.6.3.9l-.2 1 .9-.5c.2 0 .3-.1.5-.1zM40.6 18.2c-.2 0-.3 0-.5-.1L37.9 17l-2.2 1.2c-.3.2-.7.1-1.1-.1-.3-.2-.5-.6-.4-1l.4-2.5-1.8-1.8c-.3-.3-.4-.7-.3-1 .1-.4.4-.6.8-.7l2.5-.4L37 8.5c.3-.7 1.5-.7 1.8 0l1.1 2.2 2.5.4c.4.1.7.3.8.7.1.4 0 .8-.3 1l-1.8 1.8.4 2.5c.1.4-.1.8-.4 1-.1.1-.3.1-.5.1zm-2.7-3.4c.2 0 .3 0 .5.1l.9.5-.2-1c-.1-.3.1-.7.3-.9l.7-.7-1-.1c-.3 0-.6-.3-.8-.5l-.4-.9-.4.9c-.1.3-.4.5-.8.5l-1 .1.7.7c.2.2.3.6.3.9l-.2 1 .9-.5c.2 0 .3-.1.5-.1z"/>
  <path class="prefix__st0" d="M14.3 37.6c-.6 0-1-.4-1-1v-7c0-.6.4-1 1-1s1 .4 1 1v7c0 .6-.5 1-1 1zM23.3 37.6c-.6 0-1-.4-1-1v-7c0-.6.4-1 1-1s1 .4 1 1v7c0 .6-.5 1-1 1zM32.3 37.6c-.6 0-1-.4-1-1v-7c0-.6.4-1 1-1s1 .4 1 1v7c0 .6-.5 1-1 1z"/>
</svg>