<svg xmlns="http://www.w3.org/2000/svg" id="prefix__Layer_1" x="0" y="0" height="48" width="48" view-box="0 0 48 48" enable-background="new 0 0 48 48" xml-space="preserve">
  <style>
    .prefix__st1 {
      fill: none;
      stroke: #0075be;
      stroke-width: 2.1;
      stroke-miterlimit: 10;
    }
  </style>
  <path style="fill: none" d="M0 0h48v48H0z"/>
  <path class="prefix__st1" d="M41.9 27.3H10.5M39.5 41.9H12.9c-1.3 0-2.4-1.1-2.4-2.4v-16c0-1.3 1.1-2.4 2.4-2.4h26.6c1.3 0 2.4 1.1 2.4 2.4v16c0 1.3-1.1 2.4-2.4 2.4z"/>
  <circle class="prefix__st1" cx="{35.2}" cy="{35.5}" r="{2.4}"/>
  <path d="M10.5 29c-.3-.4-.6-.8-.8-1.3h.8v-2.2H8.7c-.4-1.4-.7-2.9-.7-4.4 0-1.5.2-2.9.7-4.4h5.1c-.4 1.5-.6 2.9-.6 4.4h2.2c0-1.4.2-2.9.7-4.4h4.5v4.4h2.2v-4.4h4.5c.5 1.5.7 2.9.7 4.4h2c0-1.4-.2-2.9-.6-4.4h5.1c.5 1.4.7 2.9.7 4.4h2.2c0-8.7-7.1-15.8-15.8-15.8S5.8 12.5 5.8 21.1c0 4.4 1.8 8.3 4.7 11.2V29zm23-14.4h-4.9c-.9-2.3-2.4-4.5-4.3-6.8 3.9.8 7.3 3.3 9.2 6.8zM22.7 9.2c1.5 1.8 2.8 3.6 3.6 5.4h-3.6V9.2zm-2.2 5.4h-3.6c.9-1.8 2.1-3.6 3.6-5.4v5.4zm-1.6-6.8c-1.9 2.2-3.4 4.5-4.3 6.8H9.7c1.9-3.5 5.3-6 9.2-6.8z" style="fill: #0075be"/>
</svg>