<svg xmlns="http://www.w3.org/2000/svg" view-box="0 0 48 48" xml-space="preserve" height="48" width="48">
  <path fill="#0C75BC" d="M19.2 23h-6.64v2.41h3.22c-.27.55-.65 1.04-1.11 1.43a4.235 4.235 0 0 1-6.65-1.7c-.19-.48-.29-1-.29-1.54 0-.88.27-1.69.72-2.36l.08-.1a4.196 4.196 0 0 1 3.42-1.76c1.13 0 2.16.44 2.91 1.17l2.02-2.25a7.244 7.244 0 0 0-4.92-1.93c-2.5 0-4.7 1.27-6.01 3.19a7.23 7.23 0 0 0-1.24 4.05c0 1.19.29 2.31.79 3.3a7.244 7.244 0 0 0 6.45 3.94c1.93 0 3.68-.75 4.98-1.99a7.237 7.237 0 0 0 2.26-5.26l.01-.6zm19.37 5-2.85-7.49h1.73l1.95 5.7 2.39-5.7h1.5s-4.66 11-4.7 11.09l-1.5.04c.03-.06 1.48-3.64 1.48-3.64zm-4.87-2.89c0 .93-.82 1.59-1.9 1.59-.85 0-1.39-.39-1.39-1 0-.62.52-.98 1.52-1.04l1.78-.13-.01.58zm-1.48-4.6c-1.69 0-2.95.93-2.99 2.22h1.44c.12-.61.7-1.01 1.51-1.01.97 0 1.53.44 1.53 1.25v.56l-1.99.1c-1.85.11-2.85.84-2.85 2.11 0 1.28 1.03 2.13 2.52 2.13 1 0 1.93-.49 2.35-1.26h.03v1.26h1.47v-5.01c-.01-1.43-1.19-2.35-3.02-2.35zm-7.29 2.45h-1.96v-3.92h1.96c1.4 0 2.3.66 2.3 1.96s-.89 1.96-2.3 1.96zm.47-5.39h-3.9v10.3h1.47v-3.43h2.38c2.04 0 3.51-1.42 3.51-3.43s-1.44-3.44-3.46-3.44z"/>
</svg>