<svg xmlns="http://www.w3.org/2000/svg" view-box="0 0 48 48" height="48" width="48">
  <path d="M24 29.17a1.63 1.63 0 0 1-.74-.19L5.1 19a1 1 0 0 1 1-1.76L24 27.1l17.94-9.84a1 1 0 1 1 1 1.76L24.74 29a1.63 1.63 0 0 1-.74.17Zm-.22-2Zm.44 0Z" style="fill: #0075be"/>
  <path d="M42.42 18.61a1 1 0 0 1-.48-.12L24 8.65 6.06 18.49a1 1 0 1 1-1-1.76l18.2-9.95a1.53 1.53 0 0 1 1.48 0l18.16 10a1 1 0 0 1-.48 1.88ZM13.81 31.58a1 1 0 0 1-1-1v-6.73a1 1 0 0 1 2 0v6.73a1 1 0 0 1-1 1Z" style="fill: #0075be"/>
  <path d="M24 36.14a3.12 3.12 0 0 1-1.37-.31l-9.1-4.21a1 1 0 0 1 .84-1.82l9.1 4.2a1.23 1.23 0 0 0 1.06 0l8.67-4v-6.15a1 1 0 0 1 2 0v6.85a1 1 0 0 1-.58.87l-9.22 4.26a3.12 3.12 0 0 1-1.4.31ZM8.68 35.78a1 1 0 0 1-1-1v-14a1 1 0 0 1 2 0v14a1 1 0 0 1-1 1Z" style="fill: #0075be"/>
  <path d="M8.68 41.41A3.35 3.35 0 1 1 12 38.07a3.35 3.35 0 0 1-3.32 3.34Zm0-4.69A1.35 1.35 0 1 0 10 38.07a1.34 1.34 0 0 0-1.32-1.35ZM24 22c-1.94 0-3.46-1.24-3.46-2.83a1 1 0 0 1 2 0c0 .39.63.83 1.46.83s1.46-.44 1.46-.83-.63-.73-1.53-.85h-.13c-2-.26-3.26-1.34-3.26-2.82s1.52-2.84 3.46-2.84 3.46 1.25 3.46 2.84a1 1 0 1 1-2 0c0-.4-.63-.84-1.46-.84s-1.46.44-1.46.84.63.72 1.53.84h.13c2 .27 3.26 1.35 3.26 2.83S25.94 22 24 22Z" style="fill: #0075be"/>
  <path d="M24 23.66a1 1 0 0 1-1-1v-1.11a1 1 0 1 1 2 0v1.11a1 1 0 0 1-1 1ZM24 14.19a1 1 0 0 1-1-1v-1.11a1 1 0 1 1 2 0v1.11a1 1 0 0 1-1 1Z" style="fill: #0075be"/>
</svg>