<svg xmlns="http://www.w3.org/2000/svg" width="48" height="48" view-box="0 0 48 48" fill="none">
  <path d="M21.4608 21.09H16.7608C16.2085 21.09 15.7608 21.5377 15.7608 22.09V40C15.7608 40.5523 16.2085 41 16.7608 41H21.4608C22.0131 41 22.4608 40.5523 22.4608 40V22.09C22.4608 21.5377 22.0131 21.09 21.4608 21.09ZM20.4608 39H17.7608V23.09H20.4608V39ZM11.7408 29.05H7.09079C6.53851 29.05 6.09079 29.4977 6.09079 30.05V40.05C6.09079 40.6023 6.53851 41.05 7.09079 41.05H11.7908C12.3431 41.05 12.7908 40.6023 12.7908 40.05V30.05C12.7911 29.7759 12.6789 29.5137 12.4804 29.3246C12.282 29.1356 12.0146 29.0363 11.7408 29.05ZM10.7408 39.05H8.09079V31.05H10.7908L10.7408 39.05ZM31.3308 25.07H26.3308C25.7785 25.07 25.3308 25.5177 25.3308 26.07V40C25.3308 40.5523 25.7785 41 26.3308 41H31.3308C31.8831 41 32.3308 40.5523 32.3308 40V26.07C32.3308 25.5177 31.8831 25.07 31.3308 25.07ZM30.3308 39H27.3308V27.07H30.3308V39ZM40.8808 21.09H36.1808C35.6285 21.09 35.1808 21.5377 35.1808 22.09V40C35.1808 40.5523 35.6285 41 36.1808 41H40.8808C41.4331 41 41.8808 40.5523 41.8808 40V22.09C41.8808 21.5377 41.4331 21.09 40.8808 21.09ZM39.8808 39H37.1808V23.09H39.8808V39ZM41.1708 6H35.5208C34.9685 6 34.5208 6.44772 34.5208 7C34.5208 7.55228 34.9685 8 35.5208 8H38.8308L28.4408 18.62L20.6208 10.62C20.2537 10.2412 19.7483 10.0282 19.2208 10.03C18.6911 10.0272 18.1841 10.2445 17.8208 10.63L6.29079 22.5C5.90307 22.89 5.90307 23.52 6.29079 23.91C6.68083 24.2977 7.31076 24.2977 7.70079 23.91L19.2008 12.06L27.0108 20.06C27.7897 20.8288 29.0419 20.8288 29.8208 20.06L40.1708 9.5V13.24C40.1708 13.7923 40.6185 14.24 41.1708 14.24C41.7231 14.24 42.1708 13.7923 42.1708 13.24V7C42.1708 6.44772 41.7231 6 41.1708 6Z" fill="#CCE4F3"/>
</svg>