<svg xmlns="http://www.w3.org/2000/svg" width="48" height="48" view-box="0 0 48 48" fill="none">
  <path d="M33.44 31.4003C33.9923 31.4003 34.44 31.848 34.44 32.4003C34.44 32.9526 33.9923 33.4003 33.44 33.4003H30.53C29.9777 33.4003 29.53 32.9526 29.53 32.4003C29.53 31.848 29.9777 31.4003 30.53 31.4003H33.44ZM39.24 31.4003C39.7923 31.4003 40.24 31.848 40.24 32.4003C40.24 32.9526 39.7923 33.4003 39.24 33.4003H36.34C35.7877 33.4003 35.34 32.9526 35.34 32.4003C35.34 31.848 35.7877 31.4003 36.34 31.4003H39.24ZM40.8 19.7103H28.33L23.97 15.6003C23.5668 15.2192 22.9311 15.2371 22.55 15.6403C22.1689 16.0434 22.1868 16.6792 22.59 17.0603L30.14 24.1303C30.4193 24.3981 30.5773 24.7683 30.5773 25.1553C30.5773 25.5422 30.4193 25.9125 30.14 26.1803C29.616 26.7121 28.771 26.7513 28.2 26.2703L22.85 21.7303C22.6674 21.579 22.4371 21.4975 22.2 21.5003H20.57C18.5539 21.4944 16.6755 20.4763 15.57 18.7903C15.3906 18.4559 15.0374 18.2518 14.6581 18.2634C14.2788 18.2751 13.9388 18.5004 13.7802 18.8452C13.6217 19.1899 13.672 19.5947 13.91 19.8903C14.8127 21.2444 16.107 22.2909 17.62 22.8903V34.7503C17.6952 36.0428 18.7859 37.0404 20.08 37.0003H40.8C42.1111 37.0568 43.2206 36.0413 43.28 34.7303V22.0003C43.2566 21.3671 42.9817 20.7694 42.5162 20.3395C42.0507 19.9097 41.433 19.6832 40.8 19.7103ZM30.45 21.7103H40.8C41.09 21.7103 41.28 21.8703 41.28 21.9803V24.2303H32.41C32.252 23.6335 31.9298 23.0931 31.48 22.6703L30.45 21.7103ZM40.8 35.0003H20.08C19.8 35.0003 19.6 34.8403 19.6 34.7303V23.4403C19.9317 23.4814 20.2657 23.5015 20.6 23.5003H21.86L26.94 27.7903C27.5632 28.3183 28.3532 28.6087 29.17 28.6103C30.0455 28.6186 30.8881 28.2766 31.51 27.6603C31.5616 27.6188 31.6085 27.5718 31.65 27.5203C31.9983 27.1538 32.2582 26.7125 32.41 26.2303H41.31V34.7503C41.28 34.8603 41.14 35.0003 40.8 35.0003ZM15.95 25.5103C13.8163 24.8928 12.3457 22.9416 12.34 20.7203V13.0003H25.28C26.3707 13.0062 27.4276 13.3796 28.28 14.0603L34.28 18.5403C34.7218 18.8716 35.3486 18.7821 35.68 18.3403C36.0114 17.8984 35.9218 17.2716 35.48 16.9403L29.48 12.4803C28.2862 11.5288 26.8066 11.0074 25.28 11.0001H11.87C11.6884 10.9976 11.5081 11.0316 11.34 11.1003C11.279 11.0566 11.2115 11.0228 11.14 11.0001H6C5.44772 11.0001 5 11.448 5 12.0003V22.5803C5 23.1326 5.44772 23.5803 6 23.5803H11C11.8392 25.4484 13.4544 26.8553 15.42 27.4303C15.5094 27.4448 15.6006 27.4448 15.69 27.4303C16.1492 27.4485 16.5617 27.1515 16.69 26.7103C16.8152 26.1749 16.4846 25.6388 15.95 25.5103ZM10.14 21.5803H7V13.0003H10.14V21.5803Z" fill="#CCE4F3"/>
</svg>