<svg xmlns="http://www.w3.org/2000/svg" id="prefix__Layer_1" x="0" y="0" height="48" width="48" view-box="0 0 48 48" enable-background="new 0 0 48 48" xml-space="preserve">
  <style>
    .prefix__st0 {
      fill: #0075be;
    }
  </style>
  <path class="prefix__st0" d="M16.2 15.3c.9.3 1.8.3 2.7-.1l.4-.2c.5-.3 1.2-.3 1.8-.1l8.2 2.8c-.1.3-.2.8-.6 1-.1.1-.6.4-1.6 0l-3.2-1.1c-.5-.2-1.1.1-1.3.6-.2.5-.8 1.8-2 2.5-1 .6-2.3.6-3.8.1-.5-.2-1.1.1-1.3.6-.2.5.1 1.1.6 1.3 2 .7 3.9.6 5.4-.2 1.3-.7 2.1-1.8 2.5-2.6l2.4.8c1.3.5 2.5.4 3.4-.3 1.2-.9 1.5-2.4 1.5-3 0-.6-.4-1.2-1-1.4l-8.6-3c-1.1-.4-2.3-.3-3.3.2l-.4.1c-.3.2-.8.2-1.1.1l-.7-.2c-.1 0-.1-.1-.2-.1l-4.4-1.5c-.4-.1-.7-.1-1.1.1-.3.2-.6.5-.7.8L6.1 23.2c-.3.8.1 1.6.9 1.9l1 .3 2.3.8c.2.1.4.1.5.1.2 0 .4-.1.6-.1.3-.2.6-.5.7-.8l3.5-10.3.6.2zm-5.8 8.8-1.8-.6-.4-.1 3.3-9.7 2.2.8-3.3 9.6z"/>
  <path class="prefix__st0" d="m41.9 23.4-5-10.3c-.2-.3-.5-.6-.8-.7-.4-.1-.8-.1-1.1.1l-1.6.8-1.6.7c-.7.3-1 1.2-.6 1.9l5 9.6-.1.1-1.8 1.7c-1.4 1.3-2.9 2.3-4.6 3.2l-8 3.9c-.2.1-.4.1-.6 0-.2-.1-.3-.2-.4-.4l4.5-2.4c.5-.3.7-.9.4-1.4-.3-.5-.9-.7-1.4-.4L19 32.6h-.1l-.8.4c-.4.2-.8 0-1-.3v-.1l6.3-3.5c.5-.3.7-.9.4-1.4-.3-.5-.9-.7-1.4-.4L15.7 31c-.2-.1-.4-.2-.5-.4-.1-.2-.1-.5 0-.7.7-.3 2.3-1.1 6.2-3.2.5-.3.7-.9.4-1.4-.3-.5-.9-.7-1.4-.4-3.4 1.9-5 2.6-5.6 3v-.1c-.1-.2-.1-.4 0-.6.1-.2.2-.4.4-.4l1.7-.8c.5-.2.7-.8.5-1.3-.2-.5-.8-.7-1.3-.5l-1.9.8c-.7.3-1.2.9-1.4 1.6-.2.7-.2 1.5.1 2.1.1.2.2.4.3.5-.2.8-.2 1.6.1 2.3.4.7 1 1.3 1.8 1.5 0 .2.1.4.2.6.5 1 1.4 1.6 2.5 1.6.3 0 .6 0 .8-.1.3.6.9 1.1 1.6 1.4.3.1.6.1.9.1.4 0 .8-.1 1.2-.3l8-3.9c1.8-.9 3.6-2.1 5.1-3.5l1.7-1.6 4-2c.8-.4 1.1-1.2.8-1.9zm-4 1.3-4.7-9.1 1-.5 1.1-.5 4.5 9.2-1.9.9z"/>
</svg>