<svg xmlns="http://www.w3.org/2000/svg" id="prefix__Layer_1" x="0" y="0" height="48" width="48" view-box="0 0 48 48" enable-background="new 0 0 48 48" xml-space="preserve">
  <style>
    .prefix__st0 {
      fill: none;
      stroke: #0776ba;
      stroke-width: 2;
      stroke-linecap: round;
      stroke-linejoin: round;
      stroke-miterlimit: 10;
    }
  </style>
  <path class="prefix__st0" d="M23.9 8.6c1.4.4 2.5 1.6 2.5 3.1v11.2c0 3.2-2.8 5.9-6.3 5.9H15c-3.5 0-6.3-2.7-6.3-5.9V11.6c0-1.3.9-2.4 2.1-2.9"/>
  <path class="prefix__st0" d="M30.9 23.8v11.6c0 3-3 5.5-6.7 5.5h0c-3.7 0-6.7-2.5-6.7-5.5v-6.2M30.9 24.1c0-1.4 1.3-2.6 2.9-2.6h0c1.6 0 2.9 1.2 2.9 2.6v11.1M11.7 7.1v2.4M23.2 7.1v2.4"/>
  <circle cx="36.8" cy="37.6" r="2.6" style="       fill: #fff;       stroke: #0075be;       stroke-width: 2;       stroke-linecap: round;       stroke-linejoin: round;       stroke-miterlimit: 10;     "/>
</svg>