<svg xmlns="http://www.w3.org/2000/svg" width="48" height="48" view-box="0 0 48 48" fill="none">
  <path d="M22.14 11.42C20.6426 11.416 19.2904 12.3149 18.7145 13.6972C18.1387 15.0795 18.4528 16.6725 19.5102 17.7328C20.5676 18.7931 22.1598 19.1115 23.5436 18.5394C24.9274 17.9673 25.83 16.6175 25.83 15.1201C25.83 13.0805 24.1795 11.4256 22.14 11.42ZM22.14 16.8201C21.4515 16.8241 20.8286 16.4125 20.5623 15.7776C20.296 15.1427 20.439 14.4098 20.9244 13.9216C21.4098 13.4333 22.1418 13.286 22.7782 13.5485C23.4147 13.8111 23.83 14.4316 23.83 15.1201C23.83 16.0551 23.075 16.8146 22.14 16.8201ZM34.89 24.3301V16.3301L36.22 17.8301C36.4114 18.0421 36.6843 18.1622 36.97 18.1601C37.2131 18.1597 37.4477 18.0708 37.63 17.9101C38.0437 17.5453 38.084 16.9145 37.72 16.5001L28.72 6.33006C28.5286 6.11798 28.2557 5.99788 27.97 6.00003H16.07C15.7843 5.99788 15.5114 6.11798 15.32 6.33006L6.32 16.5001C5.95273 16.9143 5.99079 17.5478 6.405 17.9151C6.81921 18.2823 7.45273 18.2443 7.82 17.8301L9.35 16.1001V34.7701H7C6.44772 34.7701 6 35.2178 6 35.7701C6 36.3223 6.44772 36.7701 7 36.7701H25.27C27.0431 40.5651 31.234 42.5972 35.3118 41.6394C39.3896 40.6815 42.2374 36.996 42.1354 32.8084C42.0334 28.6208 39.0096 25.0783 34.89 24.3201V24.3301ZM14.33 22.9501V34.7701H11.38V13.8601L16.55 8.01006H27.55L32.94 14.1001C32.94 14.1001 32.94 14.1601 32.94 14.2001V24.2001C32.0196 24.238 31.1114 24.4237 30.25 24.7501V22.9501C30.25 22.3978 29.8023 21.9501 29.25 21.9501H15.33C14.7777 21.9501 14.33 22.3978 14.33 22.9501ZM24.6 34.7701H16.33V23.9501H28.2V25.8501C25.8363 27.5028 24.4288 30.2058 24.43 33.0901C24.4339 33.6541 24.4908 34.2166 24.6 34.7701ZM33.28 39.8901C30.5045 39.8901 28.0024 38.2176 26.9412 35.653C25.88 33.0883 26.4688 30.1369 28.4328 28.1758C30.3968 26.2146 33.3491 25.6302 35.9121 26.6951C38.4752 27.7601 40.144 30.2645 40.14 33.0401C40.14 34.8585 39.4169 36.6024 38.1301 37.8873C36.8434 39.1722 35.0985 39.8927 33.28 39.8901ZM33.47 32.0501H33.36C32.62 31.9501 32.17 31.6701 32.17 31.4601C32.17 31.2501 32.61 30.8701 33.28 30.8701C33.6236 30.8558 33.9609 30.9658 34.23 31.1801C34.6442 31.5473 35.2777 31.5093 35.645 31.0951C36.0123 30.6808 35.9742 30.0473 35.56 29.6801C35.2227 29.3952 34.8316 29.181 34.41 29.0501V28.8101C34.41 28.2578 33.9623 27.8101 33.41 27.8101C32.8577 27.8101 32.41 28.2578 32.41 28.8101V28.9501C31.1743 29.1495 30.2431 30.1805 30.17 31.4301C30.17 32.7801 31.29 33.7701 33.09 34.0001H33.2C33.95 34.1001 34.39 34.3801 34.39 34.6001C34.39 34.8201 33.95 35.1901 33.28 35.1901C32.9185 35.2111 32.5621 35.097 32.28 34.8701C32.0247 34.5972 31.6386 34.4895 31.2789 34.5907C30.9192 34.692 30.646 34.9853 30.5705 35.3512C30.495 35.7172 30.6298 36.0947 30.92 36.3301C31.3309 36.6984 31.8306 36.9534 32.37 37.0701V37.2601C32.37 37.8123 32.8177 38.2601 33.37 38.2601C33.9223 38.2601 34.37 37.8123 34.37 37.2601V37.0101C35.4981 36.7404 36.3129 35.7586 36.37 34.6001C36.39 33.2801 35.27 32.2901 33.47 32.0501Z" fill="#CCE4F3"/>
</svg>