<svg xmlns="http://www.w3.org/2000/svg" xmlns:xlink="http://www.w3.org/1999/xlink" width="227px" height="170px" viewBox="0 0 227 170" version="1.1">
    <g id="[TABLET]---3.0-Personal-Information-Copy" stroke="none" stroke-width="1" fill="none" fill-rule="evenodd">
        <g id="3.0---Personal-Information-(lg-tablet)" transform="translate(-518.000000, -140.000000)">
            <g id="illustaration-personalinfo" transform="translate(520.000000, 142.000000)">
                <path d="M79.0716618,126 L187.171468,126 C227.886547,126 240.156222,148.115356 184.055312,148.115356 L33.0596228,148.115356 C-0.958498179,148.115356 -20.058464,166 33.0596228,166 L115.521092,166" id="Stroke-1" stroke="#0079C1" stroke-width="3" stroke-linecap="round" stroke-linejoin="round"/>
                <path d="M178.532345,14.3789177 C174.705314,15.7798421 172,19.2129652 172,23.227871 L172,23.4793707 C172,28.7366246 176.641162,33 182.363436,33 L197.501015,33 L212.63758,33 C218.359853,33 223,28.7366246 223,23.4793707 L223,23.227871 C223,19.0301481 220.043949,15.46774 215.940804,14.2011508 C215.980394,13.7880448 215.999682,13.3688786 215.999682,12.9456721 C215.999682,5.7956048 210.290605,0 203.250697,0 C199.262261,0 195.702209,1.85847209 193.364371,4.76839496 C192.16246,4.31084721 190.860052,4.06035749 189.500796,4.06035749 C183.708479,4.06035749 178.960729,8.60856391 178.532345,14.3789177" id="Fill-3" fill="#FFFFFF"/>
                <path d="M190.436642,5.00000791 C190.436642,5.00000791 182.767238,17.8546011 190.436642,25.4273005 C198.107069,33 216.947216,29.9442232 224,23.4917699 C224,23.4917699 223.491774,33 212.618604,33 L183.065834,33 C175.587653,33 166.395617,20.2367926 179.920355,14.9836495 C179.920355,14.9836495 180.703657,4.98973984 190.436642,5.00000791" id="Fill-5" fill="#C1E7FF"/>
                <path d="M178.532345,14.3789177 C174.705314,15.7798421 172,19.2129652 172,23.227871 L172,23.4793707 C172,28.7366246 176.641162,33 182.363436,33 L197.501015,33 L212.63758,33 C218.359853,33 223,28.7366246 223,23.4793707 L223,23.227871 C223,19.0301481 220.043949,15.46774 215.940804,14.2011508 C215.980394,13.7880448 215.999682,13.3688786 215.999682,12.9456721 C215.999682,5.7956048 210.290605,0 203.250697,0 C199.262261,0 195.702209,1.85847209 193.364371,4.76839496 C192.16246,4.31084721 190.860052,4.06035749 189.500796,4.06035749 C183.708479,4.06035749 178.960729,8.60856391 178.532345,14.3789177 Z" id="Stroke-7" stroke="#73C3EB" stroke-width="3" stroke-linecap="round" stroke-linejoin="round"/>
                <path d="M35,166.5 L117,166.5" id="Stroke-9" stroke="#001928" stroke-width="3" stroke-linecap="round" stroke-linejoin="round"/>
                <path d="M35,148 C0.0131496011,148 -19.6281452,166 35,166" id="Stroke-11" stroke="#001928" stroke-width="3" stroke-linecap="round" stroke-linejoin="round"/>
                <path d="M45.4676553,17.3794877 C49.2946855,18.7793591 52,22.2133872 52,26.22817 L52,26.4796621 C52,31.7367551 47.3588376,36 41.6365645,36 L26.4989849,36 L11.3624204,36 C5.64014729,36 1,31.7367551 1,26.4796621 L1,26.22817 C1,22.0305757 3.95605096,18.4682766 8.05919586,17.2007162 C8.01960589,16.7876228 8.00031847,16.3694794 8.00031847,15.9452759 C8.00031847,8.79542742 13.7093949,3 20.7493033,3 C24.7377389,3 28.2977906,4.85942521 30.635629,7.76925902 C31.8375398,7.31172528 33.1399482,7.06124323 34.4992038,7.06124323 C40.2925358,7.06124323 45.0392715,11.6083004 45.4676553,17.3794877" id="Fill-13" fill="#FFFFFF"/>
                <path d="M35.221789,8.00000944 C35.221789,8.00000944 43.0428948,21.3132499 35.221789,29.1571439 C27.4006833,37 8.19232426,33.8356665 1,27.1520628 C1,27.1520628 1.51787991,37 12.6049866,37 L42.737661,37 C50.3613823,37 59.7340929,23.7812017 45.9436327,18.3398765 C45.9436327,18.3398765 45.1459552,7.98859334 35.221789,8.00000944" id="Fill-15" fill="#C1E7FF"/>
                <path d="M45.4676553,17.3794877 C49.2946855,18.7793591 52,22.2133872 52,26.22817 L52,26.4796621 C52,31.7367551 47.3588376,36 41.6365645,36 L26.4989849,36 L11.3624204,36 C5.64014729,36 1,31.7367551 1,26.4796621 L1,26.22817 C1,22.0305757 3.95605096,18.4682766 8.05919586,17.2007162 C8.01960589,16.7876228 8.00031847,16.3694794 8.00031847,15.9452759 C8.00031847,8.79542742 13.7093949,3 20.7493033,3 C24.7377389,3 28.2977906,4.85942521 30.635629,7.76925902 C31.8375398,7.31172528 33.1399482,7.06124323 34.4992038,7.06124323 C40.2925358,7.06124323 45.0392715,11.6083004 45.4676553,17.3794877 Z" id="Stroke-17" stroke="#73C3EB" stroke-width="3" stroke-linecap="round" stroke-linejoin="round"/>
                <path d="M26.5559501,142.999643 C41.7350649,142.905872 39.9337211,129.708419 39.9337211,117.114929 C39.9337211,104.52043 35.8615864,89.8528962 29.1580001,90.0011142 C22.4544137,90.1503405 15.9027362,107.025012 15.6636024,115.857596 C15.4254487,124.69018 11.3778154,143.093414 26.5559501,142.999643" id="Fill-19" fill="#C1E7FF"/>
                <path d="M26.5559501,142.999643 C41.7350649,142.905872 39.9337211,129.708419 39.9337211,117.114929 C39.9337211,104.52043 35.8615864,89.8528962 29.1580001,90.0011142 C22.4544137,90.1503405 15.9027362,107.025012 15.6636024,115.857596 C15.4254487,124.69018 11.3778154,143.093414 26.5559501,142.999643 Z" id="Stroke-21" stroke="#005587" stroke-width="3" stroke-linecap="round" stroke-linejoin="round"/>
                <path d="M30,110 C28.3276405,119.707051 27.3660069,126.949355 27.1161759,131.724926 C26.8652682,136.50149 27.0203356,144.591857 27.5856858,156" id="Stroke-23" stroke="#005587" stroke-width="3" stroke-linecap="round"/>
                <path d="M28,132 C31.2578809,130.113533 33.1131057,128.707748 33.5615879,127.781715 C34.0110917,126.854752 34.4912434,125.261157 35,123" id="Stroke-25" stroke="#005587" stroke-width="3" stroke-linecap="round"/>
                <path d="M22,115 C22.5141769,117.237587 23.0486669,118.671646 23.6072789,119.2999 C24.3753703,120.171717 25.840457,121.404325 28,123" id="Stroke-27" stroke="#005587" stroke-width="3" stroke-linecap="round"/>
                <path d="M63.9473161,28.0000004 L61.2602731,28.0000004 C58.6882163,27.9989859 56.4459879,29.7591932 55.820625,32.2701518 L53.0871842,43.2717011 C50.1227626,44.0954984 48.3828418,47.1806802 49.202874,50.1633946 C49.7031643,51.9844736 51.0819885,53.4291625 52.8713332,54.0064293 L54.2642785,69.4161059 C53.8719137,69.4779921 53.5077911,69.66568 53.2294038,69.9527916 C52.8763764,70.3383125 52.7008713,70.8567367 52.7442433,71.3802335 L56.4812906,116.484151 C56.5619826,117.458098 57.369911,118.206821 58.3412408,118.206821 L58.6710692,118.206821 L59.9016219,131.881653 C60.1689141,134.787263 62.596734,137.008067 65.4976107,136.99995 L103.501516,136.99995 C106.410462,137.012125 108.844334,134.785234 109.106583,131.871508 L110.328058,118.206821 L110.657886,118.206821 C111.631233,118.210879 112.445213,117.461142 112.525905,116.484151 L116.262953,71.3802335 C116.306325,70.8567367 116.129811,70.3383125 115.777792,69.9527916 C115.498396,69.66568 115.135282,69.4779921 114.741909,69.4161059 L116.135863,54.0064293 C118.434576,53.2546636 119.992939,51.1028482 120,48.6720374 C119.991931,46.1549917 118.321607,43.9494063 115.911943,43.2717011 L113.178502,32.2701518 C112.553139,29.7591932 110.311919,27.9989859 107.738854,28.0000004 L75.1574494,28.0000004 L63.9473161,28.0000004 Z" id="Fill-29" fill="#FFFFFF"/>
                <path d="M84,106 C90.0760302,106 95,100.85141 95,94.5005173 C95,88.1485897 90.0760302,83 84,83 C77.9239698,83 73,88.1485897 73,94.5005173 C73.0059385,100.848306 77.926939,105.993792 84,106" id="Fill-31" fill="#FFFFFF"/>
                <path d="M52,43.5 L114,43.5" id="Fill-33" fill="#FFFFFF"/>
                <path d="M52,53.5 L114,53.5" id="Fill-35" fill="#FFFFFF"/>
                <path d="M53,70.5 L113,70.5" id="Fill-37" fill="#FFFFFF"/>
                <path d="M58,118.5 L110,118.5" id="Fill-39" fill="#FFFFFF"/>
                <path d="M52,43.5 L114,43.5" id="Stroke-41" stroke="#005383" stroke-width="3" stroke-linecap="round" stroke-linejoin="round"/>
                <path d="M114.635293,54 L83,54 L83,137 L103.488333,136.999958 C106.109878,137.011112 108.304946,134.785355 108.541306,131.874126 L109.643979,118.216392 L109.940971,118.216392 C110.818587,118.219434 111.552332,117.470079 111.624268,116.493585 L114.993944,71.4136352 C115.034023,70.8893908 114.873709,70.3722445 114.556164,69.9859057 C114.305416,69.6989402 113.977595,69.5113479 113.623054,69.4494932 L114.878847,54.0476586" id="Fill-43" fill="#C2E3F7"/>
                <path d="M56.8835165,119.999991 L108.017193,119.999991 L108.435273,119.999991 C109.401455,120.003047 110.206608,119.25011 110.287623,118.268949 L113.993324,72.9735301 C114.037333,72.4467799 113.8623,71.9261429 113.511233,71.5389765 C113.235181,71.2506393 112.875113,71.0621504 112.485039,71 L52.5146898,71 L51.4884955,71.5389765 C51.1384293,71.9261429 50.9633962,72.4467799 51.0064043,72.9735301 L54.7121056,118.268949 C54.7921207,119.247054 55.5942726,119.998972 56.5574548,119.999991" id="Fill-45" fill="#FFFFFF"/>
                <path d="M84,106 C90.0760302,106 95,100.85141 95,94.5005173 C95,88.1485897 90.0760302,83 84,83 C77.9239698,83 73,88.1485897 73,94.5005173 C73.0059385,100.848306 77.926939,105.993792 84,106 Z" id="Stroke-47" stroke="#0079C1" stroke-width="3" stroke-linecap="round" stroke-linejoin="round"/>
                <path d="M58,118.5 L110,118.5" id="Stroke-49" stroke="#084274" stroke-width="3" stroke-linecap="round" stroke-linejoin="round"/>
                <path d="M108,28 L75.2737425,28.0000004 L64.0137702,28.0000004 L61.3147809,28.0000004 C58.731289,27.9989859 56.4780788,29.7591937 55.8509488,32.2701528 L53.1053554,43.2717049 C50.1277543,44.0955025 48.3800979,47.180685 49.203776,50.1634002 C49.7062905,51.9844797 51.0912448,53.4291689 52.8885447,54.0064359 L54.2876829,69.4161163 C53.8935737,69.4780026 53.5278323,69.6656905 53.2482073,69.9528022 C52.8936103,70.3383232 52.717325,70.8567475 52.7608898,71.3802444 L56.5145516,116.484173 C56.5956023,117.458121 57.4071227,118.206843 58.3827709,118.206843 L58.7140657,118.206843 L59.9500893,131.881679 C60.2185698,134.78729 62.6571836,137.008094 65.5709573,136.999978" id="Stroke-51" stroke="#73C3EB" stroke-width="3" stroke-linecap="round" stroke-linejoin="round"/>
                <path d="M66,137 L103.653595,136.99995 C106.535727,137.012125 108.947164,134.78422 109.206995,131.870493 L110.417211,118.206821 L110.743,118.206821 C111.708374,118.209864 112.514851,117.460127 112.5948,116.483136 L116.2974,71.379219 C116.340372,70.8567367 116.165485,70.3383125 115.816711,69.9517771 C115.539891,69.66568 115.180124,69.4769776 114.790377,69.4161059 L116.171481,54.0054148 C118.448006,53.253649 119.993005,51.1028482 120,48.6720374 C119.992005,46.1539771 118.337078,43.9483917 115.948626,43.2706866 L113.240381,32.2701518 C112.621782,29.7591932 110.401221,27.9989859 107.851874,28.0000004" id="Stroke-53" stroke="#001928" stroke-width="3" stroke-linecap="round" stroke-linejoin="round"/>
                <path d="M53,70.5 L113,70.5" id="Stroke-55" stroke="#0079C1" stroke-width="3" stroke-linecap="round" stroke-linejoin="round"/>
                <path d="M52,53.5 L114,53.5" id="Stroke-57" stroke="#0079C1" stroke-width="3" stroke-linecap="round" stroke-linejoin="round"/>
                <path d="M84,106 C90.0760302,106 95,100.85141 95,94.5005173 C95,88.1485897 90.0760302,83 84,83 C77.9249595,83 73,88.1485897 73,94.5005173 C73.0059385,100.848306 77.926939,105.993792 84,106" id="Fill-59" fill="#C2E3F7"/>
                <path d="M83.8695973,106 C90.0176576,106 95,100.85141 95,94.5005173 C95,88.1485897 90.0176576,83 83.8695973,83 C80.7960679,83 78.0129665,84.2881821 76,86.3678978" id="Stroke-61" stroke="#0079C1" stroke-width="3" stroke-linecap="round" stroke-linejoin="round"/>
                <path d="M76.2226021,86 C74.2312399,88.014757 73,90.7965637 73,93.8697692 C73.0059385,100.014177 77.9279287,104.993992 84,105" id="Stroke-63" stroke="#084274" stroke-width="3" stroke-linecap="round" stroke-linejoin="round"/>
                <path d="M138.841323,43.0000005 L136.532174,43.0000005 C134.322859,42.9989926 132.396073,44.5179171 131.859967,46.6819058 L129.510885,56.1693887 C126.964133,56.8799671 125.469626,59.5408568 126.17445,62.1130502 C126.603734,63.6833783 127.788757,64.9291585 129.325195,65.4270674 L130.523197,78.7174051 C130.184761,78.7688086 129.873281,78.9310826 129.632682,79.1790291 C129.330187,79.5126482 129.17844,79.9591536 129.215378,80.4096906 L132.426023,119.30706 C132.495906,120.146651 133.190748,120.792723 134.025356,120.792723 L134.307884,120.792723 L135.366119,132.585303 C135.595736,135.090974 137.681258,137.007016 140.1741,136.999961 L172.825641,136.999961 C175.324473,137.01004 177.415985,135.088958 177.64061,132.577239 L178.690859,120.792723 L178.973387,120.792723 C179.809992,120.795747 180.508827,120.148667 180.579708,119.30706 L183.789355,80.4096906 C183.827292,79.9591536 183.675545,79.5126482 183.372051,79.1790291 C183.132451,78.9310826 182.82097,78.7688086 182.482535,78.7174051 L183.680536,65.4270674 C185.655243,64.7789795 186.99401,62.92442 187,60.8269535 C186.993012,58.6559094 185.558404,56.7539781 183.487858,56.1693887 L181.138776,46.6819058 C180.60267,44.5179171 178.675884,42.9989926 176.466569,43.0000005 L148.47226,43.0000005 L138.841323,43.0000005 Z" id="Fill-65" fill="#FFFFFF"/>
                <path d="M157.499508,110 C162.746048,110 167,105.746269 167,100.5 C167,95.2527467 162.746048,91 157.499508,91 C152.252967,91 148,95.2527467 148,100.5 C148.003939,105.744299 152.254937,109.994092 157.499508,110" id="Fill-67" fill="#FFFFFF"/>
                <path d="M130,55.5 L184,55.5" id="Fill-69" fill="#FFFFFF"/>
                <path d="M130,66.5 L184,66.5" id="Fill-71" fill="#FFFFFF"/>
                <path d="M131,79.5 L183,79.5" id="Fill-73" fill="#FFFFFF"/>
                <path d="M135,121.5 L179,121.5" id="Fill-75" fill="#FFFFFF"/>
                <path d="M130,55.5 L184,55.5" id="Stroke-77" stroke="#005383" stroke-width="3" stroke-linecap="round" stroke-linejoin="round"/>
                <path d="M184.681027,65 L157,65 L157,137 L174.927096,136.999952 C177.22159,137.011099 179.142128,135.078656 179.349306,132.553409 L180.312683,120.706431 L180.572691,120.706431 C181.341321,120.709471 181.983572,120.057893 182.046761,119.211752 L184.994901,80.1048709 C185.029086,79.6519071 184.890277,79.2029968 184.611622,78.8675807 C184.392014,78.6182986 184.105073,78.456164 183.795342,78.4034702 L184.89442,65.041547" id="Fill-79" fill="#C2E3F7"/>
                <path d="M135.043315,121.999989 L178.87247,121.999989 L179.229993,121.999989 C180.057629,122.003008 180.748972,121.357102 180.819094,120.516015 L183.994332,81.6912275 C184.031862,81.2394957 183.881742,80.7938004 183.581502,80.4607865 C183.34447,80.215302 183.036329,80.0533225 182.701521,80 L131.2992,80 L130.418231,80.4607865 C130.118979,80.7938004 129.968859,81.2394957 130.005401,81.6912275 L133.181627,120.516015 C133.250762,121.354083 133.938154,121.999989 134.763815,121.999989" id="Fill-81" fill="#FFFFFF"/>
                <path d="M157.499508,110 C162.746048,110 167,105.746269 167,100.5 C167,95.2527467 162.746048,91 157.499508,91 C152.252967,91 148,95.2527467 148,100.5 C148.003939,105.744299 152.254937,109.994092 157.499508,110 Z" id="Stroke-83" stroke="#0079C1" stroke-width="3" stroke-linecap="round" stroke-linejoin="round"/>
                <path d="M135,121.5 L179,121.5" id="Stroke-85" stroke="#084274" stroke-width="3" stroke-linecap="round" stroke-linejoin="round"/>
                <path d="M177,43 L148.710603,43.0000005 L138.97679,43.0000005 L136.644227,43.0000005 C134.410535,42.9989926 132.463368,44.5179174 131.921592,46.6819066 L129.548673,56.1693915 C126.973974,56.8799701 125.464668,59.5408604 126.175939,62.1130543 C126.610772,63.6833827 127.807321,64.9291631 129.36001,65.4270722 L130.570683,78.7174127 C130.229676,78.7688162 129.913893,78.9310902 129.671758,79.1790368 C129.365054,79.512656 129.212711,79.9591615 129.25004,80.4096986 L132.494644,119.307076 C132.564258,120.146668 133.266448,120.79274 134.109884,120.79274 L134.395401,120.79274 L135.464829,132.585322 C135.697884,135.090993 137.804455,137.007036 140.323664,136.999981" id="Stroke-87" stroke="#73C3EB" stroke-width="3" stroke-linecap="round" stroke-linejoin="round"/>
                <path d="M140,137 L173.470237,136.999952 C176.031724,137.011039 178.175678,135.08895 178.405936,132.577231 L179.482517,120.792716 L179.77213,120.792716 C180.629712,120.79574 181.346069,120.14866 181.418728,119.307053 L184.708852,80.4096873 C184.74774,79.9591503 184.592188,79.512645 184.282108,79.1790259 C184.035477,78.9320873 183.716186,78.7698134 183.369265,78.7174019 L184.597305,65.4270654 C186.621525,64.7799855 187.99386,62.9244182 188,60.8279599 C187.992836,58.6559081 186.522258,56.7539768 184.399795,56.1703954 L181.991813,46.6829134 C181.442265,44.517917 179.467167,42.9989926 177.202456,43.0000005" id="Stroke-89" stroke="#001928" stroke-width="3" stroke-linecap="round" stroke-linejoin="round"/>
                <path d="M131,79.5 L183,79.5" id="Stroke-91" stroke="#0079C1" stroke-width="3" stroke-linecap="round" stroke-linejoin="round"/>
                <path d="M130,66.5 L184,66.5" id="Stroke-93" stroke="#0079C1" stroke-width="3" stroke-linecap="round" stroke-linejoin="round"/>
                <path d="M157.499508,110 C162.747033,110 167,105.746269 167,100.5 C167,95.2527467 162.747033,91 157.499508,91 C152.252967,91 148,95.2527467 148,100.5 C148.004924,105.744299 152.254937,109.994092 157.499508,110" id="Fill-95" fill="#C2E3F7"/>
                <path d="M158.040925,110 C163.541745,110 168,105.746269 168,100.5 C168,95.2527467 163.541745,91 158.040925,91 C155.291032,91 152.802295,92.0634328 151,93.7816646" id="Stroke-97" stroke="#0079C1" stroke-width="3" stroke-linecap="round" stroke-linejoin="round"/>
                <path d="M149.636467,93 C148.007567,94.8020764 147,97.2915427 147,100.041103 C147.005598,105.538158 151.031201,109.993807 156,110" id="Stroke-99" stroke="#084274" stroke-width="3" stroke-linecap="round" stroke-linejoin="round"/>
                <path d="M79,85.5004289 C79,86.3291393 78.3282814,87 77.5004289,87 C76.6717186,87 76,86.3291393 76,85.5004289 C76,84.6717186 76.6717186,84 77.5004289,84 C78.3282814,84 79,84.6717186 79,85.5004289" id="Fill-101" fill="#001928"/>
            </g>
        </g>
    </g>
</svg>