<svg width="96" height="72" xmlns="http://www.w3.org/2000/svg" viewBox="0 0 96 72" focusable="false" api="[object Object]" class="icon--ic-smart-saver-promo-96x72" data-di-res-id="bb156921-89c5d906" data-di-rand="1702316669838"><defs><style>.__2l86VUh__a,.__2l86VUh__d,.__2l86VUh__e,.__2l86VUh__f,.__2l86VUh__g,.__2l86VUh__i,.__2l86VUh__j{fill:none;}.__2l86VUh__b,.__2l86VUh__h{fill:#fff;}.__2l86VUh__c{fill:#c1e7ff;}.__2l86VUh__d{stroke:#005587;}.__2l86VUh__d,.__2l86VUh__e,.__2l86VUh__f,.__2l86VUh__g,.__2l86VUh__h,.__2l86VUh__i,.__2l86VUh__j{stroke-linecap:round;stroke-linejoin:round;}.__2l86VUh__d,.__2l86VUh__e,.__2l86VUh__f,.__2l86VUh__g,.__2l86VUh__h{stroke-width:3px;}.__2l86VUh__e{stroke:#001928;}.__2l86VUh__f,.__2l86VUh__i,.__2l86VUh__j{stroke:#73c3eb;}.__2l86VUh__g{stroke:#c1e7ff;}.__2l86VUh__h{stroke:#0079c1;}.__2l86VUh__i{stroke-width:3px;}.__2l86VUh__j{stroke-width:3px;}.__2l86VUh__k{fill:#001928;}</style></defs><rect class="__2l86VUh__a " y="-1.12" width="96" height="72"></rect><path class="__2l86VUh__b " d="M24.5,20.34l.38,26.91V59l.76,4.17,1.52,3,3.81,3h4.19l29.3.76,5.33-3.79,2.29-5.27V20l-3-4.55-3-3.41V2.52H52.67q-3.81,0-19.8-.76L31,3.28q0,6.44.76,8.34c-1.41,1.73-2.8,2.56-3.8,3.79A24.86,24.86,0,0,0,24.5,20.34Z"></path><rect class="__2l86VUh__c " x="48.1" y="2.9" width="17.51" height="7.58"></rect><path class="__2l86VUh__d " d="M48.86,2.14H32.47a1.7,1.7,0,0,0-1.65,1.75,1.43,1.43,0,0,0,.09.5,39.32,39.32,0,0,1,.35,6.23A3.63,3.63,0,0,1,30,13.56c-1.23,1-3.53,2.94-4.39,4.5s-1.05,1.9-1.05,5.36c0,4.5.53,19.21.18,26.65.17,5-1.58,10.73,2.1,15.74C28.07,67,30,69.62,33.51,69.62H62.18"></path><path class="__2l86VUh__e " d="M24.77,50.07c.17,5-1.58,10.73,2.1,15.74C28.1,67,30,69.62,33.54,69.62H62.18"></path><path class="__2l86VUh__f " d="M48.86,2.14H64.49a1.72,1.72,0,0,1,1.65,1.77,1.94,1.94,0,0,1-.09.48,39.32,39.32,0,0,0-.35,6.23,3.62,3.62,0,0,0,1.23,2.94,20.16,20.16,0,0,1,4.38,4.5c.86,1.56,1.06,1.9,1.06,5.36"></path><path class="__2l86VUh__g " d="M61.8,12A3.65,3.65,0,0,0,63,14.94c1.23,1,3.53,2.94,4.38,4.5s1.06,1.9,1.06,5.36"></path><path class="__2l86VUh__f " d="M72.46,22.61c0,4.5-.72,20-.37,27.41-.17,5,1.58,10.72-2.1,15.74-1.23,1.21-3.16,3.81-6.67,3.81"></path><path class="__2l86VUh__h " d="M31.26,10.88H65.61"></path><polygon class="__2l86VUh__h " points="35.52 19.3 67.4 30.28 61.42 47.63 29.55 36.66 35.52 19.3"></polygon><path class="__2l86VUh__h " d="M33.58,24.93a6,6,0,0,0,7.71-3.55l0-.08"></path><path class="__2l86VUh__h " d="M65,35.74a6.05,6.05,0,0,1-3.86-7.63"></path><path class="__2l86VUh__h " d="M31.64,30.56a6,6,0,0,1,3.89,7.54l0,.08"></path><path class="__2l86VUh__h " d="M63.52,41.54a6,6,0,0,0-7.7,3.56l0,.07"></path><ellipse class="__2l86VUh__i " cx="48.39" cy="33.7" rx="5.95" ry="6.13" transform="translate(0.77 68.48) rotate(-71)"></ellipse><circle class="__2l86VUh__c " cx="59.04" cy="36.91" r="1.9"></circle><circle class="__2l86VUh__c " cx="38.27" cy="29.76" r="1.9"></circle><polygon class="__2l86VUh__h " points="31.34 46.05 64.05 37.89 68.5 55.7 35.78 63.86 31.34 46.05"></polygon><path class="__2l86VUh__h " d="M32.78,51.82a6,6,0,0,0,4.53-7.17l0-.09"></path><path class="__2l86VUh__h " d="M65,43.79a6,6,0,0,1-7.37-4.21l0-.08"></path><path class="__2l86VUh__h " d="M34.22,57.6a6,6,0,0,1,7.37,4.21l0,.07"></path><path class="__2l86VUh__h " d="M66.93,49.44a6,6,0,0,0-4.52,7.18l0,.08"></path><ellipse class="__2l86VUh__j " cx="49.98" cy="51.12" rx="6.13" ry="5.95" transform="translate(-10.88 13.61) rotate(-14)"></ellipse><circle class="__2l86VUh__c " cx="60.66" cy="48.01" r="1.9"></circle><circle class="__2l86VUh__c " cx="39.34" cy="53.32" r="1.9"></circle><path class="__2l86VUh__k " d="M49.06,3.62a1.5,1.5,0,1,1,1.28-1.69h0A1.5,1.5,0,0,1,49.06,3.62Z"></path></svg>