<svg width="37" height="37" viewBox="0 0 30 37" xmlns="http://www.w3.org/2000/svg" xmlns:xlink="http://www.w3.org/1999/xlink" focusable="false" aria-hidden="true" api="[object Object]" class="icon--lightbulb-blue" data-di-rand="1700329084365"><defs><polygon points="0 0.467613689 4.50788987 0.467613689 4.50788987 4.1153 0 4.1153"></polygon></defs><g stroke="none" stroke-width="1" fill="none" fill-rule="evenodd"><g transform="translate(-960.000000, -424.000000)"><g transform="translate(936.000000, 408.000000)"><g transform="translate(24.000000, 16.000000)"><path d="M20.155,22.4951 C20.144,22.5051 20.037,22.6111 20.027,22.6221 C18.687,23.9621 18.492,26.2301 18.484,27.3341 L11.302,27.3341 C11.355,25.9251 10.805,23.6851 9.696,22.5791 C8.031,21.1121 7.038,18.9021 7.038,16.6671 C7.038,12.3321 10.565,8.8051 14.9,8.8051 C19.235,8.8051 22.762,12.3321 22.762,16.6671 C22.762,18.8571 21.812,20.9811 20.155,22.4951 Z M14.9,6.8051 C9.462,6.8051 5.038,11.2281 5.038,16.6671 C5.038,19.5101 6.254,22.2121 8.327,24.0361 C9.21,24.9191 9.333,27.0191 9.291,27.5961 C9.282,27.6501 9.278,27.7051 9.278,27.7611 C9.278,28.2111 9.426,28.5771 9.728,28.8801 C10.007,29.1601 10.425,29.3341 10.82,29.3341 L18.948,29.3341 C19.36,29.3341 19.747,29.1741 20.04,28.8801 C20.322,28.5971 20.49,28.1791 20.489,27.7121 C20.451,26.7381 20.609,24.8671 21.504,23.9721 C23.574,22.0801 24.762,19.4171 24.762,16.6671 C24.762,11.2281 20.338,6.8051 14.9,6.8051 Z" fill="#0075BE"></path><path d="M18.7073,30.792 L11.0923,30.792 C10.5403,30.792 10.0923,31.239 10.0923,31.792 C10.0923,32.345 10.5403,32.792 11.0923,32.792 L18.7073,32.792 C19.2593,32.792 19.7073,32.345 19.7073,31.792 C19.7073,31.239 19.2593,30.792 18.7073,30.792" fill="#0075BE"></path><path d="M17.3625,34.209 L12.4375,34.209 C11.8845,34.209 11.4375,34.656 11.4375,35.209 C11.4375,35.762 11.8845,36.209 12.4375,36.209 L17.3625,36.209 C17.9145,36.209 18.3625,35.762 18.3625,35.209 C18.3625,34.656 17.9145,34.209 17.3625,34.209" fill="#0075BE"></path><g transform="translate(0.000000, 8.209000)"><path d="M4.0569,2.2793 L1.5499,0.6323 C1.0889,0.3283 0.4689,0.4573 0.1639,0.9193 C-0.1391,1.3803 -0.0101,2.0003 0.4509,2.3033 L2.9579,3.9513 C3.1279,4.0623 3.3179,4.1153 3.5069,4.1153 C3.8319,4.1153 4.1509,3.9573 4.3439,3.6643 C4.6469,3.2033 4.5179,2.5833 4.0569,2.2793" fill="#0075BE"></path></g><path d="M7.342,6.707 C7.539,6.96 7.834,7.093 8.132,7.093 C8.347,7.093 8.563,7.024 8.745,6.882 C9.181,6.543 9.26,5.915 8.921,5.478 L7.079,3.11 C6.739,2.675 6.111,2.595 5.676,2.936 C5.24,3.274 5.161,3.902 5.5,4.339 L7.342,6.707 Z" fill="#0075BE"></path><path d="M14.8865,5 C15.4385,5 15.8865,4.553 15.8865,4 L15.8865,1 C15.8865,0.447 15.4385,0 14.8865,0 C14.3345,0 13.8865,0.447 13.8865,1 L13.8865,4 C13.8865,4.553 14.3345,5 14.8865,5" fill="#0075BE"></path><path d="M21.6462,6.6846 C21.9442,6.6846 22.2392,6.5516 22.4362,6.2986 L24.2782,3.9306 C24.6172,3.4946 24.5382,2.8666 24.1022,2.5276 C23.6672,2.1866 23.0372,2.2656 22.6992,2.7026 L20.8572,5.0706 C20.5182,5.5066 20.5972,6.1346 21.0332,6.4736 C21.2152,6.6166 21.4312,6.6846 21.6462,6.6846" fill="#0075BE"></path><path d="M29.6575,9.1279 C29.3545,8.6659 28.7345,8.5369 28.2725,8.8409 L25.7645,10.4879 C25.3035,10.7919 25.1755,11.4119 25.4785,11.8729 C25.6705,12.1659 25.9895,12.3239 26.3155,12.3239 C26.5035,12.3239 26.6945,12.2719 26.8635,12.1599 L29.3705,10.5129 C29.8325,10.2089 29.9605,9.5889 29.6575,9.1279" fill="#0075BE"></path><path d="M17.6487,12.0772 C17.1857,11.7732 16.5667,11.9062 16.2647,12.3702 C15.9637,12.8332 16.0947,13.4522 16.5577,13.7532 C17.1737,14.1542 17.7017,14.6982 18.0837,15.3282 C18.5427,16.0862 18.7857,16.9562 18.7857,17.8432 C18.7857,18.3952 19.2337,18.8432 19.7857,18.8432 C20.3377,18.8432 20.7857,18.3952 20.7857,17.8432 C20.7857,16.5902 20.4427,15.3622 19.7937,14.2912 C19.2567,13.4062 18.5147,12.6402 17.6487,12.0772" fill="#0075BE"></path></g></g></g></g></svg>