<svg xmlns="http://www.w3.org/2000/svg" id="prefix__Layer_1" x="0" y="0" height="48" width="48" view-box="0 0 48 48" enable-background="new 0 0 48 48" xml-space="preserve" role="img">
  <style>
    .prefix__st0 {
      fill: none;
      stroke: #0275bb;
      stroke-width: 2;
      stroke-linecap: round;
      stroke-linejoin: round;
      stroke-miterlimit: 10;
    }
  </style>
  <path class="prefix__st0" d="m13.2 26.5 3.8 9M23.1 30l5 1.7c.3.1.5.1.8.1 1.1 0 2-.7 2.4-1.7.4-1.3-.2-2.7-1.5-3.2l-6.5-2.4c-.4-.2-.9-.3-1.3-.4l-1.4-.1c-1.1 0-2.3.2-3.3.7l-3.4 1.5c-.2-.3-.5-.5-.8-.6-.4-.2-.9-.2-1.3 0l-4.4 1.9c-.2.2-.4.4-.4.7v11.7c0 .2.1.5.3.6.1.1.2.1.4.1.1 0 .2 0 .3-.1l8.5-4.3c.4-.2.7-.5.9-.9.1-.3.2-.7.1-1.1h.1c1.4-.6 3-.6 4.4.1l3.2 1.6c1.7.9 3.7.9 5.5.1l8.9-3.9c.6-.3 1.1-.8 1.4-1.5.3-.7.2-1.4 0-2-.3-.6-.8-1.1-1.5-1.4-.7-.3-1.4-.2-2 0 0 0 0 0 0 0l-5.9 2.2M33.1 16.8c0-1-1.2-1.8-2.7-1.8-1.5 0-2.7.8-2.7 1.8 0 .9 1 1.6 2.6 1.8h.1c1.6.2 2.6.8 2.6 1.8s-1.2 1.8-2.7 1.8c-1.5 0-2.7-.8-2.7-1.8M30.4 22.1v1.1M30.4 13.9V15"/>
  <path class="prefix__st0" d="M40 23.9c0-.3.1-.6.1-.9 0-4-2.6-9.6-6.2-11.5-.1-.1-.4-.2-.2-.3l2.2-2.6c.5-.6.3-1.1-.5-1.1h-10c-.8 0-1 .5-.5 1.1l2.2 2.6c.2.1-.1.2-.2.3-3.1 1.7-5.4 6-6.1 9.7"/>
</svg>