<svg width="96" height="72" viewBox="0 0 96 72" preserveAspectRatio="xMidYMid meet" xmlns="http://www.w3.org/2000/svg" focusable="false" api="[object Object]" class="icon--hmc-search" data-di-rand="1703279783156"><path d="M36.8,51.4a1.5,1.5,0,0,1,0-3,21.17,21.17,0,0,0,0-42.33,1.5,1.5,0,1,1,0-3,24.17,24.17,0,0,1,0,48.33Z" style="fill:#005587"></path><path d="M36.8,51.4a24.17,24.17,0,0,1,0-48.33,1.5,1.5,0,0,1,0,3,21.17,21.17,0,0,0,0,42.33,1.5,1.5,0,0,1,0,3Z" style="fill:#0d79be"></path><path d="M39.32,39.65a1.5,1.5,0,0,1,0-3,8.58,8.58,0,0,0,8.57-8.58,1.5,1.5,0,0,1,3,0A11.58,11.58,0,0,1,39.32,39.65Z" style="fill:#0079c1"></path><path d="M36.8,46.06A19.15,19.15,0,0,1,17.68,26.94a1.5,1.5,0,0,1,3,0,16.13,16.13,0,0,0,32.25,0,1.5,1.5,0,0,1,3,0A19.15,19.15,0,0,1,36.8,46.06Z" style="fill:#73c3eb"></path><path d="M54.43,28.74a1.5,1.5,0,0,1-1.5-1.5,16,16,0,0,0-8.78-14.36,15.88,15.88,0,0,0-7.35-1.77A16.14,16.14,0,0,0,20.68,27.24a1.5,1.5,0,1,1-3,0,19.13,19.13,0,1,1,38.25,0A1.5,1.5,0,0,1,54.43,28.74Z" style="fill:#001928"></path><path d="M75.5,71.27a1.9,1.9,0,0,1-1.35-.56L59.9,56.46a1.86,1.86,0,0,1-.56-1.34,1.91,1.91,0,0,1,.57-1.37l5.93-5.93a2,2,0,0,1,2.71,0L82.8,62.07a1.91,1.91,0,0,1,0,2.71l-5.92,5.93A2,2,0,0,1,75.5,71.27Zm.77-2.68h0ZM62.79,55.11,75.51,67.83l4.4-4.41L67.2,50.7ZM62,54.34ZM68,49.94Z" style="fill:#0079c1"></path><path d="M62.45,54.83a1.51,1.51,0,0,1-1.06-.44L51.28,44.28a1.5,1.5,0,0,1,2.12-2.12L63.51,52.27a1.49,1.49,0,0,1,0,2.12A1.51,1.51,0,0,1,62.45,54.83Z" style="fill:#001928"></path><path d="M75.28,71.18a1.47,1.47,0,0,1-1.06-.44L60.16,56.63a2.33,2.33,0,0,1,0-3.31L66,47.51a1.5,1.5,0,0,1,2.12,2.12L62.75,55,76.34,68.63a1.49,1.49,0,0,1-1.06,2.55Z" style="fill:#73c3eb"></path><path d="M65.42,51.86a1.45,1.45,0,0,1-1.06-.44L54.25,41.32a1.5,1.5,0,0,1,2.12-2.12L66.48,49.3a1.51,1.51,0,0,1,0,2.12A1.48,1.48,0,0,1,65.42,51.86Z" style="fill:#0079c1"></path><path d="M76.57,68.89a1.5,1.5,0,1,1-2.13,0,1.51,1.51,0,0,1,2.13,0" style="fill:#231f20;fill-rule:evenodd"></path></svg>