<svg xmlns="http://www.w3.org/2000/svg" id="prefix__Layer_1" x="0" y="0" height="48" width="48" view-box="0 0 48 48" enable-background="new 0 0 48 48" xml-space="preserve">
  <style>
    .prefix__st0 {
      fill: none;
      stroke: #0075be;
      stroke-width: 2;
      stroke-linecap: round;
      stroke-linejoin: round;
      stroke-miterlimit: 10;
    }
  </style>
  <path class="prefix__st0" d="M38.2 41 24 34.7 9.8 41V9.5c0-1.4 1.1-2.5 2.5-2.5h23.4c1.4 0 2.5 1.1 2.5 2.5V41z"/>
  <path d="m23.1 26.8-4.4.7.3-1.5c0-.1 0-.3-.1-.4l-5-4.2 1.2-.9c.2-.1.2-.3.1-.5l-.8-2 2.1.6c.2.1.4 0 .5-.2l.6-1.5 3.3 3.3c.1.1.3.2.5.1s.2-.3.2-.5L20 13.1l2.2.9h.3c.1 0 .2-.1.2-.2l1.3-3.5 1.3 3.5c0 .1.1.2.2.2h.3l2.2-.9-1.5 6.7c0 .2 0 .4.2.5.2.1.4.1.5-.1l3.3-3.3.6 1.5c.1.2.3.3.5.2l2.1-.6-.9 2.1c-.1.2 0 .4.1.5l1.2.9-5 4.2c-.1.1-.2.2-.1.4l.3 1.5-4.4-.7-1.8-.1z" style="       fill: none;       stroke: #0075be;       stroke-width: 2;       stroke-linejoin: round;       stroke-miterlimit: 10;     "/>
  <path class="prefix__st0" d="M24 26.8v2.8"/>
</svg>