<svg xmlns="http://www.w3.org/2000/svg" view-box="0 0 48 48" xml-space="preserve" height="48" width="48">
  <g fill="none" stroke="#0875BB" stroke-width="2" stroke-linejoin="round" stroke-miterlimit="10">
    <path d="m22.48 35.11-7.36 1.23.5-2.49c.05-.25-.04-.5-.23-.67L7 26.08l2.09-1.57c.26-.19.35-.54.22-.83L7.8 20.15l3.47.99c.35.1.71-.08.84-.41l1-2.5 5.52 5.52c.22.22.56.27.83.12.27-.15.41-.46.34-.76L17.31 11.9l3.63 1.55c.18.08.38.08.55 0a.71.71 0 0 0 .38-.4L24 7.18l2.13 5.86c.07.18.2.33.38.4.18.08.38.08.55 0l3.63-1.55-2.49 11.22c-.07.3.07.61.34.76.27.15.61.1.83-.12l5.52-5.52 1 2.5c.13.33.49.51.84.41l3.47-.99-1.51 3.53c-.13.3-.03.64.22.83L41 26.08l-8.39 7.1a.7.7 0 0 0-.23.67l.5 2.49-7.36-1.23h-3.04z"/>
    <path stroke-linecap="round" d="M23.77 35.52v5.3"/>
  </g>
</svg>