<svg xmlns="http://www.w3.org/2000/svg" view-box="0 0 48 48" height="48" width="48" xml-space="preserve">
  <g fill="#0875BB">
    <path d="M33.85 34.4H7.59c-.9 0-1.63-.73-1.63-1.63V13.63c0-.9.73-1.63 1.63-1.63h26.26c.9 0 1.63.73 1.63 1.63v19.13c.01.9-.73 1.64-1.63 1.64zM7.6 13.63v19.13l26.25-.01-.01-19.13-26.24.01zm-.01-.82v.82-.82z"/>
    <path d="M27.64 13.53c-.45 0-.82-.37-.82-.82V7.52c0-.5-.41-.91-.91-.91H15.53c-.5 0-.91.41-.91.91v5.19c0 .45-.37.82-.82.82-.45 0-.82-.37-.82-.82V7.52c0-1.41 1.14-2.55 2.55-2.55h10.38c1.41 0 2.55 1.14 2.55 2.55v5.19c0 .46-.36.82-.82.82zM22.08 30.94h-2.71c-.84 0-1.52-.68-1.52-1.51v-3.37h-3.41c-.84 0-1.52-.68-1.52-1.51v-2.69c0-.83.68-1.51 1.52-1.51h3.41v-3.37c0-.83.68-1.51 1.52-1.51h2.71c.84 0 1.52.68 1.52 1.51v3.37H27c.84 0 1.52.68 1.52 1.51v2.69c0 .83-.68 1.51-1.52 1.51h-3.41v3.37c0 .83-.68 1.51-1.51 1.51zm-2.59-1.64h2.46v-4.06c0-.45.37-.82.82-.82h4.1v-2.43h-4.1c-.45 0-.82-.37-.82-.82V17.1h-2.46v4.06c0 .45-.37.82-.82.82h-4.1v2.43h4.1c.45 0 .82.37.82.82v4.07zM27 21.98z"/>
  </g>
  <ellipse fill="#FFF" cx="33.81" cy="34.57" rx="7.76" ry="8.11"/>
  <g fill="#0875BB">
    <path d="M32.88 26.17c-3.99.58-6.93 4.06-6.84 8.08a.989.989 0 0 0 1.02.97c.55-.01.99-.47.98-1.02a6.01 6.01 0 0 1 5.13-6.06c1.89-.28 3.74.36 5.06 1.66l-2.12.31c-.55.08-.92.59-.84 1.13.08.55.59.92 1.13.84l4.33-.63c.55-.08.92-.59.84-1.13l-.63-4.33a.993.993 0 0 0-1.13-.84c-.55.08-.92.59-.84 1.13l.25 1.69a8.03 8.03 0 0 0-6.34-1.8zM29.12 41.88l-.25-1.7A7.957 7.957 0 0 0 35.2 42c4.01-.59 6.95-4.08 6.84-8.12a.985.985 0 0 0-1.03-.97c-.55.01-.99.47-.97 1.03a5.998 5.998 0 0 1-5.13 6.09c-1.88.28-3.74-.36-5.06-1.66l2.12-.31c.55-.08.92-.59.84-1.13a.993.993 0 0 0-1.13-.84l-4.33.63c-.55.08-.92.59-.84 1.13l.63 4.33c.08.55.59.92 1.13.84.55-.08.93-.59.85-1.14z"/>
  </g>
</svg>