<svg xmlns="http://www.w3.org/2000/svg" view-box="0 0 48 48" height="48" width="48" xml-space="preserve">
  <path fill="#0875BB" d="M41.02 37.07H36.3v-2h4.72V9.06H6.98v26.02h21.49v2H6.98c-1.1 0-2-.9-2-2V9.06c0-1.1.9-2 2-2h34.04c1.1 0 2 .9 2 2v26.02c0 1.1-.9 1.99-2 1.99z"/>
  <path fill="#0875BB" d="M26.53 32.64H15.51c-.55 0-1-.45-1-1 0-2.03-1.66-3.68-3.7-3.68.01.01-.05.01-.11.01a.986.986 0 0 1-.73-.28.992.992 0 0 1-.31-.72v-9.55c0-.27.11-.53.31-.72.2-.19.46-.31.73-.28.04 0 .14.01.18.02 1.98 0 3.64-1.65 3.64-3.68-.01-.08-.02-.15-.02-.21-.02-.27.08-.54.27-.74.19-.2.45-.31.73-.31h17.18c.27 0 .54.11.73.31.19.2.29.47.27.74 0 .07-.01.13-.02.2 0 2.04 1.66 3.7 3.7 3.7.55 0 1 .45 1 1v10.51c0 .55-.45 1-1 1s-1-.45-1-1v-9.6a5.7 5.7 0 0 1-4.65-4.86H16.46a5.696 5.696 0 0 1-4.81 4.88v7.65c2.41.36 4.34 2.23 4.76 4.62h10.11c.55 0 1 .45 1 1s-.43.99-.99.99zM36.3 44.94c-.17 0-.34-.04-.49-.13l-3.43-1.91-3.43 1.91c-.31.17-.69.17-.99-.01a.99.99 0 0 1-.49-.86v-7.87c0-.55.45-1 1-1s1 .45 1 1v6.17l2.43-1.35c.3-.17.67-.17.97 0l2.43 1.35v-5.82c0-.55.45-1 1-1s1 .45 1 1v7.52c0 .35-.19.68-.49.86a.96.96 0 0 1-.51.14z"/>
  <path fill="#0875BB" d="M32.38 38.06c-3.79 0-6.87-3.07-6.87-6.84s3.08-6.84 6.87-6.84 6.87 3.07 6.87 6.84-3.08 6.84-6.87 6.84zm0-11.68c-2.69 0-4.87 2.17-4.87 4.84s2.18 4.84 4.87 4.84c2.68 0 4.87-2.17 4.87-4.84s-2.18-4.84-4.87-4.84z"/>
  <circle fill="#0875BB" cx="10.66" cy="13.17" r=".95"/>
  <circle fill="#0875BB" cx="10.66" cy="31.64" r=".95"/>
  <circle fill="#0875BB" cx="36.3" cy="13.17" r=".95"/>
  <path fill="#0875BB" d="M24 23.93c-.83 0-1.46-.44-1.46-.84 0-.55-.45-1-1-1s-1 .45-1 1c0 1.3 1.02 2.36 2.46 2.71v.77c0 .55.45 1 1 1s1-.45 1-1v-.77c1.43-.35 2.46-1.41 2.46-2.71 0-1.48-1.25-2.56-3.26-2.83l-.13-.02c-.9-.12-1.53-.47-1.53-.84 0-.4.62-.84 1.46-.84.83 0 1.46.44 1.46.84 0 .55.45 1 1 1s1-.45 1-1c0-1.3-1.02-2.36-2.46-2.71v-.7c0-.55-.45-1-1-1s-1 .45-1 1v.7c-1.43.35-2.46 1.41-2.46 2.71 0 1.48 1.25 2.56 3.26 2.83l.13.02c.9.12 1.53.47 1.53.85s-.63.83-1.46.83z"/>
</svg>