<svg xmlns="http://www.w3.org/2000/svg" view-box="0 0 48 48" height="48" width="48">
  <path d="M24.5 41.08h-.06c-8.73 0-13.54-3.69-13.54-10.33 0-5.68 3.5-13.65 8.78-16.94l-2.46-2.92a2 2 0 0 1-.47-2.17 2 2 0 0 1 2-1h11.49a2 2 0 0 1 2 1 2 2 0 0 1-.47 2.17l-2.46 2.92c5.28 3.29 8.78 11.26 8.78 16.94 0 6.64-4.81 10.31-13.54 10.33Zm-2.7-27.87a1.16 1.16 0 0 1 .33 1 1.36 1.36 0 0 1-.85 1c-5 2.68-8.38 10.34-8.38 15.56 0 5.52 3.9 8.32 11.58 8.33s11.57-2.81 11.57-8.33c0-5.22-3.43-12.88-8.34-15.54a1.4 1.4 0 0 1-.89-1 1.16 1.16 0 0 1 .33-1l3-3.53H18.81Zm6.75 1.43Zm-8.15 0Z" style="fill: #0075be"/>
  <path d="M24.37 32.37c-2.48 0-4.5-1.62-4.5-3.62a1 1 0 0 1 2 0c0 .88 1.14 1.62 2.5 1.62s2.5-.74 2.5-1.62-1.38-1.47-2.55-1.62h-.18c-2.63-.35-4.27-1.73-4.27-3.6s2-3.63 4.5-3.63 4.5 1.63 4.5 3.63a1 1 0 0 1-2 0c0-.88-1.15-1.63-2.5-1.63s-2.5.75-2.5 1.63 1.37 1.46 2.54 1.62h.18c2.64.36 4.28 1.74 4.28 3.61 0 2.02-1.98 3.61-4.5 3.61Z" style="fill: #0875bb"/>
  <path d="M24.37 34.71a1 1 0 0 1-1-1v-1.57a1 1 0 0 1 2 0v1.57a1 1 0 0 1-1 1ZM24.37 21.21a1 1 0 0 1-1-1v-1.57a1 1 0 0 1 2 0v1.57a1 1 0 0 1-1 1Z" style="fill: #0875bb"/>
</svg>