<svg xmlns="http://www.w3.org/2000/svg" view-box="0 0 48 48" height="48" width="48">
  <path fill="#0075be" d="M41.06,22.44l-17-15a1,1,0,0,0-1.32,0l-17,15a1,1,0,0,0,1.32,1.5L10.43,21V39.19a1,1,0,0,0,1,1h24a1,1,0,0,0,1-1V21l3.31,2.92a1,1,0,0,0,.66.25,1,1,0,0,0,.75-.34A1,1,0,0,0,41.06,22.44ZM34.43,38.19h-22V19.69a1.16,1.16,0,0,0-.07-.37L23.43,9.55l11,9.71Z"/>
  <path fill="#0075be" d="M22.43,18.42v1.33c-2,.37-3.5,1.81-3.5,3.53s1.64,3.26,4.28,3.6l.17,0c1.18.16,2.55.67,2.55,1.62s-1.15,1.63-2.5,1.63-2.5-.75-2.5-1.63a1,1,0,0,0-2,0c0,1.72,1.5,3.16,3.5,3.53V33.5a1,1,0,0,0,2,0V32.06c2-.35,3.5-1.77,3.5-3.53s-1.64-3.25-4.28-3.6l-.17,0c-1.18-.15-2.55-.67-2.55-1.62s1.14-1.62,2.5-1.62,2.5.74,2.5,1.62a1,1,0,0,0,2,0c0-1.72-1.5-3.16-3.5-3.53V18.42a1,1,0,0,0-2,0Z"/>
</svg>