<svg xmlns="http://www.w3.org/2000/svg" width="48" height="48" viewBox="0 0 48 48" fill="none">
<mask id="mask0_111_8131" style="mask-type:alpha" maskUnits="userSpaceOnUse" x="5" y="7" width="37" height="34">
<path d="M23.0001 18.72V20.05C21.0001 20.42 19.5001 21.85 19.5001 23.57C19.5001 25.45 21.1401 26.83 23.7801 27.18H23.9501C25.1301 27.34 26.5001 27.86 26.5001 28.81C26.5001 29.76 25.3501 30.43 24.0001 30.43C22.6501 30.43 21.5001 29.69 21.5001 28.81C21.5001 28.2577 21.0524 27.81 20.5001 27.81C19.9478 27.81 19.5001 28.2577 19.5001 28.81C19.6602 30.6798 21.1323 32.1687 23.0001 32.35V33.79C23.0001 34.3423 23.4478 34.79 24.0001 34.79C24.5524 34.79 25.0001 34.3423 25.0001 33.79V32.36C27.0001 32 28.5001 30.58 28.5001 28.83C28.5001 27.08 26.8601 25.57 24.2201 25.22H24.0501C22.8701 25.06 21.5001 24.54 21.5001 23.59C21.5001 22.64 22.6401 22 24.0001 22C25.3601 22 26.5001 22.74 26.5001 23.62C26.5001 24.1723 26.9478 24.62 27.5001 24.62C28.0524 24.62 28.5001 24.1723 28.5001 23.62C28.5001 21.9 27.0001 20.47 25.0001 20.1V18.72C25.0001 18.1677 24.5524 17.72 24.0001 17.72C23.4478 17.72 23.0001 18.1677 23.0001 18.72ZM41.6301 22.74L24.6301 7.74001C24.2526 7.40836 23.6876 7.40836 23.3101 7.74001L6.31011 22.74C5.8964 23.1048 5.85614 23.7356 6.22011 24.15C6.58487 24.5637 7.21571 24.604 7.63011 24.24L11.0001 21.32V39.49C11.0001 40.0423 11.4478 40.49 12.0001 40.49H36.0001C36.5524 40.49 37.0001 40.0423 37.0001 39.49V21.32L40.3101 24.24C40.4924 24.4008 40.727 24.4897 40.9701 24.49C41.2573 24.4896 41.5305 24.3658 41.7201 24.15C42.0841 23.7356 42.0438 23.1048 41.6301 22.74ZM35.0001 38.49H13.0001V20C12.999 19.8735 12.9753 19.7482 12.9301 19.63L24.0001 9.85001L35.0001 19.55V38.49Z" fill="white"/>
</mask>
<g mask="url(#mask0_111_8131)">
<path d="M23.0001 18.72V20.05C21.0001 20.42 19.5001 21.85 19.5001 23.57C19.5001 25.45 21.1401 26.83 23.7801 27.18H23.9501C25.1301 27.34 26.5001 27.86 26.5001 28.81C26.5001 29.76 25.3501 30.43 24.0001 30.43C22.6501 30.43 21.5001 29.69 21.5001 28.81C21.5001 28.2577 21.0524 27.81 20.5001 27.81C19.9478 27.81 19.5001 28.2577 19.5001 28.81C19.6602 30.6798 21.1323 32.1687 23.0001 32.35V33.79C23.0001 34.3423 23.4478 34.79 24.0001 34.79C24.5524 34.79 25.0001 34.3423 25.0001 33.79V32.36C27.0001 32 28.5001 30.58 28.5001 28.83C28.5001 27.08 26.8601 25.57 24.2201 25.22H24.0501C22.8701 25.06 21.5001 24.54 21.5001 23.59C21.5001 22.64 22.6401 22 24.0001 22C25.3601 22 26.5001 22.74 26.5001 23.62C26.5001 24.1723 26.9478 24.62 27.5001 24.62C28.0524 24.62 28.5001 24.1723 28.5001 23.62C28.5001 21.9 27.0001 20.47 25.0001 20.1V18.72C25.0001 18.1677 24.5524 17.72 24.0001 17.72C23.4478 17.72 23.0001 18.1677 23.0001 18.72ZM41.6301 22.74L24.6301 7.74001C24.2526 7.40836 23.6876 7.40836 23.3101 7.74001L6.31011 22.74C5.8964 23.1048 5.85614 23.7356 6.22011 24.15C6.58487 24.5637 7.21571 24.604 7.63011 24.24L11.0001 21.32V39.49C11.0001 40.0423 11.4478 40.49 12.0001 40.49H36.0001C36.5524 40.49 37.0001 40.0423 37.0001 39.49V21.32L40.3101 24.24C40.4924 24.4008 40.727 24.4897 40.9701 24.49C41.2573 24.4896 41.5305 24.3658 41.7201 24.15C42.0841 23.7356 42.0438 23.1048 41.6301 22.74ZM35.0001 38.49H13.0001V20C12.999 19.8735 12.9753 19.7482 12.9301 19.63L24.0001 9.85001L35.0001 19.55V38.49Z" fill="#0075BE"/>
</g>
</svg>