<svg xmlns="http://www.w3.org/2000/svg" view-box="0 0 48 48" height="48" width="48" xml-space="preserve">
  <g fill="#0875BB">
    <path d="M24 36.36c-2.56 0-5.12-.97-7.07-2.92A9.932 9.932 0 0 1 14 26.37c0-2.67 1.04-5.18 2.93-7.07 3.9-3.9 10.24-3.9 14.14 0A9.932 9.932 0 0 1 34 26.37c0 2.67-1.04 5.18-2.93 7.07A10.004 10.004 0 0 1 24 36.36zm0-17.99c-2.05 0-4.1.78-5.66 2.34A7.909 7.909 0 0 0 16 26.36c0 2.14.83 4.15 2.34 5.66 3.12 3.12 8.19 3.12 11.31 0A7.917 7.917 0 0 0 32 26.36c0-2.14-.83-4.15-2.34-5.66A7.97 7.97 0 0 0 24 18.37z"/>
    <path d="M27.03 35.83c-.41 0-.79-.25-.94-.66l-3.03-8.47a.974.974 0 0 1-.06-.34v-9c0-.55.45-1 1-1s1 .45 1 1v8.83l2.98 8.31a.998.998 0 0 1-.6 1.28c-.12.03-.23.05-.35.05z"/>
    <path d="M15.22 29.34c-.46 0-.87-.32-.97-.78-.12-.54.22-1.07.76-1.2l7.31-1.65-4.36-6.09c-.32-.45-.22-1.07.23-1.4s1.07-.22 1.4.23l5.24 7.32c.19.27.24.62.12.94-.12.31-.39.55-.71.62l-8.78 1.98c-.09.02-.17.03-.24.03z"/>
    <path d="M38.16 43H9.84c-.55 0-1-.45-1-1V6c0-.55.45-1 1-1h19.22c.55 0 1 .45 1 1v7.47h8.1c.55 0 1 .45 1 1V42c0 .55-.45 1-1 1zm-27.32-2h26.33V15.47h-8.1c-.55 0-1-.45-1-1V7H10.84v34z"/>
    <path d="M38.16 15.47c-.24 0-.49-.09-.68-.27l-9.1-8.47a.997.997 0 1 1 1.36-1.46l9.1 8.47c.4.38.43 1.01.05 1.41-.19.21-.46.32-.73.32z"/>
  </g>
</svg>