<svg xmlns="http://www.w3.org/2000/svg" width="48" height="48" view-box="0 0 48 48" fill="none">
  <path d="M10.32 38.0804L14.89 38.5104H15C15.2658 38.5119 15.5213 38.4076 15.71 38.2204L36.71 17.2204C36.7623 17.3484 36.8406 17.4642 36.94 17.5604L38.46 19.0904C38.5702 19.194 38.6319 19.3391 38.63 19.4904C38.6295 19.6412 38.5682 19.7854 38.46 19.8904L30.69 27.6504C30.3023 28.0404 30.3023 28.6703 30.69 29.0604C31.08 29.4481 31.71 29.4481 32.1 29.0604L39.88 21.3004C40.8806 20.2972 40.8806 18.6735 39.88 17.6704L38.35 16.1504C38.2529 16.0546 38.1371 15.9798 38.01 15.9304L40.22 13.7204C41.9793 11.9498 41.9793 9.09098 40.22 7.32038C38.446 5.55987 35.584 5.55987 33.81 7.32038L30.81 10.3204L9.28 31.8004C9.06904 32.0106 8.96273 32.3038 8.99 32.6004L9.42 37.1604C9.45658 37.645 9.8363 38.0332 10.32 38.0804ZM35.22 8.80038C35.6946 8.32528 36.3385 8.05833 37.01 8.05833C37.6815 8.05833 38.3254 8.32528 38.8 8.80038C39.2785 9.26833 39.5458 9.91108 39.54 10.5804C39.5439 11.2522 39.2772 11.8974 38.8 12.3704L36.66 14.5004L33.08 10.9304L35.22 8.80038ZM41 39.5904C41.5523 39.5904 42 40.0381 42 40.5904C42 41.1427 41.5523 41.5904 41 41.5904H7C6.44772 41.5904 6 41.1427 6 40.5904C6 40.0381 6.44772 39.5904 7 39.5904H41ZM31.67 12.3404L35.25 15.9204L14.61 36.4704L11.34 36.1604L11 32.9004L31.67 12.3404Z" fill="#CCE4F3"/>
</svg>