<svg xmlns="http://www.w3.org/2000/svg" view-box="0 0 48 48" height="48" width="48" xml-space="preserve">
  <g fill="#0875BB">
    <path d="M5.62 37.63c-.55 0-1-.45-1-1v-1.28a5.01 5.01 0 0 1 2.64-4.41l5.15-2.78c.54-.29.87-.85.87-1.45l-.02-1.97-.13-.18c-.09-.13-.21-.3-.34-.5l-.2-.32c0-.01-.01-.02-.02-.03-.14-.23-.29-.5-.44-.79-.08-.16-.16-.33-.24-.51l-.28-.67c-.06-.17-.12-.35-.18-.53l-.04-.11c-.05-.18-.1-.34-.14-.5-.54-.41-.85-1.03-.85-1.7v-2.29c0-.54.2-1.05.58-1.45v-3.17c-.01-.04-.01-.08-.01-.12-.03-.6.03-2.13 1.19-3.44 1.16-1.3 3.04-1.97 5.6-1.97h.89c2.56 0 4.45.66 5.6 1.97 1.16 1.31 1.22 2.84 1.19 3.44 0 .04-.01.09-.01.13v3.17c.37.4.58.91.58 1.45v2.29c0 .67-.31 1.29-.85 1.7-.04.15-.08.3-.13.45l-.05.15c-.06.19-.12.38-.19.55l-.1.24-.04.1-.1.23c-.11.25-.19.42-.27.57-.15.3-.3.56-.44.8-.08.14-.15.24-.21.34-.14.22-.26.39-.35.52l-.13.17c-.01.01-.02.03-.03.04v1.94c0 .6.33 1.16.87 1.45.49.26.67.87.4 1.36-.26.49-.87.67-1.36.4a3.637 3.637 0 0 1-1.92-3.21v-2.3c0-.24.08-.46.24-.65l.11-.13c.01-.01.01-.02.02-.02l.06-.08c.01-.01.02-.02.03-.04l.08-.1c.08-.11.18-.25.29-.42l.17-.27c.13-.22.26-.45.39-.7.06-.13.13-.27.2-.42l.23-.55c.06-.14.1-.29.15-.43l.03-.09c.06-.19.1-.35.14-.52l.05-.23a.99.99 0 0 1 .44-.62l.2-.13c.03-.03.06-.07.06-.11v-2.29c0-.01 0-.05-.05-.1l-.19-.17c-.21-.19-.33-.46-.33-.75v-3.76c0-.07.01-.13.02-.2 0-.38-.09-1.21-.69-1.88-.76-.86-2.14-1.29-4.11-1.29h-.89c-1.97 0-3.35.43-4.11 1.29-.61.68-.69 1.51-.69 1.89.01.06.02.12.02.19v3.76c0 .29-.12.56-.33.75l-.19.17c-.05.05-.05.08-.05.1v2.29c0 .06.04.1.07.12l.2.13c.22.14.38.36.44.62l.05.23c.04.17.09.33.13.49l.04.13c.04.14.09.29.15.43l.2.49c.1.22.16.36.23.49.12.25.25.47.37.67 0 .01.01.02.01.02l.16.26c.11.18.21.32.29.42l.17.22.01.01.12.14c.15.18.24.41.24.65v2.3c0 1.34-.74 2.57-1.92 3.21L8.21 32.7a3.01 3.01 0 0 0-1.59 2.65v1.28c0 .55-.44 1-1 1zM42.38 34.43c-.55 0-1-.45-1-1v-3.42h-3.09c-.55 0-1-.45-1-1s.45-1 1-1h4.09c.55 0 1 .45 1 1v4.42c0 .55-.45 1-1 1z"/>
    <path d="M17.66 41.54a1.001 1.001 0 0 1-.71-1.7l8.33-8.42c.32-.33.75-.51 1.21-.51.46 0 .89.18 1.21.5l5.44 5.44 8.07-8.07a.996.996 0 1 1 1.41 1.41l-8.28 8.28c-.64.64-1.77.65-2.41 0l-5.44-5.44-8.12 8.21c-.19.2-.45.3-.71.3zm15.28-4.48zm.41 0zm-7.06-4.24z"/>
  </g>
</svg>