<svg xmlns="http://www.w3.org/2000/svg" width="48" height="48" view-box="0 0 48 48" fill="none">
  <path d="M24 6C14.0589 6 6 14.0589 6 24C6 33.9411 14.0589 42 24 42C33.9411 42 42 33.9411 42 24C42 14.0589 33.9411 6 24 6ZM24 40C15.1634 40 8 32.8366 8 24C8 15.1634 15.1634 8 24 8C32.8366 8 40 15.1634 40 24C40 28.2435 38.3143 32.3131 35.3137 35.3137C32.3131 38.3143 28.2435 40 24 40Z" fill="#0075BE"/>
  <path d="M19.5946 16.5761C16.4064 18.3259 14.4896 21.8705 15.0618 25.5931C15.7981 30.3839 20.3777 33.6554 25.2906 32.9003C30.2035 32.1452 33.5892 27.6494 32.8529 22.8586C32.4274 20.0905 30.7188 17.8295 28.4042 16.5595" stroke="#0079C1" stroke-width="2" stroke-linecap="round"/>
  <path d="M24 15V24.5" stroke="#0079C1" stroke-width="2" stroke-linecap="round"/>
</svg>