<svg xmlns="http://www.w3.org/2000/svg" width="48" height="48" view-box="0 0 48 48" fill="none">
  <path d="M42.76 5C43.3123 5 43.76 5.44772 43.76 6V32.4C43.76 32.9523 43.3123 33.4 42.76 33.4H37.813L42.68 40.71C42.8818 41.0164 42.8996 41.4087 42.7264 41.7321C42.5532 42.0555 42.2169 42.2581 41.85 42.2601C41.5138 42.2639 41.1982 42.0985 41.01 41.82L35.42 33.4H25.38V41.26C25.38 41.8123 24.9323 42.26 24.38 42.26C23.8277 42.26 23.38 41.8123 23.38 41.26V33.4H13.52L7.92 41.82C7.73373 42.0956 7.42263 42.2605 7.09 42.26C6.89159 42.2634 6.69666 42.2077 6.53 42.1C6.3096 41.9517 6.15727 41.7218 6.10661 41.461C6.05596 41.2002 6.11115 40.93 6.26 40.71L11.113 33.4H6C5.44772 33.4 5 32.9523 5 32.4V6C5 5.44772 5.44772 5 6 5H42.76ZM41.76 7H7V31.4H41.76V7ZM19.19 22.63C19.7423 22.63 20.19 23.0777 20.19 23.63V27.78C20.19 28.0452 20.0846 28.2996 19.8971 28.4871C19.7096 28.6746 19.4552 28.78 19.19 28.78H15.77C15.2177 28.78 14.77 28.3323 14.77 27.78V23.63C14.77 23.0777 15.2177 22.63 15.77 22.63H19.19ZM26.32 19.63C26.8723 19.63 27.32 20.0777 27.32 20.63V27.73C27.32 28.2823 26.8723 28.73 26.32 28.73H22.9C22.3477 28.73 21.9 28.2823 21.9 27.73V20.63C21.9 20.0777 22.3477 19.63 22.9 19.63H26.32ZM33.44 16.07C33.9923 16.07 34.44 16.5177 34.44 17.07V27.69C34.4415 27.9558 34.3372 28.2113 34.15 28.4C33.9927 28.556 33.7891 28.6545 33.5718 28.6821L33.44 28.69H30.02C29.4677 28.69 29.02 28.2423 29.02 27.69V17.07C29.02 16.5177 29.4677 16.07 30.02 16.07H33.44ZM18.19 24.63H16.77V26.78H18.19V24.63ZM25.32 21.63H23.9V26.73H25.32V21.63ZM32.44 18.07H31.02V26.69H32.44V18.07ZM30.14 9.24L32.2045 9.87358C32.6133 9.86381 33.0029 10.1073 33.16 10.51C33.2112 10.6397 33.2342 10.7772 33.2291 10.9139C33.2317 11.0234 33.2151 11.1337 33.18 11.24L32.38 13.55C32.2448 13.9504 31.8725 14.2226 31.45 14.23C31.3476 14.2492 31.2424 14.2492 31.14 14.23C30.6156 14.0585 30.3292 13.4946 30.5 12.97L30.631 12.576L15.68 18.42C15.5659 18.4673 15.4435 18.4911 15.32 18.49C14.9041 18.4929 14.5297 18.2381 14.38 17.85C14.1828 17.3364 14.4375 16.76 14.95 16.56L29.2224 10.9771C28.91 10.7281 28.7652 10.3046 28.89 9.9C29.0531 9.37275 29.6126 9.07736 30.14 9.24Z" fill="#CCE4F3"/>
</svg>