<svg xmlns="http://www.w3.org/2000/svg" width="48" height="48" view-box="0 0 48 48" fill="none">
  <path d="M32.8 23.3572C32.85 22.6572 32.88 21.9472 32.88 21.2372C32.88 14.3672 27.67 8.67716 25.43 6.55716C24.6561 5.81428 23.4339 5.81428 22.66 6.55716C20.3554 8.69435 18.4343 11.2108 16.98 13.9972C15.8415 16.2112 15.229 18.6579 15.19 21.1472C15.19 21.9572 15.19 22.7572 15.3 23.5372C13.3 24.8072 12 27.7772 12 31.1672C12 31.5072 12 31.8472 12 32.1672C12.0934 33.2009 12.9621 33.9914 14 33.9872H34.5C35.5379 33.9914 36.4066 33.2009 36.5002 32.1672C36.5002 31.8472 36.5002 31.5072 36.5002 31.1672C36.52 27.6172 35.02 24.4372 32.8 23.3572ZM24.01 7.99716C25.7087 9.61731 27.1879 11.4529 28.41 13.4572H19.6C20.8214 11.4497 22.3044 9.61359 24.01 7.99716ZM14.01 31.2472C13.9331 29.3695 14.4896 27.5205 15.59 25.9972C15.9352 28.1303 16.6313 30.1915 17.65 32.0972H14.02C13.9909 31.8148 13.9775 31.531 13.98 31.2472H14.01ZM27.71 32.0672H19.96C18.21 29.4772 17.17 25.4672 17.17 21.2272C17.2053 19.2276 17.6727 17.2592 18.54 15.4572H29.47C30.3373 17.2592 30.8047 19.2276 30.84 21.2272C30.84 25.4672 29.84 29.4772 28.05 32.0672H27.71ZM34.53 32.0672H30.37C31.4438 30.0344 32.1608 27.8324 32.49 25.5572C33.9047 27.1018 34.6271 29.1571 34.49 31.2472C34.52 31.5372 34.51 31.8172 34.5 32.0672H34.53ZM24.25 16.3872C21.8034 16.3872 19.82 18.3705 19.82 20.8172C19.82 23.2638 21.8034 25.2472 24.25 25.2472C26.6966 25.2472 28.68 23.2638 28.68 20.8172C28.6745 18.3728 26.6943 16.3927 24.25 16.3872ZM24.33 35.9972C24.8823 35.9972 25.33 36.4449 25.33 36.9972V40.9972C25.33 41.5494 24.8823 41.9972 24.33 41.9972C23.7777 41.9972 23.33 41.5494 23.33 40.9972V36.9972C23.33 36.4449 23.7777 35.9972 24.33 35.9972ZM28.25 35.9972C28.8023 35.9972 29.25 36.4449 29.25 36.9972V39.9972C29.25 40.5494 28.8023 40.9972 28.25 40.9972C27.6977 40.9972 27.25 40.5494 27.25 39.9972V36.9972C27.25 36.4449 27.6977 35.9972 28.25 35.9972ZM20.43 35.9972C20.9823 35.9972 21.43 36.4449 21.43 36.9972V39.9972C21.43 40.5494 20.9823 40.9972 20.43 40.9972C19.8777 40.9972 19.43 40.5494 19.43 39.9972V36.9972C19.43 36.4449 19.8777 35.9972 20.43 35.9972ZM24.25 18.3872C25.5921 18.3872 26.68 19.4751 26.68 20.8172C26.68 22.1592 25.5921 23.2472 24.25 23.2472C22.9079 23.2472 21.82 22.1592 21.82 20.8172C21.82 19.4751 22.9079 18.3872 24.25 18.3872Z" fill="#CCE4F3"/>
</svg>