<svg xmlns="http://www.w3.org/2000/svg" viewBox="0 0 24 24" height="24" width="24" enableBackground="new 0 0 48 48" xmlSpace="preserve" role="img"><path d="M19.9 7.4c-.1-.4-.4-.8-.8-.9-3.4-.5-6.4-3.2-6.4-3.3 0 0-.1-.1-.2-.1l-.1-.1H12c-.1 0-.2 0-.3.1-.1 0-.1.1-.1.1-.1 0-.1.1-.2.1 0 0-3.1 2.7-6.4 3.3-.5 0-.9.3-.9.8-.1.1-1.2 10.8 7.6 13.6h.6c8.8-2.8 7.7-13.5 7.6-13.6zM6 8.3c2-.5 3.8-1.5 5-2.3v12.5c-4.8-2.3-5.1-8.1-5-10.2zm7 10.2V6c1.2.8 3 1.8 5 2.3.1 2.1-.2 7.9-5 10.2z" style="fill: #0875bb;"/></svg>