<svg xmlns="http://www.w3.org/2000/svg" viewBox="0 0 48 48">
    <defs>
        <style>
            .a{fill:#0075be}
        </style>
    </defs>
    <path class="a" d="M21.86 35a1 1 0 0 0 1.46 0l6.76-7.17a1 1 0 0 0-1.45-1.37l-6 6.39-2.1-2.15a1 1 0 1 0-1.45 1.38Z"/>
    <path class="a" d="M37.36 20.67h-4.45V15c0-7.72-4.65-9.34-8.55-9.34S15.8 7.29 15.8 15v5.66h-4.44a1 1 0 0 0-1 1v19a1 1 0 0 0 1 1h26a1 1 0 0 0 1-1v-19a1 1 0 0 0-1-.99ZM17.8 15c0-5 2.09-7.34 6.56-7.34S30.91 10 30.91 15v5.66H17.8Zm18.56 24.67h-24v-17h24Z"/>
</svg>