<svg xmlns="http://www.w3.org/2000/svg" view-box="0 0 48 48" height="48" width="48" xml-space="preserve">
  <path fill="#0776BA" d="M21.52 40.55c-.1 0-.2-.02-.3-.05C3.34 34.88 5.76 13.01 5.79 12.79c.05-.44.4-.8.84-.87 7.59-1.17 14.34-7.05 14.41-7.11.38-.34.95-.33 1.33.01.07.06 6.77 6.01 14.34 7.26.44.07.78.43.83.88.02.22 2.22 22.12-15.72 27.56-.1.02-.2.03-.3.03zM7.71 13.76c-.11 1.63-.21 5.76.94 10.24 1.91 7.44 6.25 12.32 12.88 14.51 6.66-2.12 11.04-6.96 13.03-14.38 1.19-4.46 1.13-8.6 1.04-10.23-6.47-1.32-12.04-5.5-13.91-7.04-1.89 1.52-7.49 5.65-13.98 6.9z"/>
  <path fill="#0875BB" d="M17.85 21.59c-1.59 0-2.89-1.3-2.89-2.89s1.3-2.89 2.89-2.89 2.89 1.3 2.89 2.89-1.3 2.89-2.89 2.89zm0-3.78c-.49 0-.89.4-.89.89s.4.89.89.89.89-.4.89-.89-.4-.89-.89-.89zM25.45 28.47c-1.59 0-2.89-1.3-2.89-2.89s1.3-2.89 2.89-2.89 2.89 1.3 2.89 2.89-1.3 2.89-2.89 2.89zm0-3.77c-.49 0-.89.4-.89.89s.4.89.89.89.89-.4.89-.89-.4-.89-.89-.89zM16.62 28.16c-.26 0-.51-.1-.71-.29a.996.996 0 0 1 0-1.41l9.93-9.93a.996.996 0 1 1 1.41 1.41l-9.93 9.93c-.18.2-.44.29-.7.29z"/>
  <circle fill="#FFF" cx="33.35" cy="34.15" r="7.9"/>
  <path fill="#0475B9" d="M33.4 43.01c-4.88 0-8.86-3.97-8.86-8.86s3.97-8.86 8.86-8.86 8.86 3.97 8.86 8.86-3.98 8.86-8.86 8.86zm0-15.71c-3.78 0-6.86 3.08-6.86 6.86s3.08 6.86 6.86 6.86 6.86-3.08 6.86-6.86-3.08-6.86-6.86-6.86z"/>
  <path fill="#0475B9" d="M33.4 38.34c-.89 0-1.74-.31-2.33-.86a.997.997 0 0 1-.05-1.41.997.997 0 0 1 1.41-.05c.22.2.58.32.96.32.67 0 1.11-.36 1.11-.59 0-.21-.45-.5-1.2-.6l-.1-.01c-1.8-.24-2.92-1.23-2.92-2.58 0-1.45 1.37-2.59 3.11-2.59.86 0 1.69.3 2.27.82a.998.998 0 1 1-1.33 1.49c-.22-.19-.57-.31-.95-.31-.67 0-1.11.36-1.11.59 0 .21.45.5 1.19.6l.1.01c1.8.24 2.93 1.23 2.93 2.58.02 1.45-1.35 2.59-3.09 2.59z"/>
  <path fill="#0475B9" d="M33.53 39.41c-.55 0-1-.45-1-1v-.64c0-.55.45-1 1-1s1 .45 1 1v.64c0 .55-.45 1-1 1zM33.53 31.44c-.55 0-1-.45-1-1v-.53c0-.55.45-1 1-1s1 .45 1 1v.53c0 .55-.45 1-1 1z"/>
</svg>