<svg xmlns="http://www.w3.org/2000/svg" version="1.1" id="Layer_1" x="0" y="0" height="48" width="48" view-box="0 0 48 48" enable-background="new 0 0 48 48" xml-space="preserve">
  <style>
    .st0 {
      fill: none;
      stroke: #0875bb;
      stroke-width: 2;
      stroke-linecap: round;
      stroke-linejoin: round;
      stroke-miterlimit: 10;
    }
  </style>
  <path class="st0" d="M26.4 5.7s-6.5 5.9-15.3 7.9c0 15.5 4.4 22.6 15.3 27.4 11-4.8 15.3-11.8 15.3-27.4-8.8-2-15.3-7.9-15.3-7.9z"/>
  <path class="st0" d="m31.4 33.8 1.4-1.4-.4-11.9 2.5-2.5c.2-.2.3-.4.4-.7.2-.6 0-1.2-.4-1.6h0c-.4-.4-1.1-.6-1.6-.4-.3.1-.5.2-.7.4l-2.5 2.5-11.9-.4-1.4 1.4 8.6 3.7-2.9 2.9-4.4.2-1.5 1.4 4.5 2.1h0l2.1 4.5 1.4-1.5.3-4.4 2.9-2.9 3.6 8.6z"/>
  <path d="M25.3 41.7H11.8c-1.5 0-2.7-1.2-2.7-2.7v-6.1c0-1.5 1.2-2.7 2.7-2.7h13.5c1.5 0 2.7 1.2 2.7 2.7V39c-.1 1.5-1.3 2.7-2.7 2.7z" style="       fill: #fff;       stroke: #0875bb;       stroke-width: 2;       stroke-linecap: round;       stroke-linejoin: round;       stroke-miterlimit: 10;     "/>
  <path class="st0" d="M9.1 34.3h18.8"/>
</svg>