<svg xmlns="http://www.w3.org/2000/svg" width="48" height="48" view-box="0 0 48 48" fill="none">
  <g clipPath="url(#clip0_7684_137178)">
    <path fill-rule="evenodd" clip-rule="evenodd" d="M25.0024 24.9815C24.4494 25.5325 23.4894 25.5325 22.9374 24.9815C22.3674 24.4125 22.3674 23.4845 22.9374 22.9155C23.2134 22.6395 23.5794 22.4875 23.9694 22.4875C24.3594 22.4875 24.7264 22.6395 25.0024 22.9155C25.2774 23.1915 25.4304 23.5575 25.4304 23.9485C25.4304 24.3385 25.2774 24.7055 25.0024 24.9815ZM24.0169 6C33.9419 6 42.0169 14.075 42.0169 24C42.0169 25.272 41.8759 26.52 41.6209 27.736C40.9499 31.106 39.3159 34.318 36.7099 36.925C33.2019 40.434 28.5919 42.189 23.9819 42.189C19.3729 42.189 14.7629 40.434 11.2539 36.925C7.24886 32.919 5.53886 27.48 6.10586 22.243C6.13586 21.935 6.19186 21.636 6.23786 21.332C6.27086 21.121 6.29286 20.909 6.33486 20.699C7.89086 12.348 15.2209 6 24.0169 6ZM23.9819 32.411C20.1069 32.411 16.3899 33.748 13.3969 36.169C19.4279 41.507 28.5369 41.506 34.5689 36.168C31.5759 33.746 27.8619 32.411 23.9819 32.411ZM35.2959 12.883C29.0569 6.644 18.9059 6.646 12.6679 12.883C10.3449 15.206 8.88986 18.072 8.29686 21.077C8.25486 21.301 8.22586 21.527 8.19386 21.754C8.15986 21.979 8.12186 22.201 8.09686 22.426C8.04586 22.944 8.01686 23.469 8.01686 24C8.01686 27.977 9.46886 31.713 12.0989 34.648C15.4549 31.92 19.6299 30.411 23.9819 30.411C28.3559 30.411 32.5419 31.93 35.9059 34.681C37.8209 32.553 39.1199 30 39.6849 27.238C40.6539 22.197 39.1909 16.777 35.2959 12.883ZM32.2014 14.3025C32.5924 13.9125 33.2254 13.9125 33.6154 14.3025C34.0064 14.6935 34.0064 15.3265 33.6154 15.7165L27.0074 22.3245C27.7044 23.6335 27.5194 25.2935 26.4164 26.3955C25.7414 27.0705 24.8564 27.4075 23.9704 27.4075C23.0834 27.4075 22.1974 27.0705 21.5234 26.3955C20.1734 25.0455 20.1734 22.8505 21.5234 21.5015C22.6234 20.3985 24.2834 20.2105 25.5934 20.9105L32.2014 14.3025ZM14.396 22.6504C14.949 22.6504 15.396 23.0974 15.396 23.6504C15.396 24.2034 14.949 24.6504 14.396 24.6504H10.698C10.145 24.6504 9.69796 24.2034 9.69796 23.6504C9.69796 23.0974 10.145 22.6504 10.698 22.6504H14.396ZM37.1538 22.6504C37.7068 22.6504 38.1538 23.0974 38.1538 23.6504C38.1538 24.2034 37.7068 24.6504 37.1538 24.6504H33.4558C32.9028 24.6504 32.4558 24.2034 32.4558 23.6504C32.4558 23.0974 32.9028 22.6504 33.4558 22.6504H37.1538ZM13.9274 13.8612C14.2824 13.4392 14.9124 13.3842 15.3364 13.7412L18.1634 16.1242C18.5854 16.4792 18.6394 17.1102 18.2834 17.5332C18.0854 17.7672 17.8034 17.8882 17.5184 17.8882C17.2904 17.8882 17.0624 17.8112 16.8744 17.6532L14.0474 15.2702C13.6254 14.9152 13.5714 14.2842 13.9274 13.8612ZM24.0551 10.1888C24.6081 10.1888 25.0551 10.6358 25.0551 11.1888V14.8858C25.0551 15.4388 24.6081 15.8858 24.0551 15.8858C23.5021 15.8858 23.0551 15.4388 23.0551 14.8858V11.1888C23.0551 10.6358 23.5021 10.1888 24.0551 10.1888Z" fill="#0075BE"/>
  </g>
  <defs>
    <clipPath id="clip0_7684_137178">
      <rect width="48" height="48" fill="white"/>
    </clipPath>
  </defs>
</svg>