<svg xmlns="http://www.w3.org/2000/svg" version="1.1" id="Layer_1" x="0" y="0" height="48" width="48" view-box="0 0 48 48" enable-background="new 0 0 48 48" xml-space="preserve">
  <style>
    .st0,
    .st1 {
      fill: none;
      stroke: #0875bb;
      stroke-width: 2;
      stroke-linecap: round;
      stroke-linejoin: round;
      stroke-miterlimit: 10;
    }
    .st1 {
      fill: #fff;
    }
  </style>
  <path class="st0" d="M22.7 30.9 33.8 42v-7.9h7.8L30.5 23z"/>
  <path class="st0" d="M25.3 30.9 14.2 42v-7.9H6.4L17.5 23z"/>
  <circle class="st1" cx="24" cy="19.9" r="13.9"/>
  <path class="st1" d="m24.8 12.3 1.4 4.4c.1.4.5.6.8.6h4.6c.8 0 1.2 1.1.5 1.6l-3.7 2.7c-.3.2-.4.6-.3 1l1.4 4.4c.3.8-.7 1.5-1.3 1l-3.7-2.7c-.3-.2-.7-.2-1 0L19.8 28c-.7.5-1.6-.2-1.3-1l1.4-4.4c.1-.4 0-.8-.3-1l-3.7-2.7c-.7-.5-.3-1.6.5-1.6H21c.4 0 .7-.2.8-.6l1.4-4.4c.2-.8 1.4-.8 1.6 0z"/>
</svg>