<svg xmlns="http://www.w3.org/2000/svg" id="prefix__Layer_1" x="0" y="0" height="48" width="48" view-box="0 0 48 48" enable-background="new 0 0 48 48" xml-space="preserve">
  <style>
    .prefix__st0 {
      fill: #0875bb;
    }
  </style>
  <path class="prefix__st0" d="M24 29.3c-.2 0-.5-.1-.7-.2L5.6 19.4c-.5-.3-.7-.9-.4-1.3.3-.5.8-.6 1.3-.4L24 27.3l17.5-9.6c.5-.3 1.1-.1 1.3.4.3.5.1 1.1-.4 1.3l-17.7 9.7c-.2.1-.5.2-.7.2zm-.2-1.9zm.4 0z"/>
  <path class="prefix__st0" d="M42 19c-.2 0-.3 0-.5-.1L24 9.3 6.5 18.9c-.5.2-1.1.1-1.4-.4-.3-.5-.1-1.1.4-1.3l17.7-9.7c.5-.2 1-.2 1.4 0l17.7 9.7c.5.3.7.9.4 1.3 0 .3-.4.5-.7.5zM14.1 31.6c-.5 0-1-.4-1-1V24c0-.5.4-1 1-1s1 .4 1 1v6.6c-.1.6-.5 1-1 1z"/>
  <path class="prefix__st0" d="M24 36.1c-.5 0-.9-.1-1.3-.3l-8.9-4.1c-.5-.2-.7-.8-.5-1.3.2-.5.8-.7 1.3-.5l8.9 4.1c.3.2.7.2 1 0l8.5-3.9v-6c0-.5.4-1 1-1s1 .4 1 1v6.7c0 .4-.2.7-.6.8l-9 4.2c-.5.2-.9.3-1.4.3zM9 35.8c-.5 0-1-.4-1-1V21.1c0-.5.4-1 1-1s1 .4 1 1v13.7c0 .5-.4 1-1 1z"/>
  <path class="prefix__st0" d="M9 41.2c-1.8 0-3.3-1.5-3.3-3.3s1.5-3.3 3.3-3.3 3.3 1.5 3.3 3.3c0 1.9-1.5 3.3-3.3 3.3zm0-4.5c-.7 0-1.3.6-1.3 1.3s.6 1.3 1.3 1.3c.7 0 1.3-.6 1.3-1.3.1-.7-.5-1.3-1.3-1.3z"/>
</svg>