<svg xmlns="http://www.w3.org/2000/svg" view-box="0 0 48 48" height="48" width="48">
  <path fill="#0075be" d="M41.33 28.16a3.64 3.64 0 0 0-4.73-1.87L31.88 28a3.5 3.5 0 0 0-2.08-2l-6.53-2.4a8.35 8.35 0 0 0-1.59-.42L20.22 23a9.2 9.2 0 0 0-3.75.78L13.74 25a2.73 2.73 0 0 0-.67-.37 2.66 2.66 0 0 0-2.07 0l-4.35 1.92a1.7 1.7 0 0 0-1 1.54v11.69a1.69 1.69 0 0 0 2.45 1.5L16.5 37a2.64 2.64 0 0 0 1.4-1.48 2.76 2.76 0 0 0 .18-.74 4.07 4.07 0 0 1 2.92.32l3.24 1.61a7.44 7.44 0 0 0 6.37.14l8.87-3.91a3.64 3.64 0 0 0 1.85-4.78Zm-25.69 7.07-8 4v-11l4.17-1.83a.72.72 0 0 1 .54 0s0 .07 0 .11L15.93 35a.76.76 0 0 1-.29.23Zm23.89-5a1.59 1.59 0 0 1-.86.9L29.8 35a5.46 5.46 0 0 1-4.67-.1l-3.24-1.61a6.07 6.07 0 0 0-4.64-.29l-2.62-6.21 2.65-1.17a6.8 6.8 0 0 1 2.84-.62l1.29.11a7.81 7.81 0 0 1 1.17.33l6.53 2.39a1.54 1.54 0 0 1 1 1.31 1.13 1.13 0 0 0 0 .41 1.6 1.6 0 0 1 0 .21 1.56 1.56 0 0 1-1.94.95l-5-1.7a1 1 0 0 0-.65 1.89l5.05 1.71a3.66 3.66 0 0 0 1.13.18 3.53 3.53 0 0 0 3.34-2.38c0-.1.06-.19.08-.29l5.36-2a1.66 1.66 0 0 1 1.24 0 1.62 1.62 0 0 1 .9.86 1.66 1.66 0 0 1-.09 1.23ZM29.93 23.93a1.55 1.55 0 0 0 2.17 0l7.49-7.47A6.19 6.19 0 0 0 31 7.53a6.19 6.19 0 0 0-10.39 4.55 6.18 6.18 0 0 0 1.82 4.38ZM23.87 9.11a4.18 4.18 0 0 1 5.93 0l.52.52a1 1 0 0 0 1.42 0l.51-.51a4.18 4.18 0 0 1 5.93 0 4.2 4.2 0 0 1 0 5.94L31 22.19 23.87 15a4.19 4.19 0 0 1 0-5.93Z"/>
</svg>