<svg xmlns="http://www.w3.org/2000/svg" xmlns:xlink="http://www.w3.org/1999/xlink" width="240px" height="200px" viewBox="0 0 240 200" version="1.1">
    <title>0EEC77D6-8F77-4BA0-88A5-443B5C079859</title>
    <defs>
        <polygon id="path-1" points="0.44721127 0.212 210.626805 0.212 210.626805 77.9591908 0.44721127 77.9591908"/>
    </defs>
    <g id="Illustration" stroke="none" stroke-width="1" fill="none" fill-rule="evenodd">
        <g id="Group-110" transform="translate(14.000000, 55.000000)">
            <g id="Group-5" transform="translate(0.000000, 87.788300)" stroke-linecap="round" stroke-width="3">
                <line x1="0.5" y1="1.4808" x2="210.5" y2="1.4808" id="Stroke-1" stroke="#0079C1"/>
                <line x1="104.9893" y1="1.4808" x2="210.5003" y2="1.4808" id="Stroke-3" stroke="#73C3EB"/>
            </g>
            <polygon id="Fill-6" fill="#FFFFFF" points="90.554 88.0993 95.311 88.0993 95.311 58.3713 90.554 58.3713"/>
            <polygon id="Stroke-7" stroke="#001928" stroke-width="3" points="90.554 88.0993 95.311 88.0993 95.311 58.3713 90.554 58.3713"/>
            <line x1="95.9053" y1="61.3443" x2="95.9053" y2="81.5593" id="Stroke-9" stroke="#0079C1" stroke-width="3" stroke-linecap="round"/>
            <g id="Group-109" transform="translate(0.000000, 0.788300)">
                <path d="M89.1758,69.1634 L96.6888,69.1634 C98.0698,69.1634 99.1888,70.2824 99.1888,71.6634 L99.1888,72.0414 C99.1888,73.4224 98.0698,74.5414 96.6888,74.5414 L89.1758,74.5414 C87.7948,74.5414 86.6758,73.4224 86.6758,72.0414 L86.6758,71.6634 C86.6758,70.2824 87.7948,69.1634 89.1758,69.1634" id="Fill-10" fill="#FFFFFF"/>
                <path d="M89.1758,74.5414 C87.7968,74.5414 86.6758,73.4204 86.6758,72.0414 L86.6758,71.6634 C86.6758,70.2854 87.7968,69.1634 89.1758,69.1634 L96.6888,69.1634 C98.0678,69.1634 99.1888,70.2854 99.1888,71.6634 L99.1888,72.0414 C99.1888,73.4204 98.0678,74.5414 96.6888,74.5414 L89.1758,74.5414 Z" id="Stroke-12" stroke="#001928" stroke-width="3"/>
                <path d="M85.7979,82.555 L100.0669,82.555 C103.3509,82.555 106.0119,85.216 106.0119,88.5 L79.8529,88.5 C79.8529,85.216 82.5139,82.555 85.7979,82.555" id="Fill-14" fill="#FFFFFF"/>
                <path d="M85.7979,82.555 L100.0669,82.555 C103.3509,82.555 106.0119,85.216 106.0119,88.5 L79.8529,88.5 C79.8529,85.216 82.5139,82.555 85.7979,82.555 Z" id="Stroke-16" stroke="#0079C1" stroke-width="3" stroke-linecap="round" stroke-linejoin="round"/>
                <g id="Group-20" transform="translate(1.000000, 0.000000)">
                    <mask id="mask-2" fill="white">
                        <use xlink:href="#path-1"/>
                    </mask>
                    <g id="Clip-19"/>
                    <path d="M182.9121,43.1634 C179.5711,39.4774 178.1751,23.1264 168.9591,16.2164 C159.7431,9.3054 114.9081,0.5864 98.1201,0.2194 C81.3321,-0.1476 82.9251,12.4454 76.6581,17.9344 C74.1931,17.6784 57.0491,14.2894 37.6041,11.0144 C27.0651,9.2384 17.5351,8.9764 9.0141,10.2264 C5.4091,10.7564 2.4791,13.4054 1.5921,16.9384 C0.7421,20.3214 0.3651,23.2784 0.4621,25.8104 C0.6821,31.5794 5.0531,40.9054 6.9951,43.7334 C9.8791,47.9314 17.5921,48.7664 30.1351,46.2384 C32.1071,46.3904 38.5161,46.8834 49.3621,47.7194 C60.2071,48.5544 66.7971,50.6734 69.1311,54.0764 L192.9701,77.7804 C194.5071,78.0754 196.0921,78.0044 197.5971,77.5744 C202.5021,76.1734 205.7481,73.4214 207.3341,69.3174 C207.8731,67.9244 208.5481,66.5024 209.3571,65.0514 C212.0491,60.2274 210.3201,54.1374 205.4981,51.4454 C204.7411,51.0234 203.9331,50.7014 203.0941,50.4874 C191.3531,47.4954 184.6271,45.0554 182.9121,43.1634" id="Fill-18" fill="#C1E7FF" mask="url(#mask-2)"/>
                </g>
                <path d="M195.8496,76.4593 C195.3146,76.4593 194.7776,76.4083 194.2516,76.3083 L70.9816,52.7123 C68.1046,49.1883 61.3836,47.0633 50.4776,46.2233 L31.0416,44.7273 L30.8386,44.7683 C26.2436,45.6933 22.2736,46.1633 19.0386,46.1633 C14.0266,46.1633 10.7266,45.0603 9.2316,42.8843 C7.5046,40.3703 3.1696,31.2553 2.9606,25.7533 C2.8706,23.3763 3.2356,20.5333 4.0466,17.3043 C4.7886,14.3493 7.2166,12.1523 10.2316,11.7103 C13.6636,11.2073 17.3186,10.9513 21.0936,10.9513 C26.4736,10.9513 32.2816,11.4703 38.3556,12.4933 C49.0696,14.2983 59.0466,16.1303 66.3306,17.4673 C72.3586,18.5743 76.3386,19.3053 77.5026,19.4263 L78.1546,19.4943 L78.6466,19.0633 C80.8416,17.1403 82.1416,14.4943 83.3996,11.9363 C85.9836,6.6783 88.4236,1.7113 98.4116,1.7113 C98.6326,1.7113 98.8586,1.7143 99.0866,1.7193 C115.7826,2.0833 160.3006,10.8493 169.0596,17.4163 C174.6046,21.5743 177.1566,29.4853 179.2066,35.8423 C180.4276,39.6263 181.3916,42.6153 182.8006,44.1703 C184.0356,45.5323 187.5476,47.8183 203.7236,51.9403 C204.4376,52.1223 205.1236,52.3973 205.7656,52.7553 C207.7486,53.8613 209.1826,55.6743 209.8016,57.8573 C210.4216,60.0423 210.1546,62.3373 209.0476,64.3193 C208.2056,65.8273 207.4956,67.3263 206.9346,68.7763 C205.5156,72.4493 202.6536,74.8553 198.1846,76.1323 C197.4256,76.3493 196.6396,76.4593 195.8506,76.4593 L195.8496,76.4593 Z" id="Stroke-21" stroke="#0079C1" stroke-width="3"/>
                <path d="M209.5508,61.9671 C199.2638,59.5741 193.4048,58.4361 191.9768,58.5531 C190.5488,58.6701 189.8708,60.1921 189.9448,63.1191" id="Stroke-23" stroke="#001928" stroke-width="3" stroke-linecap="round"/>
                <path d="M8.9912,32.7005 C6.4132,32.3385 4.7712,28.8525 5.3242,24.9165 C5.8782,20.9795 8.4162,18.0825 10.9942,18.4445 C13.5722,18.8065 15.2142,22.2925 14.6612,26.2285 C14.1072,30.1655 11.5692,33.0625 8.9912,32.7005" id="Fill-25" fill="#FFFFFF"/>
                <path d="M8.9912,32.7005 C6.4132,32.3385 4.7712,28.8525 5.3242,24.9165 C5.8782,20.9795 8.4162,18.0825 10.9942,18.4445 C13.5722,18.8065 15.2142,22.2925 14.6612,26.2285 C14.1072,30.1655 11.5692,33.0625 8.9912,32.7005 Z" id="Stroke-27" stroke="#001928" stroke-width="3"/>
                <path d="M124.1094,34.0306 C121.3424,42.2756 119.4684,46.9226 118.4854,47.9696 C117.5024,49.0176 114.7574,49.2996 110.2524,48.8136" id="Stroke-29" stroke="#73C3EB" stroke-width="3" stroke-linecap="round"/>
                <path d="M73.1699,24.6166 C52.9739,20.5176 38.9369,18.0526 31.0579,17.2176 C23.1789,16.3836 16.9489,16.7026 12.3679,18.1766" id="Stroke-31" stroke="#005587" stroke-width="3" stroke-linecap="round"/>
                <path d="M180.8184,40.8373 C177.3674,28.5733 173.3464,20.7773 168.7574,17.4493 C161.8754,12.4563 135.2104,6.9313 133.8464,6.6273" id="Stroke-33" stroke="#005587" stroke-width="3" stroke-linecap="round"/>
                <path d="M206.6201,70.0248 L71.1191,48.0278 C69.7461,40.8948 64.6041,36.6928 55.6941,35.4208 C46.7851,34.1488 39.4771,36.4278 33.7691,42.2568 L8.8231,37.5008 C8.7051,42.4978 9.6241,45.7538 11.5811,47.2718 C13.5381,48.7898 16.0061,49.7338 18.9831,50.1048 L32.8521,52.4348 C36.6731,40.4128 44.0071,34.9698 54.8521,36.1078 C65.6981,37.2448 70.9881,44.8088 70.7221,58.7998 L152.7901,72.5928 L189.8631,79.5468 C194.6501,80.7498 198.3041,80.9078 200.8231,80.0228 C203.3431,79.1378 205.2741,75.8058 206.6201,70.0248" id="Fill-35" fill="#FFFFFF"/>
                <path d="M206.6201,70.0248 L71.1191,48.0278 C69.7451,40.8948 64.6041,36.6928 55.6941,35.4208 C46.7851,34.1488 39.4761,36.4278 33.7691,42.2568 L8.8231,37.5008 C8.7051,42.4978 9.6241,45.7538 11.5811,47.2718 C13.5381,48.7898 16.0061,49.7338 18.9831,50.1048 L32.8521,52.4348 C36.6731,40.4128 44.0061,34.9698 54.8521,36.1078 C65.6981,37.2448 70.9881,44.8088 70.7221,58.7998 L152.7901,72.5928 L189.8631,79.5468 C194.6501,80.7498 198.3041,80.9078 200.8231,80.0228 C203.3431,79.1378 205.2741,75.8058 206.6201,70.0248 Z" id="Stroke-37" stroke="#005587" stroke-width="3" stroke-linecap="round" stroke-linejoin="round"/>
                <path d="M34.3652,41.6273 C16.4022,36.7923 6.0072,34.8743 3.1812,35.8733 C-1.0578,37.3723 1.3582,46.1893 2.6192,48.1853 C3.8812,50.1793 16.5102,51.7513 28.2862,52.4363 C29.4372,49.7433 31.4642,46.1413 34.3652,41.6273" id="Fill-39" fill="#FFFFFF"/>
                <path d="M27.3408,50.8763 C12.7338,49.9713 4.8098,48.2613 3.8328,47.3123 C3.0718,46.0953 1.6648,41.1783 2.5728,38.5543 C2.8838,37.6593 3.3538,37.4023 3.6808,37.2873 C3.8618,37.2233 4.3118,37.1163 5.2988,37.1163 C9.4398,37.1163 18.4178,38.9433 32.0048,42.5493 C29.9508,45.8363 28.3878,48.6273 27.3408,50.8763 Z" id="Stroke-41" stroke="#0079C1" stroke-width="3"/>
                <path d="M54.3213,35.2201 C42.9683,32.7011 34.8903,36.7551 30.0863,47.3831 L69.7123,55.8111 C70.8023,44.6021 65.6733,37.7391 54.3213,35.2201" id="Fill-43" fill="#0079C1"/>
                <path d="M164.8896,22.5775 C159.8876,18.4245 149.8966,15.0105 134.9166,12.3375 L132.2826,25.4615 C131.7426,28.1495 133.4686,30.7715 136.1526,31.3375 L176.0796,39.7595 C173.6216,32.4595 169.8926,26.7315 164.8896,22.5775" id="Fill-45" fill="#FFFFFF"/>
                <path d="M164.8896,22.5775 C159.8876,18.4245 149.8966,15.0105 134.9166,12.3375 L132.2826,25.4615 C131.7426,28.1495 133.4686,30.7715 136.1526,31.3375 L176.0796,39.7595 C173.6216,32.4595 169.8926,26.7315 164.8896,22.5775 Z" id="Stroke-47" stroke="#0079C1" stroke-width="3" stroke-linecap="round" stroke-linejoin="round"/>
                <path d="M137.5469,19.0589 L136.2149,25.9039 C136.0099,26.9609 136.6779,27.9919 137.7269,28.2349 L165.7179,34.7239 C154.6669,30.9459 147.7659,27.8819 145.0129,25.5359 C142.2599,23.1889 139.7719,21.0299 137.5469,19.0589" id="Fill-49" fill="#C1E7FF"/>
                <path d="M86.3281,7.0882 C91.9801,4.3312 106.5751,5.7022 130.1121,11.2012 L127.6061,23.0202 C126.9381,26.1722 123.8991,28.2342 120.7241,27.6902 C111.0041,26.0242 103.7801,24.7792 99.0531,23.9562 C94.0261,23.0812 87.8891,21.8582 80.6401,20.2872 C79.5601,20.0532 78.8751,18.9882 79.1091,17.9082 C79.1481,17.7292 79.2121,17.5562 79.2981,17.3932 C82.5911,11.2032 84.9341,7.7682 86.3281,7.0882" id="Fill-51" fill="#FFFFFF"/>
                <path d="M86.3281,7.0882 C91.9801,4.3312 106.5751,5.7022 130.1121,11.2012 L127.6061,23.0202 C126.9381,26.1722 123.8991,28.2342 120.7241,27.6902 C111.0041,26.0242 103.7801,24.7792 99.0531,23.9562 C94.0261,23.0812 87.8891,21.8582 80.6401,20.2872 C79.5601,20.0532 78.8751,18.9882 79.1091,17.9082 C79.1481,17.7292 79.2121,17.5562 79.2981,17.3932 C82.5911,11.2032 84.9341,7.7682 86.3281,7.0882 Z" id="Stroke-53" stroke="#005587" stroke-width="3" stroke-linecap="round" stroke-linejoin="round"/>
                <path d="M129.3359,14.4701 C128.4979,19.2501 127.8329,22.3271 127.3419,23.7011 C126.6049,25.7631 126.7939,25.7671 125.3819,26.7951 C123.9699,27.8241 123.0549,27.7221 121.8219,27.7241 C121.0009,27.7251 118.4399,27.3201 114.1369,26.5071" id="Stroke-55" stroke="#001928" stroke-width="3" stroke-linecap="round"/>
                <line x1="175.708" y1="39.6771" x2="140.742" y2="32.2821" id="Stroke-57" stroke="#73C3EB" stroke-width="3" stroke-linecap="round"/>
                <path d="M176.0879,41.2074 C175.2679,41.0924 174.6949,40.3344 174.8109,39.5134 C174.9259,38.6924 175.6849,38.1214 176.5049,38.2364 C177.3249,38.3524 177.8979,39.1104 177.7809,39.9314 C177.6659,40.7514 176.9079,41.3224 176.0879,41.2074" id="Fill-59" fill="#001928"/>
                <path d="M87.4512,9.223 C90.8202,13.082 101.4742,18.614 119.4152,25.815 L81.3802,18.662 C84.0112,13.131 86.0352,9.984 87.4512,9.223" id="Fill-61" fill="#C1E7FF"/>
                <path d="M48.7061,64.6849 C43.0181,63.8859 39.0241,58.8459 39.7851,53.4279 C40.5471,48.0099 45.7751,44.2659 51.4631,45.0659 C57.1511,45.8649 61.1441,50.9049 60.3841,56.3229 C59.6221,61.7409 54.3931,65.4849 48.7061,64.6849" id="Fill-63" fill="#FFFFFF"/>
                <path d="M48.7061,64.6849 C43.0181,63.8859 39.0241,58.8459 39.7851,53.4279 C40.5471,48.0099 45.7751,44.2659 51.4631,45.0659 C57.1511,45.8649 61.1441,50.9049 60.3841,56.3229 C59.6221,61.7409 54.3931,65.4849 48.7061,64.6849 Z" id="Stroke-65" stroke="#001928" stroke-width="3"/>
                <path d="M58.6406,49.513 C60.8796,53.369 60.9156,56.976 58.7486,60.334 C56.5816,63.692 52.8906,65.128 47.6746,64.643" id="Stroke-67" stroke="#0079C1" stroke-width="3" stroke-linecap="round"/>
                <path d="M31.4131,52.4681 C32.8921,42.5441 42.5011,35.7061 52.9511,37.1751 C63.4041,38.6441 70.7591,47.8711 69.4371,57.8221 C71.3721,58.0911 73.4521,58.3801 75.6811,58.6901 C77.5361,45.4851 67.8021,33.1991 53.9371,31.2511 C40.0741,29.3031 27.3301,38.4281 25.4751,51.6341 L31.4131,52.4681 Z" id="Fill-69" fill="#FFFFFF"/>
                <path d="M31.4131,52.4681 C32.8921,42.5441 42.5011,35.7061 52.9511,37.1751 C63.4041,38.6441 70.7591,47.8711 69.4371,57.8221 C71.3721,58.0911 73.4521,58.3801 75.6811,58.6901 C77.5361,45.4851 67.8021,33.1991 53.9371,31.2511 C40.0741,29.3031 27.3301,38.4281 25.4751,51.6341 L31.4131,52.4681 Z" id="Stroke-71" stroke="#005587" stroke-width="3" stroke-linecap="round" stroke-linejoin="round"/>
                <path d="M146.5088,86.4711 C136.2038,85.0231 128.9688,75.8921 130.3478,66.0761 C131.7278,56.2611 141.1988,49.4781 151.5038,50.9261 C161.8098,52.3741 169.0448,61.5051 167.6648,71.3211 C166.2858,81.1361 156.8138,87.9191 146.5088,86.4711" id="Fill-73" fill="#C1E7FF"/>
                <path d="M146.5088,86.4711 C136.2038,85.0231 128.9688,75.8921 130.3478,66.0761 C131.7278,56.2611 141.1988,49.4781 151.5038,50.9261 C161.8098,52.3741 169.0448,61.5051 167.6648,71.3211 C166.2858,81.1361 156.8138,87.9191 146.5088,86.4711 Z" id="Stroke-75" stroke="#73C3EB" stroke-width="3"/>
                <path d="M147.2715,78.4017 C141.5835,77.6027 137.5895,72.5627 138.3505,67.1447 C139.1125,61.7267 144.3405,57.9827 150.0285,58.7827 C155.7165,59.5827 159.7095,64.6227 158.9495,70.0397 C158.1875,75.4577 152.9585,79.2017 147.2715,78.4017" id="Fill-77" fill="#FFFFFF"/>
                <path d="M147.2715,78.4017 C141.5835,77.6027 137.5895,72.5627 138.3505,67.1447 C139.1125,61.7267 144.3405,57.9827 150.0285,58.7827 C155.7165,59.5827 159.7095,64.6227 158.9495,70.0397 C158.1875,75.4577 152.9585,79.2017 147.2715,78.4017 Z" id="Stroke-79" stroke="#001928" stroke-width="3"/>
                <path d="M157.333,63.0931 C159.572,66.9491 159.608,70.5561 157.441,73.9141 C155.274,77.2721 151.583,78.7081 146.368,78.2231" id="Stroke-81" stroke="#0079C1" stroke-width="3" stroke-linecap="round"/>
                <path d="M165.1348,55.433 C169.4518,63.301 169.4728,70.69 165.1968,77.599 C161.6508,83.328 156.0758,86.365 148.4748,86.709" id="Stroke-83" stroke="#005587" stroke-width="3" stroke-linecap="round"/>
                <path d="M129.3389,67.3255 C130.8169,57.4015 140.4269,50.5635 150.8769,52.0325 C161.3299,53.5015 168.6839,62.7285 167.3629,72.6795 C169.2969,72.9485 171.3779,73.2375 173.6059,73.5475 C175.4619,60.3415 165.7279,48.0565 151.8629,46.1075 C137.9989,44.1595 125.2559,53.2855 123.3999,66.4905 L129.3389,67.3255 Z" id="Fill-85" fill="#FFFFFF"/>
                <path d="M129.3389,67.3255 C130.8169,57.4015 140.4269,50.5635 150.8769,52.0325 C161.3299,53.5015 168.6839,62.7285 167.3629,72.6795 C169.2969,72.9485 171.3779,73.2375 173.6059,73.5475 C175.4619,60.3415 165.7279,48.0565 151.8629,46.1075 C137.9989,44.1595 125.2559,53.2855 123.3999,66.4905 L129.3389,67.3255 Z" id="Stroke-87" stroke="#0079C1" stroke-width="3" stroke-linecap="round" stroke-linejoin="round"/>
                <path d="M10.7393,71.5414 L45.1683,71.5414 C47.6533,71.5414 49.6683,73.5574 49.6683,76.0414 L49.6683,83.1214 C49.6683,85.6064 47.6533,87.6214 45.1683,87.6214 L10.7393,87.6214 C8.2543,87.6214 6.2393,85.6064 6.2393,83.1214 L6.2393,76.0414 C6.2393,73.5574 8.2543,71.5414 10.7393,71.5414" id="Fill-89" fill="#FFFFFF"/>
                <path d="M10.7393,87.6214 C8.2583,87.6214 6.2393,85.6024 6.2393,83.1214 L6.2393,76.0414 C6.2393,73.5594 8.2583,71.5414 10.7393,71.5414 L45.1683,71.5414 C47.6493,71.5414 49.6683,73.5594 49.6683,76.0414 L49.6683,83.1214 C49.6683,85.6024 47.6493,87.6214 45.1683,87.6214 L10.7393,87.6214 Z" id="Stroke-91" stroke="#005587" stroke-width="3"/>
                <line x1="15.4688" y1="76.015" x2="13.1118" y2="71.518" id="Stroke-93" stroke="#005587" stroke-width="3" stroke-linecap="round"/>
                <line x1="13.0898" y1="87.9056" x2="15.4688" y2="83.1486" id="Stroke-95" stroke="#005587" stroke-width="3" stroke-linecap="round"/>
                <line x1="22.6025" y1="87.9056" x2="24.9815" y2="83.1486" id="Stroke-97" stroke="#0079C1" stroke-width="3" stroke-linecap="round"/>
                <line x1="32.1152" y1="87.9056" x2="34.4942" y2="83.1486" id="Stroke-99" stroke="#001928" stroke-width="3" stroke-linecap="round"/>
                <line x1="41.6279" y1="87.9056" x2="44.0069" y2="83.1486" id="Stroke-101" stroke="#0079C1" stroke-width="3" stroke-linecap="round"/>
                <line x1="23.792" y1="76.015" x2="21.435" y2="71.518" id="Stroke-103" stroke="#0079C1" stroke-width="3" stroke-linecap="round"/>
                <line x1="33.3047" y1="76.015" x2="30.9477" y2="71.518" id="Stroke-105" stroke="#0079C1" stroke-width="3" stroke-linecap="round"/>
                <line x1="42.8174" y1="76.015" x2="40.4604" y2="71.518" id="Stroke-107" stroke="#001928" stroke-width="3" stroke-linecap="round"/>
            </g>
        </g>
    </g>
</svg>