<svg width="48" height="48" xmlns="http://www.w3.org/2000/svg" viewBox="0 0 48 48" focusable="false" api="[object Object]" class="icon--teens-icon" data-di-res-id="9f393e90-a63f1a03" data-di-rand="1703540870508"><g><g><circle fill="none" stroke="#0175ba" stroke-linecap="round" stroke-linejoin="round" stroke-width="2px" cx="24" cy="24" r="16.5"></circle><path fill="none" stroke="#0175ba" stroke-linecap="round" stroke-linejoin="round" stroke-width="2px" d="M8.32,28.13C12.08,17.63,21.4,10.43,31.76,10"></path><path fill="none" stroke="#0175ba" stroke-linecap="round" stroke-linejoin="round" stroke-width="2px" d="M39.79,19C36.11,30.41,26.84,38.5,16,38.5"></path><path fill="#0075be" d="M25.64,32.45a1.07,1.07,0,0,1-.58.23,1,1,0,0,1-.92-.51L22,28.42,17.76,28a1,1,0,0,1-.65-1.67L20,23.2,19.07,19a1,1,0,0,1,1.39-1.13l3.91,1.8,3.69-2.2a1,1,0,0,1,1.5,1l-.5,4.27,3.24,2.83a1,1,0,0,1-.47,1.73l-4.21.84-1.69,3.95A1.1,1.1,0,0,1,25.64,32.45Zm.64-6a1,1,0,0,1,.43-.2l2.74-.55-2.1-1.84A1,1,0,0,1,27,23l.32-2.78-2.4,1.43a1,1,0,0,1-.93.05l-2.54-1.16.62,2.72a1,1,0,0,1-.24.9L20,26.23l2.78.25a1,1,0,0,1,.78.5l1.37,2.44L26,26.85A.9.9,0,0,1,26.28,26.47Z"></path><rect fill="none" width="48" height="48"></rect></g></g></svg>