<svg xmlns="http://www.w3.org/2000/svg" id="prefix__Layer_1" x="0" y="0" height="48" width="48" view-box="0 0 48 48" enable-background="new 0 0 48 48" xml-space="preserve" role="img">
  <style>
    .prefix__st0 {
      fill: none;
      stroke: #0875bb;
      stroke-width: 2;
      stroke-linecap: round;
      stroke-linejoin: round;
      stroke-miterlimit: 10;
    }
    .prefix__st2 {
      fill: #0075be;
    }
  </style>
  <path class="prefix__st0" d="M20.8 38.3C3.5 32.9 6 11.7 6 11.7c8-1.2 14.9-7.4 14.9-7.4s6.9 6.2 14.8 7.5c.1 0 2.4 21.3-14.9 26.5z"/>
  <circle cx="32.6" cy="34.2" style="       fill: #fff;       stroke: #0075be;       stroke-width: 2;       stroke-linecap: round;       stroke-linejoin: round;       stroke-miterlimit: 10;     " r="9.5"/>
  <path class="prefix__st0" d="M35.2 31.8c0-1.1-1.1-1.9-2.5-1.9s-2.5.8-2.5 1.9c0 1 1 1.7 2.5 1.9h.1c1.5.2 2.5.9 2.5 1.9 0 1.1-1.1 1.9-2.5 1.9s-2.5-.8-2.5-1.9M32.6 38.1v1.2M32.6 28.3v1.2"/>
  <path class="prefix__st2" d="M17.1 20.8c-1.6 0-2.9-1.3-2.9-2.9 0-1.6 1.3-2.9 2.9-2.9s2.9 1.3 2.9 2.9c0 1.6-1.3 2.9-2.9 2.9zm0-3.8c-.5 0-.9.4-.9.9s.4.9.9.9.9-.4.9-.9-.4-.9-.9-.9zM24.7 27.7c-1.6 0-2.9-1.3-2.9-2.9s1.3-2.9 2.9-2.9c1.6 0 2.9 1.3 2.9 2.9s-1.3 2.9-2.9 2.9zm0-3.8c-.5 0-.9.4-.9.9s.4.9.9.9.9-.4.9-.9-.4-.9-.9-.9zM15.9 27.4c-.3 0-.5-.1-.7-.3-.4-.4-.4-1 0-1.4l9.9-9.9c.4-.4 1-.4 1.4 0 .4.4.4 1 0 1.4l-9.9 9.9c-.2.2-.5.3-.7.3z"/>
</svg>