<svg xmlns="http://www.w3.org/2000/svg" view-box="0 0 24 24" enable-background="new 0 0 48 48" xml-space="preserve" role="img" height="24" width="24">
  <path d="M9 22h-.2c-.3-.1-.6-.3-.7-.6l-1.8-3.7-3.7-1.8c-.3-.1-.5-.4-.6-.7-.1-.3 0-.6.3-.9l1.5-1.5c.2-.2.4-.3.7-.3h3.4l1.8-1.8-6.4-2.3c-.5-.2-.9-.6-1-1.2-.1-.5 0-1.1.4-1.5l.8-.7c.3-.3.8-.5 1.3-.5l10.3.9 2.6-2.6c.5-.5 1.1-.8 1.8-.8s1.3.3 1.8.7.7 1.1.7 1.8-.3 1.3-.7 1.8l-2.6 2.6.9 10.3c0 .5-.1.9-.5 1.3l-.8.8c-.4.4-.9.6-1.5.4-.5-.1-1-.5-1.2-1l-2.4-6.4-1.8 1.8v3.4c0 .3-.1.5-.3.7l-1.5 1.5c-.1.2-.3.3-.6.3zm8.5-2zm-3.9-8.5h.2c.3.1.6.3.7.6l2.7 7.3.3-.3-.9-10.5c0-.3.1-.6.3-.8l3-3c.1-.1.1-.2.1-.3 0-.1-.1-.3-.2-.4-.1 0-.1-.1-.3-.1-.1 0-.2 0-.3.1l-3 3c-.2.2-.5.3-.8.3L4.8 6.5l-.3.3 7.3 2.7c.3.1.6.4.6.7.1.3 0 .7-.3.9L9 14.3c-.2.2-.5.3-.7.3H4.9l-.2.2L7.5 16c.2.1.4.3.5.5l1.3 2.8.2-.2v-3.4c0-.3.1-.5.3-.7l3.2-3.2c.1-.2.3-.3.6-.3z" style="fill: #0875bb"/>
</svg>