<svg xmlns="http://www.w3.org/2000/svg" view-box="0 0 48 48" height="48" width="48" xml-space="preserve">
  <g fill="#0875BB">
    <path d="M41.28 23.29c-.55 0-1-.45-1-1v-5.25H35.5c-.55 0-1-.45-1-1s.45-1 1-1h5.78c.55 0 1 .45 1 1v6.25c0 .55-.45 1-1 1z"/>
    <path d="M6.72 32.96a1.001 1.001 0 0 1-.71-1.7L17.8 19.34c.38-.38.88-.59 1.42-.59.53 0 1.04.21 1.41.59l8 8 11.71-11.71a.996.996 0 1 1 1.41 1.41l-11.71 11.7c-.38.38-.88.59-1.41.59-.53 0-1.04-.21-1.41-.59l-7.99-7.99-11.8 11.91c-.19.2-.45.3-.71.3z"/>
  </g>
</svg>