<svg xmlns="http://www.w3.org/2000/svg" view-box="0 0 48 48" height="48" width="48" enable-background="new 0 0 48 48" xml-space="preserve">
  <path d="m41.3 23.1-6.2-5.9c-.2-.2-.4-.3-.7-.3h-4.6V13c0-1.2-1-2.2-2.2-2.2H8.1C7 10.9 6 11.8 6 13v18.4c0 1.2 1 2.1 2.1 2.1h1.5c.2 2 1.9 3.6 4 3.6s3.8-1.6 4-3.6H31c.2 2 1.9 3.6 4 3.6s3.8-1.6 4-3.6h.7c1.2 0 2.2-1 2.2-2.2v-6.6c.1-.6-.2-1.2-.6-1.6zM8 31.4V13c0-.1.1-.1.1-.1h19.5c.1 0 .2.1.2.2v18.5H17.4c-.6-1.4-2-2.4-3.7-2.4s-3.1 1-3.7 2.4H8.1c0-.1-.1-.2-.1-.2zm5.7 3.7c-1.1 0-2-.9-2-2s.9-2 2-2 2 .9 2 2-.9 2-2 2zm21.3 0c-1.1 0-2-.9-2-2s.9-2 2-2 2 .9 2 2c.1 1.1-.8 2-2 2zm5-3.8c0 .1-.1.2-.2.2h-1c-.6-1.4-2-2.4-3.7-2.4-1.7 0-3.1 1-3.7 2.4h-1.5V18.9H34l5.9 5.6s.1.1.1.2v6.6z" style="fill: #0075be"/>
</svg>