<svg xmlns="http://www.w3.org/2000/svg" width="48" height="48" view-box="0 0 48 48" fill="none">
  <path d="M24 6C14.0589 6 6 14.0589 6 24C6 33.9411 14.0589 42 24 42C33.9411 42 42 33.9411 42 24C42 14.0589 33.9411 6 24 6ZM24 40C15.1634 40 8 32.8366 8 24C8 15.1634 15.1634 8 24 8C32.8366 8 40 15.1634 40 24C40 28.2435 38.3143 32.3131 35.3137 35.3137C32.3131 38.3143 28.2435 40 24 40ZM29.64 22.87L21.64 18.29C21.2363 18.064 20.7434 18.0676 20.3431 18.2995C19.9428 18.5315 19.6946 18.9574 19.69 19.42V28.58C19.6921 29.0424 19.9396 29.4688 20.34 29.7C20.5367 29.817 20.7611 29.8792 20.99 29.88C21.2174 29.8782 21.4408 29.8197 21.64 29.71L29.64 25.13C30.041 24.8948 30.2873 24.4648 30.2873 24C30.2873 23.5352 30.041 23.1052 29.64 22.87ZM21.71 27.37V20.63L27.58 24L21.71 27.37Z" fill="#CCE4F3"/>
</svg>