<svg xmlns="http://www.w3.org/2000/svg" width="48" height="48" view-box="0 0 48 48" fill="none">
  <path d="M42.0311 26.25C42.086 26.0708 42.086 25.8792 42.0311 25.7L37.6811 11.7C37.5454 11.2667 37.1347 10.9792 36.6811 11H27.8311C27.3768 9.60005 26.2498 8.52186 24.8311 8.13V7C24.8311 6.44772 24.3834 6 23.8311 6C23.2788 6 22.8311 6.44772 22.8311 7V8.13C21.4143 8.52508 20.2885 9.60203 19.8311 11H11.3911C10.9375 10.9792 10.5269 11.2667 10.3911 11.7L6.04113 25.7C5.98629 25.8792 5.98629 26.0708 6.04113 26.25C6.03067 26.333 6.03067 26.417 6.04113 26.5C6.09597 30.1295 9.07141 33.0334 12.7011 33C16.3331 33.0389 19.3117 30.1318 19.3611 26.5C19.3716 26.417 19.3716 26.333 19.3611 26.25C19.4125 26.0703 19.4125 25.8797 19.3611 25.7L15.3611 13H19.5411C19.713 14.8408 21.0077 16.3825 22.7911 16.87V40H19.0311C18.4788 40 18.0311 40.4477 18.0311 41C18.0311 41.5523 18.4788 42 19.0311 42H28.4811C29.0334 42 29.4811 41.5523 29.4811 41C29.4811 40.4477 29.0334 40 28.4811 40H24.7911V16.87C26.5706 16.379 27.8606 14.8381 28.0311 13H32.6811L28.6811 25.7C28.6297 25.8797 28.6297 26.0703 28.6811 26.25C28.6707 26.333 28.6707 26.417 28.6811 26.5C28.6811 30.1865 31.6696 33.175 35.3561 33.175C39.0426 33.175 42.0311 30.1865 42.0311 26.5C42.0416 26.417 42.0416 26.333 42.0311 26.25ZM12.7011 31C10.37 31.03 8.38502 29.3114 8.08113 27H17.3111C17.0077 29.3076 15.0284 31.0249 12.7011 31ZM17.0311 25H8.39113L12.1211 13H13.2711L17.0311 25ZM23.8211 15C22.4976 14.9405 21.4703 13.8239 21.5211 12.5C21.4645 11.6403 21.891 10.8205 22.6275 10.3734C23.3641 9.92633 24.2882 9.92633 25.0247 10.3734C25.7613 10.8205 26.1878 11.6403 26.1311 12.5C26.1554 13.1426 25.9218 13.7683 25.4823 14.2379C25.0429 14.7074 24.434 14.9818 23.7911 15H23.8211ZM34.8211 13H35.9711L39.7011 25H31.0311L34.8211 13ZM35.3911 31C33.0638 31.0249 31.0846 29.3076 30.7811 27H40.0311C39.7252 29.3307 37.7112 31.0558 35.3611 31H35.3911Z" fill="#CCE4F3"/>
</svg>