<svg xmlns="http://www.w3.org/2000/svg" view-box="0 0 96 72">
  <style>
    .slate-line-3px {
      fill: none;
      stroke: #001928;
      stroke-linecap: round;
      stroke-linejoin: round;
      stroke-width: 3px;
    }
    .blue-line-3px {
      fill: none;
      stroke: #0075be;
      stroke-linecap: round;
      stroke-linejoin: round;
      stroke-width: 3px;
    }
    .ultramarine-line-3px {
      fill: none;
      stroke: #005587;
      stroke-linecap: round;
      stroke-linejoin: round;
      stroke-width: 3px;
    }
    .cerulean-line-3px {
      fill: none;
      stroke: #73c3eb;
      stroke-linecap: round;
      stroke-linejoin: round;
      stroke-width: 3px;
    }
  </style>
  <line x1="49.7" y1="56.39" x2="71.02" y2="56.39" class="slate-line-3px"/>
  <line x1="3.05" y1="56.39" x2="49.7" y2="56.39" class="blue-line-3px"/>
  <line x1="6.92" y1="41.93" x2="6.92" y2="52.01" class="blue-line-3px"/>
  <line x1="27.73" y1="23.8" x2="27.73" y2="52.53" class="ultramarine-line-3px"/>
  <line x1="46.15" y1="38.58" x2="46.15" y2="52.53" class="cerulean-line-3px"/>
  <line x1="67.15" y1="16.41" x2="67.15" y2="52.53" class="blue-line-3px"/>
  <line x1="10.79" y1="31.78" x2="25.55" y2="17.79" class="ultramarine-line-3px"/>
  <line x1="49.47" y1="26.54" x2="65.08" y2="11.86" class="blue-line-3px"/>
  <path d="M75.74,70.45A17.92,17.92,0,1,1,93.66,52.53,17.91,17.91,0,0,1,75.74,70.45Z" style="fill: #fff"/>
  <line x1="31.23" y1="17.12" x2="41.73" y2="27.07" class="cerulean-line-3px"/>
  <path d="M76.18,52.65l7.54-16.07s6.58,3,8.88,9.67c2.51,7.24.12,11.56.12,11.56Z" style="fill: #c1e7ff"/>
  <line x1="92.72" y1="57.81" x2="75.67" y2="52.51" style="fill: none; stroke: #73c3eb; strokelinecap: round; stroke-width: 3px"/>
  <line x1="75.67" y1="52.51" x2="61.93" y2="41.12" style="fill: none; stroke: #005587; strokelinecap: round; stroke-width: 3px"/>
  <line x1="75.67" y1="52.51" x2="83.72" y2="36.58" style="fill: none"/>
  <line x1="75.67" y1="52.51" x2="83.72" y2="36.58" class="blue-line-3px"/>
  <path d="M61.94,41.12a17.84,17.84,0,1,0,21.86-4.5" style="fill: none; stroke: #005587; strokelinecap: round; stroke-width: 3px"/>
  <path d="M32.6,14A4.13,4.13,0,1,1,28.47,9.9,4.13,4.13,0,0,1,32.6,14" style="fill: #b9e3f9"/>
  <path d="M11.05,33.87a4.13,4.13,0,1,1-4.13-4.13,4.13,4.13,0,0,1,4.13,4.13" style="fill: #b9e3f9"/>
  <path d="M51,29.1A4.13,4.13,0,1,1,46.84,25,4.13,4.13,0,0,1,51,29.1" style="fill: #b9e3f9"/>
  <path d="M71.28,7.36a4.13,4.13,0,1,1-4.13-4.14,4.13,4.13,0,0,1,4.13,4.14" style="fill: #b9e3f9"/>
  <path d="M64.58,4.28a4.59,4.59,0,0,1,2.57-.78,4.31,4.31,0,0,1,4.42,4.19,4.13,4.13,0,0,1-2,3.52" class="slate-line-3px"/>
  <path d="M69.54,11.21a4.59,4.59,0,0,1-2.39.67,4.31,4.31,0,0,1-4.42-4.19,4.12,4.12,0,0,1,1.85-3.41" class="cerulean-line-3px"/>
  <path d="M48.56,33.2a4.57,4.57,0,0,1-2.41.67,4.2,4.2,0,1,1,0-8.38" class="blue-line-3px"/>
  <path d="M46.15,25.49a4.31,4.31,0,0,1,4.42,4.19,4.14,4.14,0,0,1-2,3.52" class="slate-line-3px"/>
  <path d="M32.48,15.74a4.43,4.43,0,0,1-4,2.42A4.31,4.31,0,0,1,24.05,14a4,4,0,0,1,.84-2.45" class="cerulean-line-3px"/>
  <path d="M24.89,11.52a4.5,4.5,0,0,1,3.58-1.74A4.31,4.31,0,0,1,32.89,14a3.94,3.94,0,0,1-.41,1.77" class="ultramarine-line-3px"/>
  <path d="M3.53,31.19a4.51,4.51,0,0,1,3.39-1.51,4.31,4.31,0,0,1,4.42,4.19,4.07,4.07,0,0,1-1.33,3" class="slate-line-3px"/>
  <path d="M10,36.87a4.53,4.53,0,0,1-3.09,1.19A4.31,4.31,0,0,1,2.5,33.87a4,4,0,0,1,1-2.68" class="cerulean-line-3px"/>
  <path d="M61.93,41.14a17.92,17.92,0,0,1,21.84-4.63" class="blue-line-3px"/>
  <path d="M85.22,36.58a1.5,1.5,0,1,1-1.5-1.5,1.5,1.5,0,0,1,1.5,1.5" style="fill: #231f20"/>
  <rect width="96" height="72" style="fill: none"/>
</svg>