<svg xmlns="http://www.w3.org/2000/svg" width="48" height="48" view-box="0 0 48 48" fill="none">
    <path d="M20.65 24.3421C21.2023 24.3421 21.65 24.7898 21.65 25.3421C21.65 25.8944 21.2023 26.3421 20.65 26.3421H17.34C16.7877 26.3421 16.34 25.8944 16.34 25.3421C16.34 24.7898 16.7877 24.3421 17.34 24.3421H20.65ZM27.31 24.3421C27.8623 24.3421 28.31 24.7898 28.31 25.3421C28.31 25.8944 27.8623 26.3421 27.31 26.3421H24C23.4477 26.3421 23 25.8944 23 25.3421C23 24.7898 23.4477 24.3421 24 24.3421H27.31ZM35.89 21.2421C34.2012 21.2641 32.8473 22.6462 32.8601 24.3351C32.8729 26.024 34.2475 27.3854 35.9365 27.3818C37.6255 27.3783 38.9944 26.0111 39 24.3221C39 23.5 38.6714 22.712 38.0873 22.1335C37.5032 21.555 36.7121 21.2341 35.89 21.2421ZM8.52076 18.0008L8.69 18.0021H10.18C10.7323 18.0021 11.18 18.4498 11.18 19.0021C11.18 19.5544 10.7323 20.0021 10.18 20.0021H8.69C8.29 20.0021 8 20.2521 8 20.4621V35.0221C8 35.2321 8.29 35.4821 8.69 35.4821H32.31C32.71 35.4821 33 35.2321 33 35.0221V33.5921C33 33.0398 33.4477 32.5921 34 32.5921C34.5523 32.5921 35 33.0398 35 33.5921V35.0221C34.9298 36.4411 33.7296 37.5387 32.31 37.4821H8.69C7.27039 37.5387 6.07018 36.4411 6 35.0221V20.4621C6.07018 19.0431 7.27039 17.9455 8.69 18.0021L8.52076 18.0008ZM35.9496 23.243C36.5364 23.2537 37.0051 23.7352 37 24.3221C37.0002 24.6129 36.882 24.8913 36.6726 25.0932C36.4632 25.2951 36.1806 25.403 35.89 25.3921V25.3821C35.3035 25.3601 34.8441 24.8698 34.8605 24.2831C34.8768 23.6964 35.3627 23.2323 35.9496 23.243ZM39.31 11.0021H15.69C14.2704 10.9455 13.0702 12.0431 13 13.4621V28.0221C13.0702 29.4411 14.2704 30.5387 15.69 30.4821H39.31C40.7296 30.5387 41.9298 29.4411 42 28.0221V13.4621C41.9298 12.0431 40.7296 10.9455 39.31 11.0021ZM15 16.1821H40V18.1821H15V16.1821ZM15.69 13.0021H39.31C39.71 13.0021 40 13.2521 40 13.4621V14.1821H15V13.4621C15 13.2421 15.29 13.0021 15.69 13.0021ZM39.31 28.4821H15.69C15.29 28.4821 15 28.2321 15 28.0221V20.1521H40V28.0221C40 28.2421 39.71 28.4821 39.31 28.4821Z" fill="#CCE4F3"/>
  </svg>