<svg xmlns="http://www.w3.org/2000/svg" width="48" height="48" view-box="0 0 48 48" fill="none">
  <path d="M14.04 25.0261C14.43 24.6384 15.06 24.6384 15.45 25.0261C15.6393 25.2138 15.7458 25.4694 15.7458 25.7361C15.7458 26.0027 15.6393 26.2583 15.45 26.4461L9.45 32.3361H41V32.3461C41.5523 32.3461 42 32.7938 42 33.3461C42 33.8984 41.5523 34.3461 41 34.3461H9.42L15.42 40.2461C15.8077 40.6361 15.8077 41.266 15.42 41.6561C15.2322 41.8454 14.9766 41.9519 14.71 41.9519C14.4434 41.9519 14.1878 41.8454 14 41.6561L6.3 34.0461C6.10914 33.859 6.00111 33.6033 6 33.3361L6.00981 33.215C6.04395 32.9755 6.16408 32.755 6.35 32.5961L14.04 25.0261ZM32.6426 6.29793C33.0094 5.92586 33.6009 5.89891 34 6.23608L41.65 13.8061C41.8695 13.9938 41.9971 14.2673 42 14.5561L41.98 14.5661C41.9789 14.8333 41.8709 15.089 41.68 15.2761L33.99 22.8661C33.8037 23.0508 33.5523 23.155 33.29 23.1561C32.8837 23.1584 32.5164 22.9148 32.3606 22.5396C32.2048 22.1643 32.2915 21.7322 32.58 21.4461L38.58 15.5561H7C6.44772 15.5561 6 15.1084 6 14.5561C6 14.0038 6.44772 13.5561 7 13.5561H38.55L32.6 7.65608C32.2572 7.26175 32.2758 6.67 32.6426 6.29793Z" fill="#0075BE"/>
</svg>