<svg xmlns="http://www.w3.org/2000/svg" id="prefix__Layer_1" x="0" y="0" view-box="0 0 96 72" enable-background="new 0 0 48 48" xml-space="preserve">
  <style>
    .prefix__st0 {
      fill-rule: evenodd;
      clip-rule: evenodd;
      fill: #fff;
    }
    .prefix__st1,
    .prefix__st2,
    .prefix__st3,
    .prefix__st4,
    .prefix__st5 {
      fill: none;
      stroke: #73c3eb;
      stroke-width: 3;
      stroke-linecap: round;
      stroke-linejoin: round;
    }
    .prefix__st2,
    .prefix__st3,
    .prefix__st4,
    .prefix__st5 {
      stroke: #005686;
    }
    .prefix__st3,
    .prefix__st4,
    .prefix__st5 {
      stroke: #0079c1;
    }
    .prefix__st4,
    .prefix__st5 {
      stroke: #001928;
    }
    .prefix__st5 {
      stroke: #005788;
    }
  </style>
  <path class="prefix__st0" d="M39.4 62.4h28.8V2.5H39.4v59.9z"/>
  <path class="prefix__st1" d="M39.4 62.4h28.8V2.5H39.4v59.9z"/>
  <path class="prefix__st2" d="M39.4 55.7h28.8"/>
  <path class="prefix__st1" d="M39.4 48.4h28.8"/>
  <path class="prefix__st3" d="M39.4 41h28.8"/>
  <path class="prefix__st2" d="M39.4 33.3h28.8"/>
  <path class="prefix__st1" d="M39.4 25.6h28.8"/>
  <path class="prefix__st2" d="M39.4 17.9h28.8"/>
  <path class="prefix__st3" d="M39.4 10.2h28.8"/>
  <path class="prefix__st4" d="M68.3 48.4v14H51.5"/>
  <path class="prefix__st5" d="M53.8 2.5h14.4v45.9"/>
  <path class="prefix__st3" d="M59.9 62.4H39.4V2.5h14.4"/>
  <path class="prefix__st0" d="M84.9 56.8c0 7.6-6.1 13.7-13.7 13.7s-13.7-6.1-13.7-13.7 6.1-13.7 13.7-13.7 13.7 6.2 13.7 13.7z"/>
  <path d="M72.9 43.2c-.8 0-1.6.1-2.4.3 5.6 1.3 9.8 6.8 9.8 13.4S76.1 69 70.5 70.3c.8.2 1.6.3 2.4.3 6.8 0 12.3-6.1 12.3-13.6 0-7.7-5.5-13.8-12.3-13.8z" style="fill-rule: evenodd; clip-rule: evenodd; fill: #b9e3f9"/>
  <path class="prefix__st4" d="M71.5 42.5c7.8 0 14.1 6.3 14.1 14.1 0 5.5-3.1 10.2-7.7 12.5"/>
  <path class="prefix__st1" d="M58.4 61.7c-.6-1.6-1-3.4-1-5.2 0-7.8 6.3-14.1 14.1-14.1"/>
  <path class="prefix__st2" d="M77.8 69c-1.9 1-4.1 1.5-6.4 1.5-5.9 0-11-3.6-13-8.8"/>
  <path class="prefix__st3" d="M71.9 50.1v-1.5"/>
  <path class="prefix__st1" d="M71.9 65.2v-2.3M67.3 59.7c1 1.6 2.4 2.4 4.4 2.4 3.3 0 4-1.5 4-2.8 0-.6-.3-1.3-.7-1.7"/>
  <path class="prefix__st3" d="M74.9 57.6c-.8-.8-2.2-1.1-3.4-1.1-1.9 0-4.2.1-4.2-2.5s2.7-3.2 4.2-3.2 3.4.7 4.2 2.1"/>
  <path d="M75.1 59c-.8.1-1.5-.4-1.6-1.2-.1-.8.4-1.5 1.2-1.6.8-.1 1.5.4 1.6 1.2.1.8-.4 1.5-1.2 1.6z" style="fill-rule: evenodd; clip-rule: evenodd; fill: #001928"/>
  <defs>
    <filter id="prefix__Adobe_OpacityMaskFilter" filterUnits="userSpaceOnUse" x="{9}" y="{23.7}" width="{31.8}" height="{40.2}">
      <feColorMatrix values="1 0 0 0 0 0 1 0 0 0 0 0 1 0 0 0 0 0 1 0"/>
    </filter>
  </defs>
  <mask maskUnits="userSpaceOnUse" x="{9}" y="{23.7}" width="{31.8}" height="{40.2}" id="prefix__mask0_5455_35067_00000086651251908931163640000006003471981055589049_">
    <path d="M9 72.1h78V1H9v71.1z" style="fill: #fff; filter: url(#prefix__Adobe_OpacityMaskFilter)"/>
  </mask>
  <g style="       mask: url(#prefix__mask0_5455_35067_00000086651251908931163640000006003471981055589049_);     ">
    <path class="prefix__st0" d="M10.5 62.4h28.8V25.2H10.5v37.2z"/>
    <path class="prefix__st1" d="M10.5 62.4h28.8V25.2H10.5v37.2z"/>
    <path class="prefix__st2" d="M10.5 31.9h28.8"/>
    <path class="prefix__st1" d="M10.5 39.2h28.8"/>
    <path class="prefix__st3" d="M10.5 46.6h28.8"/>
    <path class="prefix__st2" d="M10.5 54.3h28.8"/>
    <path class="prefix__st1" d="M10.5 62h28.8"/>
    <path class="prefix__st4" d="M39.3 39.2v-14H22.6"/>
    <path class="prefix__st5" d="M24.9 62.4h14.4V39.2"/>
    <path class="prefix__st3" d="M31 25.2H10.5v37.2h14.4"/>
  </g>
</svg>