<svg xmlns="http://www.w3.org/2000/svg" version="1.1" id="Layer_1" xmlnsXlink="http://www.w3.org/1999/xlink" x="0px" y="0px" height="48" width="48" view-box="0 0 48 48" enable-background="new 0 0 48 48" xml-space="preserve">
  <polygon fill="#FFFFFF" stroke="#0976B9" stroke-width="2" stroke-linecap="round" stroke-linejoin="round" stroke-miterlimit="10" points=" 23.65,13 23.65,6.12 7.31,6.12 7.31,35.37 31.39,35.37 31.39,13"/>
  <line fill="#FFFFFF" stroke="#0976B9" stroke-width="2" stroke-linecap="round" stroke-linejoin="round" stroke-miterlimit="10" x1="23.65" y1="6.12" x2="31.39" y2="13"/>
  <line fill="#FFFFFF" stroke="#0976B9" stroke-width="2" stroke-linecap="round" stroke-linejoin="round" stroke-miterlimit="10" x1="12.52" y1="24.64" x2="26.18" y2="24.64"/>
  <line fill="#FFFFFF" stroke="#0976B9" stroke-width="2" stroke-linecap="round" stroke-linejoin="round" stroke-miterlimit="10" x1="12.52" y1="29.31" x2="26.18" y2="29.31"/>
  <circle fill="#FFFFFF" stroke="#0075BE" stroke-width="2" stroke-linecap="round" stroke-linejoin="round" stroke-miterlimit="10" cx="34.35" cy="33.35" r="7"/>
  <circle fill="#0075BE" cx="34.35" cy="36.46" r="1"/>
  <line fill="none" stroke="#0075BE" stroke-width="2" stroke-linecap="round" stroke-miterlimit="10" x1="34.35" y1="33.77" x2="34.35" y2="30.27"/>
  <path fill="#0875BB" d="M15.39,19.32c-0.83,0-1.46-0.44-1.46-0.84c0-0.55-0.45-1-1-1s-1,0.45-1,1c0,1.3,1.02,2.36,2.46,2.71v0.77 c0,0.55,0.45,1,1,1s1-0.45,1-1v-0.77c1.43-0.35,2.46-1.41,2.46-2.71c0-1.48-1.25-2.56-3.26-2.83l-0.13-0.02 c-0.9-0.12-1.53-0.47-1.53-0.84c0-0.4,0.62-0.84,1.46-0.84c0.83,0,1.46,0.44,1.46,0.84c0,0.55,0.45,1,1,1s1-0.45,1-1 c0-1.3-1.02-2.36-2.46-2.71v-0.7c0-0.55-0.45-1-1-1s-1,0.45-1,1v0.7c-1.43,0.35-2.46,1.41-2.46,2.71c0,1.48,1.25,2.56,3.26,2.83 l0.13,0.02c0.9,0.12,1.53,0.47,1.53,0.85C16.85,18.88,16.22,19.32,15.39,19.32z"/>
  <circle fill="#FFFFFF" stroke="#0075BE" stroke-width="2" stroke-linecap="round" stroke-linejoin="round" stroke-miterlimit="10" cx="34.43" cy="33.33" r="7"/>
  <path fill="none" stroke="#0075BE" stroke-width="2" stroke-linecap="round" stroke-linejoin="round" stroke-miterlimit="10" d="M37.55,30.21"/>
  <circle fill="#0075BE" cx="32.13" cy="31.24" r="1.14"/>
  <ellipse transform="matrix(1 -1.063438e-03 1.063438e-03 1 -0.0376 0.0391)" fill="#0075BE" cx="36.73" cy="35.41" rx="1.14" ry="1.14"/>
  <line fill="none" stroke="#0075BE" stroke-width="2" stroke-linecap="round" stroke-linejoin="round" stroke-miterlimit="10" x1="31.39" y1="36.37" x2="37.41" y2="30.36"/>
</svg>