<svg xmlns="http://www.w3.org/2000/svg" width="48" height="48" view-box="0 0 48 48" fill="none">
  <path d="M33.7063 32.6443H33.5963C32.8563 32.5443 32.4062 32.2643 32.4062 32.0543C32.4062 31.8443 32.8463 31.4643 33.5163 31.4643C33.8599 31.45 34.1972 31.5601 34.4663 31.7743C34.8805 32.1416 35.514 32.1035 35.8813 31.6893C36.2485 31.2751 36.2105 30.6416 35.7963 30.2743C35.4589 29.9895 35.0679 29.7753 34.6463 29.6443V29.4043C34.6463 28.852 34.1985 28.4043 33.6463 28.4043C33.094 28.4043 32.6463 28.852 32.6463 29.4043V29.5443C31.4106 29.7437 30.4793 30.7748 30.4062 32.0243C30.4062 33.3743 31.5263 34.3643 33.3263 34.5943H33.4363C34.1863 34.6943 34.6263 34.9743 34.6263 35.1943C34.6263 35.4143 34.1863 35.7843 33.5163 35.7843C33.1548 35.8053 32.7984 35.6913 32.5163 35.4643C32.2609 35.1915 31.8748 35.0837 31.5151 35.185C31.1555 35.2862 30.8822 35.5795 30.8067 35.9455C30.7312 36.3114 30.866 36.689 31.1562 36.9243C31.5672 37.2926 32.0669 37.5476 32.6063 37.6643V37.8543C32.6063 38.4066 33.054 38.8543 33.6063 38.8543C34.1585 38.8543 34.6063 38.4066 34.6063 37.8543V37.6043C35.7344 37.3346 36.5492 36.3528 36.6063 35.1943C36.6263 33.8743 35.5063 32.8843 33.7063 32.6443Z" fill="#0075BE"/>
  <path d="M33.7063 32.6463H33.5963C32.8563 32.5463 32.4062 32.2663 32.4062 32.0563C32.4062 31.8463 32.8463 31.4663 33.5163 31.4663C33.8599 31.452 34.1972 31.562 34.4663 31.7763C34.8805 32.1435 35.514 32.1055 35.8813 31.6913C36.2485 31.277 36.2105 30.6435 35.7963 30.2763C35.4589 29.9914 35.0679 29.7772 34.6463 29.6463V29.4062C34.6463 28.854 34.1985 28.4062 33.6463 28.4062C33.094 28.4062 32.6463 28.854 32.6463 29.4062V29.5463C31.4106 29.7457 30.4793 30.7767 30.4062 32.0263C30.4062 33.3763 31.5263 34.3663 33.3263 34.5963H33.4363C34.1863 34.6963 34.6263 34.9763 34.6263 35.1963C34.6263 35.4163 34.1863 35.7863 33.5163 35.7863C33.1548 35.8073 32.7984 35.6932 32.5163 35.4663C32.2609 35.1934 31.8748 35.0857 31.5151 35.1869C31.1555 35.2882 30.8822 35.5815 30.8067 35.9474C30.7312 36.3134 30.866 36.6909 31.1562 36.9263C31.5672 37.2945 32.0669 37.5496 32.6063 37.6663V37.8563C32.6063 38.4085 33.054 38.8562 33.6063 38.8562C34.1585 38.8562 34.6063 38.4085 34.6063 37.8563V37.6063C35.7344 37.3366 36.5492 36.3547 36.6063 35.1963C36.6263 33.8763 35.5063 32.8863 33.7063 32.6463Z" fill="#0075BE"/>
  <path fill-rule="evenodd" clip-rule="evenodd" d="M33.4062 40.4043C37.2722 40.4043 40.4062 37.2703 40.4062 33.4043C40.4062 29.5383 37.2722 26.4043 33.4062 26.4043C29.5403 26.4043 26.4062 29.5383 26.4062 33.4043C26.4062 37.2703 29.5403 40.4043 33.4062 40.4043ZM33.4062 42.4043C38.3768 42.4043 42.4062 38.3749 42.4062 33.4043C42.4062 28.4337 38.3768 24.4043 33.4062 24.4043C28.4357 24.4043 24.4062 28.4337 24.4062 33.4043C24.4062 38.3749 28.4357 42.4043 33.4062 42.4043Z" fill="#0079C1"/>
  <path fill-rule="evenodd" clip-rule="evenodd" d="M33.4062 40.4062C37.2722 40.4062 40.4062 37.2722 40.4062 33.4062C40.4062 29.5403 37.2722 26.4062 33.4062 26.4062C29.5403 26.4062 26.4062 29.5403 26.4062 33.4062C26.4062 37.2722 29.5403 40.4062 33.4062 40.4062ZM33.4062 42.4062C38.3768 42.4062 42.4062 38.3768 42.4062 33.4062C42.4062 28.4357 38.3768 24.4062 33.4062 24.4062C28.4357 24.4062 24.4062 28.4357 24.4062 33.4062C24.4062 38.3768 28.4357 42.4062 33.4062 42.4062Z" fill="#0079C1"/>
  <path d="M24.8739 41.3416C15.5202 42.1528 7.27991 35.2277 6.46874 25.8739C5.65758 16.5202 12.5827 8.27992 21.9364 7.46876C31.2902 6.65759 39.5304 13.5827 40.3416 22.9364C40.3853 23.44 40.4065 23.9404 40.4062 24.4365" stroke="#0079C1" stroke-width="2" stroke-linecap="round"/>
  <path d="M35.2849 22.5709C34.2732 16.0211 28.1435 11.5316 21.5937 12.5432C15.044 13.5549 10.5545 19.6846 11.5661 26.2344C12.4469 31.9369 17.2073 36.0777 22.7467 36.3859" stroke="#0079C1" stroke-width="2" stroke-linecap="round"/>
  <path d="M30.2446 22.9053C29.4935 19.4611 26.2526 17.0633 22.6667 17.4445C19.3343 17.7988 16.7978 20.4365 16.4475 23.6367C16.3936 24.1284 16.3914 24.6333 16.4459 25.1453C16.8007 28.4828 19.4461 31.022 22.6529 31.3661" stroke="#0079C1" stroke-width="2" stroke-linecap="round"/>
</svg>