<svg xmlns="http://www.w3.org/2000/svg" view-box="0 0 48 48" height="48" width="48" xml-space="preserve">
  <path fill="#0875BB" d="M38.2 6.64h-6.14V5.7a.939.939 0 1 0-1.88 0v.94H15.06V5.7a.939.939 0 1 0-1.88 0v.94H6.09c-.52 0-.94.42-.94.94V37.8c0 .52.42.94.94.94h31.17c1.04 0 1.89-.85 1.89-1.89V7.59c0-.52-.43-.95-.95-.95zM7.03 8.53h6.14v3.78a.939.939 0 1 0 1.88 0V8.53h15.11v3.78a.939.939 0 1 0 1.88 0V8.53h5.19v5.67H7.03V8.53zm0 28.34V16.09h30.22v20.78H7.03z"/>
  <circle fill="#FFF" cx="33.95" cy="34.38" r="7.9"/>
  <path fill="#0475B9" d="M34 43.25c-4.88 0-8.86-3.97-8.86-8.86s3.97-8.86 8.86-8.86 8.86 3.97 8.86 8.86-3.98 8.86-8.86 8.86zm0-15.72c-3.78 0-6.86 3.08-6.86 6.86s3.08 6.86 6.86 6.86 6.86-3.08 6.86-6.86-3.08-6.86-6.86-6.86z"/>
  <path fill="#0475B9" d="M34 38.57c-.89 0-1.74-.31-2.33-.86a.997.997 0 1 1 1.36-1.46c.22.2.58.32.96.32.67 0 1.11-.36 1.11-.59 0-.22-.45-.5-1.19-.6l-.11-.02c-1.79-.24-2.92-1.23-2.92-2.58 0-1.45 1.37-2.59 3.11-2.59.86 0 1.69.3 2.27.82a.998.998 0 1 1-1.33 1.49c-.22-.19-.57-.31-.95-.31-.67 0-1.11.36-1.11.59 0 .21.45.5 1.19.6l.11.02c1.79.24 2.92 1.23 2.92 2.58.02 1.45-1.35 2.59-3.09 2.59z"/>
  <path fill="#0475B9" d="M34.13 39.64c-.55 0-1-.45-1-1V38c0-.55.45-1 1-1s1 .45 1 1v.64c0 .55-.45 1-1 1zM34.13 31.67c-.55 0-1-.45-1-1v-.54c0-.55.45-1 1-1s1 .45 1 1v.54c0 .56-.45 1-1 1z"/>
</svg>