<svg xmlns="http://www.w3.org/2000/svg" id="prefix__Layer_1" x="0" y="0" height="48" width="48" view-box="0 0 48 48" enable-background="new 0 0 48 48" xml-space="preserve" role="img">
  <style>
    .prefix__st0 {
      fill: #0075be;
    }
  </style>
  <path class="prefix__st0" d="M36 28.7V13.3c0-.6-.4-1-1-1H7c-.6 0-1 .4-1 1v15.5c0 .6.4 1 1 1h28c.6-.1 1-.5 1-1.1zm-2-1H8V14.3h26v13.4z"/>
  <path class="prefix__st0" d="M20.5 23.7c-.8 0-1.5-.4-1.5-.8 0-.6-.4-1-1-1s-1 .4-1 1c0 1.3 1 2.4 2.5 2.7v.8c0 .6.4 1 1 1s1-.4 1-1v-.8c1.4-.3 2.5-1.4 2.5-2.7 0-1.5-1.3-2.6-3.3-2.8h-.1c-.9-.1-1.5-.5-1.5-.8 0-.4.6-.8 1.5-.8.8 0 1.5.4 1.5.8 0 .6.4 1 1 1s1-.4 1-1c0-1.3-1-2.4-2.5-2.7v-.7c0-.6-.4-1-1-1s-1 .4-1 1v.7c-1.4.3-2.5 1.4-2.5 2.7 0 1.5 1.3 2.6 3.3 2.8h.1c.9.1 1.5.5 1.5.8 0 .3-.7.8-1.5.8zM41 18.3h-2.1c-.6 0-1 .4-1 1s.4 1 1 1H40v13.5H14v-1c0-.6-.4-1-1-1s-1 .4-1 1v2c0 .6.4 1 1 1h28c.6 0 1-.4 1-1V19.3c0-.6-.4-1-1-1z"/>
</svg>