<svg xmlns="http://www.w3.org/2000/svg" view-box="0 0 48 48" height="48" width="48">
  <path d="M40.74 29.56A3.64 3.64 0 0 0 36 27.69l-4.72 1.74a3.5 3.5 0 0 0-2.09-2.08L22.68 25a8.56 8.56 0 0 0-1.59-.42l-1.46-.14a9.37 9.37 0 0 0-3.75.78l-2.73 1.2a2.93 2.93 0 0 0-.67-.37 2.7 2.7 0 0 0-2.07 0L6.06 28a1.68 1.68 0 0 0-1 1.55v11.63a1.7 1.7 0 0 0 .8 1.44 1.67 1.67 0 0 0 1.65.06l8.41-4.25A2.67 2.67 0 0 0 17.31 37a2.74 2.74 0 0 0 .17-.74 4.11 4.11 0 0 1 2.92.29l3.25 1.61a7.48 7.48 0 0 0 6.37.15l8.87-3.92a3.63 3.63 0 0 0 1.85-4.78ZM15 36.63l-8 4v-11l4.16-1.83a.72.72 0 0 1 .54 0s0 .07 0 .11l3.54 8.42a.76.76 0 0 1-.24.3Zm23.9-5a1.62 1.62 0 0 1-.86.9l-8.87 3.92a5.49 5.49 0 0 1-4.67-.11l-3.25-1.61a6.07 6.07 0 0 0-4.64-.33L14 28.17 16.69 27a7 7 0 0 1 2.83-.61l1.29.12a6.86 6.86 0 0 1 1.18.32l6.52 2.39a1.54 1.54 0 0 1 1 1.32.9.9 0 0 0 0 .4.83.83 0 0 1-.06.21 1.54 1.54 0 0 1-1.93 1l-5.05-1.7a1 1 0 1 0-.64 1.89L26.86 34a3.55 3.55 0 0 0 4.47-2.2c0-.1.06-.19.08-.29l5.36-2a1.62 1.62 0 0 1 2.17 2.07Z" style="fill: #0075be"/>
  <path d="m30.06 22-4.37.73.3-1.48a.43.43 0 0 0-.14-.4l-5-4.21 1.24-.93a.4.4 0 0 0 .13-.49l-.9-2.1 2.06.59a.42.42 0 0 0 .5-.24l.61-1.47 3.28 3.28a.41.41 0 0 0 .49.07.42.42 0 0 0 .21-.45L27 8.26l2.15.92a.38.38 0 0 0 .33 0 .4.4 0 0 0 .22-.24L31 5.46l1.26 3.48a.39.39 0 0 0 .23.24.38.38 0 0 0 .33 0l2.15-.92-1.48 6.66a.41.41 0 0 0 .2.45.42.42 0 0 0 .5-.07l3.23-3.3.6 1.49a.42.42 0 0 0 .5.24l2-.59-.89 2.1a.4.4 0 0 0 .13.49l1.24.93-5 4.21a.41.41 0 0 0-.14.4l.29 1.48-4.3-.75Z" style="fill: none; stroke: #0075be; strokelinejoin: round; stroke-width: 2px"/>
  <path style="       strokelinecap: round;       fill: none;       stroke: #0075be;       strokelinejoin: round;       stroke-width: 2px;     " d="M30.96 22.04v2.12"/>
</svg>