<svg xmlns="http://www.w3.org/2000/svg" width="48" height="48" view-box="0 0 48 48" fill="none">
  <path d="M19.5201 31.2671C19.8676 31.3511 20.144 31.6141 20.2451 31.9571C20.3461 32.3001 20.2565 32.671 20.01 32.93L17.16 36C16.9889 36.18 16.7581 36.2888 16.5133 36.308L16.39 36.31C16.1143 36.3117 15.8502 36.1995 15.66 36L14.47 34.73C14.194 34.477 14.0824 34.091 14.1809 33.7298C14.2794 33.3685 14.5715 33.0926 14.9377 33.0147C15.304 32.9368 15.683 33.0701 15.92 33.36L16.39 33.85L18.56 31.55C18.8065 31.291 19.1725 31.1832 19.5201 31.2671ZM33.77 31.24C34.3223 31.24 34.77 31.6877 34.77 32.24C34.77 32.7923 34.3223 33.24 33.77 33.24H24.16C23.6077 33.24 23.16 32.7923 23.16 32.24C23.16 31.6877 23.6077 31.24 24.16 31.24H33.77ZM19.9225 25.1203C20.3037 25.4805 20.3419 26.0739 20.01 26.48L17.16 29.55C16.9904 29.7332 16.7596 29.8452 16.5139 29.8668L16.39 29.87C16.1128 29.8691 15.8485 29.7532 15.66 29.55L14.47 28.29C14.1381 27.8839 14.1763 27.2905 14.5575 26.9303C14.9387 26.5701 15.5334 26.5656 15.92 26.92L16.39 27.41L18.56 25.11C18.9466 24.7556 19.5413 24.7601 19.9225 25.1203ZM33.77 25.26C34.3223 25.26 34.77 25.7077 34.77 26.26C34.77 26.8123 34.3223 27.26 33.77 27.26H24.16C23.6077 27.26 23.16 26.8123 23.16 26.26C23.16 25.7077 23.6077 25.26 24.16 25.26H33.77ZM19.5201 17.6271C19.8676 17.7111 20.144 17.9741 20.2451 18.3171C20.3461 18.6601 20.2565 19.031 20.01 19.29L17.16 22.36C16.9889 22.54 16.7581 22.6488 16.5133 22.668L16.39 22.67C16.1143 22.6717 15.8502 22.5595 15.66 22.36L14.47 21.09C14.194 20.837 14.0824 20.451 14.1809 20.0898C14.2794 19.7285 14.5715 19.4526 14.9377 19.3747C15.304 19.2968 15.683 19.4301 15.92 19.72L16.39 20.21L18.56 17.91C18.8065 17.651 19.1725 17.5432 19.5201 17.6271ZM33.77 18.58C34.3223 18.58 34.77 19.0277 34.77 19.58C34.77 20.1323 34.3223 20.58 33.77 20.58H24.16C23.6077 20.58 23.16 20.1323 23.16 19.58C23.16 19.0277 23.6077 18.58 24.16 18.58H33.77ZM29.22 5C29.5019 5 29.7566 5.11666 29.9384 5.30433L38.9752 13.7146C39.1864 13.8979 39.32 14.1684 39.32 14.47V42C39.32 42.5523 38.8723 43 38.32 43H10C9.44772 43 9 42.5523 9 42V6C9 5.44772 9.44772 5 10 5H29.22ZM35.781 13.469L30.22 8.293V13.47L35.781 13.469ZM11 41H37.32V15.47H29.22C28.6677 15.47 28.22 15.0223 28.22 14.47V7H11V41Z" fill="#CCE4F3"/>
</svg>