<svg xmlns="http://www.w3.org/2000/svg" width="48" height="48" view-box="0 0 48 48" fill="none">
  <path fill-rule="evenodd" clip-rule="evenodd" d="M31.878 27.099C31.877 27.1 31.875 27.102 31.874 27.103L24.221 34.738L22.404 34.566L22.232 32.758L33.287 21.729C33.289 21.727 33.29 21.726 33.292 21.725L35.958 19.065L37.944 21.047L31.878 27.099ZM31.583 40.735H7V8.972H11.843V10.723C11.843 11.276 12.291 11.723 12.843 11.723H25.739C26.291 11.723 26.739 11.276 26.739 10.723V8.972H31.583V20.605L20.485 31.675C20.274 31.886 20.168 32.181 20.196 32.478L20.491 35.578C20.537 36.055 20.915 36.433 21.392 36.478L24.5 36.773C24.531 36.776 24.563 36.778 24.594 36.778C24.858 36.778 25.112 36.673 25.3 36.486L31.583 30.219V40.735ZM13.843 9.723H24.739V7H13.843V9.723ZM40.591 16.428C40.855 16.691 41 17.042 41 17.417C41 17.792 40.855 18.144 40.592 18.407L39.36 19.635L37.374 17.653L38.602 16.428C39.149 15.881 40.043 15.881 40.591 16.428ZM40.769 21.055L42.004 19.823C42.646 19.182 43 18.328 43 17.417C43 16.507 42.646 15.653 42.004 15.012C40.676 13.688 38.516 13.688 37.189 15.012L35.252 16.944C35.252 16.945 35.252 16.945 35.252 16.945L33.583 18.61V7.972C33.583 7.419 33.135 6.972 32.583 6.972H26.739V6C26.739 5.448 26.291 5 25.739 5H12.843C12.291 5 11.843 5.448 11.843 6V6.972H6C5.447 6.972 5 7.419 5 7.972V41.735C5 42.287 5.447 42.735 6 42.735H32.583C33.135 42.735 33.583 42.287 33.583 41.735V28.223L39.351 22.469L40.36 23.565L35.067 28.845C34.676 29.235 34.675 29.869 35.065 30.259C35.26 30.455 35.517 30.553 35.773 30.553C36.028 30.553 36.284 30.455 36.479 30.261L41.773 24.98C42.164 24.59 42.379 24.071 42.379 23.519C42.379 22.966 42.164 22.447 41.772 22.056L40.769 21.055Z" fill="#CCE4F3"/>
</svg>