<svg xmlns="http://www.w3.org/2000/svg" fill="none" height="48" width="48">
    <path d="M11.926 10.258A18 18 0 0 1 41.4 26.05a1.006 1.006 0 1 1-2-.22A16 16 0 1 0 22.56 40a1 1 0 1 1-.06 2h-.06a18 18 0 0 1-10.514-31.742ZM41.5 31a1 1 0 0 1 1.01 1v4a1 1 0 1 1-2 0v-1.15l-4 3.87a1 1 0 0 1-1.39 0l-1.9-1.83-5 4.83a1 1 0 0 1-.69.28 1 1 0 0 1-.72-.31 1 1 0 0 1 0-1.41l5.7-5.5a1 1 0 0 1 1.39 0l1.9 1.83L39.5 33h-2a1 1 0 0 1 0-2h4ZM23.63 13a1 1 0 0 1 1 1v1.42c2.9.38 5.13 2.37 5.13 4.77a1 1 0 1 1-2 0c0-1.54-1.89-2.84-4.13-2.84s-4.13 1.3-4.13 2.84c0 1.69 2.13 2.58 4.13 2.84h.26c3.61.48 5.87 2.32 5.87 4.82 0 2.4-2.23 4.39-5.13 4.77V34a1 1 0 1 1-2 0v-1.42c-2.91-.38-5.13-2.37-5.13-4.77a1 1 0 0 1 2 0c0 1.54 1.89 2.84 4.13 2.84s4.13-1.3 4.13-2.84c0-1.69-2.14-2.58-4.14-2.84h-.25c-3.62-.48-5.87-2.42-5.87-4.82 0-2.4 2.22-4.39 5.13-4.77V14a1 1 0 0 1 1-1Z" fill="#0075BE"/>
</svg>