<svg xmlns="http://www.w3.org/2000/svg" xmlns:xlink="http://www.w3.org/1999/xlink" version="1.1" id="Layer_1" x="0px" y="0px" viewBox="0 0 48 48" enable-background="new 0 0 48 48" xml:space="preserve" height="48" width="48">
<g>
	<path fill="#0875BB" d="M41.02,37.07H36.3v-2h4.72V9.06H6.98v26.02h21.49v2H6.98c-1.1,0-2-0.9-2-2V9.06c0-1.1,0.9-2,2-2h34.04   c1.1,0,2,0.9,2,2v26.02C43.02,36.18,42.12,37.07,41.02,37.07z"/>
	<g>
		<path fill="#0875BB" d="M26.53,32.64H15.51c-0.55,0-1-0.45-1-1c0-2.03-1.66-3.68-3.7-3.68c0.01,0.01-0.05,0.01-0.11,0.01    c-0.27,0.01-0.54-0.09-0.73-0.28c-0.2-0.19-0.31-0.45-0.31-0.72v-9.55c0-0.27,0.11-0.53,0.31-0.72c0.2-0.19,0.46-0.31,0.73-0.28    c0.04,0,0.14,0.01,0.18,0.02c1.98,0,3.64-1.65,3.64-3.68c-0.01-0.08-0.02-0.15-0.02-0.21c-0.02-0.27,0.08-0.54,0.27-0.74    c0.19-0.2,0.45-0.31,0.73-0.31h17.18c0.27,0,0.54,0.11,0.73,0.31c0.19,0.2,0.29,0.47,0.27,0.74c0,0.07-0.01,0.13-0.02,0.2    c0,2.04,1.66,3.7,3.7,3.7c0.55,0,1,0.45,1,1v10.51c0,0.55-0.45,1-1,1s-1-0.45-1-1v-9.6c-2.43-0.43-4.33-2.4-4.65-4.86H16.46    c-0.33,2.51-2.3,4.51-4.81,4.88v7.65c2.41,0.36,4.34,2.23,4.76,4.62h10.11c0.55,0,1,0.45,1,1S27.09,32.64,26.53,32.64z"/>
	</g>
	<path fill="#0875BB" d="M36.3,44.94c-0.17,0-0.34-0.04-0.49-0.13l-3.43-1.91l-3.43,1.91c-0.31,0.17-0.69,0.17-0.99-0.01   c-0.31-0.18-0.49-0.51-0.49-0.86v-7.87c0-0.55,0.45-1,1-1s1,0.45,1,1v6.17l2.43-1.35c0.3-0.17,0.67-0.17,0.97,0l2.43,1.35v-5.82   c0-0.55,0.45-1,1-1s1,0.45,1,1v7.52c0,0.35-0.19,0.68-0.49,0.86C36.65,44.9,36.47,44.94,36.3,44.94z"/>
	<path fill="#0875BB" d="M32.38,38.06c-3.79,0-6.87-3.07-6.87-6.84s3.08-6.84,6.87-6.84s6.87,3.07,6.87,6.84   S36.17,38.06,32.38,38.06z M32.38,26.38c-2.69,0-4.87,2.17-4.87,4.84s2.18,4.84,4.87,4.84c2.68,0,4.87-2.17,4.87-4.84   S35.07,26.38,32.38,26.38z"/>
	<circle fill="#0875BB" cx="10.66" cy="13.17" r="0.95"/>
	<circle fill="#0875BB" cx="10.66" cy="31.64" r="0.95"/>
	<circle fill="#0875BB" cx="36.3" cy="13.17" r="0.95"/>
	<path fill="#0875BB" d="M24,23.93c-0.83,0-1.46-0.44-1.46-0.84c0-0.55-0.45-1-1-1s-1,0.45-1,1c0,1.3,1.02,2.36,2.46,2.71v0.77   c0,0.55,0.45,1,1,1s1-0.45,1-1V25.8c1.43-0.35,2.46-1.41,2.46-2.71c0-1.48-1.25-2.56-3.26-2.83l-0.13-0.02   c-0.9-0.12-1.53-0.47-1.53-0.84c0-0.4,0.62-0.84,1.46-0.84c0.83,0,1.46,0.44,1.46,0.84c0,0.55,0.45,1,1,1s1-0.45,1-1   c0-1.3-1.02-2.36-2.46-2.71v-0.7c0-0.55-0.45-1-1-1s-1,0.45-1,1v0.7c-1.43,0.35-2.46,1.41-2.46,2.71c0,1.48,1.25,2.56,3.26,2.83   l0.13,0.02c0.9,0.12,1.53,0.47,1.53,0.85C25.46,23.48,24.83,23.93,24,23.93z"/>
</g>
<g>
</g>
<g>
</g>
<g>
</g>
<g>
</g>
<g>
</g>
<g>
</g>
</svg>