<svg xmlns="http://www.w3.org/2000/svg" id="prefix__Layer_1" x="0" y="0" height="48" width="48" view-box="0 0 48 48" enable-background="new 0 0 48 48" xml-space="preserve" role="img">
  <style>
    .prefix__st0,
    .prefix__st1 {
      fill: none;
      stroke: #73c3eb;
      stroke-width: 2;
      stroke-linecap: round;
      stroke-linejoin: round;
    }
    .prefix__st1 {
      stroke: #0079c1;
    }
  </style>
  <path class="prefix__st0" d="M9.7 36.1h-.8c-1 0-1.8-.8-1.8-1.7v-2.2c0-.9.8-1.7 1.8-1.7h17c1 0 1.8.8 1.8 1.7v1.1"/>
  <path class="prefix__st1" d="M25.9 30.5c1 0 1.8.8 1.8 1.7v2.2c0 .9-.8 1.7-1.8 1.7h-17"/>
  <path class="prefix__st0" d="M9.7 30.5h-.8c-1 0-1.8-.8-1.8-1.7v-2.2c0-.9.8-1.7 1.8-1.7h17c1 0 1.8.8 1.8 1.7v1.1"/>
  <path class="prefix__st1" d="M25.9 24.9c1 0 1.8.8 1.8 1.7v2.2c0 .9-.8 1.7-1.8 1.7h-17"/>
  <path class="prefix__st0" d="M9.7 24.9h-.8c-1 0-1.8-.8-1.8-1.7V21c0-.9.8-1.7 1.8-1.7h17c1 0 1.8.8 1.8 1.7v1.1"/>
  <path class="prefix__st1" d="M25.9 19.2c1 0 1.8.8 1.8 1.7v2.2c0 .9-.8 1.7-1.8 1.7h-17"/>
  <path class="prefix__st0" d="M9.7 19.2h-.8c-1 0-1.8-.8-1.8-1.7v-2.2c0-.9.8-1.7 1.8-1.7h17c1 0 1.8.8 1.8 1.7v1.1"/>
  <path class="prefix__st1" d="M25.9 13.6c1 0 1.8.8 1.8 1.7v2.2c0 .9-.8 1.7-1.8 1.7h-17"/>
  <path class="prefix__st0" d="M9.7 13.6h-.8c-1 0-1.8-.8-1.8-1.7V9.7c0-.9.8-1.7 1.8-1.7h17c1 0 1.8.8 1.8 1.7v1.1"/>
  <path class="prefix__st1" d="M25.9 8c1 0 1.8.8 1.8 1.7v2.2c0 .9-.8 1.7-1.8 1.7h-17"/>
  <path d="M40.3 28.6c0 6.3-5.1 11.4-11.4 11.4s-11.4-5.1-11.4-11.4c0-6.3 5.1-11.4 11.4-11.4 6.3-.1 11.4 5.1 11.4 11.4z" style="fill-rule: evenodd; clip-rule: evenodd; fill: #fff"/>
  <path d="M30.4 17.2c-.7 0-1.4.1-2 .2 4.7 1 8.2 5.6 8.2 11.1s-3.5 10.1-8.2 11.1c.6.1 1.3.2 2 .2 5.6 0 10.2-5.1 10.2-11.4S36 17.2 30.4 17.2z" style="fill-rule: evenodd; clip-rule: evenodd; fill: #b8e5fe"/>
  <path d="M29.2 16.6c6.5 0 11.7 5.2 11.7 11.7 0 4.6-2.6 8.5-6.4 10.4" style="       fill: none;       stroke: #001928;       stroke-width: 2;       strokelinecap: round;       strokelinejoin: round;     "/>
  <path class="prefix__st0" d="M18.3 32.7c-.5-1.3-.8-2.8-.8-4.4 0-6.5 5.2-11.7 11.7-11.7"/>
  <path d="M34.5 38.7c-1.6.8-3.4 1.3-5.3 1.3-4.9 0-9.1-3-10.9-7.3" style="       fill: none;       stroke: #005587;       stroke-width: 2;       strokelinecap: round;       strokelinejoin: round;     "/>
  <path class="prefix__st1" d="M29.5 23v-1.2"/>
  <path class="prefix__st0" d="M29.5 35.5v-1.9M25.7 31c.8 1.3 2 2 3.6 2 2.7 0 3.3-1.2 3.3-2.3 0-.5-.3-1.1-.6-1.4"/>
  <path class="prefix__st1" d="M32 29.2c-.7-.7-1.8-.9-2.9-.9-1.6 0-3.5.1-3.5-2.1 0-2.1 2.2-2.7 3.5-2.7s2.9.6 3.5 1.8"/>
  <path d="M32.2 30.2c-.6.1-1.1-.3-1.1-.9-.1-.6.3-1.1.9-1.1.6-.1 1.1.3 1.2.9-.1.6-.5 1.1-1 1.1z" style="fill-rule: evenodd; clip-rule: evenodd; fill: #001928"/>
</svg>