<svg xmlns="http://www.w3.org/2000/svg" id="prefix__Layer_1" x="0" y="0" height="48" width="48" view-box="0 0 48 48" enable-background="new 0 0 48 48" xml-space="preserve" role="img">
  <style>
    .prefix__st0,
    .prefix__st4,
    .prefix__st5 {
      fill: none;
      stroke: #005587;
      stroke-width: 2;
      stroke-linecap: round;
      stroke-linejoin: round;
    }
    .prefix__st4,
    .prefix__st5 {
      stroke: #73c3eb;
    }
    .prefix__st5 {
      stroke: #0079c1;
    }
  </style>
  <path class="prefix__st0" d="M24 38.5c-.8.2-1.7.2-2.6.2C13.5 38.7 7 32.3 7 24.3S13.5 9.9 21.4 9.9c.7 0 1.5.1 2.2.2"/>
  <path d="M40.3 24.6c0 7.8-6.3 14-14 14s-14-6.3-14-14 6.3-14 14-14 14 6.3 14 14z" style="fill-rule: evenodd; clip-rule: evenodd; fill: #fff"/>
  <path d="M28.1 10.7c-.9 0-1.7.1-2.5.3 5.7 1.3 10.1 6.9 10.1 13.6S31.3 37 25.6 38.3c.8.2 1.6.3 2.5.3 6.9 0 12.5-6.2 12.5-13.9 0-7.8-5.6-14-12.5-14z" style="fill-rule: evenodd; clip-rule: evenodd; fill: #b8e5fe"/>
  <path d="M26.6 9.9c7.9 0 14.4 6.4 14.4 14.4 0 5.6-3.2 10.4-7.9 12.8" style="         fill: none;         stroke: #001928;         stroke-width: 2,         stroke-linecap: round;         stroke-linejoin: round;       "/>
  <path class="prefix__st4" d="M13.3 29.6c-.7-1.6-1-3.5-1-5.3 0-7.9 6.4-14.4 14.4-14.4"/>
  <path class="prefix__st0" d="M33.1 37.1c-2 1-4.2 1.6-6.5 1.6-6 0-11.2-3.7-13.3-9"/>
  <path class="prefix__st5" d="M27 17.8v-1.5"/>
  <path class="prefix__st4" d="M27 33.1v-2.3M22.3 27.6c1 1.7 2.5 2.5 4.5 2.5 3.4 0 4.1-1.5 4.1-2.8 0-.6-.3-1.4-.7-1.8"/>
  <path class="prefix__st5" d="M30.1 25.4c-.8-.9-2.2-1.1-3.5-1.1-1.9 0-4.3.1-4.3-2.5s2.7-3.3 4.3-3.3c1.6 0 3.5.7 4.3 2.2"/>
  <path d="M30.3 26.5c-.6.1-1.1-.3-1.2-.9-.1-.6.3-1.1.9-1.2.6-.1 1.1.3 1.2.9.1.6-.3 1.1-.9 1.2z" style="fill-rule: evenodd; clip-rule: evenodd; fill: #001928"/>
</svg>