<svg xmlns="http://www.w3.org/2000/svg" width="48" height="48" view-box="0 0 48 48" fill="none">
  <path d="M36.9083 25.2301C35.3592 25.2301 33.9627 24.297 33.3699 22.8658C32.7771 21.4346 33.1047 19.7873 34.2001 18.6919C35.2955 17.5965 36.9428 17.2689 38.374 17.8617C39.8052 18.4545 40.7383 19.851 40.7383 21.4001C40.7383 23.5154 39.0236 25.2301 36.9083 25.2301ZM36.9083 19.5701C36.1682 19.5701 35.5009 20.016 35.2176 20.6998C34.9344 21.3837 35.091 22.1708 35.6143 22.6941C36.1377 23.2175 36.9248 23.3741 37.6086 23.0908C38.2925 22.8076 38.7383 22.1403 38.7383 21.4001C38.7383 20.3895 37.919 19.5701 36.9083 19.5701ZM37.6883 41.2601H36.1383C34.9762 41.3148 33.9518 40.5038 33.7383 39.3601L33.2383 34.4701C32.8438 34.4464 32.4695 34.2875 32.1783 34.0201C31.8154 33.6994 31.6324 33.2213 31.6883 32.7401L32.3283 28.7401C32.5556 27.6116 33.5791 26.8226 34.7283 26.8901H35.4983C35.9051 26.8891 36.3002 27.0266 36.6183 27.2801L36.9083 27.5101L37.1983 27.2801C37.5211 27.028 37.9188 26.8907 38.3283 26.8901H39.0983C40.2619 26.831 41.2889 27.644 41.4983 28.7901L42.1383 32.7901C42.2205 33.2967 42.0307 33.8093 41.6383 34.1401C41.3484 34.4017 40.9781 34.5569 40.5883 34.5801L40.0883 39.4401C39.8444 40.5542 38.8269 41.3259 37.6883 41.2601ZM33.7483 32.4801H34.1383C34.6538 32.4776 35.0868 32.8672 35.1383 33.3801L35.7283 39.1401C35.8507 39.2185 35.993 39.2602 36.1383 39.2601H37.6883C37.846 39.2779 38.0025 39.2183 38.1083 39.1001L38.6883 33.3801C38.7399 32.8672 39.1729 32.4776 39.6883 32.4801H40.0783L39.5183 29.0001C39.5183 28.9301 39.3483 28.8201 39.0983 28.8201H38.3883L37.5383 29.5001C37.173 29.7926 36.6537 29.7926 36.2883 29.5001L35.4383 28.8201H34.7283C34.5711 28.8056 34.416 28.8647 34.3083 28.9801L33.7483 32.4801ZM12.0983 16.1401C10.0468 16.1442 8.19503 14.9115 7.40714 13.0173C6.61925 11.1231 7.05054 8.94074 8.49976 7.48866C9.94898 6.03657 12.1305 5.60097 14.0262 6.38512C15.922 7.16927 17.1583 9.01861 17.1583 11.0701C17.1529 13.8641 14.8922 16.1291 12.0983 16.1401ZM12.0983 8.01012C10.8548 8.00609 9.73169 8.75259 9.25395 9.90067C8.77621 11.0488 9.03823 12.3716 9.91753 13.2509C10.7968 14.1302 12.1197 14.3923 13.2678 13.9145C14.4159 13.4368 15.1624 12.3136 15.1583 11.0701C15.1528 9.38243 13.786 8.01563 12.0983 8.01012ZM13.2083 41.4703H10.9783C9.42144 41.4765 8.11844 40.2907 7.97833 38.7401L7.19833 29.2801H7.01833C6.43763 29.2855 5.88328 29.0381 5.49937 28.6024C5.11547 28.1666 4.93991 27.5856 5.01833 27.0101L5.93833 19.8001C6.10728 18.2733 7.40224 17.1208 8.93833 17.13H10.0483C10.5834 17.1244 11.0984 17.3333 11.4783 17.7101L12.0883 18.3201L12.6883 17.7201C13.0666 17.3396 13.5818 17.127 14.1183 17.13H15.2283C16.7817 17.1234 18.0834 18.3035 18.2283 19.8501L19.1483 27.0101C19.2237 27.5861 19.0448 28.1665 18.6583 28.6001C18.2769 29.0343 17.7263 29.2823 17.1483 29.2801H16.9783L16.2283 38.7401C16.0876 40.2984 14.7729 41.4869 13.2083 41.4703ZM8.94833 19.1301C8.43285 19.1276 7.99987 19.5172 7.94833 20.0301L7.01833 27.2701H8.10833C8.63083 27.2685 9.06654 27.6693 9.10833 28.1901L9.95833 38.5501C10.005 39.067 10.4394 39.4622 10.9583 39.4601H13.1883C13.7217 39.4608 14.1617 39.0428 14.1883 38.5101L15.0283 28.1901C15.0701 27.6693 15.5058 27.2685 16.0283 27.2701H17.1183L16.1983 20.0901C16.1717 19.5575 15.7317 19.1395 15.1983 19.1401H14.1283L12.7983 20.4401C12.4083 20.8279 11.7784 20.8279 11.3883 20.4401L10.0783 19.1301H8.94833ZM23.3983 8.01014C22.1557 8.01014 21.0357 8.75921 20.5611 9.90762C20.0865 11.056 20.351 12.3773 21.2311 13.2545C22.1112 14.1317 23.4333 14.3919 24.5801 13.9136C25.727 13.4352 26.4724 12.3127 26.4683 11.0701C26.4628 9.37853 25.0899 8.01014 23.3983 8.01014ZM21.3683 17.1401C21.8999 17.1371 22.4109 17.3458 22.7883 17.7201L23.403 18.335L24.0083 17.7401C24.3841 17.3621 24.8953 17.1497 25.4283 17.1501H26.5783C28.1248 17.1424 29.4237 18.3114 29.5783 19.8501L30.4983 27.0301C30.5737 27.6061 30.3948 28.1865 30.0083 28.6201C29.7437 28.9233 29.396 29.1423 29.0083 29.2501L30.8583 33.0501C31.121 33.5873 31.0877 34.2219 30.7703 34.7286C30.4528 35.2353 29.8962 35.5422 29.2983 35.5401H27.9583L27.5783 38.7401C27.4366 40.314 26.0982 41.5081 24.5183 41.4701L23.6622 41.4722C23.5752 41.4969 23.4833 41.5101 23.3883 41.5101L23.3983 41.4701H22.2883C20.7314 41.4765 19.4284 40.2907 19.2883 38.7401L18.7383 34.6501C18.6665 34.0979 19.056 33.5919 19.6083 33.5201C20.1606 33.4483 20.6665 33.8379 20.7383 34.3901L21.2783 38.5101C21.2783 39.0624 21.726 39.5101 22.2783 39.5101L23.1214 39.509C23.2094 39.4837 23.3023 39.4701 23.3983 39.4701H24.5183C25.0444 39.4714 25.4815 39.0649 25.5183 38.5401L26.0683 34.3901C26.134 33.8891 26.5631 33.5159 27.0683 33.5201H28.8083L26.4883 28.7401C26.3367 28.4148 26.371 28.0332 26.5783 27.7401C26.7614 27.4472 27.0828 27.2694 27.4283 27.2701H28.4783L27.5783 20.0501C27.5365 19.5293 27.1008 19.1285 26.5783 19.1301H25.4283L24.1745 20.3767C24.1539 20.402 24.1318 20.4265 24.1083 20.4501C23.9196 20.6373 23.6641 20.7417 23.3983 20.7402C23.136 20.739 22.8846 20.6349 22.6983 20.4501L21.3883 19.1401H20.2583C19.706 19.1401 19.2583 18.6924 19.2583 18.1401C19.2583 17.5879 19.706 17.1401 20.2583 17.1401H21.3683ZM23.3983 6.00014C26.1984 6.00014 28.4683 8.27006 28.4683 11.0701C28.4683 13.8702 26.1984 16.1401 23.3983 16.1401C20.5982 16.1401 18.3283 13.8702 18.3283 11.0701C18.3283 8.27006 20.5982 6.00014 23.3983 6.00014Z" fill="#0075BE"/>
</svg>