<svg xmlns="http://www.w3.org/2000/svg" version="1.1" x="0px" y="0px" view-box="0 0 32 32" focusable="false">
  <g>
    <path fill="#0075be" d="M16,1.74C8.14,1.74,1.74,8.14,1.74,16S8.14,30.26,16,30.26S30.26,23.86,30.26,16S23.86,1.74,16,1.74z M16,28.98 C8.84,28.98,3.02,23.16,3.02,16S8.84,3.02,16,3.02S28.98,8.84,28.98,16S23.16,28.98,16,28.98z"/>
    <path fill="#0075be" d="M20.92,10.1l-6.57,4.02c-0.1,0.06-0.18,0.14-0.23,0.23l-4.02,6.57c-0.17,0.28-0.13,0.64,0.1,0.87 c0.14,0.14,0.32,0.21,0.5,0.21c0.13,0,0.26-0.03,0.37-0.1l6.57-4.02c0.1-0.06,0.18-0.14,0.23-0.23l4.02-6.57 c0.17-0.28,0.13-0.64-0.1-0.87C21.56,9.97,21.2,9.93,20.92,10.1z M16,17.21c-0.67,0-1.21-0.54-1.21-1.21 c0-0.67,0.54-1.21,1.21-1.21c0.67,0,1.21,0.54,1.21,1.21C17.21,16.67,16.67,17.21,16,17.21z"/>
  </g>
</svg>