<svg xmlns="http://www.w3.org/2000/svg" width="240" height="200" fill="none">
  <path fill-rule="evenodd" clip-rule="evenodd" d="M86.027 160.712h36.547V84.807H86.027v75.905Z" fill="#fff"/>
  <path clip-rule="evenodd" d="M86.027 160.712h36.547V84.807H86.027v75.905Z" stroke="#73C3EB" stroke-width="3" stroke-linecap="round" stroke-linejoin="round"/>
  <path d="M122.575 152.187H86.028" stroke="#005686" stroke-width="3" stroke-linecap="round" stroke-linejoin="round"/>
  <path d="M122.575 142.98H86.028" stroke="#73C3EB" stroke-width="3" stroke-linecap="round" stroke-linejoin="round"/>
  <path d="M122.575 133.57H86.028" stroke="#0079C1" stroke-width="3" stroke-linecap="round" stroke-linejoin="round"/>
  <path d="M122.575 123.818H86.028" stroke="#005686" stroke-width="3" stroke-linecap="round" stroke-linejoin="round"/>
  <path d="M122.575 114.065H86.028" stroke="#73C3EB" stroke-width="3" stroke-linecap="round" stroke-linejoin="round"/>
  <path d="M122.575 104.313H86.028" stroke="#005686" stroke-width="3" stroke-linecap="round" stroke-linejoin="round"/>
  <path d="M122.575 94.56H86.028" stroke="#0079C1" stroke-width="3" stroke-linecap="round" stroke-linejoin="round"/>
  <path d="M86.027 142.981v17.732h21.266" stroke="#001928" stroke-width="3" stroke-linecap="round" stroke-linejoin="round"/>
  <path d="M104.301 84.808H86.027v58.173" stroke="#005788" stroke-width="3" stroke-linecap="round" stroke-linejoin="round"/>
  <path d="M96.66 160.713h25.914V84.808h-18.273" stroke="#0079C1" stroke-width="3" stroke-linecap="round" stroke-linejoin="round"/>
  <path fill-rule="evenodd" clip-rule="evenodd" d="M119.957 160.315h36.547v-47.109h-36.547v47.109Z" fill="#fff"/>
  <path clip-rule="evenodd" d="M119.957 160.315h36.547v-47.109h-36.547v47.109Z" stroke="#73C3EB" stroke-width="3" stroke-linecap="round" stroke-linejoin="round"/>
  <path d="M156.504 121.732h-36.547" stroke="#005686" stroke-width="3" stroke-linecap="round" stroke-linejoin="round"/>
  <path d="M156.504 130.938h-36.547" stroke="#73C3EB" stroke-width="3" stroke-linecap="round" stroke-linejoin="round"/>
  <path d="M156.504 140.349h-36.547" stroke="#0079C1" stroke-width="3" stroke-linecap="round" stroke-linejoin="round"/>
  <path d="M156.504 150.102h-36.547" stroke="#005686" stroke-width="3" stroke-linecap="round" stroke-linejoin="round"/>
  <path d="M156.504 159.854h-36.547" stroke="#73C3EB" stroke-width="3" stroke-linecap="round" stroke-linejoin="round"/>
  <path d="M119.957 130.939v-17.732h21.266" stroke="#001928" stroke-width="3" stroke-linecap="round" stroke-linejoin="round"/>
  <path d="M138.23 160.315h-18.274v-29.377" stroke="#005788" stroke-width="3" stroke-linecap="round" stroke-linejoin="round"/>
  <path d="M130.59 113.207h25.914v47.109h-18.273" stroke="#0079C1" stroke-width="3" stroke-linecap="round" stroke-linejoin="round"/>
  <path fill-rule="evenodd" clip-rule="evenodd" d="m186.211 161.12.038.2.165-.2h-.203ZM187.086 160.061l.039.2.164-.2h-.203Z" fill="#C1E7FF"/>
  <path fill-rule="evenodd" clip-rule="evenodd" d="M49.107 134.672c9.853 1.186 17.072 1.945 21.657 2.275 3.443.247 15.233-11.533 28.446-14.067 4.412-.846 11.807 3.039 18.745 4.135 6.937 1.095 28.248-1.476 31.009 3.924 1.536 3.002-2.122 9.867-9.694 11.616-7.572 1.749-16.592 5.553-17.427 6.542-.396.47 6.106 1.129 12.732 2.379 6.627 1.25 11.564 3.872 14.018 3.979 4.205.183 5.848-1.254 12.403-1.985 6.555-.731 10.612-.105 14.696-.891 6.768-1.304 18.026-9.532 24.471-10.681 9.926-1.769 11.473 2.178 12.03 5.351 1.065 6.074-6.951 10.898-8.702 12.153-.549.393-33.762 16.166-36.696 16.754-20.586 4.126-21.651 2.691-46.293 1.69-24.643-1.001-39.038-14.215-50.905-13.997-3.958.072-9.678 2.003-17.16 5.791l-3.33-34.968Z" fill="#fff"/>
  <path fill-rule="evenodd" clip-rule="evenodd" d="M49.107 134.672c9.853 1.186 17.072 1.945 21.657 2.275 3.443.247 15.233-11.533 28.446-14.067 4.412-.846 11.807 3.039 18.745 4.135 6.937 1.095 28.248-1.476 31.009 3.924 1.536 3.002-2.122 9.867-9.694 11.616-7.572 1.749-16.592 5.553-17.427 6.542-.396.47 6.106 1.129 12.732 2.379 6.627 1.25 11.564 3.872 14.018 3.979 4.205.183 5.848-1.254 12.403-1.985 6.555-.731 10.612-.105 14.696-.891 6.768-1.304 18.026-9.532 24.471-10.681 9.926-1.769 11.473 2.178 12.03 5.351 1.065 6.074-6.951 10.898-8.702 12.153-.549.393-33.762 16.166-36.696 16.754-20.586 4.126-21.651 2.691-46.293 1.69-24.643-1.001-39.038-14.215-50.905-13.997-3.958.072-9.678 2.003-17.16 5.791l-3.33-34.968Z" fill="#fff"/>
  <path clip-rule="evenodd" d="M144.72 177.865c-3.302 0-6.736-.19-11.489-.452a815.502 815.502 0 0 0-12.687-.626c-13.927-.566-24.695-5.155-33.348-8.842-6.495-2.768-12.104-5.159-17.308-5.159l-.31.003c-3.905.072-9.226 1.78-16.234 5.215l-3.059-32.125c9.171 1.095 16.031 1.809 20.402 2.123.06.005.123.007.186.007 1.69 0 4.154-1.633 7.884-4.105 5.398-3.578 12.792-8.477 20.651-9.985.348-.066.74-.1 1.165-.1 2.278 0 5.309.954 8.518 1.964 2.837.892 5.77 1.815 8.698 2.277 1.831.289 4.596.329 7.31.329.841 0 1.714-.004 2.606-.008.93-.004 1.883-.009 2.844-.009 4.762 0 15.914 0 17.472 3.048.415.811.266 2.146-.397 3.572-1.147 2.462-4.005 5.471-8.593 6.53-7.161 1.655-16.84 5.52-17.998 6.892l-.4.474.204.642c.311.83.819.931 6.209 1.764 2.11.326 4.736.732 7.332 1.222 3.526.665 6.578 1.732 9.031 2.59 2.158.755 3.862 1.351 5.138 1.406.264.012.519.017.765.017 2.02 0 3.533-.372 5.286-.802 1.673-.411 3.571-.877 6.515-1.205 3.118-.347 5.679-.384 7.939-.415 2.489-.035 4.638-.065 6.839-.489 3.546-.683 8.188-3.139 12.677-5.515 4.29-2.271 8.727-4.618 11.78-5.163 1.572-.28 2.991-.422 4.218-.422 5.279 0 6.167 2.536 6.583 4.914.855 4.877-5.34 9.102-7.673 10.692-.242.165-.446.304-.601.416-1.754 1.009-33.837 16.085-36.289 16.577-10.25 2.054-15.768 2.748-21.866 2.748Z" stroke="#0079C1" stroke-width="3"/>
  <path fill-rule="evenodd" clip-rule="evenodd" d="m31.84 131.32 20.957 3.129c1.083 7.929 1.732 13.902 1.945 17.92.213 4.019.195 9.9-.056 17.646l-22.842 4.307-.004-43.002Z" fill="#C1E7FF"/>
  <path clip-rule="evenodd" d="m32.546 132.139 19.623 2.93c1.033 7.619 1.662 13.451 1.867 17.337.207 3.877.193 9.601-.038 17.02L32.55 173.47l-.004-41.331Z" stroke="#73C3EB" stroke-width="3" stroke-linecap="round" stroke-linejoin="round"/>
  <path d="M111.453 153.926c.524-.826 5.476-6.141 17.932-9.326 4.448-1.138 8.349-2.119 10.861-3.016 1.675-.598 3.602-1.908 5.78-3.93M144.709 160.962c.524-.826.916-3.062 13.372-6.248 1.859-.475 8.006-1.729 13.813-.601 3.872.752 6.271 2.239 7.198 4.463" stroke="#005587" stroke-width="3" stroke-linecap="round"/>
  <path d="M158.081 154.715c1.859-.475 8.006-1.73 13.813-.602 3.872.752 6.271 2.24 7.198 4.464" stroke="#73C3EB" stroke-width="3" stroke-linecap="round"/>
  <path fill-rule="evenodd" clip-rule="evenodd" d="M157.376 156.457a1.403 1.403 0 1 0 .196-2.799 1.403 1.403 0 0 0-.196 2.799Z" fill="#001928"/>
  <path fill-rule="evenodd" clip-rule="evenodd" d="M134.945 128.59c-.267 5.152.796 8.015 3.19 8.587 3.59.859 6.728-1.57 7.497-2.951.769-1.38-.427-3.678-1.215-4.739-.526-.707-3.683-1.006-9.472-.897Z" fill="#C1E7FF"/>
  <path clip-rule="evenodd" d="M134.945 128.59c-.267 5.152.796 8.015 3.19 8.587 3.59.859 6.728-1.57 7.497-2.951.769-1.38-.427-3.678-1.215-4.739-.526-.707-3.683-1.006-9.472-.897Z" stroke="#005587" stroke-width="3" stroke-linecap="round"/>
  <path d="M203.562 158.114c-2.35-1.688-3.372-3.122-3.064-4.302.461-1.772 4.096-3.312 6.608-4.209 1.675-.598 2.796-.085 3.364 1.54" stroke="#005587" stroke-width="3" stroke-linecap="round"/>
  <path d="M54.036 152.406c.206 3.877.193 9.601-.039 17.02L32.55 173.47" stroke="#005587" stroke-width="3" stroke-linecap="round" stroke-linejoin="round"/>
  <path fill-rule="evenodd" clip-rule="evenodd" d="M165.556 86.561c3.058 9.106-1.844 18.967-10.95 22.025s-18.967-1.844-22.025-10.95c-3.059-9.106 1.844-18.967 10.95-22.025 9.106-3.059 18.967 1.844 22.025 10.95Z" fill="#fff"/>
  <path fill-rule="evenodd" clip-rule="evenodd" d="M144.518 74.48c-.998.335-1.935.776-2.807 1.302 7.25-.762 14.553 4.144 17.217 12.077 2.665 7.933-.196 16.252-6.437 20.021a14.15 14.15 0 0 0 3.024-.656c8.142-2.735 12.281-12.28 9.244-21.323-3.037-9.042-12.099-14.156-20.241-11.42Z" fill="#B9E3F9"/>
  <path d="M142.494 74.163c9.321-3.131 19.416 1.888 22.546 11.209 2.208 6.573.363 13.53-4.185 18.159" stroke="#001928" stroke-width="3" stroke-linecap="round" stroke-linejoin="round"/>
  <path d="M134.608 102.592a17.763 17.763 0 0 1-3.323-5.882c-3.13-9.322 1.888-19.416 11.21-22.546" stroke="#0079C1" stroke-width="3" stroke-linecap="round" stroke-linejoin="round"/>
  <path d="M160.856 103.531a17.724 17.724 0 0 1-7.025 4.387c-7.098 2.384-14.645.042-19.223-5.327" stroke="#005686" stroke-width="3" stroke-linecap="round" stroke-linejoin="round"/>
  <path d="m146.038 83.198-.607-1.808" stroke="#0079C1" stroke-width="3" stroke-linecap="round" stroke-linejoin="round"/>
  <path d="m152.11 101.278-.911-2.712M144.425 96.586c1.821 1.555 3.899 1.94 6.232 1.157 3.939-1.323 4.222-3.381 3.693-4.955-.234-.697-.937-1.455-1.576-1.792" stroke="#73C3EB" stroke-width="3" stroke-linecap="round" stroke-linejoin="round"/>
  <path d="M152.734 91.009c-1.324-.682-3.026-.413-4.549.098-2.288.768-5.006 1.772-6.04-1.307-1.034-3.08 1.909-4.93 3.739-5.544 1.83-.615 4.405-.527 5.895.879" stroke="#0079C1" stroke-width="3" stroke-linecap="round" stroke-linejoin="round"/>
  <path fill-rule="evenodd" clip-rule="evenodd" d="M83.961 37.188a8.513 8.513 0 0 1-8.513 8.513 8.513 8.513 0 1 1 8.513-8.513Z" fill="#B9E3F9"/>
  <path d="m44.462 69.56 25.863-24.51" stroke="#005587" stroke-width="3" stroke-linecap="round" stroke-linejoin="round"/>
  <path d="m112.244 60.384 27.352-25.723" stroke="#0079C1" stroke-width="3" stroke-linecap="round" stroke-linejoin="round"/>
  <path d="m80.29 43.866 18.4 17.438" stroke="#73C3EB" stroke-width="3" stroke-linecap="round" stroke-linejoin="round"/>
  <mask id="prefix__a" style="mask-type: alpha" maskUnits="userSpaceOnUse" x="28" y="65" width="18" height="18">
    <path d="M28 65.67h17.028v17.028H28V65.67Z" fill="#fff"/>
  </mask>
  <g mask="url(#prefix__a)">
    <path fill-rule="evenodd" clip-rule="evenodd" d="M41.6 81.01a8.513 8.513 0 0 1-11.912-1.74 8.513 8.513 0 0 1 1.739-11.913A8.513 8.513 0 1 1 41.6 81.01Z" fill="#B9E3F9"/>
  </g>
  <path fill-rule="evenodd" clip-rule="evenodd" d="M113.014 71.292a8.514 8.514 0 1 1-13.16-10.805 8.514 8.514 0 0 1 13.16 10.805ZM147.962 34.916a8.514 8.514 0 1 1-13.16-10.806 8.514 8.514 0 0 1 13.16 10.806ZM83.961 39.278a8.513 8.513 0 0 1-8.513 8.513 8.513 8.513 0 1 1 8.513-8.513Z" fill="#B9E3F9"/>
  <path d="M82.477 41.451c-1.231 2.51-3.915 4.251-7.03 4.251-4.277 0-7.745-3.287-7.745-7.342 0-1.608.545-3.095 1.47-4.305" stroke="#73C3EB" stroke-width="3" stroke-linecap="round" stroke-linejoin="round"/>
  <path d="M69.173 34.055c1.408-1.84 3.694-3.036 6.275-3.036 4.279 0 7.747 3.287 7.747 7.341a6.991 6.991 0 0 1-.718 3.091" stroke="#005587" stroke-width="3" stroke-linecap="round" stroke-linejoin="round"/>
  <path d="M144.958 35.005a8.021 8.021 0 0 1-4.191 1.166c-4.279 0-7.747-3.287-7.747-7.341 0-2.463 1.28-4.643 3.243-5.974" stroke="#73C3EB" stroke-width="3" stroke-linecap="round" stroke-linejoin="round"/>
  <path d="M136.264 22.856a8.001 8.001 0 0 1 4.503-1.367c4.279 0 7.747 3.287 7.747 7.34 0 2.592-1.416 4.87-3.555 6.176" stroke="#001928" stroke-width="3" stroke-linecap="round" stroke-linejoin="round"/>
  <path d="M110.643 72.055a8.026 8.026 0 0 1-4.208 1.177c-4.279 0-7.747-3.287-7.747-7.342 0-4.054 3.468-7.341 7.747-7.341" stroke="#0079C1" stroke-width="3" stroke-linecap="round" stroke-linejoin="round"/>
  <path d="M106.434 58.549c4.278 0 7.747 3.287 7.747 7.34 0 2.585-1.409 4.858-3.539 6.166" stroke="#001928" stroke-width="3" stroke-linecap="round" stroke-linejoin="round"/>
  <path d="M43.09 78.489c-1.395 1.29-3.303 2.084-5.406 2.084-4.278 0-7.747-3.287-7.747-7.341 0-1.792.678-3.434 1.803-4.71" stroke="#73C3EB" stroke-width="3" stroke-linecap="round" stroke-linejoin="round"/>
  <path d="M31.74 68.523c1.42-1.609 3.556-2.633 5.944-2.633 4.278 0 7.746 3.287 7.746 7.342 0 2.061-.896 3.923-2.34 5.257" stroke="#001928" stroke-width="3" stroke-linecap="round" stroke-linejoin="round"/>
  <path d="m164.759 67.822 18.994-17.863 2.138 2.273c1.569 1.67 4.362.932 4.904-1.294l4.341-17.858c.493-2.025-1.259-3.888-3.311-3.52" stroke="#73C3EB" stroke-width="3" stroke-linecap="round"/>
  <path d="M174.28 39.888 155.286 57.75a2.333 2.333 0 0 0-.101 3.298l6.276 6.673a2.333 2.333 0 0 0 3.298.1" stroke="#001928" stroke-width="3" stroke-linecap="round" stroke-linejoin="round"/>
  <path d="m191.825 29.56-18.09 3.24c-2.255.403-3.162 3.146-1.593 4.814l2.138 2.274M36.514 89.221v34.598" stroke="#0079C1" stroke-width="3" stroke-linecap="round" stroke-linejoin="round"/>
  <path d="M75.09 54.688v68.277" stroke="#73C3EB" stroke-width="3" stroke-linecap="round" stroke-linejoin="round"/>
  <path d="M141.382 46.107V61.36" stroke="#001928" stroke-width="3" stroke-linecap="round" stroke-linejoin="round"/>
</svg>