<svg xmlns="http://www.w3.org/2000/svg" width="240" height="200" fill="none">
  <path fill-rule="evenodd" clip-rule="evenodd" d="m49.3 27.09 6.043 7.312-4.768 7.634 9.063-3.182 6.044 7.312-.692-9.274 8.638-3.448-9.223-2.223-1.115-9.54-4.768 7.633L49.3 27.09Z" fill="#C1E7FF"/>
  <path clip-rule="evenodd" d="m49.3 27.09 6.043 7.312-4.768 7.634 9.063-3.182 6.044 7.312-.692-9.274 8.638-3.448-9.223-2.223-1.115-9.54-4.768 7.633L49.3 27.09ZM76.977 44.947l8.172.862 1.675 7.614 3.678-7.461 8.172.862-6.049-5.32 3.257-7.368-7.054 4.213-6.471-5.227 1.675 7.612-7.055 4.213Z" stroke="#0079C1" stroke-width="3" stroke-linecap="round" stroke-linejoin="round"/>
  <path d="M18.846 75c5.324-13.439 15.94-22.665 24.922-24.135 13.064-2.137 12.314 6.845 2.193 11.066-10.12 4.22-21.13 4.415-22.893-4.138-1.764-8.552 12.355-21.165 21.158-23.42" stroke="#0079C1" stroke-width="3" stroke-linecap="round" stroke-linejoin="round"/>
  <path d="M31.608 128.087c-9.47-7.266-14.647-18.914-15.536-34.945-.383-6.91.792-12.791 2.85-18.534" stroke="#73C3EB" stroke-width="3" stroke-linecap="round" stroke-linejoin="round"/>
  <path fill-rule="evenodd" clip-rule="evenodd" d="m170.032 28.256 7.39 1.745.658 7.201 4.231-6.437 7.39 1.744-4.93-5.6 3.833-6.401-6.951 3.056L176.325 18l.658 7.2-6.951 3.056Z" fill="#C1E7FF"/>
  <path clip-rule="evenodd" d="m170.032 28.256 7.39 1.745.658 7.201 4.231-6.437 7.39 1.744-4.93-5.6 3.833-6.401-6.951 3.056L176.325 18l.658 7.2-6.951 3.056Z" stroke="#0079C1" stroke-width="2.4" stroke-linecap="round" stroke-linejoin="round"/>
  <path d="M220.386 61.763c-4.937-10.504-13.882-17.365-21.128-18.09-10.54-1.053-9.483 6.11-1.187 8.984 8.295 2.872 17.095 2.47 18.067-4.475.972-6.946-10.943-16.346-18.087-17.71" stroke="#0079C1" stroke-width="2.4" stroke-linecap="round" stroke-linejoin="round"/>
  <path d="M213.313 106.345c7.188-6.305 10.729-15.906 10.622-28.805a39.127 39.127 0 0 0-3.71-16.347" stroke="#73C3EB" stroke-width="2.4" stroke-linecap="round" stroke-linejoin="round"/>
  <path fill-rule="evenodd" clip-rule="evenodd" d="M160.294 71.912c-5.104 1.044-10.368.521-15.241-1.32-7.128-2.695-19.738-4.46-33.748 7.331-11.262 9.477-30.25 18.837-30.25 18.837v.108s9.104 10.741 20.849 8.962c11.744-1.779 32.5-12.982 32.5-12.982l43.147 37.137 6.964-9.894-24.221-48.179Z" fill="#C1E7FF"/>
  <path d="m183.167 121.753-4.271 7.7" stroke="#005587" stroke-width="3" stroke-linecap="round" stroke-linejoin="round"/>
  <path d="M134.404 92.589s46.214 39.383 46.973 40.206l.092.07-.018.018c2.091 2.326 3.123 5.626 2.118 9.191-.903 3.203-3.525 5.774-6.749 6.601-3.715.953-7.183-.263-9.475-2.627l-.005.006" stroke="#0079C1" stroke-width="3" stroke-linecap="round" stroke-linejoin="round"/>
  <path fill-rule="evenodd" clip-rule="evenodd" d="m103.738 173.663-.076.055c-1.994 1.576-4.775 2.313-7.724 1.47-2.65-.756-4.727-2.833-5.334-5.341-.7-2.892.405-5.552 2.436-7.283l13.34-14.093.014.014c1.994-1.575 4.775-2.313 7.725-1.47 2.649.756 4.726 2.833 5.334 5.341.699 2.892-.404 5.553-2.437 7.283 0 0-12.571 13.452-13.278 14.024Z" fill="#C1E7FF"/>
  <path fill-rule="evenodd" clip-rule="evenodd" d="M105.226 149.59s-13.53 14.468-14.292 15.083l-.065.076-.016-.016c-2.146 1.695-5.137 2.489-8.31 1.582-2.85-.815-5.086-3.048-5.739-5.747-.752-3.111.436-5.974 2.621-7.834l-.005-.006s13.531-14.467 14.291-15.082l.066-.077.015.017c2.146-1.695 5.137-2.489 8.311-1.582 2.851.815 5.085 3.048 5.738 5.747.753 3.11-.434 5.973-2.621 7.834l.006.005ZM115.075 181.155l-.067.049c-1.759 1.389-4.212 2.041-6.814 1.297-2.338-.668-4.17-2.499-4.706-4.712-.617-2.551.357-4.899 2.149-6.424l11.769-12.435.013.014c1.759-1.391 4.212-2.041 6.813-1.298 2.338.668 4.171 2.5 4.706 4.713.617 2.551-.356 4.898-2.149 6.424 0 0-11.091 11.868-11.714 12.372Z" fill="#C1E7FF"/>
  <path fill-rule="evenodd" clip-rule="evenodd" d="M92.807 138.318s-13.976 14.943-14.762 15.579l-.067.078-.016-.017c-2.217 1.751-5.305 2.571-8.584 1.634-2.943-.84-5.252-3.149-5.926-5.936-.778-3.213.45-6.169 2.707-8.091l-.005-.006s13.974-14.942 14.76-15.578l.068-.079.016.018c2.216-1.75 5.305-2.571 8.583-1.634 2.944.841 5.252 3.147 5.927 5.935.778 3.212-.449 6.17-2.707 8.092l.006.005Z" fill="#C1E7FF"/>
  <path clip-rule="evenodd" d="m103.738 173.663-.076.055c-1.994 1.576-4.775 2.313-7.724 1.47-2.65-.756-4.727-2.833-5.334-5.341-.7-2.892.405-5.552 2.436-7.283l13.34-14.093.014.014c1.994-1.575 4.775-2.313 7.725-1.47 2.649.756 4.726 2.833 5.334 5.341.699 2.892-.404 5.553-2.437 7.283 0 0-12.571 13.452-13.278 14.024Z" stroke="#73C3EB" stroke-width="3" stroke-linecap="round" stroke-linejoin="round"/>
  <path d="M136.924 120.229s30.342 25.826 30.971 26.509l.076.057-.016.015c1.733 1.927 2.588 4.661 1.755 7.615-.748 2.654-2.983 4.574-5.591 5.468-4.288 1.472-7.534-1.927-9.6-3.876" stroke="#005587" stroke-width="3" stroke-linecap="round" stroke-linejoin="round"/>
  <path d="M136.924 140.956s16.987 14.4 17.595 15.061l.074.055-.016.015c1.675 1.862 2.501 4.505 1.697 7.359-.723 2.565-2.823 4.623-5.404 5.285-2.744.704-6.655.073-8.348-1.674l-2.939-3.251" stroke="#005587" stroke-width="3" stroke-linecap="round" stroke-linejoin="round"/>
  <path d="M133.627 158.529c3.089 2.646 5.424 4.66 5.628 4.882l.078.059-.017.016c1.772 1.969 2.646 4.764 1.794 7.782-.764 2.712-2.985 4.889-5.714 5.59-3.145.807-6.081-.223-8.023-2.225l-3.16-3.099" stroke="#001928" stroke-width="3" stroke-linecap="round" stroke-linejoin="round"/>
  <path d="m63.343 123.131 11.343 9.342M134.404 92.848s-20.757 11.203-32.5 12.982c-11.744 1.78-20.85-8.961-20.85-8.961" stroke="#005587" stroke-width="3" stroke-linecap="round" stroke-linejoin="round"/>
  <path d="M86.468 70.306s10.835-4.071 19.32-1.062c7.035 2.496 8.806 5.64 8.806 5.64" stroke="#001928" stroke-width="3" stroke-linecap="round" stroke-linejoin="round"/>
  <path d="M81.055 96.76s7.95-7.13 19.21-10.883c4.388-1.462 7.789-5.22 11.039-7.954 14.011-11.792 26.62-10.025 33.748-7.331 4.873 1.842 10.138 2.364 15.241 1.32" stroke="#73C3EB" stroke-width="3" stroke-linecap="round" stroke-linejoin="round"/>
  <path fill-rule="evenodd" clip-rule="evenodd" d="m36.774 118.94 29.91-62.53 20.746 9.925-29.911 62.529-20.745-9.924Z" fill="#fff"/>
  <path fill-rule="evenodd" clip-rule="evenodd" d="m36.733 118.298 14.207-29.7 20.746 9.923-14.207 29.701-20.746-9.924Z" fill="#C1E7FF"/>
  <path clip-rule="evenodd" d="m53.676 127.826-14.238-6.812a4.801 4.801 0 0 1-2.26-6.405l26.388-55.167a4.804 4.804 0 0 1 6.406-2.26l14.238 6.811a4.803 4.803 0 0 1 2.261 6.405l-26.389 55.167a4.803 4.803 0 0 1-6.406 2.261Z" stroke="#0079C1" stroke-width="3" stroke-linecap="round" stroke-linejoin="round"/>
  <path d="m69.972 57.182 14.238 6.812a4.801 4.801 0 0 1 2.261 6.405l-26.389 55.167" stroke="#001928" stroke-width="3" stroke-linecap="round" stroke-linejoin="round"/>
  <path fill-rule="evenodd" clip-rule="evenodd" d="m179.479 55.13 29.663 62.646-20.784 9.842-29.663-62.646 20.784-9.842Z" fill="#fff"/>
  <path fill-rule="evenodd" clip-rule="evenodd" d="m188.358 128.208-14.09-29.757 20.784-9.842 14.09 29.758-20.784 9.841Z" fill="#C1E7FF"/>
  <path clip-rule="evenodd" d="m161.922 62.643 14.266-6.755a4.803 4.803 0 0 1 6.396 2.286l26.171 55.271a4.802 4.802 0 0 1-2.285 6.396l-14.266 6.755a4.802 4.802 0 0 1-6.396-2.285l-26.171-55.272a4.803 4.803 0 0 1 2.285-6.396Z" stroke="#0079C1" stroke-width="3" stroke-linecap="round" stroke-linejoin="round"/>
  <path d="m206.47 119.841-14.266 6.755a4.802 4.802 0 0 1-6.396-2.285l-26.171-55.272" stroke="#001928" stroke-width="3" stroke-linecap="round" stroke-linejoin="round"/>
  <path fill-rule="evenodd" clip-rule="evenodd" d="M134.61 94.075a1.498 1.498 0 0 1-1.691-1.28 1.499 1.499 0 1 1 2.97-.412 1.498 1.498 0 0 1-1.279 1.692Z" fill="#001928"/>
  <path clip-rule="evenodd" d="M105.226 149.59s-13.53 14.468-14.292 15.083l-.065.076-.016-.016c-2.146 1.695-5.137 2.489-8.31 1.582-2.85-.815-5.086-3.048-5.739-5.747-.752-3.111.436-5.974 2.621-7.834l-.005-.006s13.531-14.467 14.291-15.082l.066-.077.015.017c2.146-1.695 5.137-2.489 8.311-1.582 2.851.815 5.085 3.048 5.738 5.747.753 3.11-.434 5.973-2.621 7.834l.006.005Z" stroke="#005587" stroke-width="3" stroke-linecap="round" stroke-linejoin="round"/>
  <path clip-rule="evenodd" d="m115.075 181.155-.067.049c-1.759 1.389-4.212 2.041-6.814 1.297-2.338-.668-4.17-2.499-4.706-4.712-.617-2.551.357-4.899 2.149-6.424l11.769-12.435.013.014c1.759-1.391 4.212-2.041 6.813-1.298 2.338.668 4.171 2.5 4.706 4.713.617 2.551-.356 4.898-2.149 6.424 0 0-11.091 11.868-11.714 12.372Z" stroke="#73C3EB" stroke-width="3" stroke-linecap="round" stroke-linejoin="round"/>
  <path clip-rule="evenodd" d="M92.807 138.318s-13.976 14.943-14.762 15.579l-.067.078-.016-.017c-2.217 1.751-5.305 2.571-8.584 1.634-2.943-.84-5.252-3.149-5.926-5.936-.778-3.213.45-6.169 2.707-8.091l-.005-.006s13.974-14.942 14.76-15.578l.068-.079.016.018c2.216-1.75 5.305-2.571 8.583-1.634 2.944.841 5.252 3.147 5.927 5.935.778 3.212-.449 6.17-2.707 8.092l.006.005Z" stroke="#0079C1" stroke-width="3" stroke-linecap="round" stroke-linejoin="round"/>
</svg>