<svg xmlns="http://www.w3.org/2000/svg" width="48" height="48" view-box="0 0 48 48" fill="none">
  <g clipPath="url(#clip0_8057_134332)">
    <path d="M40.7426 29.5604C40.3543 28.6905 39.6405 28.0073 38.7543 27.6577C37.8681 27.3081 36.8802 27.3198 36.0026 27.6904L31.2826 29.4304C31.1065 28.9526 30.8283 28.5188 30.4673 28.1596C30.1063 27.8003 29.6713 27.5242 29.1926 27.3504L22.6826 25.0004C22.1673 24.8097 21.6348 24.6691 21.0926 24.5804L19.6326 24.4404C18.3422 24.4394 17.0655 24.705 15.8826 25.2204L13.1526 26.4204C12.9464 26.2683 12.7211 26.1439 12.4826 26.0504C12.1545 25.9143 11.8028 25.8442 11.4476 25.8442C11.0923 25.8442 10.7406 25.9143 10.4126 26.0504L6.06256 28.0004C5.76285 28.1331 5.50848 28.3505 5.3308 28.6259C5.15312 28.9013 5.05987 29.2227 5.06256 29.5504V41.1804C5.06293 41.4686 5.13655 41.7519 5.27649 42.0038C5.41643 42.2557 5.6181 42.4679 5.86256 42.6204C6.1088 42.7726 6.39036 42.8581 6.67962 42.8686C6.96888 42.8791 7.25591 42.8143 7.51256 42.6804L15.9226 38.4304C16.5532 38.1512 17.0513 37.6387 17.3126 37.0004C17.4033 36.7629 17.4605 36.5138 17.4826 36.2604C18.4584 35.9945 19.4981 36.0978 20.4026 36.5504L23.6526 38.1604C24.6378 38.6529 25.7196 38.9217 26.8208 38.9476C27.9219 38.9736 29.0152 38.756 30.0226 38.3104L38.8926 34.3904C39.7707 34.0007 40.4585 33.2787 40.8053 32.3827C41.1521 31.4867 41.1295 30.4898 40.7426 29.6104V29.5604ZM15.0026 36.6304L7.00256 40.6304V29.6304L11.1626 27.8004C11.3357 27.7304 11.5294 27.7304 11.7026 27.8004C11.7026 27.8004 11.7026 27.8704 11.7026 27.9104L15.2426 36.3304C15.1896 36.4493 15.1069 36.5526 15.0026 36.6304ZM38.9026 31.6304C38.8256 31.8297 38.71 32.0119 38.5625 32.1663C38.4149 32.3208 38.2382 32.4445 38.0426 32.5304L29.1726 36.4504C28.434 36.7766 27.6325 36.9359 26.8253 36.9169C26.0181 36.8979 25.225 36.7011 24.5026 36.3404L21.2526 34.7304C20.5388 34.373 19.7616 34.1599 18.9654 34.1033C18.1692 34.0467 17.3697 34.1477 16.6126 34.4004L14.0026 28.1704L16.6926 27.0004C17.5831 26.6021 18.547 26.3943 19.5226 26.3904L20.8126 26.5104C21.2146 26.5818 21.6095 26.6889 21.9926 26.8304L28.5126 29.2204C28.7877 29.3223 29.0279 29.5007 29.2051 29.7346C29.3822 29.9684 29.4889 30.248 29.5126 30.5404C29.4826 30.6721 29.4826 30.8088 29.5126 30.9404C29.5019 31.0128 29.4817 31.0834 29.4526 31.1504C29.3286 31.5385 29.0558 31.8616 28.6941 32.0491C28.3324 32.2365 27.9111 32.2729 27.5226 32.1504L22.4726 30.4504C22.346 30.3978 22.2101 30.3717 22.0731 30.3739C21.9361 30.376 21.801 30.4062 21.6761 30.4627C21.5513 30.5192 21.4394 30.6008 21.3474 30.7023C21.2554 30.8039 21.1853 30.9232 21.1413 31.053C21.0974 31.1828 21.0806 31.3202 21.0919 31.4568C21.1033 31.5933 21.1426 31.7261 21.2074 31.8468C21.2723 31.9675 21.3612 32.0736 21.4687 32.1585C21.5763 32.2434 21.7001 32.3054 21.8326 32.3404L26.8626 34.0004C27.7473 34.294 28.7119 34.2279 29.5483 33.8162C30.3846 33.4046 31.0255 32.6806 31.3326 31.8004C31.3326 31.7004 31.3926 31.6104 31.4126 31.5104L36.7726 29.5104C37.0662 29.379 37.3922 29.338 37.7092 29.3926C38.0262 29.4472 38.3198 29.5949 38.5525 29.8169C38.7853 30.0389 38.9467 30.3252 39.0161 30.6393C39.0856 30.9533 39.06 31.281 38.9426 31.5804L38.9026 31.6304Z" fill="#CCE4F3"/>
    <path d="M30.0616 22L25.6916 22.73L25.9916 21.25C26.0048 21.1769 25.9988 21.1016 25.9743 21.0315C25.9497 20.9614 25.9075 20.8989 25.8516 20.85L20.8516 16.64L22.0916 15.71C22.1665 15.6559 22.2204 15.5775 22.2441 15.4882C22.2678 15.3989 22.2598 15.3041 22.2216 15.22L21.3216 13.12L23.3816 13.71C23.4798 13.7375 23.5848 13.7284 23.6768 13.6842C23.7688 13.6401 23.8416 13.5639 23.8816 13.47L24.4916 12L27.7716 15.28C27.8345 15.3434 27.9164 15.3846 28.0048 15.3972C28.0933 15.4099 28.1834 15.3933 28.2616 15.35C28.3399 15.307 28.4024 15.2402 28.4402 15.1593C28.478 15.0784 28.4889 14.9876 28.4716 14.9L27.0016 8.25996L29.1516 9.17996C29.203 9.20477 29.2594 9.21765 29.3166 9.21765C29.3737 9.21765 29.4301 9.20477 29.4816 9.17996C29.533 9.15762 29.5792 9.1247 29.6171 9.08336C29.655 9.04201 29.6838 8.99315 29.7016 8.93996L31.0016 5.45996L32.2616 8.93996C32.2798 8.99444 32.3099 9.0442 32.3497 9.08569C32.3895 9.12718 32.4379 9.15937 32.4916 9.17996C32.543 9.20477 32.5994 9.21765 32.6566 9.21765C32.7137 9.21765 32.7701 9.20477 32.8216 9.17996L34.9716 8.25996L33.4916 14.92C33.4717 15.0065 33.4804 15.0972 33.5165 15.1783C33.5525 15.2595 33.614 15.3267 33.6916 15.37C33.7712 15.4141 33.8631 15.4311 33.9533 15.4185C34.0434 15.4058 34.1271 15.3643 34.1916 15.3L37.4216 12L38.0216 13.49C38.0615 13.5839 38.1343 13.6601 38.2263 13.7042C38.3183 13.7484 38.4233 13.7575 38.5216 13.73L40.5216 13.14L39.6316 15.24C39.5933 15.3241 39.5853 15.4189 39.609 15.5082C39.6327 15.5975 39.6866 15.6759 39.7616 15.73L41.0016 16.66L36.0016 20.87C35.944 20.9176 35.9005 20.98 35.8759 21.0505C35.8512 21.121 35.8463 21.1969 35.8616 21.27L36.1516 22.75L31.8516 22H30.0616Z" stroke="#CCE4F3" stroke-width="2" stroke-linejoin="round"/>
    <path d="M30.9609 22.04V24.16" stroke="#CCE4F3" stroke-width="2" stroke-linecap="round" stroke-linejoin="round"/>
  </g>
  <defs>
    <clipPath id="clip0_8057_134332">
      <rect width="48" height="48" fill="white"/>
    </clipPath>
  </defs>
</svg>