<svg xmlns="http://www.w3.org/2000/svg" view-box="0 0 48 48" height="48" width="48" xml-space="preserve">
  <path fill="#0875BB" d="M41.69 27.49c-.39-.89-1.1-1.57-2.01-1.92-.87-.34-1.82-.33-2.72.05l-4.72 1.73a3.558 3.558 0 0 0-2.08-2.08l-6.52-2.4c-.49-.18-.99-.32-1.59-.42l-1.46-.14c-1.28.01-2.56.25-3.75.78L14.1 24.3c-.2-.16-.43-.28-.67-.38-.67-.26-1.41-.24-2.07.05l-4.35 1.91c-.61.26-1.01.87-1.01 1.54V39.1c0 .59.3 1.13.81 1.44.27.16.57.25.88.25.26 0 .53-.06.76-.18l8.42-4.25a2.674 2.674 0 0 0 1.57-2.22c.97-.27 2-.17 2.92.29l3.25 1.61c2 1 4.32 1.05 6.37.14l8.87-3.91c.89-.39 1.57-1.1 1.92-2.01s.31-1.89-.08-2.77zM16 34.55l-8 4.04V27.62l4.17-1.83c.17-.08.36-.08.54-.01l.01.01c.01.04.01.07.02.11l3.55 8.42a.76.76 0 0 1-.29.23zm23.89-5.01c-.16.4-.46.72-.86.9l-8.87 3.91c-1.5.66-3.2.62-4.67-.11l-3.25-1.61c-1.44-.72-3.09-.83-4.64-.33l-2.62-6.21 2.65-1.17c.93-.41 1.92-.61 2.84-.61l1.29.12c.4.07.79.18 1.17.32l6.53 2.4c.57.21.95.74.99 1.31-.03.13-.04.27-.02.41a.83.83 0 0 1-.06.21c-.26.77-1.15 1.22-1.93.95l-5.05-1.71a.999.999 0 0 0-1.27.63c-.18.52.1 1.09.63 1.27l5.05 1.71c.36.12.74.19 1.12.19 1.51 0 2.85-.96 3.34-2.39.03-.1.06-.19.08-.29l5.35-1.97c.4-.17.84-.19 1.24-.03s.72.46.9.86c.2.39.22.83.06 1.24z"/>
  <circle fill="#FFF" cx="30.18" cy="14.21" r="7"/>
  <path fill="#0075BE" d="M30.18 22.21c-2.05 0-4.1-.78-5.66-2.34-3.12-3.12-3.12-8.19 0-11.31 3.12-3.12 8.2-3.12 11.31 0 3.12 3.12 3.12 8.19 0 11.31a7.94 7.94 0 0 1-5.65 2.34zm-4.24-3.76a6.011 6.011 0 0 0 8.49 0 6.011 6.011 0 0 0 0-8.49 6.011 6.011 0 0 0-8.49 0c-2.34 2.35-2.34 6.15 0 8.49z"/>
  <circle fill="#0075BE" cx="27.88" cy="12.13" r="1.14"/>
  <circle transform="translate(-.017 .035)" fill="#0075BE" cx="32.48" cy="16.3" r="1.14"/>
  <path fill="#0075BE" d="M27.14 18.25c-.26 0-.51-.1-.71-.29a.996.996 0 0 1 0-1.41l6.01-6.01a.996.996 0 1 1 1.41 1.41l-6.01 6.01c-.19.19-.44.29-.7.29z"/>
</svg>