<svg xmlns="http://www.w3.org/2000/svg" width="48" height="48" view-box="0 0 48 48" fill="none">
  <path d="M41.6927 22.2487L24.6927 7.24873C24.3152 6.91709 23.7503 6.91709 23.3727 7.24873L6.37275 22.2487C6.08641 22.4794 5.94972 22.8485 6.01682 23.21C6.08392 23.5715 6.34397 23.867 6.69401 23.9796C7.04404 24.0921 7.42758 24.0034 7.69275 23.7487L11.0327 20.8287V39.0287C11.0327 39.581 11.4805 40.0287 12.0327 40.0287H36.0327C36.585 40.0287 37.0327 39.581 37.0327 39.0287V20.8287L40.3527 23.7487C40.5351 23.9095 40.7697 23.9984 41.0127 23.9987C41.4284 23.9981 41.8003 23.7405 41.947 23.3516C42.0936 22.9627 41.9845 22.5236 41.6727 22.2487H41.6927ZM35.0327 38.0287H13.0327V19.5187C13.0323 19.3912 13.0051 19.2651 12.9527 19.1487L24.0327 9.33873L35.0327 19.0587V38.0287ZM17.6727 23.1287C16.7769 23.9785 16.2695 25.159 16.2695 26.3937C16.2695 27.6285 16.7769 28.809 17.6727 29.6587L23.0327 34.8287C23.5733 35.343 24.4222 35.343 24.9627 34.8287L30.3627 29.6587C31.2552 28.809 31.7611 27.631 31.7629 26.3987C31.7722 25.1613 31.2647 23.976 30.3627 23.1287C28.6094 21.4867 25.9195 21.372 24.0327 22.8587C22.142 21.3502 19.4288 21.4654 17.6727 23.1287ZM24.0327 25.5987L25.1027 24.5987C26.2137 23.5973 27.9018 23.5973 29.0127 24.5987C29.5149 25.0729 29.7995 25.7331 29.7995 26.4237C29.7995 27.1144 29.5149 27.7746 29.0127 28.2487L24.0127 33.0087L19.0327 28.2187C18.5279 27.7461 18.2414 27.0853 18.2414 26.3937C18.2414 25.7021 18.5279 25.0414 19.0327 24.5687C19.5691 24.0541 20.2898 23.7767 21.0327 23.7987C21.7758 23.7871 22.4938 24.0671 23.0327 24.5787L24.0327 25.5987Z" fill="#CCE4F3"/>
</svg>