<svg xmlns="http://www.w3.org/2000/svg" width="48" height="48" view-box="0 0 48 48" fill="none">
  <path d="M41.6587 23.2487L24.6587 8.24873C24.2812 7.91709 23.7162 7.91709 23.3387 8.24873L6.33867 23.2487C5.92497 23.6135 5.8847 24.2443 6.24867 24.6587C6.61343 25.0724 7.24428 25.1127 7.65867 24.7487L11.0287 21.8287V39.9987C11.0287 40.551 11.4764 40.9987 12.0287 40.9987H20.0287C20.581 40.9987 21.0287 40.551 21.0287 39.9987V29.9987H27.0287V39.9987C27.0287 40.551 27.4764 40.9987 28.0287 40.9987H36.0287C36.581 40.9987 37.0287 40.551 37.0287 39.9987V21.8287L40.3387 24.7487C40.521 24.9095 40.7556 24.9984 40.9987 24.9987C41.2859 24.9984 41.5591 24.8745 41.7487 24.6587C42.1126 24.2443 42.0724 23.6135 41.6587 23.2487ZM35.0287 38.9987H29.0287V28.9987C29.0287 28.4464 28.581 27.9987 28.0287 27.9987H20.0287C19.4764 27.9987 19.0287 28.4464 19.0287 28.9987V38.9987H13.0287V20.5087C13.0276 20.3822 13.0039 20.2569 12.9587 20.1387L24.0287 10.3587L35.0287 20.0587V38.9987Z" fill="#CCE4F3"/>
</svg>