<svg xmlns="http://www.w3.org/2000/svg" height="48" width="48" viewBox="0 0 48 48" enableBackground="new 0 0 48 48" xmlSpace="preserve" role="img"><defs><filter id="prefix__a" filterUnits="userSpaceOnUse" x="5.5" y="5.5" width="37" height="37"><feColorMatrix values="1 0 0 0 0 0 1 0 0 0 0 0 1 0 0 0 0 0 1 0"/></filter></defs><mask maskUnits="userSpaceOnUse" x="5.5" y="5.5" width="37" height="37" id="prefix__b"><path d="M24 5.5C13.8 5.5 5.5 13.8 5.5 24S13.8 42.5 24 42.5 42.5 34.2 42.5 24 34.2 5.5 24 5.5zm14.7 11h-6.5c-1.4-3.2-3.3-6.2-5.7-8.8 5.2.8 9.8 4.1 12.2 8.8zM31.8 24c0 1.9-.3 3.7-.9 5.5H25v-11h5.8c.6 1.8.9 3.6 1 5.5zm-15.6 0c0-1.9.3-3.7.9-5.5H23v11h-5.8c-.6-1.8-.9-3.6-1-5.5zm1.8-7.5c1.3-2.7 3-5.3 5-7.5v7.5h-5zm5 15V39c-2-2.2-3.7-4.7-5-7.5h5zm2 0h5c-1.3 2.7-3 5.3-5 7.5v-7.5zm0-15V9c2 2.2 3.7 4.7 5 7.5h-5zm-3.5-8.8c-2.4 2.6-4.3 5.6-5.7 8.8H9.3c2.4-4.7 7-8 12.2-8.8zm-13 10.8h6.6c-1.1 3.6-1.1 7.4 0 11H8.5c-1.3-3.6-1.3-7.5 0-11zm.8 13h6.5c1.4 3.2 3.3 6.2 5.7 8.8-5.2-.8-9.8-4.1-12.2-8.8zm17.2 8.8c2.4-2.6 4.3-5.6 5.7-8.8h6.5c-2.4 4.7-7 8-12.2 8.8zm13-10.8h-6.6c1.1-3.6 1.1-7.4 0-11h6.6a16 16 0 0 1 0 11z" style="fill: #fff; filter: url(#prefix__a);"/></mask><g style="mask: url(#prefix__b);"><path d="M24 5.5C13.8 5.5 5.5 13.8 5.5 24S13.8 42.5 24 42.5 42.5 34.2 42.5 24 34.2 5.5 24 5.5zm14.7 11h-6.5c-1.4-3.2-3.3-6.2-5.7-8.8 5.2.8 9.8 4.1 12.2 8.8zM31.8 24c0 1.9-.3 3.7-.9 5.5H25v-11h5.8c.6 1.8.9 3.6 1 5.5zm-15.6 0c0-1.9.3-3.7.9-5.5H23v11h-5.8c-.6-1.8-.9-3.6-1-5.5zm1.8-7.5c1.3-2.7 3-5.3 5-7.5v7.5h-5zm5 15V39c-2-2.2-3.7-4.7-5-7.5h5zm2 0h5c-1.3 2.7-3 5.3-5 7.5v-7.5zm0-15V9c2 2.2 3.7 4.7 5 7.5h-5zm-3.5-8.8c-2.4 2.6-4.3 5.6-5.7 8.8H9.3c2.4-4.7 7-8 12.2-8.8zm-13 10.8h6.6c-1.1 3.6-1.1 7.4 0 11H8.5c-1.3-3.6-1.3-7.5 0-11zm.8 13h6.5c1.4 3.2 3.3 6.2 5.7 8.8-5.2-.8-9.8-4.1-12.2-8.8zm17.2 8.8c2.4-2.6 4.3-5.6 5.7-8.8h6.5c-2.4 4.7-7 8-12.2 8.8zm13-10.8h-6.6c1.1-3.6 1.1-7.4 0-11h6.6a16 16 0 0 1 0 11z" style="fill: #0075be;"/></g></svg>