<svg xmlns="http://www.w3.org/2000/svg" width="48" height="48" view-box="0 0 48 48" fill="none">
  <path d="M20.38 13C20.9323 13 21.38 13.4477 21.38 14V14.88C22.776 15.1722 23.8016 16.3659 23.88 17.79C23.88 18.3423 23.4323 18.79 22.88 18.79C22.3277 18.79 21.88 18.3423 21.88 17.79C21.88 17.27 21.19 16.79 20.38 16.79C19.57 16.79 18.88 17.18 18.88 17.79C18.88 18.4 19.7 18.73 20.47 18.84H20.6C22.62 19.11 23.88 20.27 23.88 21.84C23.805 23.2655 22.7779 24.461 21.38 24.75V25.75C21.38 26.3023 20.9323 26.75 20.38 26.75C19.8277 26.75 19.38 26.3023 19.38 25.75V24.75C17.9821 24.461 16.955 23.2655 16.88 21.84C16.88 21.2877 17.3277 20.84 17.88 20.84C18.4323 20.84 18.88 21.2877 18.88 21.84C18.88 22.41 19.57 22.89 20.38 22.89C21.2 22.89 21.88 22.44 21.88 21.84C21.88 21.24 21.06 20.9 20.3 20.79H20.17C18.15 20.53 16.88 19.37 16.88 17.79C16.9584 16.3659 17.984 15.1722 19.38 14.88V14C19.38 13.4477 19.8277 13 20.38 13ZM36 24C36.5523 24 37 24.4477 37 25C37 25.5523 36.5523 26 36 26H27C26.4477 26 26 25.5523 26 25C26 24.4477 26.4477 24 27 24H36ZM36 19.5C36.5523 19.5 37 19.9477 37 20.5C37 21.0523 36.5523 21.5 36 21.5H27C26.4477 21.5 26 21.0523 26 20.5C26 19.9477 26.4477 19.5 27 19.5H36ZM36 15C36.5523 15 37 15.4477 37 16C37 16.5523 36.5523 17 36 17H27C26.4477 17 26 16.5523 26 16C26 15.4477 26.4477 15 27 15H36ZM39 5H14.68C13.5754 5 12.68 5.89543 12.68 7V31.25H8C7.44772 31.25 7 31.6977 7 32.25V36C7.11359 39.2655 9.7345 41.8864 13 42H34.52C37.9631 42.124 40.8591 39.4424 41 36V7C41 5.89543 40.1046 5 39 5ZM39 36C38.8604 38.3383 36.8591 40.1251 34.52 40H33.74L33.8 39.82C32.1437 39.2794 31.017 37.7422 31 36V32.25C31 31.6977 30.5523 31.25 30 31.25H14.68V7H39V36ZM13.48 40C11.1409 40.1251 9.13962 38.3383 9 36V33.25H29V36C29.0061 37.4788 29.5581 38.9032 30.55 40H13.48Z" fill="#CCE4F3"/>
</svg>