<svg xmlns="http://www.w3.org/2000/svg" id="prefix__Layer_1" x="0" y="0" height="48" width="48" view-box="0 0 48 48" enable-background="new 0 0 48 48" xml-space="preserve" role="img">
  <style>
    .prefix__st4,
    .prefix__st5 {
      fill: none;
      stroke: #73c3eb;
      stroke-width: 2;
      stroke-linecap: round;
      stroke-linejoin: round;
    }
    .prefix__st5 {
      stroke: #0079c1;
    }
  </style>
  <path d="m11.7 35.2 1.6 3.4 3.4 2.4 4.4 1 4.4.4 4.2-.8 3.4-1.6 2.2-2.2 1-3.8v-6.9l-2-6.5-3.5-4.6-3.4-2 .8-1 1-2.6L31.6 8l.8-.8-1.6-.8-2.6.4-2.6 1.6-.8-1.6-1-1.2-.8.3-.8 2-3-1.2-2.4.4V8l2.4 1.8.8 2.6.6.6 2 1-3 .8-3.8 3-2.4 3.6-1.6 4.8V31l-.1 4.2z" style="fill-rule: evenodd; clip-rule: evenodd; fill: #fff"/>
  <path d="M31.7 26.6C33 39 25.9 41 25.9 41.5s3.9 0 4.2-.3c.1-.1 1.8-.3 3.1-1.6 1.2-1.2 1-.9 1.6-1.8.1-.1 1.2-1.9 1.4-2.3.5-2.1.3-2.6.3-3.4 0-.8.2-3-.5-6.5-.5-2.6-1.4-5.5-3-7.3-1.6-1.8-3.8-3.4-5.2-3.6-4-.6-5.2-.6-3.8 0 3.9 1.2 6.4 5.2 7.7 11.9z" style="fill-rule: evenodd; clip-rule: evenodd; fill: #b8e5fe"/>
  <path d="M11.5 33.1c.1 2.5 1.6 9.2 12.6 9.2 2 0 3.8-.2 5.5-.5" style="         fill: none;         stroke: #005587;         stroke-width: 2,         stroke-linecap: round;         stroke-linejoin: round;       "/>
  <path d="M24 22.3v-1.1" style="         fill: none;         stroke: #0079c1;         stroke-width: 1.6,         stroke-linecap: round;         stroke-linejoin: round;       "/>
  <path class="prefix__st4" d="M24 33.1v-1.6M20.7 29.2c.7 1.2 1.7 1.7 3.1 1.7 2.3 0 2.9-1.1 2.9-2 0-.4-.2-1-.5-1.2"/>
  <path class="prefix__st5" d="M26.2 27.7c-.6-.6-1.5-.8-2.5-.8-1.4 0-3 0-3-1.8s1.9-2.3 3-2.3 2.5.5 3 1.5"/>
  <path class="prefix__st4" d="M11.5 32.5c-.7-12.9 6.7-17.3 8.7-17.8 1.1-.4 2.3-.6 3.8-.5"/>
  <path d="M29.2 41.7c4.9-1.1 7.3-4.1 7.3-9 .7-13.2-6.6-17.4-8.7-18-1.1-.4-2.3-.6-3.8-.5" style="         fill: none;         stroke: #001928;         stroke-width: 2,         stroke-linecap: round;         stroke-linejoin: round;       "/>
  <path class="prefix__st5" d="M23.8 6.1c1.4.8.9 3.4 2.3 2.6 2-2.6 8.6-1.9 5.2 0-3.4 1.9-2.2 5-3.9 5.2-1.1.2-2.1.3-3.1.3M23.2 6.1c-1.6 1-.5 3.5-1.3 2.6-1-1.6-7.9-1.9-4.7 0s2.2 5 3.7 5.2c1 .2 2 .3 3.1.3"/>
  <path d="M26.3 28.5c-.4.1-.8-.2-.9-.7-.1-.4.2-.8.7-.9.4-.1.8.2.9.7.1.4-.2.8-.7.9z" style="fill-rule: evenodd; clip-rule: evenodd; fill: #001928"/>
</svg>