<svg xmlns="http://www.w3.org/2000/svg" version="1.1" id="Layer_1" x="0" y="0" height="48" width="48" view-box="0 0 48 48" enable-background="new 0 0 48 48" xml-space="preserve">
  <path style="fill: #0875bb" d="M10.7 27.5h-.1c-.5-.1-.9-.5-.9-1.1C11 14.2 17.8 4.3 24.9 4.3s13.9 9.9 15.1 22c.1.5-.3 1-.9 1.1-.6.1-1-.3-1.1-.9-1.1-11-7.2-20.2-13.2-20.2-6 0-12 9.3-13.2 20.3 0 .5-.4.9-.9.9z"/>
  <path style="fill: #0875bb" d="M24.3 33.9c-10.4 0-18.2-3.5-18.2-8.1 0-2.1 1.7-4.1 4.9-5.6l.8 1.8c-2.4 1.1-3.7 2.5-3.7 3.8 0 2.9 6.6 6.1 16.2 6.1s16.2-3.2 16.2-6.1c0-1.1-.9-2.2-2.6-3.2l1-1.7c3 1.7 3.6 3.6 3.6 4.9 0 4.6-7.8 8.1-18.2 8.1z"/>
  <path style="fill: #0875bb" d="M24.3 37.5c-.6 0-1-.4-1-1s.4-1 1-1c8.7 0 14.7-2.6 15.9-5.1.2-.5.8-.7 1.3-.5.5.2.7.8.5 1.3-1.8 3.7-9.1 6.3-17.7 6.3z"/>
  <path style="fill: #0875bb" d="M24.6 42.2c-10.1 0-17.9-7.6-17.9-14.1 0-2.5 1.1-4.8 3.1-6.8.4-.4 1-.4 1.4 0 .4.4.4 1 0 1.4-1.6 1.6-2.5 3.5-2.5 5.4 0 5.5 7.1 12.1 15.9 12.1s15.9-6.6 15.9-12.1v-.5c0-.6.4-1 .9-1.1.5 0 1 .4 1.1.9v.6c0 6.6-7.8 14.2-17.9 14.2z"/>
  <path style="fill: #0875bb" d="M24.9 30.2c-5.7 0-11-1.1-14.6-2.9-.5-.3-.7-.9-.4-1.3.3-.5.9-.7 1.3-.4 3.3 1.7 8.3 2.7 13.7 2.7 5.1 0 9.9-.9 13.2-2.4.5-.2 1.1 0 1.3.5.2.5 0 1.1-.5 1.3-3.5 1.6-8.7 2.5-14 2.5z"/>
  <path style="fill: #0776ba" d="M24.3 24.5c-2.5 0-4.5-1.6-4.5-3.6 0-.6.4-1 1-1s1 .4 1 1c0 .9 1.1 1.6 2.5 1.6s2.5-.7 2.5-1.6c0-1-1.4-1.5-2.5-1.6h-.2c-2.6-.3-4.3-1.7-4.3-3.6 0-2 2-3.6 4.5-3.6s4.5 1.6 4.5 3.6c0 .6-.4 1-1 1s-1-.4-1-1c0-.9-1.1-1.6-2.5-1.6s-2.5.7-2.5 1.6c0 1 1.4 1.5 2.5 1.6h.2c2.6.3 4.3 1.7 4.3 3.6 0 2.1-2 3.6-4.5 3.6z"/>
  <path style="fill: #0776ba" d="M24.3 26.9c-.6 0-1-.4-1-1v-1.6c0-.6.4-1 1-1s1 .4 1 1v1.6c0 .5-.4 1-1 1zM24.3 13.4c-.6 0-1-.4-1-1v-1.6c0-.6.4-1 1-1s1 .4 1 1v1.6c0 .5-.4 1-1 1z"/>
</svg>