<svg xmlns="http://www.w3.org/2000/svg" id="prefix__Layer_1" x="0" y="0" height="48" width="48" view-box="0 0 48 48" enable-background="new 0 0 48 48" xml-space="preserve" role="img">
  <style>
    .prefix__st0 {
      fill: #0075be;
    }
  </style>
  <path class="prefix__st0" d="M24 44c-.6 0-1-.4-1-1V5c0-.6.4-1 1-1s1 .4 1 1v38c0 .6-.4 1-1 1z"/>
  <path class="prefix__st0" d="M24 44h-.3C3.9 37.8 6.5 13.4 6.5 13.2c.1-.4.4-.8.8-.9 8.4-1.4 15.9-8 16-8.1.4-.3 1-.3 1.3 0 .1.1 7.6 6.7 16 8.1.4.1.8.4.8.9 0 .2 2.6 24.6-17.2 30.8H24zM8.4 14.1c-.1 1.8-.2 6.5 1.1 11.6 2.2 8.4 7 13.8 14.5 16.3 16.1-5.2 15.8-23.9 15.6-27.8C32.3 12.7 26 8 24 6.3c-2 1.7-8.3 6.4-15.6 7.8z"/>
</svg>