<svg xmlns="http://www.w3.org/2000/svg" id="prefix__Layer_1" x="0" y="0" height="48" width="48" view-box="0 0 48 48" enable-background="new 0 0 48 48" xml-space="preserve" role="img">
  <style>
    .prefix__st0 {
      fill: #0075be;
    }
  </style>
  <path class="prefix__st0" d="M38.2 43H9.8c-.6 0-1-.4-1-1V6c0-.6.4-1 1-1H29c.6 0 1 .4 1 1v7.5h8.1c.6 0 1 .4 1 1V42c.1.6-.4 1-.9 1zm-27.4-2h26.3V15.5H29c-.6 0-1-.4-1-1V7H10.8v34z"/>
  <path class="prefix__st0" d="M38.2 15.5c-.2 0-.5-.1-.7-.3l-9.1-8.5c-.4-.4-.4-1-.1-1.4.4-.4 1-.4 1.4-.1l9.1 8.5c.4.4.4 1 .1 1.4-.2.3-.5.4-.7.4zM22.4 24.7c-2.3 0-4.2-1.9-4.2-4.2 0-2.3 1.9-4.2 4.2-4.2s4.2 1.9 4.2 4.2c0 2.3-1.9 4.2-4.2 4.2zm0-6.4c-1.2 0-2.2 1-2.2 2.2 0 1.2 1 2.2 2.2 2.2s2.2-1 2.2-2.2c0-1.2-1-2.2-2.2-2.2z"/>
  <path class="prefix__st0" d="M16 31.1c-.6-.1-1-.5-1-1.1.4-4.2 3.6-7.4 7.4-7.4 1.9 0 3.7.8 5 2.2.4.4.4 1 0 1.4s-1 .4-1.4 0c-1-1-2.3-1.6-3.6-1.6-2.8 0-5.1 2.4-5.4 5.5 0 .6-.4 1-1 1zM33.5 30.7c-.6 0-1-.4-1-1v-1.8h-1.6c-.6 0-1-.4-1-1s.4-1 1-1h2.6c.6 0 1 .4 1 1v2.8c0 .5-.5 1-1 1z"/>
  <path class="prefix__st0" d="M17.7 35.2c-.3 0-.5-.1-.7-.3-.4-.4-.4-1 0-1.4l5.3-5.4c.3-.3.6-.4 1-.4s.8.2 1 .4l3.2 3.2 4.9-4.9c.4-.4 1-.4 1.4 0s.4 1 0 1.4l-5.3 5.3c-.5.5-1.5.5-2.1 0l-3-3.1-4.9 5c-.3.1-.5.2-.8.2z"/>
</svg>