<svg xmlns="http://www.w3.org/2000/svg" id="prefix__Layer_1" height="48" width="48" view-box="0 0 48 48" enable-background="new 0 0 48 48" xml-space="preserve" role="img">
  <style>
    .prefix__st0 {
      fill: none;
      stroke: #0075be;
      stroke-width: 2;
      stroke-linecap: round;
      stroke-linejoin: round;
      stroke-miterlimit: 10;
    }
  </style>
  <path class="prefix__st0" d="M38.2 41 24 34.7 9.8 41V9.5c0-1.4 1.1-2.5 2.5-2.5h23.4c1.4 0 2.5 1.1 2.5 2.5V41z"/>
  <path class="prefix__st0" d="m24.9 13.5 2.1 4.2 4.6.7c.8.1 1.1 1.1.5 1.6l-3.3 3.3.8 4.6c.1.8-.7 1.4-1.4 1L24 26.7l-4.1 2.2c-.7.4-1.5-.2-1.4-1l.8-4.6-3.4-3.3c-.6-.6-.3-1.5.5-1.6l4.6-.7 2.1-4.2c.4-.7 1.4-.7 1.8 0z"/>
</svg>