<svg xmlns="http://www.w3.org/2000/svg" width="48" height="48" view-box="0 0 48 48" fill="none">
  <path d="M24.88 5C27.94 5 30.19 5.79 31.55 7.33C32.5063 8.43799 33.0066 9.8675 32.95 11.33V15.48C33.397 15.9208 33.6491 16.5222 33.65 17.15V19.94C33.6552 20.7143 33.2819 21.4424 32.65 21.89C32.6 22.1 32.54 22.3 32.48 22.5L32.42 22.69C32.35 22.91 32.28 23.13 32.2 23.34L32.11 23.56L32.05 23.71L32 23.84L31.91 24.06L31.86 24.15C31.78 24.34 31.68 24.54 31.58 24.73C31.4 25.09 31.22 25.41 31.05 25.73L30.8 26.13L30.73 26.23C30.6633 26.3367 30.5789 26.4611 30.4944 26.5796L30.37 26.75C30.3208 26.8231 30.2674 26.8932 30.21 26.96L30.14 27.06V29.5C30.1255 30.3356 30.5816 31.1086 31.32 31.5L37.6 34.9C39.5139 35.9196 40.71 37.9114 40.71 40.08V41.64C40.6778 42.1805 40.2212 42.5972 39.68 42.58C39.1277 42.58 38.68 42.1323 38.68 41.58V40.02C38.6775 38.5871 37.8855 37.2721 36.62 36.6L30.34 33.2C28.9676 32.4661 28.1105 31.0363 28.11 29.48V26.68C28.1072 26.4429 28.1887 26.2125 28.34 26.03L28.48 25.87L28.69 25.59C28.79 25.45 28.91 25.28 29.04 25.08L29.11 24.98C29.1504 24.8997 29.1973 24.8228 29.25 24.75C29.41 24.47 29.57 24.19 29.73 23.89L30.09 23.11V23.01L30.22 22.68C30.29 22.5 30.35 22.32 30.41 22.14V22.01C30.48 21.78 30.54 21.58 30.59 21.37L30.66 21.09C30.7169 20.8351 30.8712 20.6126 31.09 20.47L31.33 20.32C31.445 20.2491 31.5164 20.125 31.52 19.99V17.16C31.52 17.0498 31.4681 16.9461 31.38 16.88L31.15 16.67C30.9405 16.4809 30.8207 16.2122 30.82 15.93V11.34C30.8096 11.267 30.8096 11.193 30.82 11.12C30.827 10.2152 30.5074 9.33822 29.92 8.65C28.92 7.56 27.22 7 24.75 7H23.8C21.33 7 19.59 7.56 18.63 8.65C18.0442 9.3431 17.7251 10.2225 17.73 11.13C17.7398 11.1997 17.7398 11.2703 17.73 11.34V15.93C17.7293 16.2122 17.6095 16.4809 17.4 16.67L17.17 16.88C17.0819 16.9461 17.03 17.0498 17.03 17.16V19.95C17.0336 20.085 17.105 20.2091 17.22 20.28L17.46 20.43C17.6788 20.5726 17.8331 20.7951 17.89 21.05L17.96 21.33C18.01 21.54 18.07 21.74 18.13 21.95V22.1C18.19 22.28 18.25 22.46 18.32 22.63L18.39 22.82L18.45 22.97V23.07L18.53 23.24L18.81 23.85C18.97 24.15 19.13 24.43 19.27 24.68L19.49 25.02C19.595 25.185 19.6887 25.3219 19.7712 25.4391L19.85 25.55L20.06 25.83L20.21 26.02C20.3627 26.1985 20.4477 26.4251 20.45 26.66V29.47C20.4773 31.0045 19.6693 32.4329 18.34 33.2L12.06 36.6C10.7945 37.2721 10.0025 38.5871 10 40.02V41.58C10 42.1323 9.55228 42.58 9 42.58C8.44772 42.58 8 42.1323 8 41.58V40.02C8 37.8514 9.19609 35.8596 11.11 34.84L17.39 31.44C18.1284 31.0486 18.5845 30.2756 18.57 29.44V27.04L18.5 26.94L18.4169 26.8373L18.34 26.73C18.22 26.57 18.08 26.37 17.92 26.13L17.68 25.73C17.49 25.42 17.31 25.1 17.13 24.73C16.95 24.36 16.93 24.33 16.84 24.12V24.03L16.75 23.83V23.62L16.63 23.32C16.55 23.12 16.48 22.9 16.41 22.68V22.55C16.33 22.3 16.27 22.09 16.22 21.88C15.5881 21.4324 15.2148 20.7043 15.22 19.93V17.16C15.2226 16.5296 15.4742 15.9258 15.92 15.48V11.34C15.8634 9.8775 16.3637 8.44799 17.32 7.34C18.49 5.79 20.74 5 23.8 5H24.88ZM19.72 38.21C20.2723 38.21 20.72 38.6577 20.72 39.21C20.72 39.7623 20.2723 40.21 19.72 40.21H14.89C14.3377 40.21 13.89 39.7623 13.89 39.21C13.89 38.6577 14.3377 38.21 14.89 38.21H19.72Z" fill="#CCE4F3"/>
</svg>