<svg xmlns="http://www.w3.org/2000/svg" width="48" height="48" view-box="0 0 48 48" fill="none">
  <path d="M36.7218 11.2645C30.6456 5.19576 21.1285 4.2647 13.9913 9.04072C6.8541 13.8167 4.08483 22.9695 7.37719 30.9011C10.6696 38.8327 19.1065 43.3338 27.5279 41.6516C35.9493 39.9693 42.0094 32.5722 42.0019 23.9845C42.0109 19.2095 40.1097 14.6293 36.7218 11.2645ZM16.9118 28.2645H18.9118C19.3191 30.5754 21.3253 32.2613 23.6718 32.2645H24.2818C26.6284 32.2613 28.6346 30.5754 29.0418 28.2645H31.0418C30.4718 31.734 27.4729 34.2803 23.9568 34.2803C20.4407 34.2803 17.4419 31.734 16.8718 28.2645H16.9118ZM20.8618 27.4845V17.7445C20.8618 16.1815 22.1289 14.9145 23.6918 14.9145H24.3018C25.8664 14.9145 27.1363 16.1799 27.1418 17.7445V27.4545C27.1363 29.019 25.8664 30.2845 24.3018 30.2845H23.6918C22.9413 30.2845 22.2215 29.9863 21.6907 29.4556C21.16 28.9248 20.8618 28.205 20.8618 27.4545V27.4845ZM35.3118 35.3344C32.5591 38.0926 28.8914 39.7468 25.0018 39.9845V36.1845C29.6582 35.6702 33.1845 31.7391 33.1918 27.0545V22.8245C33.1918 22.2722 32.7441 21.8245 32.1918 21.8245C31.6396 21.8245 31.1918 22.2722 31.1918 22.8245V26.2345H29.1418V17.7445C29.1363 15.0753 26.971 12.9144 24.3018 12.9145H23.6918C21.0243 12.9145 18.8618 15.0769 18.8618 17.7445V26.2345H16.8018V22.7245C16.8018 22.1722 16.3541 21.7245 15.8018 21.7245C15.2496 21.7245 14.8018 22.1722 14.8018 22.7245V27.0545C14.8097 31.7425 18.3415 35.6749 23.0018 36.1845V39.9845C15.4767 39.5037 9.30852 33.8341 8.19677 26.376C7.08503 18.9179 11.3315 11.6958 18.3893 9.04124C25.4471 6.38668 33.4004 9.02021 37.4792 15.3624C41.5579 21.7045 40.655 30.0337 35.3118 35.3545V35.3344Z" fill="#CCE4F3"/>
</svg>