<svg xmlns="http://www.w3.org/2000/svg" view-box="0 0 48 48" height="48" width="48">
  <path fill="#0075be" d="M25.82 13.25a4 4 0 0 0 1.41 1 4.08 4.08 0 0 0 1.65.35 4.29 4.29 0 0 0 3.9-2.6 4.35 4.35 0 0 0 .34-1.62 3.86 3.86 0 0 0-.32-1.61 4.68 4.68 0 0 0-.87-1.34 4.22 4.22 0 0 0-1.39-1 4.4 4.4 0 0 0-1.69-.34 4.47 4.47 0 0 0-1.56.31 4.22 4.22 0 0 0-1.35.87 4.19 4.19 0 0 0-1.3 3.07 4.27 4.27 0 0 0 1.18 2.92Zm.82-2.95a1.94 1.94 0 0 1 .18-.87 2.1 2.1 0 0 1 .49-.71 2.12 2.12 0 0 1 .69-.47 2.33 2.33 0 0 1 .84-.17 2.2 2.2 0 0 1 .85.18 2.1 2.1 0 0 1 .71.49 2.77 2.77 0 0 1 .6.75 2 2 0 0 1 .16.81 2.28 2.28 0 0 1-1.41 2.08 2.06 2.06 0 0 1-1.7 0 2.3 2.3 0 0 1-.74-.5 2.4 2.4 0 0 1-.47-.73 2.34 2.34 0 0 1-.16-.85ZM30.72 33.67a1 1 0 0 0-1.34.45A10.41 10.41 0 1 1 12 22.88a1 1 0 0 0-1.54-1.28A12.41 12.41 0 1 0 31.17 35a1 1 0 0 0-.45-1.33Z"/>
  <path fill="#0075be" d="m40.06 35.61-5.4-9.37a3.16 3.16 0 0 0-1.23-1.38 3.29 3.29 0 0 0-1.8-.51H27l1.32-3.57.57-1.49a1.28 1.28 0 0 0 .09-.22.65.65 0 0 0 0-.13v-.09A3.61 3.61 0 0 0 29 16.6a3.56 3.56 0 0 0-1.49-1.81h-.06l-.09-.07-1.19-.57-7-3.83A2.11 2.11 0 0 0 18 10a2.59 2.59 0 0 0-1.91.73l-4.21 3.87a2.36 2.36 0 0 0-.67 1 2.48 2.48 0 0 0 .08 2 2.34 2.34 0 0 0 1.46 1.26 2.47 2.47 0 0 0 1.55 0 3 3 0 0 0 1.13-.71l2.72-2.48 3.54 1.82-2.85 8.13v.12a3.79 3.79 0 0 0 .54 3.26 4.22 4.22 0 0 0 3.05 1.39h8.3L35.09 38a2.79 2.79 0 0 0 4.46.83 2.62 2.62 0 0 0 .82-1.92 2.78 2.78 0 0 0-.31-1.3Zm-1.9 1.74a.89.89 0 0 1-1 .1 1 1 0 0 1-.33-.42l-4.69-8.16a1 1 0 0 0-.86-.51l-8.85.05a2.26 2.26 0 0 1-1.52-.64 1.93 1.93 0 0 1-.2-1.58l3.11-8.9a1 1 0 0 0-.47-1.22l-4.94-2.53a1 1 0 0 0-1.17.19l-3.24 3a1 1 0 0 1-.38.25.45.45 0 0 1-.3 0 .36.36 0 0 1-.26-.23.51.51 0 0 1 0-.47.47.47 0 0 1 .13-.18l4-3.62.29-.3A.65.65 0 0 1 18 12a.46.46 0 0 1 .18.07l7 3.87 1.2.57a1.64 1.64 0 0 1 .68.82 1.66 1.66 0 0 1 0 1.06 1 1 0 0 0-.05.16L24.65 25a1 1 0 0 0 .59 1.29 1 1 0 0 0 .35.06h6a1.32 1.32 0 0 1 1.26.81l5.41 9.4a.68.68 0 0 1-.14.79ZM13.81 25.94a1 1 0 0 0-1.29.6 8.93 8.93 0 0 0-.54 3 8.7 8.7 0 0 0 .94 4 1 1 0 0 0 .89.56 1.06 1.06 0 0 0 .45-.11 1 1 0 0 0 .44-1.34 6.88 6.88 0 0 1-.7-3.07 6.69 6.69 0 0 1 .42-2.35 1 1 0 0 0-.61-1.29Z"/>
  <path fill="none" d="M0 0h48v48H0z"/>
</svg>