<svg xmlns="http://www.w3.org/2000/svg" width="48" height="48" viewBox="0 0 48 48" fill="none">
<rect x="27" y="26" width="14" height="14" rx="2" stroke="#0079C1" stroke-width="2"/>
<path d="M34 30V36" stroke="#0079C1" stroke-width="2" stroke-linecap="round"/>
<path d="M37 33L31 33" stroke="#0079C1" stroke-width="2" stroke-linecap="round"/>
<path d="M24 37H11C10.4477 37 10 36.5523 10 36V16.9538C10 16.6654 10.1245 16.3911 10.3415 16.2012L21.3415 6.57619C21.7185 6.24629 22.2815 6.24629 22.6585 6.57619L34 16.5" stroke="#0079C1" stroke-width="2" stroke-linecap="round"/>
<path d="M34 16.5V22" stroke="#0079C1" stroke-width="2" stroke-linecap="round"/>
<path d="M22 6L6 20" stroke="#0079C1" stroke-width="2" stroke-linecap="round"/>
<path d="M22 6L38 20" stroke="#0079C1" stroke-width="2" stroke-linecap="round"/>
<path d="M22.8054 18.0778C25.534 18.4128 27.8126 20.3215 28.6264 22.9539C28.7134 23.2354 28.5855 23.7455 28.1215 23.8625C27.5286 24.0121 27.1563 23.8625 26.7951 23.0078C26.0688 21.2894 24.4756 20.0532 22.5959 19.8278C22.1139 19.7698 21.77 19.3311 21.8279 18.8478C21.8857 18.3646 22.3234 18.0198 22.8054 18.0778ZM19.6807 18.0253C20.1628 18.0253 20.5536 18.4171 20.5536 18.9003V22.7241C20.5536 23.2073 20.1628 23.5991 19.6807 23.5991C19.1987 23.5991 18.8079 23.2073 18.8079 22.7241V20.8516C17.1263 22.1453 16.3884 24.3277 16.9389 26.3799C17.4893 28.432 19.2195 29.9491 21.3216 30.2228C21.8037 30.2542 22.169 30.6715 22.1377 31.1547C22.1064 31.638 21.6902 32.0042 21.2082 31.9728H21.1034C17.6113 31.5318 14.9925 28.5539 14.9937 25.0253C14.9838 23.0139 15.8471 21.0976 17.3591 19.7753H15.8666C15.3845 19.7753 14.9937 19.3836 14.9937 18.9003C14.9937 18.4171 15.3845 18.0253 15.8666 18.0253H19.6807Z" fill="#0075BE"/>
</svg>