<svg xmlns="http://www.w3.org/2000/svg" id="prefix__Layer_1" x="0" y="0" height="48" width="48" view-box="0 0 48 48" enable-background="new 0 0 48 48" xml-space="preserve" role="img">
  <style>
    .prefix__st1,
    .prefix__st4 {
      stroke-width: 2;
      stroke-linecap: round;
      stroke-miterlimit: 10;
    }
    .prefix__st1 {
      fill: #fff;
      stroke: #0075be;
      stroke-linejoin: round;
    }
    .prefix__st4 {
      fill: none;
      stroke: #0175ba;
    }
  </style>
  <path style="opacity: 0.1; fill: none" d="M0 0h48v48H0z"/>
  <path class="prefix__st1" d="m23.1 30.4 5 1.7c.3.1.5.1.8.1 1.1 0 2-.7 2.4-1.7.4-1.3-.2-2.7-1.5-3.2L23.3 25c-.4-.2-.9-.3-1.3-.4l-1.4-.1c-1.1 0-2.3.2-3.3.7l-3.4 1.5c-.2-.3-.5-.5-.8-.6-.4-.2-.9-.2-1.3 0L7.4 28c-.2.1-.4.3-.4.6v11.7c0 .2.1.5.3.6.1 0 .3.1.4.1.1 0 .2 0 .3-.1l8.5-4.3c.4-.2.7-.5.9-.9.1-.3.2-.7.1-1.1h.1c1.4-.6 3-.6 4.4.1l3.2 1.6c1.7.9 3.7.9 5.5.1l8.9-3.9c.6-.3 1.1-.8 1.4-1.5.3-.7.2-1.4 0-2-.3-.6-.8-1.1-1.5-1.4-.7-.3-1.4-.2-2 0 0 0 0 0 0 0l-5.9 2.2M13.2 26.9l3.8 9"/>
  <circle cx="32.7" cy="14.9" r="7.9" style="       fill: #fff;       stroke: #0175ba;       stroke-width: 2;       stroke-linecap: round;       stroke-linejoin: round;       stroke-miterlimit: 10;     "/>
  <path class="prefix__st4" d="M34.3 12.3c-.4-.3-1-.6-1.6-.6-1.2 0-2.1.7-2.1 1.6 0 .8.8 1.4 2.1 1.6h.1c1.3.2 2.1.8 2.1 1.6 0 .9-1 1.6-2.1 1.6-.7 0-1.3-.2-1.6-.6M32.8 18.5v.7M32.8 10.7v.5"/>
</svg>