<svg xmlns="http://www.w3.org/2000/svg" id="prefix__Layer_1" x="0" y="0" height="48" width="48" view-box="0 0 48 48" enable-background="new 0 0 48 48" xml-space="preserve">
  <style>
    .prefix__st0 {
      fill: none;
      stroke: #0175ba;
      stroke-width: 2;
      stroke-linecap: round;
      stroke-linejoin: round;
    }
  </style>
  <path class="prefix__st0" d="M7 37.5v-1.4c0-1.6.9-3 2.2-3.7l5.4-2.9c.9-.5 1.5-1.4 1.5-2.5v-2.4h0l-.1-.1h0l-.1-.1h0l-.1-.1h0c-.1-.1-.2-.3-.3-.5h0c-.1-.1-.1-.2-.2-.3h0c-.1-.2-.3-.5-.4-.8h0c-.1-.1-.2-.3-.2-.5h0v-.1h0c0-.1-.1-.2-.1-.2v-.1l-.1-.2c-.1-.2-.1-.3-.2-.5V21h0c-.1-.2-.1-.4-.2-.6v-.2l-.2-.2c-.3-.2-.6-.6-.6-1v-2.4c0-.3.1-.7.4-.9l.2-.2v-4h0c0-1.1.3-2.1 1-2.9 1-1.1 2.7-1.7 5.1-1.7h1c2.4 0 4.1.6 5.1 1.7.7.8 1 1.8 1 2.9h0v4l.2.2c.3.2.4.5.4.9V19c0 .4-.2.8-.6 1l-.2.1v.2c0 .2-.1.4-.2.6h0v.1c-.1.2-.1.4-.2.5 0 .1-.1.2-.1.2v.1c0 .1-.1.2-.1.2h0v.1h0c-.1.2-.1.3-.2.5h0c-.1.3-.3.5-.4.8h0c-.1.1-.1.2-.2.3h0c-.1.2-.2.4-.3.5h0l-.1.1h0l-.1.2h0l-.1.1h0V27c0 1 .6 2 1.5 2.5l.7.7M40 35.2v4M38 37.2h4"/>
  <circle class="prefix__st0" cx="27.1" cy="38.2" r="1.9"/>
  <path class="prefix__st0" d="M25.2 38.2c0-2 1.1-3.8 2.9-4.7M33.5 33.5h0c1.1 0 2 .9 2 2v2.6c0 1.1-.9 2-2 2h0c-1.1 0-2-.9-2-2v-2.6c0-1.1.9-2 2-2z"/>
</svg>