<svg xmlns="http://www.w3.org/2000/svg" view-box="0 0 48 48" height="48" width="48" xml-space="preserve">
  <g fill="#0875BB">
    <path d="M24 43.71c-2.1 0-3.81-1.71-3.81-3.81s1.71-3.81 3.81-3.81 3.81 1.71 3.81 3.81-1.71 3.81-3.81 3.81zm0-5.62a1.81 1.81 0 1 0 0 3.62 1.81 1.81 0 0 0 0-3.62zM8.83 35.57c-2.1 0-3.81-1.71-3.81-3.81s1.71-3.81 3.81-3.81 3.81 1.71 3.81 3.81-1.7 3.81-3.81 3.81zm0-5.62a1.81 1.81 0 1 0 0 3.62 1.81 1.81 0 0 0 0-3.62zM38.17 20.05c-2.1 0-3.81-1.71-3.81-3.81s1.71-3.81 3.81-3.81 3.81 1.71 3.81 3.81-1.71 3.81-3.81 3.81zm0-5.62a1.81 1.81 0 1 0 0 3.62 1.81 1.81 0 0 0 0-3.62zM38.17 35.57c-2.1 0-3.81-1.71-3.81-3.81s1.71-3.81 3.81-3.81 3.81 1.71 3.81 3.81-1.71 3.81-3.81 3.81zm0-5.62a1.81 1.81 0 1 0 0 3.62 1.81 1.81 0 0 0 0-3.62zM8.83 20.05c-2.1 0-3.81-1.71-3.81-3.81s1.71-3.81 3.81-3.81 3.81 1.71 3.81 3.81-1.7 3.81-3.81 3.81zm0-5.62a1.81 1.81 0 1 0 0 3.62 1.81 1.81 0 0 0 0-3.62zM24 10.91c-2.1 0-3.81-1.71-3.81-3.81S21.9 3.29 24 3.29 27.81 5 27.81 7.1 26.1 10.91 24 10.91zm0-5.62a1.81 1.81 0 1 0 0 3.62 1.81 1.81 0 0 0 0-3.62z"/>
    <path d="M24 37.09c-.55 0-1-.45-1-1v-2.9c0-.55.45-1 1-1s1 .45 1 1v2.9c0 .55-.45 1-1 1zM11.96 31.65a1.002 1.002 0 0 1-.5-1.87l2.41-1.39c.48-.28 1.09-.11 1.37.37s.11 1.09-.37 1.37l-2.41 1.39c-.16.08-.33.13-.5.13zM14.26 20.65c-.17 0-.34-.04-.49-.13l-2.21-1.25a1 1 0 0 1 .98-1.74l2.21 1.25a1 1 0 0 1-.49 1.87zM24 14.79c-.55 0-1-.45-1-1v-2.41c0-.55.45-1 1-1s1 .45 1 1v2.41c0 .56-.45 1-1 1zM34.49 31.17c-.17 0-.34-.04-.49-.13l-2.33-1.32a1 1 0 0 1 .98-1.74l2.33 1.32a1 1 0 0 1 .38 1.36c-.18.33-.52.51-.87.51zM32.23 20.04a1.002 1.002 0 0 1-.5-1.87l2.2-1.27c.48-.28 1.09-.11 1.37.37s.11 1.09-.37 1.37l-2.2 1.27c-.16.08-.33.13-.5.13zM23.66 25.7c-.83 0-1.46-.44-1.46-.84 0-.55-.45-1-1-1s-1 .45-1 1c0 1.3 1.02 2.36 2.46 2.71v.77c0 .55.45 1 1 1s1-.45 1-1v-.77c1.43-.35 2.46-1.41 2.46-2.71 0-1.48-1.25-2.56-3.26-2.83l-.13-.02c-.9-.12-1.53-.47-1.53-.84 0-.4.62-.84 1.46-.84.83 0 1.46.44 1.46.84 0 .55.45 1 1 1s1-.45 1-1c0-1.3-1.02-2.36-2.46-2.71v-.7c0-.55-.45-1-1-1s-1 .45-1 1v.7c-1.43.35-2.46 1.41-2.46 2.71 0 1.48 1.25 2.56 3.26 2.83l.13.02c.9.12 1.53.47 1.53.85 0 .39-.63.83-1.46.83z"/>
  </g>
</svg>