<svg xmlns="http://www.w3.org/2000/svg" id="prefix__Layer_1" x="0" y="0" height="48" width="48" view-box="0 0 48 48" enable-background="new 0 0 48 48" xml-space="preserve">
  <style>
    .prefix__st1 {
      fill: #0075be;
      stroke: #0075be;
      stroke-width: 0.65;
      stroke-miterlimit: 10;
    }
  </style>
  <path d="M38.2 41 24 34.7 9.8 41V9.5c0-1.4 1.1-2.5 2.5-2.5h23.4c1.4 0 2.5 1.1 2.5 2.5V41z" style="       fill: none;       stroke: #0075be;       stroke-width: 2;       stroke-linecap: round;       stroke-linejoin: round;       stroke-miterlimit: 10;     "/>
  <path class="prefix__st1" d="M24 25c-.1 0-.3 0-.4-.1l-10-5.1c-.3-.2-.4-.5-.3-.8.2-.3.5-.4.8-.3l9.9 5 9.9-5c.3-.2.7 0 .8.3.2.3 0 .7-.3.8l-10 5.1c-.1.1-.3.1-.4.1z"/>
  <path class="prefix__st1" d="M34.1 19.6c-.1 0-.2 0-.3-.1l-9.9-5-9.9 5c-.3.2-.7 0-.8-.3-.2-.3 0-.7.3-.8l10-5.1c.3-.1.6-.1.8 0l10 5.1c.3.2.4.5.3.8 0 .3-.2.4-.5.4z"/>
  <path class="prefix__st1" d="M15.5 20.9c-.3 0-.6-.2-.6-.5-.1-.3.2-.7.5-.7l8.2-1.5c.3-.1.7.2.7.5.1.3-.2.7-.5.7l-8.2 1.5h-.1zM18.4 26.3c-.3 0-.6-.3-.6-.6V22c0-.3.3-.6.6-.6s.6.3.6.6v3.7c0 .3-.3.6-.6.6z"/>
  <path class="prefix__st1" d="M24 28.8c-.3 0-.5-.1-.8-.2l-5-2.3c-.3-.1-.4-.5-.3-.8.1-.3.5-.4.8-.3l5 2.3c.2.1.4.1.5 0l4.7-2.2V22c0-.3.3-.6.6-.6s.6.3.6.6v3.8c0 .2-.1.4-.4.5l-5.1 2.4c-.1 0-.3.1-.6.1zM15.6 28.6c-.3 0-.6-.3-.6-.6v-7.7c0-.3.3-.6.6-.6s.6.3.6.6V28c0 .3-.3.6-.6.6z"/>
  <path class="prefix__st1" d="M15.6 31.7c-1.1 0-1.9-.9-1.9-1.9 0-1.1.9-1.9 1.9-1.9s1.9.9 1.9 1.9c0 1-.9 1.9-1.9 1.9zm0-2.6c-.4 0-.7.3-.7.7 0 .4.3.7.7.7.4 0 .7-.3.7-.7-.1-.4-.4-.7-.7-.7z"/>
</svg>