<svg xmlns="http://www.w3.org/2000/svg" width="48" height="48" view-box="0 0 48 48" fill="none">
  <path d="M24.7802 29.89C24.2279 29.89 23.7802 29.4423 23.7802 28.89C23.7802 28.3377 24.2279 27.89 24.7802 27.89H25.3101L25.6251 24.89H25.6202C25.0679 24.89 24.6202 24.4423 24.6202 23.89C24.6202 23.3377 25.0679 22.89 25.6202 22.89L26.7042 22.8901C26.7152 22.8897 26.7262 22.8895 26.7372 22.8895L32.1131 22.89L32.1325 22.8895C32.1372 22.8895 32.1419 22.8896 32.1467 22.8897L40.6202 22.89L40.6131 20.58H26.2502C25.6979 20.58 25.2502 20.1323 25.2502 19.58C25.2502 19.0277 25.6979 18.58 26.2502 18.58H40.6061L40.5702 6.95H18.2202V11.42C18.2202 11.9723 17.7725 12.42 17.2202 12.42C16.6679 12.42 16.2202 11.9723 16.2202 11.42V6.95C16.2473 5.86501 17.1349 4.99966 18.2202 5H40.6202C41.7052 5.02713 42.5705 5.91467 42.5702 7V22.89C42.5705 23.9753 41.7052 24.8629 40.6202 24.89H33.2391L33.5641 27.89H34.1202C34.6725 27.89 35.1202 28.3377 35.1202 28.89C35.1202 29.4423 34.6725 29.89 34.1202 29.89H24.7802ZM31.2141 24.89H27.6441L27.3202 27.89H31.5302L31.2141 24.89ZM29.4202 21.03C29.8013 21.03 30.1102 21.3479 30.1102 21.74C30.1102 22.1321 29.8013 22.45 29.4202 22.45C29.0391 22.45 28.7302 22.1321 28.7302 21.74C28.7302 21.3479 29.0391 21.03 29.4202 21.03ZM28.0002 40.78H6.0002C5.44791 40.78 5.0001 40.3323 5.0001 39.78V38.66C4.9891 36.9908 5.90084 35.452 7.3702 34.66L11.8802 32.23C12.3062 31.9985 12.5739 31.5548 12.5802 31.07V29.44L12.4902 29.32L12.1602 28.89L11.9902 28.63C11.992 28.6 11.992 28.57 11.9902 28.54C11.9002 28.4 11.7702 28.16 11.6402 27.9C11.5102 27.64 11.4902 27.61 11.4202 27.45L11.3102 27.19C11.2997 27.1508 11.2828 27.1137 11.2602 27.08L11.1802 26.86C11.1202 26.71 11.0702 26.55 11.0202 26.39V26.29C11.0202 26.15 10.9402 26.02 10.9102 25.89C10.4327 25.5127 10.153 24.9385 10.1502 24.33V22.33C10.1537 21.8426 10.335 21.3731 10.6602 21.01V18.23C10.6602 18.23 10.6602 18.15 10.6602 18.11C10.6156 16.9803 11.0016 15.8759 11.7402 15.02C12.7402 13.84 14.4502 13.25 16.7402 13.25H17.5202C19.8002 13.25 21.5202 13.84 22.5202 15.01C23.2567 15.8705 23.6392 16.9784 23.5902 18.11C23.5902 18.11 23.5902 18.19 23.5902 18.23V20.94C23.9118 21.3046 24.0895 21.7739 24.0902 22.26V24.26C24.0874 24.8685 23.8077 25.4427 23.3302 25.82C23.3302 25.94 23.2702 26.06 23.2302 26.18V26.32C23.1802 26.48 23.1202 26.64 23.0602 26.8L22.9802 27.02L22.9302 27.12L22.8502 27.33L22.6102 27.82C22.4702 28.0933 22.3402 28.3333 22.2202 28.54L22.0302 28.83C21.9102 29.02 21.8002 29.17 21.7202 29.29L21.6402 29.41V31.07C21.6465 31.5548 21.9142 31.9985 22.3402 32.23L26.8502 34.66C28.325 35.4476 29.2416 36.9881 29.2302 38.66V39.78C29.2385 40.0903 29.1023 40.387 28.8614 40.5828C28.6205 40.7787 28.3023 40.8515 28.0002 40.78ZM7.0002 38.78H27.0002V38.66C26.9982 37.7345 26.4871 36.8851 25.6702 36.45L21.1602 34.02C20.0874 33.4393 19.4165 32.3199 19.4102 31.1V29.1C19.4125 28.8651 19.4975 28.6385 19.6502 28.46L19.7502 28.34C19.7502 28.34 19.7502 28.29 19.8202 28.26L19.9002 28.15L20.1302 27.81L20.2702 27.58C20.3937 27.3859 20.5072 27.1857 20.6102 26.98C20.6602 26.87 20.7202 26.75 20.7702 26.63L20.9702 26.15C21.0202 26.02 21.0602 25.9 21.1002 25.77V25.65C21.144 25.5187 21.1808 25.3852 21.2102 25.25L21.2602 25.05C21.3171 24.7951 21.4714 24.5726 21.6902 24.43L21.8702 24.32V22.32L21.7802 22.12C21.5681 21.9286 21.448 21.6557 21.4502 21.37V18.08C21.4452 18.0201 21.4452 17.9599 21.4502 17.9C21.451 17.3289 21.249 16.776 20.8802 16.34C20.2402 15.62 19.0602 15.25 17.3802 15.25H16.6002C14.9202 15.25 13.7402 15.62 13.1002 16.34C12.7351 16.7743 12.5334 17.3226 12.5302 17.89C12.5351 17.9499 12.5351 18.0101 12.5302 18.07V21.36C12.5298 21.6472 12.406 21.9204 12.1902 22.11L12.0202 22.26V24.26L12.2002 24.37C12.4228 24.5107 12.5809 24.7335 12.6402 24.99V25.18L12.7602 25.61V25.71C12.7602 25.84 12.8502 25.97 12.8902 26.09L12.9502 26.24V26.33L13.0202 26.5C13.1102 26.69 13.1602 26.82 13.2202 26.93C13.2802 27.04 13.4402 27.33 13.5402 27.5L13.6802 27.73C13.7702 27.87 13.8502 27.98 13.9202 28.07L13.9902 28.17L14.1102 28.32C14.2629 28.4985 14.3479 28.7251 14.3502 28.96V30.96C14.4326 32.1918 13.8288 33.3685 12.7802 34.02L8.3102 36.45C7.49875 36.8894 6.99238 37.7372 6.9902 38.66L7.0002 38.78Z" fill="#CCE4F3"/>
</svg>